<?xml version="1.0" standalone="no"?>
<svg width="567.429" height="409.712" viewBox="0 0 567.429 409.712" xmlns="http://www.w3.org/2000/svg" shape-rendering="crispEdges">
<title>
pic_fitInclusive4600.svg
</title>
<desc>
Creator: ROOT Version 6.20/06
CreationDate: Thu Apr 15 13:17:30 2021</desc>
<defs>
</defs>
<rect x="0.5" y="0" width="566.929" height="409.212" fill="white"/>
<rect x="57.1929" y="40.9212" width="453.543" height="327.37" fill="white"/>
<rect x="57.1929" y="40.9212" width="453.543" height="327.37" fill="none" stroke="black"/>
<rect x="57.1929" y="40.9212" width="453.543" height="327.37" fill="white"/>
<rect x="57.1929" y="40.9212" width="453.543" height="327.37" fill="none" stroke="black"/>
<path d="M57.1929,368.291h 453.543" fill="none" stroke="black"/>
<path d="M57.1929,358.47v 9.82109" fill="none" stroke="black"/>
<path d="M66.2638,363.38v 4.91054" fill="none" stroke="black"/>
<path d="M75.3346,363.38v 4.91054" fill="none" stroke="black"/>
<path d="M84.4055,363.38v 4.91054" fill="none" stroke="black"/>
<path d="M93.4764,363.38v 4.91054" fill="none" stroke="black"/>
<path d="M102.547,358.47v 9.82109" fill="none" stroke="black"/>
<path d="M111.618,363.38v 4.91054" fill="none" stroke="black"/>
<path d="M120.689,363.38v 4.91054" fill="none" stroke="black"/>
<path d="M129.76,363.38v 4.91054" fill="none" stroke="black"/>
<path d="M138.831,363.38v 4.91054" fill="none" stroke="black"/>
<path d="M147.902,358.47v 9.82109" fill="none" stroke="black"/>
<path d="M156.972,363.38v 4.91054" fill="none" stroke="black"/>
<path d="M166.043,363.38v 4.91054" fill="none" stroke="black"/>
<path d="M175.114,363.38v 4.91054" fill="none" stroke="black"/>
<path d="M184.185,363.38v 4.91054" fill="none" stroke="black"/>
<path d="M193.256,358.47v 9.82109" fill="none" stroke="black"/>
<path d="M202.327,363.38v 4.91054" fill="none" stroke="black"/>
<path d="M211.398,363.38v 4.91054" fill="none" stroke="black"/>
<path d="M220.469,363.38v 4.91054" fill="none" stroke="black"/>
<path d="M229.539,363.38v 4.91054" fill="none" stroke="black"/>
<path d="M238.61,358.47v 9.82109" fill="none" stroke="black"/>
<path d="M247.681,363.38v 4.91054" fill="none" stroke="black"/>
<path d="M256.752,363.38v 4.91054" fill="none" stroke="black"/>
<path d="M265.823,363.38v 4.91054" fill="none" stroke="black"/>
<path d="M274.894,363.38v 4.91054" fill="none" stroke="black"/>
<path d="M283.965,358.47v 9.82109" fill="none" stroke="black"/>
<path d="M293.035,363.38v 4.91054" fill="none" stroke="black"/>
<path d="M302.106,363.38v 4.91054" fill="none" stroke="black"/>
<path d="M311.177,363.38v 4.91054" fill="none" stroke="black"/>
<path d="M320.248,363.38v 4.91054" fill="none" stroke="black"/>
<path d="M329.319,358.47v 9.82109" fill="none" stroke="black"/>
<path d="M338.39,363.38v 4.91054" fill="none" stroke="black"/>
<path d="M347.461,363.38v 4.91054" fill="none" stroke="black"/>
<path d="M356.531,363.38v 4.91054" fill="none" stroke="black"/>
<path d="M365.602,363.38v 4.91054" fill="none" stroke="black"/>
<path d="M374.673,358.47v 9.82109" fill="none" stroke="black"/>
<path d="M383.744,363.38v 4.91054" fill="none" stroke="black"/>
<path d="M392.815,363.38v 4.91054" fill="none" stroke="black"/>
<path d="M401.886,363.38v 4.91054" fill="none" stroke="black"/>
<path d="M410.957,363.38v 4.91054" fill="none" stroke="black"/>
<path d="M420.028,358.47v 9.82109" fill="none" stroke="black"/>
<path d="M429.098,363.38v 4.91054" fill="none" stroke="black"/>
<path d="M438.169,363.38v 4.91054" fill="none" stroke="black"/>
<path d="M447.24,363.38v 4.91054" fill="none" stroke="black"/>
<path d="M456.311,363.38v 4.91054" fill="none" stroke="black"/>
<path d="M465.382,358.47v 9.82109" fill="none" stroke="black"/>
<path d="M474.453,363.38v 4.91054" fill="none" stroke="black"/>
<path d="M483.524,363.38v 4.91054" fill="none" stroke="black"/>
<path d="M492.594,363.38v 4.91054" fill="none" stroke="black"/>
<path d="M501.665,363.38v 4.91054" fill="none" stroke="black"/>
<path d="M510.736,358.47v 9.82109" fill="none" stroke="black"/>
<path d="M510.736,358.47v 9.82109" fill="none" stroke="black"/>
<text xml:space="preserve" x="43.8367" y="381.505" fill="black" font-size="13.6398" font-family="Helvetica">2.25</text>
<text xml:space="preserve" x="85.0421" y="381.505" fill="black" font-size="13.6398" font-family="Helvetica">2.255</text>
<text xml:space="preserve" x="134.773" y="381.505" fill="black" font-size="13.6398" font-family="Helvetica">2.26</text>
<text xml:space="preserve" x="175.978" y="381.505" fill="black" font-size="13.6398" font-family="Helvetica">2.265</text>
<text xml:space="preserve" x="225.709" y="381.505" fill="black" font-size="13.6398" font-family="Helvetica">2.27</text>
<text xml:space="preserve" x="266.914" y="381.505" fill="black" font-size="13.6398" font-family="Helvetica">2.275</text>
<text xml:space="preserve" x="315.934" y="381.505" fill="black" font-size="13.6398" font-family="Helvetica">2.28</text>
<text xml:space="preserve" x="357.14" y="381.505" fill="black" font-size="13.6398" font-family="Helvetica">2.285</text>
<text xml:space="preserve" x="406.87" y="381.505" fill="black" font-size="13.6398" font-family="Helvetica">2.29</text>
<text xml:space="preserve" x="448.076" y="381.505" fill="black" font-size="13.6398" font-family="Helvetica">2.295</text>
<text xml:space="preserve" x="501.358" y="381.505" fill="black" font-size="13.6398" font-family="Helvetica">2.3</text>
<text xml:space="preserve" x="507.042" y="395.714" fill="black" font-size="13.6398" font-family="Helvetica">)</text>
<text xml:space="preserve" x="502.069" y="389.32" fill="black" font-size="9.25989" font-family="Helvetica">2</text>
<text xml:space="preserve" x="457.311" y="395.714" fill="black" font-size="13.6398" font-family="Helvetica"> (GeV/c</text>
<text xml:space="preserve" x="444.523" y="399.976" fill="black" font-size="9.25989" font-family="Helvetica">BC</text>
<text xml:space="preserve" x="433.867" y="395.714" fill="black" font-size="13.6398" font-family="Helvetica">M</text>
<path d="M57.1929,368.291v -327.37" fill="none" stroke="black"/>
<path d="M70.7992,368.291h -13.6063" fill="none" stroke="black"/>
<path d="M63.9961,357.916h -6.80315" fill="none" stroke="black"/>
<path d="M63.9961,347.541h -6.80315" fill="none" stroke="black"/>
<path d="M63.9961,337.167h -6.80315" fill="none" stroke="black"/>
<path d="M63.9961,326.792h -6.80315" fill="none" stroke="black"/>
<path d="M70.7992,316.417h -13.6063" fill="none" stroke="black"/>
<path d="M63.9961,306.042h -6.80315" fill="none" stroke="black"/>
<path d="M63.9961,295.668h -6.80315" fill="none" stroke="black"/>
<path d="M63.9961,285.293h -6.80315" fill="none" stroke="black"/>
<path d="M63.9961,274.918h -6.80315" fill="none" stroke="black"/>
<path d="M70.7992,264.544h -13.6063" fill="none" stroke="black"/>
<path d="M63.9961,254.169h -6.80315" fill="none" stroke="black"/>
<path d="M63.9961,243.794h -6.80315" fill="none" stroke="black"/>
<path d="M63.9961,233.419h -6.80315" fill="none" stroke="black"/>
<path d="M63.9961,223.045h -6.80315" fill="none" stroke="black"/>
<path d="M70.7992,212.67h -13.6063" fill="none" stroke="black"/>
<path d="M63.9961,202.295h -6.80315" fill="none" stroke="black"/>
<path d="M63.9961,191.921h -6.80315" fill="none" stroke="black"/>
<path d="M63.9961,181.546h -6.80315" fill="none" stroke="black"/>
<path d="M63.9961,171.171h -6.80315" fill="none" stroke="black"/>
<path d="M70.7992,160.796h -13.6063" fill="none" stroke="black"/>
<path d="M63.9961,150.422h -6.80315" fill="none" stroke="black"/>
<path d="M63.9961,140.047h -6.80315" fill="none" stroke="black"/>
<path d="M63.9961,129.672h -6.80315" fill="none" stroke="black"/>
<path d="M63.9961,119.297h -6.80315" fill="none" stroke="black"/>
<path d="M70.7992,108.923h -13.6063" fill="none" stroke="black"/>
<path d="M63.9961,98.548h -6.80315" fill="none" stroke="black"/>
<path d="M63.9961,88.1733h -6.80315" fill="none" stroke="black"/>
<path d="M63.9961,77.7986h -6.80315" fill="none" stroke="black"/>
<path d="M63.9961,67.4239h -6.80315" fill="none" stroke="black"/>
<path d="M70.7992,57.0491h -13.6063" fill="none" stroke="black"/>
<path d="M70.7992,57.0491h -13.6063" fill="none" stroke="black"/>
<path d="M63.9961,46.6744h -6.80315" fill="none" stroke="black"/>
<text xml:space="preserve" x="46.6784" y="372.98" fill="black" font-size="13.6398" font-family="Helvetica">0</text>
<text xml:space="preserve" x="38.8636" y="321.118" fill="black" font-size="13.6398" font-family="Helvetica">10</text>
<text xml:space="preserve" x="38.8636" y="269.256" fill="black" font-size="13.6398" font-family="Helvetica">20</text>
<text xml:space="preserve" x="38.8636" y="217.394" fill="black" font-size="13.6398" font-family="Helvetica">30</text>
<text xml:space="preserve" x="38.8636" y="165.532" fill="black" font-size="13.6398" font-family="Helvetica">40</text>
<text xml:space="preserve" x="38.8636" y="113.67" fill="black" font-size="13.6398" font-family="Helvetica">50</text>
<text xml:space="preserve" x="38.8636" y="61.8081" fill="black" font-size="13.6398" font-family="Helvetica">60</text>
<g transform="rotate(-90,26.7862,44.0471)">
<text xml:space="preserve" x="26.7862" y="44.0471" fill="black" font-size="13.6398" font-family="Helvetica">)</text>
</g>
<g transform="rotate(-90,21.1027,49.0202)">
<text xml:space="preserve" x="21.1027" y="49.0202" fill="black" font-size="9.25989" font-family="Helvetica">2</text>
</g>
<g transform="rotate(-90,26.7862,163.401)">
<text xml:space="preserve" x="26.7862" y="163.401" fill="black" font-size="13.6398" font-family="Helvetica">Events/(  2.0 MeV/c</text>
</g>
<path d="M75.1877,259.356h -17.9948" fill="none" stroke="black" stroke-width="2"/>
<path d="M57.1929,260.777v -2.84175" fill="none" stroke="black" stroke-width="2"/>
<path d="M75.1877,259.356h 17.9948" fill="none" stroke="black" stroke-width="2"/>
<path d="M93.1825,260.777v -2.84175" fill="none" stroke="black" stroke-width="2"/>
<path d="M75.1877,259.356v -29.3355" fill="none" stroke="black" stroke-width="2"/>
<path d="M73.7668,230.021h 2.84175" fill="none" stroke="black" stroke-width="2"/>
<path d="M75.1877,259.356v 23.5807" fill="none" stroke="black" stroke-width="2"/>
<path d="M73.7668,282.937h 2.84175" fill="none" stroke="black" stroke-width="2"/>
<path d="M111.177,295.668h -17.9948" fill="none" stroke="black" stroke-width="2"/>
<path d="M93.1825,297.089v -2.84175" fill="none" stroke="black" stroke-width="2"/>
<path d="M111.177,295.668h 17.9948" fill="none" stroke="black" stroke-width="2"/>
<path d="M129.172,297.089v -2.84175" fill="none" stroke="black" stroke-width="2"/>
<path d="M111.177,295.668v -25.0569" fill="none" stroke="black" stroke-width="2"/>
<path d="M109.756,270.611h 2.84175" fill="none" stroke="black" stroke-width="2"/>
<path d="M111.177,295.668v 19.1751" fill="none" stroke="black" stroke-width="2"/>
<path d="M109.756,314.843h 2.84175" fill="none" stroke="black" stroke-width="2"/>
<path d="M147.167,274.918h -17.9948" fill="none" stroke="black" stroke-width="2"/>
<path d="M129.172,276.339v -2.84175" fill="none" stroke="black" stroke-width="2"/>
<path d="M147.167,274.918h 17.9948" fill="none" stroke="black" stroke-width="2"/>
<path d="M165.162,276.339v -2.84175" fill="none" stroke="black" stroke-width="2"/>
<path d="M147.167,274.918v -27.602" fill="none" stroke="black" stroke-width="2"/>
<path d="M145.746,247.316h 2.84175" fill="none" stroke="black" stroke-width="2"/>
<path d="M147.167,274.918v 21.8019" fill="none" stroke="black" stroke-width="2"/>
<path d="M145.746,296.72h 2.84175" fill="none" stroke="black" stroke-width="2"/>
<path d="M183.156,259.356h -17.9948" fill="none" stroke="black" stroke-width="2"/>
<path d="M165.162,260.777v -2.84175" fill="none" stroke="black" stroke-width="2"/>
<path d="M183.156,259.356h 17.9948" fill="none" stroke="black" stroke-width="2"/>
<path d="M201.151,260.777v -2.84175" fill="none" stroke="black" stroke-width="2"/>
<path d="M183.156,259.356v -29.3355" fill="none" stroke="black" stroke-width="2"/>
<path d="M181.736,230.021h 2.84175" fill="none" stroke="black" stroke-width="2"/>
<path d="M183.156,259.356v 23.5807" fill="none" stroke="black" stroke-width="2"/>
<path d="M181.736,282.937h 2.84175" fill="none" stroke="black" stroke-width="2"/>
<path d="M219.146,295.668h -17.9948" fill="none" stroke="black" stroke-width="2"/>
<path d="M201.151,297.089v -2.84175" fill="none" stroke="black" stroke-width="2"/>
<path d="M219.146,295.668h 17.9948" fill="none" stroke="black" stroke-width="2"/>
<path d="M237.141,297.089v -2.84175" fill="none" stroke="black" stroke-width="2"/>
<path d="M219.146,295.668v -25.0569" fill="none" stroke="black" stroke-width="2"/>
<path d="M217.725,270.611h 2.84175" fill="none" stroke="black" stroke-width="2"/>
<path d="M219.146,295.668v 19.1751" fill="none" stroke="black" stroke-width="2"/>
<path d="M217.725,314.843h 2.84175" fill="none" stroke="black" stroke-width="2"/>
<path d="M255.136,290.48h -17.9948" fill="none" stroke="black" stroke-width="2"/>
<path d="M237.141,291.901v -2.84175" fill="none" stroke="black" stroke-width="2"/>
<path d="M255.136,290.48h 17.9948" fill="none" stroke="black" stroke-width="2"/>
<path d="M273.13,291.901v -2.84175" fill="none" stroke="black" stroke-width="2"/>
<path d="M255.136,290.48v -25.7228" fill="none" stroke="black" stroke-width="2"/>
<path d="M253.715,264.758h 2.84175" fill="none" stroke="black" stroke-width="2"/>
<path d="M255.136,290.48v 19.8644" fill="none" stroke="black" stroke-width="2"/>
<path d="M253.715,310.345h 2.84175" fill="none" stroke="black" stroke-width="2"/>
<path d="M291.125,248.981h -17.9948" fill="none" stroke="black" stroke-width="2"/>
<path d="M273.13,250.402v -2.84175" fill="none" stroke="black" stroke-width="2"/>
<path d="M291.125,248.981h 17.9948" fill="none" stroke="black" stroke-width="2"/>
<path d="M309.12,250.402v -2.84175" fill="none" stroke="black" stroke-width="2"/>
<path d="M291.125,248.981v -30.4251" fill="none" stroke="black" stroke-width="2"/>
<path d="M289.704,218.556h 2.84175" fill="none" stroke="black" stroke-width="2"/>
<path d="M291.125,248.981v 24.6956" fill="none" stroke="black" stroke-width="2"/>
<path d="M289.704,273.677h 2.84175" fill="none" stroke="black" stroke-width="2"/>
<path d="M327.115,259.356h -17.9948" fill="none" stroke="black" stroke-width="2"/>
<path d="M309.12,260.777v -2.84175" fill="none" stroke="black" stroke-width="2"/>
<path d="M327.115,259.356h 17.9948" fill="none" stroke="black" stroke-width="2"/>
<path d="M345.109,260.777v -2.84175" fill="none" stroke="black" stroke-width="2"/>
<path d="M327.115,259.356v -29.3355" fill="none" stroke="black" stroke-width="2"/>
<path d="M325.694,230.021h 2.84175" fill="none" stroke="black" stroke-width="2"/>
<path d="M327.115,259.356v 23.5807" fill="none" stroke="black" stroke-width="2"/>
<path d="M325.694,282.937h 2.84175" fill="none" stroke="black" stroke-width="2"/>
<path d="M363.104,181.546h -17.9948" fill="none" stroke="black" stroke-width="2"/>
<path d="M345.109,182.967v -2.84175" fill="none" stroke="black" stroke-width="2"/>
<path d="M363.104,181.546h 17.9948" fill="none" stroke="black" stroke-width="2"/>
<path d="M381.099,182.967v -2.84175" fill="none" stroke="black" stroke-width="2"/>
<path d="M363.104,181.546v -36.5997" fill="none" stroke="black" stroke-width="2"/>
<path d="M361.683,144.946h 2.84175" fill="none" stroke="black" stroke-width="2"/>
<path d="M363.104,181.546v 30.9789" fill="none" stroke="black" stroke-width="2"/>
<path d="M361.683,212.525h 2.84175" fill="none" stroke="black" stroke-width="2"/>
<path d="M399.094,165.984h -17.9948" fill="none" stroke="black" stroke-width="2"/>
<path d="M381.099,167.405v -2.84175" fill="none" stroke="black" stroke-width="2"/>
<path d="M399.094,165.984h 17.9948" fill="none" stroke="black" stroke-width="2"/>
<path d="M417.089,167.405v -2.84175" fill="none" stroke="black" stroke-width="2"/>
<path d="M399.094,165.984v -37.8593" fill="none" stroke="black" stroke-width="2"/>
<path d="M397.673,128.124h 2.84175" fill="none" stroke="black" stroke-width="2"/>
<path d="M399.094,165.984v 32.2555" fill="none" stroke="black" stroke-width="2"/>
<path d="M397.673,198.239h 2.84175" fill="none" stroke="black" stroke-width="2"/>
<path d="M435.083,290.48h -17.9948" fill="none" stroke="black" stroke-width="2"/>
<path d="M417.089,291.901v -2.84175" fill="none" stroke="black" stroke-width="2"/>
<path d="M435.083,290.48h 17.9948" fill="none" stroke="black" stroke-width="2"/>
<path d="M453.078,291.901v -2.84175" fill="none" stroke="black" stroke-width="2"/>
<path d="M435.083,290.48v -25.7228" fill="none" stroke="black" stroke-width="2"/>
<path d="M433.663,264.758h 2.84175" fill="none" stroke="black" stroke-width="2"/>
<path d="M435.083,290.48v 19.8644" fill="none" stroke="black" stroke-width="2"/>
<path d="M433.663,310.345h 2.84175" fill="none" stroke="black" stroke-width="2"/>
<path d="M471.073,285.293h -17.9948" fill="none" stroke="black" stroke-width="2"/>
<path d="M453.078,286.714v -2.84175" fill="none" stroke="black" stroke-width="2"/>
<path d="M471.073,285.293h 17.9948" fill="none" stroke="black" stroke-width="2"/>
<path d="M489.068,286.714v -2.84175" fill="none" stroke="black" stroke-width="2"/>
<path d="M471.073,285.293v -26.3677" fill="none" stroke="black" stroke-width="2"/>
<path d="M469.652,258.925h 2.84175" fill="none" stroke="black" stroke-width="2"/>
<path d="M471.073,285.293v 20.5305" fill="none" stroke="black" stroke-width="2"/>
<path d="M469.652,305.824h 2.84175" fill="none" stroke="black" stroke-width="2"/>
<path d="M507.063,347.541h -17.9948" fill="none" stroke="black" stroke-width="2"/>
<path d="M489.068,348.962v -2.84175" fill="none" stroke="black" stroke-width="2"/>
<path d="M507.063,347.541h 3.6737" fill="none" stroke="black" stroke-width="2"/>
<path d="M507.063,347.541v -16.4063" fill="none" stroke="black" stroke-width="2"/>
<path d="M505.642,331.135h 2.84175" fill="none" stroke="black" stroke-width="2"/>
<path d="M507.063,347.541v 9.93037" fill="none" stroke="black" stroke-width="2"/>
<path d="M505.642,357.472h 2.84175" fill="none" stroke="black" stroke-width="2"/>
<g fill="black">
<circle cx="75.1877" cy="259.356" r="2.84175"/>
<circle cx="111.177" cy="295.668" r="2.84175"/>
<circle cx="147.167" cy="274.918" r="2.84175"/>
<circle cx="183.156" cy="259.356" r="2.84175"/>
<circle cx="219.146" cy="295.668" r="2.84175"/>
<circle cx="255.136" cy="290.48" r="2.84175"/>
<circle cx="291.125" cy="248.981" r="2.84175"/>
<circle cx="327.115" cy="259.356" r="2.84175"/>
<circle cx="363.104" cy="181.546" r="2.84175"/>
<circle cx="399.094" cy="165.984" r="2.84175"/>
<circle cx="435.083" cy="290.48" r="2.84175"/>
<circle cx="471.073" cy="285.293" r="2.84175"/>
<circle cx="507.063" cy="347.541" r="2.84175"/>
</g>
<path d="M57.1929,293.045z" fill="none" stroke="#ff0000" stroke-width="6"/>
<path d="M57.1929,293.045l 22.6772, -4.04474l 22.6772, -4.01609l 22.6772, -3.91148l 22.6772, -3.77096l 22.6772, -3.60706l 22.6772, -3.33277l 22.6772, -2.91919l 22.6772, -2.54317l 22.6772, -1.91096l 22.6772, -1.42639l 22.6772, -0.593702l 11.3386,
 -0.0798518l 11.3386, -0.804263l 5.66929, -1.21513l 5.66929, -2.43632l 2.83465, -2.06301l 2.83465, -3.06554l 2.83465, -4.41106l 2.83465, -5.97215l 1.41732, -3.7496l 1.41732, -4.44648l 1.41732, -5.31935l 1.41732, -6.31882l 1.41732, -7.37989l 1.41732,
 -8.26177l 2.83465, -18.2832l 1.41732, -10.0911l 1.41732, -11.0232l 2.83465, -23.6517l 1.41732, -11.8782l 1.41732, -12.6878l 1.41732, -12.7601l 0.708661, -5.50171l 0.708661, -4.668l 2.83465, -15.9651l 1.41732, -7.28484l 1.41732, -4.97991l 2.83465,
 -7.84288l 0.708661, -1.50781l 0.708661, -0.809595l 0.708661, 0.191069l 0.708661, 1.23393l 2.83465, 10.0341l 0.708661, 2.97049l 0.708661, 3.86818l 0.708661, 4.66888l 0.708661, 5.32741l 2.83465, 21.7073l 1.41732, 12.7194l 1.41732, 13.5372l 1.41732,
 12.5018l 1.41732, 11.7126l 2.83465, 23.4909l 1.41732, 11.3128l 1.41732, 10.3076l 1.41732, 9.16697l 1.41732, 8.16371l 1.41732, 7.32102l 1.41732, 6.52814l 1.41732, 5.82281l 1.41732, 5.22767l 2.83465, 9.12808l 2.83465, 7.58645l 2.83465, 5.80471l
 2.83465, 4.35216l 5.66929, 7.1131l 5.66929, 6.3541l 5.66929, 5.39072l 11.3386, 10.4557l 11.3386, 11.4379l 11.3386, 11.7109l 5.66929, 6.57949l 5.66929, 7.38894l 11.3386, 16.3098l 5.66929, 8.24888l 2.83465, 4.08432l 0.708661, 1.01083l 0.708661,
 0.0894472l 1.41732, 0.159886" fill="none" stroke="#ff0000" stroke-width="6"/>
<path d="M57.1929,368.088z" fill="none" stroke="#0000ff" stroke-width="6" stroke-dasharray=" 3, 3"/>
<path d="M57.1929,368.088l 22.6772, -0.122729l 22.6772, -0.112409l 22.6772, -0.0764834l 22.6772, -0.0659008l 22.6772, -0.105916l 22.6772, -0.124336l 22.6772, -0.109477l 22.6772, -0.258172l 22.6772, -0.299801l 22.6772, -0.664935l 22.6772, -0.888759l
 11.3386, -0.697803l 5.66929, -0.660424l 5.66929, -1.11991l 5.66929, -1.84884l 2.83465, -1.36417l 2.83465, -1.80941l 2.83465, -2.47204l 2.83465, -3.50237l 1.41732, -2.25457l 1.41732, -2.62178l 1.41732, -3.01172l 1.41732, -3.45487l 1.41732, -4.00796l
 1.41732, -4.71239l 1.41732, -5.59289l 1.41732, -6.60007l 1.41732, -7.66896l 1.41732, -8.55874l 1.41732, -9.18484l 1.41732, -9.71634l 1.41732, -10.4123l 1.41732, -11.3527l 2.83465, -24.3359l 1.41732, -12.2331l 1.41732, -13.0513l 1.41732, -13.1324l
 0.708661, -5.69119l 0.708661, -4.8597l 2.83465, -16.7544l 0.708661, -4.1135l 0.708661, -3.5797l 0.708661, -2.9271l 0.708661, -2.47044l 2.83465, -8.70636l 0.708661, -1.72964l 0.708661, -1.03383l 0.708661, -0.0355903l 0.708661, 1.00483l 1.41732,
 4.2836l 1.41732, 4.80948l 0.708661, 2.72901l 0.708661, 3.62417l 0.708661, 4.42235l 0.708661, 5.07833l 2.83465, 20.6852l 0.708661, 5.88198l 0.708661, 6.31076l 1.41732, 13l 1.41732, 11.9538l 1.41732, 11.1538l 2.83465, 22.3403l 1.41732, 10.7208l
 1.41732, 9.7043l 1.41732, 8.55223l 1.41732, 7.53741l 1.41732, 6.68304l 1.41732, 5.87835l 1.41732, 5.16109l 1.41732, 4.55387l 1.41732, 4.06799l 1.41732, 3.67578l 1.41732, 3.29284l 1.41732, 2.85944l 1.41732, 2.38708l 1.41732, 1.93252l 2.83465,
 2.81502l 5.66929, 3.87822l 5.66929, 2.89737l 5.66929, 1.70257l 22.6772, 4.62295l 11.3386, 1.41108l 5.66929, 0.972218l 5.66929, 1.45986l 11.3386, 3.43276l 5.66929, 1.27296l 5.66929, 0.801074" fill="none" stroke="#0000ff" stroke-width="6"
 stroke-dasharray=" 3, 3"/>
<path d="M57.1929,293.248z" fill="none" stroke="#00ff00" stroke-width="6" stroke-dasharray=" 3, 3"/>
<path d="M57.1929,293.248l 22.6772, -3.92201l 22.6772, -3.90368l 22.6772, -3.835l 22.6772, -3.70506l 22.6772, -3.50115l 22.6772, -3.20844l 22.6772, -2.80971l 22.6772, -2.285l 22.6772, -1.61116l 11.3386, -0.499087l 11.3386, -0.262363l 11.3386,
 0.00120752l 11.3386, 0.29385l 11.3386, 0.617951l 11.3386, 0.976075l 11.3386, 1.37097l 11.3386, 1.80559l 11.3386, 2.28311l 11.3386, 2.80691l 11.3386, 3.38063l 11.3386, 4.00818l 11.3386, 4.69374l 11.3386, 5.44178l 5.66929, 3.02224l 5.66929, 3.23488l
 5.66929, 3.45673l 5.66929, 3.68815l 5.66929, 3.92948l 5.66929, 4.1811l 5.66929, 4.44338l 5.66929, 4.71673l 5.66929, 5.00154l 5.66929, 5.29824l 5.66929, 5.60727l 5.66929, 5.92908l 5.66929, 6.26413l 5.66929, 6.61291l 5.66929, 6.97592l 2.83465,
 3.62867l 0.708661, 0.914743h 2.12598" fill="none" stroke="#00ff00" stroke-width="6" stroke-dasharray=" 3, 3"/>
<path d="M57.1929,368.291h 453.543" fill="none" stroke="black"/>
<path d="M57.1929,358.47v 9.82109" fill="none" stroke="black"/>
<path d="M66.2638,363.38v 4.91054" fill="none" stroke="black"/>
<path d="M75.3346,363.38v 4.91054" fill="none" stroke="black"/>
<path d="M84.4055,363.38v 4.91054" fill="none" stroke="black"/>
<path d="M93.4764,363.38v 4.91054" fill="none" stroke="black"/>
<path d="M102.547,358.47v 9.82109" fill="none" stroke="black"/>
<path d="M111.618,363.38v 4.91054" fill="none" stroke="black"/>
<path d="M120.689,363.38v 4.91054" fill="none" stroke="black"/>
<path d="M129.76,363.38v 4.91054" fill="none" stroke="black"/>
<path d="M138.831,363.38v 4.91054" fill="none" stroke="black"/>
<path d="M147.902,358.47v 9.82109" fill="none" stroke="black"/>
<path d="M156.972,363.38v 4.91054" fill="none" stroke="black"/>
<path d="M166.043,363.38v 4.91054" fill="none" stroke="black"/>
<path d="M175.114,363.38v 4.91054" fill="none" stroke="black"/>
<path d="M184.185,363.38v 4.91054" fill="none" stroke="black"/>
<path d="M193.256,358.47v 9.82109" fill="none" stroke="black"/>
<path d="M202.327,363.38v 4.91054" fill="none" stroke="black"/>
<path d="M211.398,363.38v 4.91054" fill="none" stroke="black"/>
<path d="M220.469,363.38v 4.91054" fill="none" stroke="black"/>
<path d="M229.539,363.38v 4.91054" fill="none" stroke="black"/>
<path d="M238.61,358.47v 9.82109" fill="none" stroke="black"/>
<path d="M247.681,363.38v 4.91054" fill="none" stroke="black"/>
<path d="M256.752,363.38v 4.91054" fill="none" stroke="black"/>
<path d="M265.823,363.38v 4.91054" fill="none" stroke="black"/>
<path d="M274.894,363.38v 4.91054" fill="none" stroke="black"/>
<path d="M283.965,358.47v 9.82109" fill="none" stroke="black"/>
<path d="M293.035,363.38v 4.91054" fill="none" stroke="black"/>
<path d="M302.106,363.38v 4.91054" fill="none" stroke="black"/>
<path d="M311.177,363.38v 4.91054" fill="none" stroke="black"/>
<path d="M320.248,363.38v 4.91054" fill="none" stroke="black"/>
<path d="M329.319,358.47v 9.82109" fill="none" stroke="black"/>
<path d="M338.39,363.38v 4.91054" fill="none" stroke="black"/>
<path d="M347.461,363.38v 4.91054" fill="none" stroke="black"/>
<path d="M356.531,363.38v 4.91054" fill="none" stroke="black"/>
<path d="M365.602,363.38v 4.91054" fill="none" stroke="black"/>
<path d="M374.673,358.47v 9.82109" fill="none" stroke="black"/>
<path d="M383.744,363.38v 4.91054" fill="none" stroke="black"/>
<path d="M392.815,363.38v 4.91054" fill="none" stroke="black"/>
<path d="M401.886,363.38v 4.91054" fill="none" stroke="black"/>
<path d="M410.957,363.38v 4.91054" fill="none" stroke="black"/>
<path d="M420.028,358.47v 9.82109" fill="none" stroke="black"/>
<path d="M429.098,363.38v 4.91054" fill="none" stroke="black"/>
<path d="M438.169,363.38v 4.91054" fill="none" stroke="black"/>
<path d="M447.24,363.38v 4.91054" fill="none" stroke="black"/>
<path d="M456.311,363.38v 4.91054" fill="none" stroke="black"/>
<path d="M465.382,358.47v 9.82109" fill="none" stroke="black"/>
<path d="M474.453,363.38v 4.91054" fill="none" stroke="black"/>
<path d="M483.524,363.38v 4.91054" fill="none" stroke="black"/>
<path d="M492.594,363.38v 4.91054" fill="none" stroke="black"/>
<path d="M501.665,363.38v 4.91054" fill="none" stroke="black"/>
<path d="M510.736,358.47v 9.82109" fill="none" stroke="black"/>
<path d="M510.736,358.47v 9.82109" fill="none" stroke="black"/>
<path d="M57.1929,368.291v -327.37" fill="none" stroke="black"/>
<path d="M70.7992,368.291h -13.6063" fill="none" stroke="black"/>
<path d="M63.9961,357.916h -6.80315" fill="none" stroke="black"/>
<path d="M63.9961,347.541h -6.80315" fill="none" stroke="black"/>
<path d="M63.9961,337.167h -6.80315" fill="none" stroke="black"/>
<path d="M63.9961,326.792h -6.80315" fill="none" stroke="black"/>
<path d="M70.7992,316.417h -13.6063" fill="none" stroke="black"/>
<path d="M63.9961,306.042h -6.80315" fill="none" stroke="black"/>
<path d="M63.9961,295.668h -6.80315" fill="none" stroke="black"/>
<path d="M63.9961,285.293h -6.80315" fill="none" stroke="black"/>
<path d="M63.9961,274.918h -6.80315" fill="none" stroke="black"/>
<path d="M70.7992,264.544h -13.6063" fill="none" stroke="black"/>
<path d="M63.9961,254.169h -6.80315" fill="none" stroke="black"/>
<path d="M63.9961,243.794h -6.80315" fill="none" stroke="black"/>
<path d="M63.9961,233.419h -6.80315" fill="none" stroke="black"/>
<path d="M63.9961,223.045h -6.80315" fill="none" stroke="black"/>
<path d="M70.7992,212.67h -13.6063" fill="none" stroke="black"/>
<path d="M63.9961,202.295h -6.80315" fill="none" stroke="black"/>
<path d="M63.9961,191.921h -6.80315" fill="none" stroke="black"/>
<path d="M63.9961,181.546h -6.80315" fill="none" stroke="black"/>
<path d="M63.9961,171.171h -6.80315" fill="none" stroke="black"/>
<path d="M70.7992,160.796h -13.6063" fill="none" stroke="black"/>
<path d="M63.9961,150.422h -6.80315" fill="none" stroke="black"/>
<path d="M63.9961,140.047h -6.80315" fill="none" stroke="black"/>
<path d="M63.9961,129.672h -6.80315" fill="none" stroke="black"/>
<path d="M63.9961,119.297h -6.80315" fill="none" stroke="black"/>
<path d="M70.7992,108.923h -13.6063" fill="none" stroke="black"/>
<path d="M63.9961,98.548h -6.80315" fill="none" stroke="black"/>
<path d="M63.9961,88.1733h -6.80315" fill="none" stroke="black"/>
<path d="M63.9961,77.7986h -6.80315" fill="none" stroke="black"/>
<path d="M63.9961,67.4239h -6.80315" fill="none" stroke="black"/>
<path d="M70.7992,57.0491h -13.6063" fill="none" stroke="black"/>
<path d="M70.7992,57.0491h -13.6063" fill="none" stroke="black"/>
<path d="M63.9961,46.6744h -6.80315" fill="none" stroke="black"/>
<rect x="85.5394" y="49.1054" width="130.394" height="53.1976" fill="white"/>
<text xml:space="preserve" x="90.7256" y="83.1212" fill="black" font-size="20.2879" font-family="Helvetica" font-weight="bold">E=4.600 GeV</text></svg>
