<?xml version="1.0" standalone="no"?>
<svg width="567.429" height="409.712" viewBox="0 0 567.429 409.712" xmlns="http://www.w3.org/2000/svg" shape-rendering="crispEdges">
<title>
pic_mbc.svg
</title>
<desc>
Creator: ROOT Version 6.20/06
CreationDate: Fri Apr 16 01:54:12 2021</desc>
<defs>
</defs>
<rect x="0.5" y="0" width="566.929" height="409.212" fill="white"/>
<rect x="74.2008" y="53.1976" width="419.528" height="302.817" fill="white"/>
<rect x="74.2008" y="53.1976" width="419.528" height="302.817" fill="none" stroke="black"/>
<path d="M84.689,320.313v -86.1899" fill="none" stroke="#ff0000" stroke-width="3"/>
<path d="M84.689,234.124v -86.1899" fill="none" stroke="#ff0000" stroke-width="3"/>
<path d="M74.2008,234.124h 10.4882" fill="none" stroke="#ff0000" stroke-width="3"/>
<path d="M84.689,234.124h 10.4882" fill="none" stroke="#ff0000" stroke-width="3"/>
<g stroke="black" stroke-width="3" fill="none">
<line x1="83.689" y1="234.124" x2="84.689" y2="234.124"/>
</g>
<path d="M168.594,356.014v -60.9455" fill="none" stroke="#ff0000" stroke-width="3"/>
<path d="M168.594,295.069v -60.9455" fill="none" stroke="#ff0000" stroke-width="3"/>
<path d="M158.106,295.069h 10.4882" fill="none" stroke="#ff0000" stroke-width="3"/>
<path d="M168.594,295.069h 10.4882" fill="none" stroke="#ff0000" stroke-width="3"/>
<g stroke="black" stroke-width="3" fill="none">
<line x1="167.594" y1="295.069" x2="168.594" y2="295.069"/>
</g>
<path d="M189.571,320.313v -86.1899" fill="none" stroke="#ff0000" stroke-width="3"/>
<path d="M189.571,234.124v -86.1899" fill="none" stroke="#ff0000" stroke-width="3"/>
<path d="M179.083,234.124h 10.4882" fill="none" stroke="#ff0000" stroke-width="3"/>
<path d="M189.571,234.124h 10.4882" fill="none" stroke="#ff0000" stroke-width="3"/>
<g stroke="black" stroke-width="3" fill="none">
<line x1="188.571" y1="234.124" x2="189.571" y2="234.124"/>
</g>
<path d="M210.547,356.014v -60.9455" fill="none" stroke="#ff0000" stroke-width="3"/>
<path d="M210.547,295.069v -60.9455" fill="none" stroke="#ff0000" stroke-width="3"/>
<path d="M200.059,295.069h 10.4882" fill="none" stroke="#ff0000" stroke-width="3"/>
<path d="M210.547,295.069h 10.4882" fill="none" stroke="#ff0000" stroke-width="3"/>
<g stroke="black" stroke-width="3" fill="none">
<line x1="209.547" y1="295.069" x2="210.547" y2="295.069"/>
</g>
<path d="M231.524,320.313v -86.1899" fill="none" stroke="#ff0000" stroke-width="3"/>
<path d="M231.524,234.124v -86.1899" fill="none" stroke="#ff0000" stroke-width="3"/>
<path d="M221.035,234.124h 10.4882" fill="none" stroke="#ff0000" stroke-width="3"/>
<path d="M231.524,234.124h 10.4882" fill="none" stroke="#ff0000" stroke-width="3"/>
<g stroke="black" stroke-width="3" fill="none">
<line x1="230.524" y1="234.124" x2="231.524" y2="234.124"/>
</g>
<path d="M252.5,356.014v -60.9455" fill="none" stroke="#ff0000" stroke-width="3"/>
<path d="M252.5,295.069v -60.9455" fill="none" stroke="#ff0000" stroke-width="3"/>
<path d="M242.012,295.069h 10.4882" fill="none" stroke="#ff0000" stroke-width="3"/>
<path d="M252.5,295.069h 10.4882" fill="none" stroke="#ff0000" stroke-width="3"/>
<g stroke="black" stroke-width="3" fill="none">
<line x1="251.5" y1="295.069" x2="252.5" y2="295.069"/>
</g>
<path d="M273.476,356.014v -60.9455" fill="none" stroke="#ff0000" stroke-width="3"/>
<path d="M273.476,295.069v -60.9455" fill="none" stroke="#ff0000" stroke-width="3"/>
<path d="M262.988,295.069h 10.4882" fill="none" stroke="#ff0000" stroke-width="3"/>
<path d="M273.476,295.069h 10.4882" fill="none" stroke="#ff0000" stroke-width="3"/>
<g stroke="black" stroke-width="3" fill="none">
<line x1="272.476" y1="295.069" x2="273.476" y2="295.069"/>
</g>
<path d="M294.453,356.014v -60.9455" fill="none" stroke="#ff0000" stroke-width="3"/>
<path d="M294.453,295.069v -60.9455" fill="none" stroke="#ff0000" stroke-width="3"/>
<path d="M283.965,295.069h 10.4882" fill="none" stroke="#ff0000" stroke-width="3"/>
<path d="M294.453,295.069h 10.4882" fill="none" stroke="#ff0000" stroke-width="3"/>
<g stroke="black" stroke-width="3" fill="none">
<line x1="293.453" y1="295.069" x2="294.453" y2="295.069"/>
</g>
<path d="M315.429,320.313v -86.1899" fill="none" stroke="#ff0000" stroke-width="3"/>
<path d="M315.429,234.124v -86.1899" fill="none" stroke="#ff0000" stroke-width="3"/>
<path d="M304.941,234.124h 10.4882" fill="none" stroke="#ff0000" stroke-width="3"/>
<path d="M315.429,234.124h 10.4882" fill="none" stroke="#ff0000" stroke-width="3"/>
<g stroke="black" stroke-width="3" fill="none">
<line x1="314.429" y1="234.124" x2="315.429" y2="234.124"/>
</g>
<path d="M357.382,356.014v -60.9455" fill="none" stroke="#ff0000" stroke-width="3"/>
<path d="M357.382,295.069v -60.9455" fill="none" stroke="#ff0000" stroke-width="3"/>
<path d="M346.894,295.069h 10.4882" fill="none" stroke="#ff0000" stroke-width="3"/>
<path d="M357.382,295.069h 10.4882" fill="none" stroke="#ff0000" stroke-width="3"/>
<g stroke="black" stroke-width="3" fill="none">
<line x1="356.382" y1="295.069" x2="357.382" y2="295.069"/>
</g>
<path d="M378.358,278.739v -105.561" fill="none" stroke="#ff0000" stroke-width="3"/>
<path d="M378.358,173.178v -105.561" fill="none" stroke="#ff0000" stroke-width="3"/>
<path d="M367.87,173.178h 10.4882" fill="none" stroke="#ff0000" stroke-width="3"/>
<path d="M378.358,173.178h 10.4882" fill="none" stroke="#ff0000" stroke-width="3"/>
<g stroke="black" stroke-width="3" fill="none">
<line x1="377.358" y1="173.178" x2="378.358" y2="173.178"/>
</g>
<path d="M399.335,278.739v -105.561" fill="none" stroke="#ff0000" stroke-width="3"/>
<path d="M399.335,173.178v -105.561" fill="none" stroke="#ff0000" stroke-width="3"/>
<path d="M388.846,173.178h 10.4882" fill="none" stroke="#ff0000" stroke-width="3"/>
<path d="M399.335,173.178h 10.4882" fill="none" stroke="#ff0000" stroke-width="3"/>
<g stroke="black" stroke-width="3" fill="none">
<line x1="398.335" y1="173.178" x2="399.335" y2="173.178"/>
</g>
<path d="M420.311,356.014v -60.9455" fill="none" stroke="#ff0000" stroke-width="3"/>
<path d="M420.311,295.069v -60.9455" fill="none" stroke="#ff0000" stroke-width="3"/>
<path d="M409.823,295.069h 10.4882" fill="none" stroke="#ff0000" stroke-width="3"/>
<path d="M420.311,295.069h 10.4882" fill="none" stroke="#ff0000" stroke-width="3"/>
<g stroke="black" stroke-width="3" fill="none">
<line x1="419.311" y1="295.069" x2="420.311" y2="295.069"/>
</g>
<path d="M441.287,320.313v -86.1899" fill="none" stroke="#ff0000" stroke-width="3"/>
<path d="M441.287,234.124v -86.1899" fill="none" stroke="#ff0000" stroke-width="3"/>
<path d="M430.799,234.124h 10.4882" fill="none" stroke="#ff0000" stroke-width="3"/>
<path d="M441.287,234.124h 10.4882" fill="none" stroke="#ff0000" stroke-width="3"/>
<g stroke="black" stroke-width="3" fill="none">
<line x1="440.287" y1="234.124" x2="441.287" y2="234.124"/>
</g>
<path d="M74.2008,356.014h 419.528" fill="none" stroke="black"/>
<path d="M74.2008,346.93v 9.08451" fill="none" stroke="black"/>
<path d="M82.5913,351.472v 4.54225" fill="none" stroke="black"/>
<path d="M90.9819,351.472v 4.54225" fill="none" stroke="black"/>
<path d="M99.3724,351.472v 4.54225" fill="none" stroke="black"/>
<path d="M107.763,351.472v 4.54225" fill="none" stroke="black"/>
<path d="M116.154,346.93v 9.08451" fill="none" stroke="black"/>
<path d="M124.544,351.472v 4.54225" fill="none" stroke="black"/>
<path d="M132.935,351.472v 4.54225" fill="none" stroke="black"/>
<path d="M141.325,351.472v 4.54225" fill="none" stroke="black"/>
<path d="M149.716,351.472v 4.54225" fill="none" stroke="black"/>
<path d="M158.106,346.93v 9.08451" fill="none" stroke="black"/>
<path d="M166.497,351.472v 4.54225" fill="none" stroke="black"/>
<path d="M174.887,351.472v 4.54225" fill="none" stroke="black"/>
<path d="M183.278,351.472v 4.54225" fill="none" stroke="black"/>
<path d="M191.669,351.472v 4.54225" fill="none" stroke="black"/>
<path d="M200.059,346.93v 9.08451" fill="none" stroke="black"/>
<path d="M208.45,351.472v 4.54225" fill="none" stroke="black"/>
<path d="M216.84,351.472v 4.54225" fill="none" stroke="black"/>
<path d="M225.231,351.472v 4.54225" fill="none" stroke="black"/>
<path d="M233.621,351.472v 4.54225" fill="none" stroke="black"/>
<path d="M242.012,346.93v 9.08451" fill="none" stroke="black"/>
<path d="M250.402,351.472v 4.54225" fill="none" stroke="black"/>
<path d="M258.793,351.472v 4.54225" fill="none" stroke="black"/>
<path d="M267.183,351.472v 4.54225" fill="none" stroke="black"/>
<path d="M275.574,351.472v 4.54225" fill="none" stroke="black"/>
<path d="M283.965,346.93v 9.08451" fill="none" stroke="black"/>
<path d="M292.355,351.472v 4.54225" fill="none" stroke="black"/>
<path d="M300.746,351.472v 4.54225" fill="none" stroke="black"/>
<path d="M309.136,351.472v 4.54225" fill="none" stroke="black"/>
<path d="M317.527,351.472v 4.54225" fill="none" stroke="black"/>
<path d="M325.917,346.93v 9.08451" fill="none" stroke="black"/>
<path d="M334.308,351.472v 4.54225" fill="none" stroke="black"/>
<path d="M342.698,351.472v 4.54225" fill="none" stroke="black"/>
<path d="M351.089,351.472v 4.54225" fill="none" stroke="black"/>
<path d="M359.48,351.472v 4.54225" fill="none" stroke="black"/>
<path d="M367.87,346.93v 9.08451" fill="none" stroke="black"/>
<path d="M376.261,351.472v 4.54225" fill="none" stroke="black"/>
<path d="M384.651,351.472v 4.54225" fill="none" stroke="black"/>
<path d="M393.042,351.472v 4.54225" fill="none" stroke="black"/>
<path d="M401.432,351.472v 4.54225" fill="none" stroke="black"/>
<path d="M409.823,346.93v 9.08451" fill="none" stroke="black"/>
<path d="M418.213,351.472v 4.54225" fill="none" stroke="black"/>
<path d="M426.604,351.472v 4.54225" fill="none" stroke="black"/>
<path d="M434.994,351.472v 4.54225" fill="none" stroke="black"/>
<path d="M443.385,351.472v 4.54225" fill="none" stroke="black"/>
<path d="M451.776,346.93v 9.08451" fill="none" stroke="black"/>
<path d="M460.166,351.472v 4.54225" fill="none" stroke="black"/>
<path d="M468.557,351.472v 4.54225" fill="none" stroke="black"/>
<path d="M476.947,351.472v 4.54225" fill="none" stroke="black"/>
<path d="M485.338,351.472v 4.54225" fill="none" stroke="black"/>
<path d="M493.728,346.93v 9.08451" fill="none" stroke="black"/>
<path d="M493.728,346.93v 9.08451" fill="none" stroke="black"/>
<text xml:space="preserve" x="60.8872" y="369.428" fill="black" font-size="13.6398" font-family="Helvetica">2.25</text>
<text xml:space="preserve" x="98.5404" y="369.428" fill="black" font-size="13.6398" font-family="Helvetica">2.255</text>
<text xml:space="preserve" x="144.719" y="369.428" fill="black" font-size="13.6398" font-family="Helvetica">2.26</text>
<text xml:space="preserve" x="182.372" y="369.428" fill="black" font-size="13.6398" font-family="Helvetica">2.265</text>
<text xml:space="preserve" x="228.55" y="369.428" fill="black" font-size="13.6398" font-family="Helvetica">2.27</text>
<text xml:space="preserve" x="266.914" y="369.428" fill="black" font-size="13.6398" font-family="Helvetica">2.275</text>
<text xml:space="preserve" x="313.092" y="369.428" fill="black" font-size="13.6398" font-family="Helvetica">2.28</text>
<text xml:space="preserve" x="350.746" y="369.428" fill="black" font-size="13.6398" font-family="Helvetica">2.285</text>
<text xml:space="preserve" x="396.924" y="369.428" fill="black" font-size="13.6398" font-family="Helvetica">2.29</text>
<text xml:space="preserve" x="434.577" y="369.428" fill="black" font-size="13.6398" font-family="Helvetica">2.295</text>
<text xml:space="preserve" x="484.308" y="369.428" fill="black" font-size="13.6398" font-family="Helvetica">2.3</text>
<text xml:space="preserve" x="393.372" y="394.293" fill="black" font-size="19.2712" font-family="Helvetica">m_bc (GeV)</text>
<path d="M74.2008,356.014v -302.817" fill="none" stroke="black"/>
<path d="M86.7866,356.014h -12.5858" fill="none" stroke="black"/>
<path d="M80.4937,349.92h -6.29291" fill="none" stroke="black"/>
<path d="M80.4937,343.825h -6.29291" fill="none" stroke="black"/>
<path d="M80.4937,337.731h -6.29291" fill="none" stroke="black"/>
<path d="M80.4937,331.636h -6.29291" fill="none" stroke="black"/>
<path d="M86.7866,325.542h -12.5858" fill="none" stroke="black"/>
<path d="M80.4937,319.447h -6.29291" fill="none" stroke="black"/>
<path d="M80.4937,313.353h -6.29291" fill="none" stroke="black"/>
<path d="M80.4937,307.258h -6.29291" fill="none" stroke="black"/>
<path d="M80.4937,301.164h -6.29291" fill="none" stroke="black"/>
<path d="M86.7866,295.069h -12.5858" fill="none" stroke="black"/>
<path d="M80.4937,288.974h -6.29291" fill="none" stroke="black"/>
<path d="M80.4937,282.88h -6.29291" fill="none" stroke="black"/>
<path d="M80.4937,276.785h -6.29291" fill="none" stroke="black"/>
<path d="M80.4937,270.691h -6.29291" fill="none" stroke="black"/>
<path d="M86.7866,264.596h -12.5858" fill="none" stroke="black"/>
<path d="M80.4937,258.502h -6.29291" fill="none" stroke="black"/>
<path d="M80.4937,252.407h -6.29291" fill="none" stroke="black"/>
<path d="M80.4937,246.313h -6.29291" fill="none" stroke="black"/>
<path d="M80.4937,240.218h -6.29291" fill="none" stroke="black"/>
<path d="M86.7866,234.124h -12.5858" fill="none" stroke="black"/>
<path d="M80.4937,228.029h -6.29291" fill="none" stroke="black"/>
<path d="M80.4937,221.934h -6.29291" fill="none" stroke="black"/>
<path d="M80.4937,215.84h -6.29291" fill="none" stroke="black"/>
<path d="M80.4937,209.745h -6.29291" fill="none" stroke="black"/>
<path d="M86.7866,203.651h -12.5858" fill="none" stroke="black"/>
<path d="M80.4937,197.556h -6.29291" fill="none" stroke="black"/>
<path d="M80.4937,191.462h -6.29291" fill="none" stroke="black"/>
<path d="M80.4937,185.367h -6.29291" fill="none" stroke="black"/>
<path d="M80.4937,179.273h -6.29291" fill="none" stroke="black"/>
<path d="M86.7866,173.178h -12.5858" fill="none" stroke="black"/>
<path d="M80.4937,167.084h -6.29291" fill="none" stroke="black"/>
<path d="M80.4937,160.989h -6.29291" fill="none" stroke="black"/>
<path d="M80.4937,154.894h -6.29291" fill="none" stroke="black"/>
<path d="M80.4937,148.8h -6.29291" fill="none" stroke="black"/>
<path d="M86.7866,142.705h -12.5858" fill="none" stroke="black"/>
<path d="M80.4937,136.611h -6.29291" fill="none" stroke="black"/>
<path d="M80.4937,130.516h -6.29291" fill="none" stroke="black"/>
<path d="M80.4937,124.422h -6.29291" fill="none" stroke="black"/>
<path d="M80.4937,118.327h -6.29291" fill="none" stroke="black"/>
<path d="M86.7866,112.233h -12.5858" fill="none" stroke="black"/>
<path d="M80.4937,106.138h -6.29291" fill="none" stroke="black"/>
<path d="M80.4937,100.043h -6.29291" fill="none" stroke="black"/>
<path d="M80.4937,93.949h -6.29291" fill="none" stroke="black"/>
<path d="M80.4937,87.8544h -6.29291" fill="none" stroke="black"/>
<path d="M86.7866,81.7599h -12.5858" fill="none" stroke="black"/>
<path d="M86.7866,81.7599h -12.5858" fill="none" stroke="black"/>
<path d="M80.4937,75.6653h -6.29291" fill="none" stroke="black"/>
<path d="M80.4937,69.5708h -6.29291" fill="none" stroke="black"/>
<path d="M80.4937,63.4762h -6.29291" fill="none" stroke="black"/>
<path d="M80.4937,57.3817h -6.29291" fill="none" stroke="black"/>
<text xml:space="preserve" x="63.7289" y="360.902" fill="black" font-size="13.6398" font-family="Helvetica">0</text>
<text xml:space="preserve" x="52.3619" y="330.353" fill="black" font-size="13.6398" font-family="Helvetica">0.5</text>
<text xml:space="preserve" x="65.8603" y="300.515" fill="black" font-size="13.6398" font-family="Helvetica">1</text>
<text xml:space="preserve" x="52.3619" y="269.256" fill="black" font-size="13.6398" font-family="Helvetica">1.5</text>
<text xml:space="preserve" x="63.7289" y="239.417" fill="black" font-size="13.6398" font-family="Helvetica">2</text>
<text xml:space="preserve" x="52.3619" y="208.158" fill="black" font-size="13.6398" font-family="Helvetica">2.5</text>
<text xml:space="preserve" x="63.7289" y="177.609" fill="black" font-size="13.6398" font-family="Helvetica">3</text>
<text xml:space="preserve" x="52.3619" y="147.061" fill="black" font-size="13.6398" font-family="Helvetica">3.5</text>
<text xml:space="preserve" x="63.7289" y="117.222" fill="black" font-size="13.6398" font-family="Helvetica">4</text>
<text xml:space="preserve" x="52.3619" y="86.6734" fill="black" font-size="13.6398" font-family="Helvetica">4.5</text>
<g transform="rotate(-90,28.9175,196.081)">
<text xml:space="preserve" x="28.9175" y="196.081" fill="black" font-size="19.2712" font-family="Helvetica">Events/(2.5 MeV)</text>
</g></svg>
