<?xml version="1.0" standalone="no"?>
<svg width="567.429" height="407.891" viewBox="0 0 567.429 407.891" xmlns="http://www.w3.org/2000/svg" shape-rendering="crispEdges">
<title>
pic_fitInclusive4600.svg
</title>
<desc>
Creator: ROOT Version 6.20/06
CreationDate: Mon Apr 26 14:55:22 2021</desc>
<defs>
</defs>
<rect x="0.5" y="0" width="566.929" height="407.391" fill="white"/>
<rect x="57.1929" y="40.7391" width="453.543" height="325.913" fill="white"/>
<rect x="57.1929" y="40.7391" width="453.543" height="325.913" fill="none" stroke="black"/>
<rect x="57.1929" y="40.7391" width="453.543" height="325.913" fill="white"/>
<rect x="57.1929" y="40.7391" width="453.543" height="325.913" fill="none" stroke="black"/>
<path d="M57.1929,366.652h 453.543" fill="none" stroke="black"/>
<path d="M57.1929,356.875v 9.77739" fill="none" stroke="black"/>
<path d="M66.3066,361.763v 4.8887" fill="none" stroke="black"/>
<path d="M75.4203,361.763v 4.8887" fill="none" stroke="black"/>
<path d="M84.534,361.763v 4.8887" fill="none" stroke="black"/>
<path d="M93.6477,361.763v 4.8887" fill="none" stroke="black"/>
<path d="M102.761,356.875v 9.77739" fill="none" stroke="black"/>
<path d="M111.875,361.763v 4.8887" fill="none" stroke="black"/>
<path d="M120.989,361.763v 4.8887" fill="none" stroke="black"/>
<path d="M130.103,361.763v 4.8887" fill="none" stroke="black"/>
<path d="M139.216,361.763v 4.8887" fill="none" stroke="black"/>
<path d="M148.33,356.875v 9.77739" fill="none" stroke="black"/>
<path d="M157.444,361.763v 4.8887" fill="none" stroke="black"/>
<path d="M166.557,361.763v 4.8887" fill="none" stroke="black"/>
<path d="M175.671,361.763v 4.8887" fill="none" stroke="black"/>
<path d="M184.785,361.763v 4.8887" fill="none" stroke="black"/>
<path d="M193.898,356.875v 9.77739" fill="none" stroke="black"/>
<path d="M203.012,361.763v 4.8887" fill="none" stroke="black"/>
<path d="M212.126,361.763v 4.8887" fill="none" stroke="black"/>
<path d="M221.24,361.763v 4.8887" fill="none" stroke="black"/>
<path d="M230.353,361.763v 4.8887" fill="none" stroke="black"/>
<path d="M239.467,356.875v 9.77739" fill="none" stroke="black"/>
<path d="M248.581,361.763v 4.8887" fill="none" stroke="black"/>
<path d="M257.694,361.763v 4.8887" fill="none" stroke="black"/>
<path d="M266.808,361.763v 4.8887" fill="none" stroke="black"/>
<path d="M275.922,361.763v 4.8887" fill="none" stroke="black"/>
<path d="M285.035,356.875v 9.77739" fill="none" stroke="black"/>
<path d="M294.149,361.763v 4.8887" fill="none" stroke="black"/>
<path d="M303.263,361.763v 4.8887" fill="none" stroke="black"/>
<path d="M312.377,361.763v 4.8887" fill="none" stroke="black"/>
<path d="M321.49,361.763v 4.8887" fill="none" stroke="black"/>
<path d="M330.604,356.875v 9.77739" fill="none" stroke="black"/>
<path d="M339.718,361.763v 4.8887" fill="none" stroke="black"/>
<path d="M348.831,361.763v 4.8887" fill="none" stroke="black"/>
<path d="M357.945,361.763v 4.8887" fill="none" stroke="black"/>
<path d="M367.059,361.763v 4.8887" fill="none" stroke="black"/>
<path d="M376.172,356.875v 9.77739" fill="none" stroke="black"/>
<path d="M385.286,361.763v 4.8887" fill="none" stroke="black"/>
<path d="M394.4,361.763v 4.8887" fill="none" stroke="black"/>
<path d="M403.514,361.763v 4.8887" fill="none" stroke="black"/>
<path d="M412.627,361.763v 4.8887" fill="none" stroke="black"/>
<path d="M421.741,356.875v 9.77739" fill="none" stroke="black"/>
<path d="M430.855,361.763v 4.8887" fill="none" stroke="black"/>
<path d="M439.968,361.763v 4.8887" fill="none" stroke="black"/>
<path d="M449.082,361.763v 4.8887" fill="none" stroke="black"/>
<path d="M458.196,361.763v 4.8887" fill="none" stroke="black"/>
<path d="M467.309,356.875v 9.77739" fill="none" stroke="black"/>
<path d="M467.309,356.875v 9.77739" fill="none" stroke="black"/>
<path d="M476.423,361.763v 4.8887" fill="none" stroke="black"/>
<path d="M485.537,361.763v 4.8887" fill="none" stroke="black"/>
<path d="M494.651,361.763v 4.8887" fill="none" stroke="black"/>
<path d="M503.764,361.763v 4.8887" fill="none" stroke="black"/>
<text xml:space="preserve" x="43.9456" y="379.615" fill="black" font-size="13.5814" font-family="Helvetica">2.25</text>
<text xml:space="preserve" x="85.2545" y="379.615" fill="black" font-size="13.5814" font-family="Helvetica">2.255</text>
<text xml:space="preserve" x="135.11" y="379.615" fill="black" font-size="13.5814" font-family="Helvetica">2.26</text>
<text xml:space="preserve" x="176.419" y="379.615" fill="black" font-size="13.5814" font-family="Helvetica">2.265</text>
<text xml:space="preserve" x="226.275" y="379.615" fill="black" font-size="13.5814" font-family="Helvetica">2.27</text>
<text xml:space="preserve" x="267.583" y="379.615" fill="black" font-size="13.5814" font-family="Helvetica">2.275</text>
<text xml:space="preserve" x="317.439" y="379.615" fill="black" font-size="13.5814" font-family="Helvetica">2.28</text>
<text xml:space="preserve" x="358.748" y="379.615" fill="black" font-size="13.5814" font-family="Helvetica">2.285</text>
<text xml:space="preserve" x="408.604" y="379.615" fill="black" font-size="13.5814" font-family="Helvetica">2.29</text>
<text xml:space="preserve" x="449.912" y="379.615" fill="black" font-size="13.5814" font-family="Helvetica">2.295</text>
<text xml:space="preserve" x="506.89" y="393.147" fill="black" font-size="13.5814" font-family="Helvetica">)</text>
<text xml:space="preserve" x="501.905" y="386.737" fill="black" font-size="9.22091" font-family="Helvetica">2</text>
<text xml:space="preserve" x="457.035" y="393.147" fill="black" font-size="13.5814" font-family="Helvetica"> (GeV/c</text>
<text xml:space="preserve" x="445.639" y="397.42" fill="black" font-size="9.22091" font-family="Helvetica">BC</text>
<text xml:space="preserve" x="434.956" y="393.147" fill="black" font-size="13.5814" font-family="Helvetica">M</text>
<path d="M57.1929,366.652v -325.913" fill="none" stroke="black"/>
<path d="M70.7992,366.652h -13.6063" fill="none" stroke="black"/>
<path d="M63.9961,351.213h -6.80315" fill="none" stroke="black"/>
<path d="M63.9961,335.774h -6.80315" fill="none" stroke="black"/>
<path d="M63.9961,320.335h -6.80315" fill="none" stroke="black"/>
<path d="M70.7992,304.896h -13.6063" fill="none" stroke="black"/>
<path d="M63.9961,289.457h -6.80315" fill="none" stroke="black"/>
<path d="M63.9961,274.018h -6.80315" fill="none" stroke="black"/>
<path d="M63.9961,258.579h -6.80315" fill="none" stroke="black"/>
<path d="M70.7992,243.14h -13.6063" fill="none" stroke="black"/>
<path d="M63.9961,227.7h -6.80315" fill="none" stroke="black"/>
<path d="M63.9961,212.261h -6.80315" fill="none" stroke="black"/>
<path d="M63.9961,196.822h -6.80315" fill="none" stroke="black"/>
<path d="M70.7992,181.383h -13.6063" fill="none" stroke="black"/>
<path d="M63.9961,165.944h -6.80315" fill="none" stroke="black"/>
<path d="M63.9961,150.505h -6.80315" fill="none" stroke="black"/>
<path d="M63.9961,135.066h -6.80315" fill="none" stroke="black"/>
<path d="M70.7992,119.627h -13.6063" fill="none" stroke="black"/>
<path d="M63.9961,104.188h -6.80315" fill="none" stroke="black"/>
<path d="M63.9961,88.7488h -6.80315" fill="none" stroke="black"/>
<path d="M63.9961,73.3097h -6.80315" fill="none" stroke="black"/>
<path d="M70.7992,57.8706h -13.6063" fill="none" stroke="black"/>
<path d="M70.7992,57.8706h -13.6063" fill="none" stroke="black"/>
<path d="M63.9961,42.4316h -6.80315" fill="none" stroke="black"/>
<text xml:space="preserve" x="46.7945" y="371.068" fill="black" font-size="13.5814" font-family="Helvetica">0</text>
<text xml:space="preserve" x="38.96" y="309.817" fill="black" font-size="13.5814" font-family="Helvetica">20</text>
<text xml:space="preserve" x="38.96" y="247.853" fill="black" font-size="13.5814" font-family="Helvetica">40</text>
<text xml:space="preserve" x="38.96" y="185.89" fill="black" font-size="13.5814" font-family="Helvetica">60</text>
<text xml:space="preserve" x="38.96" y="123.927" fill="black" font-size="13.5814" font-family="Helvetica">80</text>
<text xml:space="preserve" x="31.8378" y="62.6756" fill="black" font-size="13.5814" font-family="Helvetica">100</text>
<g transform="rotate(-90,19.73,44.1578)">
<text xml:space="preserve" x="19.73" y="44.1578" fill="black" font-size="13.5814" font-family="Helvetica">)</text>
</g>
<g transform="rotate(-90,13.32,49.1434)">
<text xml:space="preserve" x="13.32" y="49.1434" fill="black" font-size="9.22091" font-family="Helvetica">2</text>
</g>
<g transform="rotate(-90,19.73,163.811)">
<text xml:space="preserve" x="19.73" y="163.811" fill="black" font-size="13.5814" font-family="Helvetica">Events/(  2.0 MeV/c</text>
</g>
<path d="M66.2638,255.491h -9.07087" fill="none" stroke="black" stroke-width="2"/>
<path d="M57.1929,256.915v -2.84889" fill="none" stroke="black" stroke-width="2"/>
<path d="M66.2638,255.491h 9.07087" fill="none" stroke="black" stroke-width="2"/>
<path d="M75.3346,256.915v -2.84889" fill="none" stroke="black" stroke-width="2"/>
<path d="M66.2638,255.491v -21.7862" fill="none" stroke="black" stroke-width="2"/>
<path d="M64.8393,233.705h 2.84889" fill="none" stroke="black" stroke-width="2"/>
<path d="M66.2638,255.491v 18.4404" fill="none" stroke="black" stroke-width="2"/>
<path d="M64.8393,273.931h 2.84889" fill="none" stroke="black" stroke-width="2"/>
<path d="M84.4055,258.579h -9.07087" fill="none" stroke="black" stroke-width="2"/>
<path d="M75.3346,260.003v -2.84889" fill="none" stroke="black" stroke-width="2"/>
<path d="M84.4055,258.579h 9.07087" fill="none" stroke="black" stroke-width="2"/>
<path d="M93.4764,260.003v -2.84889" fill="none" stroke="black" stroke-width="2"/>
<path d="M84.4055,258.579v -21.5295" fill="none" stroke="black" stroke-width="2"/>
<path d="M82.9811,237.049h 2.84889" fill="none" stroke="black" stroke-width="2"/>
<path d="M84.4055,258.579v 18.1801" fill="none" stroke="black" stroke-width="2"/>
<path d="M82.9811,276.759h 2.84889" fill="none" stroke="black" stroke-width="2"/>
<path d="M102.547,261.666h -9.07087" fill="none" stroke="black" stroke-width="2"/>
<path d="M93.4764,263.091v -2.84889" fill="none" stroke="black" stroke-width="2"/>
<path d="M102.547,261.666h 9.07087" fill="none" stroke="black" stroke-width="2"/>
<path d="M111.618,263.091v -2.84889" fill="none" stroke="black" stroke-width="2"/>
<path d="M102.547,261.666v -21.2692" fill="none" stroke="black" stroke-width="2"/>
<path d="M101.123,240.397h 2.84889" fill="none" stroke="black" stroke-width="2"/>
<path d="M102.547,261.666v 17.9159" fill="none" stroke="black" stroke-width="2"/>
<path d="M101.123,279.582h 2.84889" fill="none" stroke="black" stroke-width="2"/>
<path d="M120.689,240.052h -9.07087" fill="none" stroke="black" stroke-width="2"/>
<path d="M111.618,241.476v -2.84889" fill="none" stroke="black" stroke-width="2"/>
<path d="M120.689,240.052h 9.07087" fill="none" stroke="black" stroke-width="2"/>
<path d="M129.76,241.476v -2.84889" fill="none" stroke="black" stroke-width="2"/>
<path d="M120.689,240.052v -23.0202" fill="none" stroke="black" stroke-width="2"/>
<path d="M119.265,217.031h 2.84889" fill="none" stroke="black" stroke-width="2"/>
<path d="M120.689,240.052v 19.6907" fill="none" stroke="black" stroke-width="2"/>
<path d="M119.265,259.742h 2.84889" fill="none" stroke="black" stroke-width="2"/>
<path d="M138.831,286.369h -9.07087" fill="none" stroke="black" stroke-width="2"/>
<path d="M129.76,287.793v -2.84889" fill="none" stroke="black" stroke-width="2"/>
<path d="M138.831,286.369h 9.07087" fill="none" stroke="black" stroke-width="2"/>
<path d="M147.902,287.793v -2.84889" fill="none" stroke="black" stroke-width="2"/>
<path d="M138.831,286.369v -19.0343" fill="none" stroke="black" stroke-width="2"/>
<path d="M137.406,267.335h 2.84889" fill="none" stroke="black" stroke-width="2"/>
<path d="M138.831,286.369v 15.6429" fill="none" stroke="black" stroke-width="2"/>
<path d="M137.406,302.012h 2.84889" fill="none" stroke="black" stroke-width="2"/>
<path d="M156.972,243.14h -9.07087" fill="none" stroke="black" stroke-width="2"/>
<path d="M147.902,244.564v -2.84889" fill="none" stroke="black" stroke-width="2"/>
<path d="M156.972,243.14h 9.07087" fill="none" stroke="black" stroke-width="2"/>
<path d="M166.043,244.564v -2.84889" fill="none" stroke="black" stroke-width="2"/>
<path d="M156.972,243.14v -22.7796" fill="none" stroke="black" stroke-width="2"/>
<path d="M155.548,220.36h 2.84889" fill="none" stroke="black" stroke-width="2"/>
<path d="M156.972,243.14v 19.4471" fill="none" stroke="black" stroke-width="2"/>
<path d="M155.548,262.587h 2.84889" fill="none" stroke="black" stroke-width="2"/>
<path d="M175.114,255.491h -9.07087" fill="none" stroke="black" stroke-width="2"/>
<path d="M166.043,256.915v -2.84889" fill="none" stroke="black" stroke-width="2"/>
<path d="M175.114,255.491h 9.07087" fill="none" stroke="black" stroke-width="2"/>
<path d="M184.185,256.915v -2.84889" fill="none" stroke="black" stroke-width="2"/>
<path d="M175.114,255.491v -21.7862" fill="none" stroke="black" stroke-width="2"/>
<path d="M173.69,233.705h 2.84889" fill="none" stroke="black" stroke-width="2"/>
<path d="M175.114,255.491v 18.4404" fill="none" stroke="black" stroke-width="2"/>
<path d="M173.69,273.931h 2.84889" fill="none" stroke="black" stroke-width="2"/>
<path d="M193.256,233.876h -9.07087" fill="none" stroke="black" stroke-width="2"/>
<path d="M184.185,235.301v -2.84889" fill="none" stroke="black" stroke-width="2"/>
<path d="M193.256,233.876h 9.07087" fill="none" stroke="black" stroke-width="2"/>
<path d="M202.327,235.301v -2.84889" fill="none" stroke="black" stroke-width="2"/>
<path d="M193.256,233.876v -23.493" fill="none" stroke="black" stroke-width="2"/>
<path d="M191.831,210.383h 2.84889" fill="none" stroke="black" stroke-width="2"/>
<path d="M193.256,233.876v 20.1691" fill="none" stroke="black" stroke-width="2"/>
<path d="M191.831,254.045h 2.84889" fill="none" stroke="black" stroke-width="2"/>
<path d="M211.398,283.281h -9.07087" fill="none" stroke="black" stroke-width="2"/>
<path d="M202.327,284.706v -2.84889" fill="none" stroke="black" stroke-width="2"/>
<path d="M211.398,283.281h 9.07087" fill="none" stroke="black" stroke-width="2"/>
<path d="M220.469,284.706v -2.84889" fill="none" stroke="black" stroke-width="2"/>
<path d="M211.398,283.281v -19.3305" fill="none" stroke="black" stroke-width="2"/>
<path d="M209.973,263.951h 2.84889" fill="none" stroke="black" stroke-width="2"/>
<path d="M211.398,283.281v 15.9448" fill="none" stroke="black" stroke-width="2"/>
<path d="M209.973,299.226h 2.84889" fill="none" stroke="black" stroke-width="2"/>
<path d="M229.539,233.876h -9.07087" fill="none" stroke="black" stroke-width="2"/>
<path d="M220.469,235.301v -2.84889" fill="none" stroke="black" stroke-width="2"/>
<path d="M229.539,233.876h 9.07087" fill="none" stroke="black" stroke-width="2"/>
<path d="M238.61,235.301v -2.84889" fill="none" stroke="black" stroke-width="2"/>
<path d="M229.539,233.876v -23.493" fill="none" stroke="black" stroke-width="2"/>
<path d="M228.115,210.383h 2.84889" fill="none" stroke="black" stroke-width="2"/>
<path d="M229.539,233.876v 20.1691" fill="none" stroke="black" stroke-width="2"/>
<path d="M228.115,254.045h 2.84889" fill="none" stroke="black" stroke-width="2"/>
<path d="M247.681,295.632h -9.07087" fill="none" stroke="black" stroke-width="2"/>
<path d="M238.61,297.057v -2.84889" fill="none" stroke="black" stroke-width="2"/>
<path d="M247.681,295.632h 9.07087" fill="none" stroke="black" stroke-width="2"/>
<path d="M256.752,297.057v -2.84889" fill="none" stroke="black" stroke-width="2"/>
<path d="M247.681,295.632v -18.1108" fill="none" stroke="black" stroke-width="2"/>
<path d="M246.257,277.522h 2.84889" fill="none" stroke="black" stroke-width="2"/>
<path d="M247.681,295.632v 14.7002" fill="none" stroke="black" stroke-width="2"/>
<path d="M246.257,310.333h 2.84889" fill="none" stroke="black" stroke-width="2"/>
<path d="M265.823,243.14h -9.07087" fill="none" stroke="black" stroke-width="2"/>
<path d="M256.752,244.564v -2.84889" fill="none" stroke="black" stroke-width="2"/>
<path d="M265.823,243.14h 9.07087" fill="none" stroke="black" stroke-width="2"/>
<path d="M274.894,244.564v -2.84889" fill="none" stroke="black" stroke-width="2"/>
<path d="M265.823,243.14v -22.7796" fill="none" stroke="black" stroke-width="2"/>
<path d="M264.398,220.36h 2.84889" fill="none" stroke="black" stroke-width="2"/>
<path d="M265.823,243.14v 19.4471" fill="none" stroke="black" stroke-width="2"/>
<path d="M264.398,262.587h 2.84889" fill="none" stroke="black" stroke-width="2"/>
<path d="M283.965,267.842h -9.07087" fill="none" stroke="black" stroke-width="2"/>
<path d="M274.894,269.267v -2.84889" fill="none" stroke="black" stroke-width="2"/>
<path d="M283.965,267.842h 9.07087" fill="none" stroke="black" stroke-width="2"/>
<path d="M293.035,269.267v -2.84889" fill="none" stroke="black" stroke-width="2"/>
<path d="M283.965,267.842v -20.737" fill="none" stroke="black" stroke-width="2"/>
<path d="M282.54,247.105h 2.84889" fill="none" stroke="black" stroke-width="2"/>
<path d="M283.965,267.842v 17.3756" fill="none" stroke="black" stroke-width="2"/>
<path d="M282.54,285.218h 2.84889" fill="none" stroke="black" stroke-width="2"/>
<path d="M302.106,264.754h -9.07087" fill="none" stroke="black" stroke-width="2"/>
<path d="M293.035,266.179v -2.84889" fill="none" stroke="black" stroke-width="2"/>
<path d="M302.106,264.754h 9.07087" fill="none" stroke="black" stroke-width="2"/>
<path d="M311.177,266.179v -2.84889" fill="none" stroke="black" stroke-width="2"/>
<path d="M302.106,264.754v -21.0051" fill="none" stroke="black" stroke-width="2"/>
<path d="M300.682,243.749h 2.84889" fill="none" stroke="black" stroke-width="2"/>
<path d="M302.106,264.754v 17.6478" fill="none" stroke="black" stroke-width="2"/>
<path d="M300.682,282.402h 2.84889" fill="none" stroke="black" stroke-width="2"/>
<path d="M320.248,230.788h -9.07087" fill="none" stroke="black" stroke-width="2"/>
<path d="M311.177,232.213v -2.84889" fill="none" stroke="black" stroke-width="2"/>
<path d="M320.248,230.788h 9.07087" fill="none" stroke="black" stroke-width="2"/>
<path d="M329.319,232.213v -2.84889" fill="none" stroke="black" stroke-width="2"/>
<path d="M320.248,230.788v -23.7253" fill="none" stroke="black" stroke-width="2"/>
<path d="M318.824,207.063h 2.84889" fill="none" stroke="black" stroke-width="2"/>
<path d="M320.248,230.788v 20.4041" fill="none" stroke="black" stroke-width="2"/>
<path d="M318.824,251.192h 2.84889" fill="none" stroke="black" stroke-width="2"/>
<path d="M338.39,230.788h -9.07087" fill="none" stroke="black" stroke-width="2"/>
<path d="M329.319,232.213v -2.84889" fill="none" stroke="black" stroke-width="2"/>
<path d="M338.39,230.788h 9.07087" fill="none" stroke="black" stroke-width="2"/>
<path d="M347.461,232.213v -2.84889" fill="none" stroke="black" stroke-width="2"/>
<path d="M338.39,230.788v -23.7253" fill="none" stroke="black" stroke-width="2"/>
<path d="M336.965,207.063h 2.84889" fill="none" stroke="black" stroke-width="2"/>
<path d="M338.39,230.788v 20.4041" fill="none" stroke="black" stroke-width="2"/>
<path d="M336.965,251.192h 2.84889" fill="none" stroke="black" stroke-width="2"/>
<path d="M356.531,252.403h -9.07087" fill="none" stroke="black" stroke-width="2"/>
<path d="M347.461,253.827v -2.84889" fill="none" stroke="black" stroke-width="2"/>
<path d="M356.531,252.403h 9.07087" fill="none" stroke="black" stroke-width="2"/>
<path d="M365.602,253.827v -2.84889" fill="none" stroke="black" stroke-width="2"/>
<path d="M356.531,252.403v -22.0395" fill="none" stroke="black" stroke-width="2"/>
<path d="M355.107,230.364h 2.84889" fill="none" stroke="black" stroke-width="2"/>
<path d="M356.531,252.403v 18.6972" fill="none" stroke="black" stroke-width="2"/>
<path d="M355.107,271.1h 2.84889" fill="none" stroke="black" stroke-width="2"/>
<path d="M374.673,181.383h -9.07087" fill="none" stroke="black" stroke-width="2"/>
<path d="M365.602,182.808v -2.84889" fill="none" stroke="black" stroke-width="2"/>
<path d="M374.673,181.383h 9.07087" fill="none" stroke="black" stroke-width="2"/>
<path d="M383.744,182.808v -2.84889" fill="none" stroke="black" stroke-width="2"/>
<path d="M374.673,181.383v -27.1389" fill="none" stroke="black" stroke-width="2"/>
<path d="M373.249,154.244h 2.84889" fill="none" stroke="black" stroke-width="2"/>
<path d="M374.673,181.383v 23.8513" fill="none" stroke="black" stroke-width="2"/>
<path d="M373.249,205.235h 2.84889" fill="none" stroke="black" stroke-width="2"/>
<path d="M392.815,88.7488h -9.07087" fill="none" stroke="black" stroke-width="2"/>
<path d="M383.744,90.1732v -2.84889" fill="none" stroke="black" stroke-width="2"/>
<path d="M392.815,88.7488h 9.07087" fill="none" stroke="black" stroke-width="2"/>
<path d="M401.886,90.1732v -2.84889" fill="none" stroke="black" stroke-width="2"/>
<path d="M392.815,88.7488v -32.49" fill="none" stroke="black" stroke-width="2"/>
<path d="M391.391,56.2588h 2.84889" fill="none" stroke="black" stroke-width="2"/>
<path d="M392.815,88.7488v 29.2391" fill="none" stroke="black" stroke-width="2"/>
<path d="M391.391,117.988h 2.84889" fill="none" stroke="black" stroke-width="2"/>
<path d="M410.957,199.91h -9.07087" fill="none" stroke="black" stroke-width="2"/>
<path d="M401.886,201.335v -2.84889" fill="none" stroke="black" stroke-width="2"/>
<path d="M410.957,199.91h 9.07087" fill="none" stroke="black" stroke-width="2"/>
<path d="M420.028,201.335v -2.84889" fill="none" stroke="black" stroke-width="2"/>
<path d="M410.957,199.91v -25.9187" fill="none" stroke="black" stroke-width="2"/>
<path d="M409.532,173.991h 2.84889" fill="none" stroke="black" stroke-width="2"/>
<path d="M410.957,199.91v 22.6202" fill="none" stroke="black" stroke-width="2"/>
<path d="M409.532,222.53h 2.84889" fill="none" stroke="black" stroke-width="2"/>
<path d="M429.098,261.666h -9.07087" fill="none" stroke="black" stroke-width="2"/>
<path d="M420.028,263.091v -2.84889" fill="none" stroke="black" stroke-width="2"/>
<path d="M429.098,261.666h 9.07087" fill="none" stroke="black" stroke-width="2"/>
<path d="M438.169,263.091v -2.84889" fill="none" stroke="black" stroke-width="2"/>
<path d="M429.098,261.666v -21.2692" fill="none" stroke="black" stroke-width="2"/>
<path d="M427.674,240.397h 2.84889" fill="none" stroke="black" stroke-width="2"/>
<path d="M429.098,261.666v 17.9159" fill="none" stroke="black" stroke-width="2"/>
<path d="M427.674,279.582h 2.84889" fill="none" stroke="black" stroke-width="2"/>
<path d="M447.24,286.369h -9.07087" fill="none" stroke="black" stroke-width="2"/>
<path d="M438.169,287.793v -2.84889" fill="none" stroke="black" stroke-width="2"/>
<path d="M447.24,286.369h 9.07087" fill="none" stroke="black" stroke-width="2"/>
<path d="M456.311,287.793v -2.84889" fill="none" stroke="black" stroke-width="2"/>
<path d="M447.24,286.369v -19.0343" fill="none" stroke="black" stroke-width="2"/>
<path d="M445.816,267.335h 2.84889" fill="none" stroke="black" stroke-width="2"/>
<path d="M447.24,286.369v 15.6429" fill="none" stroke="black" stroke-width="2"/>
<path d="M445.816,302.012h 2.84889" fill="none" stroke="black" stroke-width="2"/>
<path d="M465.382,335.774h -9.07087" fill="none" stroke="black" stroke-width="2"/>
<path d="M456.311,337.198v -2.84889" fill="none" stroke="black" stroke-width="2"/>
<path d="M465.382,335.774h 9.07087" fill="none" stroke="black" stroke-width="2"/>
<path d="M474.453,337.198v -2.84889" fill="none" stroke="black" stroke-width="2"/>
<path d="M465.382,335.774v -13.1756" fill="none" stroke="black" stroke-width="2"/>
<path d="M463.957,322.598h 2.84889" fill="none" stroke="black" stroke-width="2"/>
<path d="M465.382,335.774v 9.59907" fill="none" stroke="black" stroke-width="2"/>
<path d="M463.957,345.373h 2.84889" fill="none" stroke="black" stroke-width="2"/>
<path d="M483.524,311.071h -9.07087" fill="none" stroke="black" stroke-width="2"/>
<path d="M474.453,312.496v -2.84889" fill="none" stroke="black" stroke-width="2"/>
<path d="M483.524,311.071h 9.07087" fill="none" stroke="black" stroke-width="2"/>
<path d="M492.594,312.496v -2.84889" fill="none" stroke="black" stroke-width="2"/>
<path d="M483.524,311.071v -16.4303" fill="none" stroke="black" stroke-width="2"/>
<path d="M482.099,294.641h 2.84889" fill="none" stroke="black" stroke-width="2"/>
<path d="M483.524,311.071v 12.9777" fill="none" stroke="black" stroke-width="2"/>
<path d="M482.099,324.049h 2.84889" fill="none" stroke="black" stroke-width="2"/>
<path d="M501.665,338.862h -9.07087" fill="none" stroke="black" stroke-width="2"/>
<path d="M492.594,340.286v -2.84889" fill="none" stroke="black" stroke-width="2"/>
<path d="M501.665,338.862h 9.07087" fill="none" stroke="black" stroke-width="2"/>
<path d="M510.736,340.286v -2.84889" fill="none" stroke="black" stroke-width="2"/>
<path d="M501.665,338.862v -12.6916" fill="none" stroke="black" stroke-width="2"/>
<path d="M500.241,326.17h 2.84889" fill="none" stroke="black" stroke-width="2"/>
<path d="M501.665,338.862v 9.08886" fill="none" stroke="black" stroke-width="2"/>
<path d="M500.241,347.951h 2.84889" fill="none" stroke="black" stroke-width="2"/>
<g fill="black">
<circle cx="66.2638" cy="255.491" r="2.84889"/>
<circle cx="84.4055" cy="258.579" r="2.84889"/>
<circle cx="102.547" cy="261.666" r="2.84889"/>
<circle cx="120.689" cy="240.052" r="2.84889"/>
<circle cx="138.831" cy="286.369" r="2.84889"/>
<circle cx="156.972" cy="243.14" r="2.84889"/>
<circle cx="175.114" cy="255.491" r="2.84889"/>
<circle cx="193.256" cy="233.876" r="2.84889"/>
<circle cx="211.398" cy="283.281" r="2.84889"/>
<circle cx="229.539" cy="233.876" r="2.84889"/>
<circle cx="247.681" cy="295.632" r="2.84889"/>
<circle cx="265.823" cy="243.14" r="2.84889"/>
<circle cx="283.965" cy="267.842" r="2.84889"/>
<circle cx="302.106" cy="264.754" r="2.84889"/>
<circle cx="320.248" cy="230.788" r="2.84889"/>
<circle cx="338.39" cy="230.788" r="2.84889"/>
<circle cx="356.531" cy="252.403" r="2.84889"/>
<circle cx="374.673" cy="181.383" r="2.84889"/>
<circle cx="392.815" cy="88.7488" r="2.84889"/>
<circle cx="410.957" cy="199.91" r="2.84889"/>
<circle cx="429.098" cy="261.666" r="2.84889"/>
<circle cx="447.24" cy="286.369" r="2.84889"/>
<circle cx="465.382" cy="335.774" r="2.84889"/>
<circle cx="483.524" cy="311.071" r="2.84889"/>
<circle cx="501.665" cy="338.862" r="2.84889"/>
</g>
<path d="M57.1929,285.614z" fill="none" stroke="#ff0000" stroke-width="6"/>
<path d="M57.1929,285.614l 18.1417, -4.90635l 18.1417, -5.05298l 18.1417, -5.1762l 18.1417, -5.26934l 18.1417, -5.32459l 18.1417, -5.33278l 18.1417, -5.28319l 18.1417, -5.16334l 18.1417, -4.95873l 18.1417, -4.65251l 18.1417, -4.2252l 18.1417,
 -3.65423l 18.1417, -2.9136l 18.1417, -1.97331l 9.07087, -0.562344l 9.07087, -0.236475l 9.07087, 0.124912l 9.07087, 0.524662l 9.07087, 0.965819l 9.07087, 1.45165l 9.07087, 1.98564l 9.07087, 2.57153l 9.07087, 3.21333l 9.07087, 3.91532l 9.07087,
 4.68207l 9.07087, 5.51849l 9.07087, 6.42982l 9.07087, 7.42165l 9.07087, 8.49997l 4.53543, 4.68312l 4.53543, 4.98806l 4.53543, 5.30568l 4.53543, 5.63644l 4.53543, 5.98081l 4.53543, 6.33928l 4.53543, 6.71235l 4.53543, 7.10054l 4.53543, 7.5044l
 4.53543, 7.92447l 4.53543, 8.36132l 4.53543, 8.81557l 4.53543, 9.28781l 4.53543, 9.77868" fill="none" stroke="#ff0000" stroke-width="6"/>
<path d="M57.1929,366.652z" fill="none" stroke="#0000ff" stroke-width="6" stroke-dasharray=" 3, 3"/>
<path d="M57.1929,366.652h 453.543" fill="none" stroke="#0000ff" stroke-width="6" stroke-dasharray=" 3, 3"/>
<path d="M57.1929,285.614z" fill="none" stroke="#00ff00" stroke-width="6" stroke-dasharray=" 3, 3"/>
<path d="M57.1929,285.614l 18.1417, -4.90635l 18.1417, -5.05298l 18.1417, -5.1762l 18.1417, -5.26934l 18.1417, -5.32459l 18.1417, -5.33278l 18.1417, -5.28319l 18.1417, -5.16334l 18.1417, -4.95873l 18.1417, -4.65251l 18.1417, -4.2252l 18.1417,
 -3.65423l 18.1417, -2.9136l 18.1417, -1.97331l 9.07087, -0.562344l 9.07087, -0.236475l 9.07087, 0.124912l 9.07087, 0.524662l 9.07087, 0.965819l 9.07087, 1.45165l 9.07087, 1.98564l 9.07087, 2.57153l 9.07087, 3.21333l 9.07087, 3.91532l 9.07087,
 4.68207l 9.07087, 5.51849l 9.07087, 6.42982l 9.07087, 7.42165l 9.07087, 8.49997l 4.53543, 4.68312l 4.53543, 4.98806l 4.53543, 5.30568l 4.53543, 5.63644l 4.53543, 5.98081l 4.53543, 6.33928l 4.53543, 6.71235l 4.53543, 7.10054l 4.53543, 7.5044l
 4.53543, 7.92447l 4.53543, 8.36132l 4.53543, 8.81557l 4.53543, 9.28781l 4.53543, 9.77868" fill="none" stroke="#00ff00" stroke-width="6" stroke-dasharray=" 3, 3"/>
<path d="M57.1929,366.652h 453.543" fill="none" stroke="black"/>
<path d="M57.1929,356.875v 9.77739" fill="none" stroke="black"/>
<path d="M66.3066,361.763v 4.8887" fill="none" stroke="black"/>
<path d="M75.4203,361.763v 4.8887" fill="none" stroke="black"/>
<path d="M84.534,361.763v 4.8887" fill="none" stroke="black"/>
<path d="M93.6477,361.763v 4.8887" fill="none" stroke="black"/>
<path d="M102.761,356.875v 9.77739" fill="none" stroke="black"/>
<path d="M111.875,361.763v 4.8887" fill="none" stroke="black"/>
<path d="M120.989,361.763v 4.8887" fill="none" stroke="black"/>
<path d="M130.103,361.763v 4.8887" fill="none" stroke="black"/>
<path d="M139.216,361.763v 4.8887" fill="none" stroke="black"/>
<path d="M148.33,356.875v 9.77739" fill="none" stroke="black"/>
<path d="M157.444,361.763v 4.8887" fill="none" stroke="black"/>
<path d="M166.557,361.763v 4.8887" fill="none" stroke="black"/>
<path d="M175.671,361.763v 4.8887" fill="none" stroke="black"/>
<path d="M184.785,361.763v 4.8887" fill="none" stroke="black"/>
<path d="M193.898,356.875v 9.77739" fill="none" stroke="black"/>
<path d="M203.012,361.763v 4.8887" fill="none" stroke="black"/>
<path d="M212.126,361.763v 4.8887" fill="none" stroke="black"/>
<path d="M221.24,361.763v 4.8887" fill="none" stroke="black"/>
<path d="M230.353,361.763v 4.8887" fill="none" stroke="black"/>
<path d="M239.467,356.875v 9.77739" fill="none" stroke="black"/>
<path d="M248.581,361.763v 4.8887" fill="none" stroke="black"/>
<path d="M257.694,361.763v 4.8887" fill="none" stroke="black"/>
<path d="M266.808,361.763v 4.8887" fill="none" stroke="black"/>
<path d="M275.922,361.763v 4.8887" fill="none" stroke="black"/>
<path d="M285.035,356.875v 9.77739" fill="none" stroke="black"/>
<path d="M294.149,361.763v 4.8887" fill="none" stroke="black"/>
<path d="M303.263,361.763v 4.8887" fill="none" stroke="black"/>
<path d="M312.377,361.763v 4.8887" fill="none" stroke="black"/>
<path d="M321.49,361.763v 4.8887" fill="none" stroke="black"/>
<path d="M330.604,356.875v 9.77739" fill="none" stroke="black"/>
<path d="M339.718,361.763v 4.8887" fill="none" stroke="black"/>
<path d="M348.831,361.763v 4.8887" fill="none" stroke="black"/>
<path d="M357.945,361.763v 4.8887" fill="none" stroke="black"/>
<path d="M367.059,361.763v 4.8887" fill="none" stroke="black"/>
<path d="M376.172,356.875v 9.77739" fill="none" stroke="black"/>
<path d="M385.286,361.763v 4.8887" fill="none" stroke="black"/>
<path d="M394.4,361.763v 4.8887" fill="none" stroke="black"/>
<path d="M403.514,361.763v 4.8887" fill="none" stroke="black"/>
<path d="M412.627,361.763v 4.8887" fill="none" stroke="black"/>
<path d="M421.741,356.875v 9.77739" fill="none" stroke="black"/>
<path d="M430.855,361.763v 4.8887" fill="none" stroke="black"/>
<path d="M439.968,361.763v 4.8887" fill="none" stroke="black"/>
<path d="M449.082,361.763v 4.8887" fill="none" stroke="black"/>
<path d="M458.196,361.763v 4.8887" fill="none" stroke="black"/>
<path d="M467.309,356.875v 9.77739" fill="none" stroke="black"/>
<path d="M467.309,356.875v 9.77739" fill="none" stroke="black"/>
<path d="M476.423,361.763v 4.8887" fill="none" stroke="black"/>
<path d="M485.537,361.763v 4.8887" fill="none" stroke="black"/>
<path d="M494.651,361.763v 4.8887" fill="none" stroke="black"/>
<path d="M503.764,361.763v 4.8887" fill="none" stroke="black"/>
<path d="M57.1929,366.652v -325.913" fill="none" stroke="black"/>
<path d="M70.7992,366.652h -13.6063" fill="none" stroke="black"/>
<path d="M63.9961,351.213h -6.80315" fill="none" stroke="black"/>
<path d="M63.9961,335.774h -6.80315" fill="none" stroke="black"/>
<path d="M63.9961,320.335h -6.80315" fill="none" stroke="black"/>
<path d="M70.7992,304.896h -13.6063" fill="none" stroke="black"/>
<path d="M63.9961,289.457h -6.80315" fill="none" stroke="black"/>
<path d="M63.9961,274.018h -6.80315" fill="none" stroke="black"/>
<path d="M63.9961,258.579h -6.80315" fill="none" stroke="black"/>
<path d="M70.7992,243.14h -13.6063" fill="none" stroke="black"/>
<path d="M63.9961,227.7h -6.80315" fill="none" stroke="black"/>
<path d="M63.9961,212.261h -6.80315" fill="none" stroke="black"/>
<path d="M63.9961,196.822h -6.80315" fill="none" stroke="black"/>
<path d="M70.7992,181.383h -13.6063" fill="none" stroke="black"/>
<path d="M63.9961,165.944h -6.80315" fill="none" stroke="black"/>
<path d="M63.9961,150.505h -6.80315" fill="none" stroke="black"/>
<path d="M63.9961,135.066h -6.80315" fill="none" stroke="black"/>
<path d="M70.7992,119.627h -13.6063" fill="none" stroke="black"/>
<path d="M63.9961,104.188h -6.80315" fill="none" stroke="black"/>
<path d="M63.9961,88.7488h -6.80315" fill="none" stroke="black"/>
<path d="M63.9961,73.3097h -6.80315" fill="none" stroke="black"/>
<path d="M70.7992,57.8706h -13.6063" fill="none" stroke="black"/>
<path d="M70.7992,57.8706h -13.6063" fill="none" stroke="black"/>
<path d="M63.9961,42.4316h -6.80315" fill="none" stroke="black"/>
<rect x="85.5394" y="48.887" width="130.394" height="52.9609" fill="white"/>
<text xml:space="preserve" x="90.24" y="82.6178" fill="black" font-size="20.1505" font-family="Helvetica" font-weight="bold">E=4.600 GeV</text></svg>
