<?xml version="1.0" standalone="no"?>
<svg width="567.429" height="413.216" viewBox="0 0 567.429 413.216" xmlns="http://www.w3.org/2000/svg" shape-rendering="crispEdges">
<title>
pic_fit2.svg
</title>
<desc>
Creator: ROOT Version 6.20/06
CreationDate: Mon May 17 19:15:32 2021</desc>
<defs>
</defs>
<rect x="0.5" y="0" width="566.929" height="412.716" fill="white"/>
<rect x="57.1929" y="41.2716" width="453.543" height="330.172" fill="white"/>
<rect x="57.1929" y="41.2716" width="453.543" height="330.172" fill="none" stroke="black"/>
<rect x="57.1929" y="41.2716" width="453.543" height="330.172" fill="white"/>
<rect x="57.1929" y="41.2716" width="453.543" height="330.172" fill="none" stroke="black"/>
<path d="M57.1929,371.444h 453.543" fill="none" stroke="black"/>
<path d="M57.1929,361.539v 9.90517" fill="none" stroke="black"/>
<path d="M66.2638,366.491v 4.95259" fill="none" stroke="black"/>
<path d="M75.3346,366.491v 4.95259" fill="none" stroke="black"/>
<path d="M84.4055,366.491v 4.95259" fill="none" stroke="black"/>
<path d="M93.4764,366.491v 4.95259" fill="none" stroke="black"/>
<path d="M102.547,361.539v 9.90517" fill="none" stroke="black"/>
<path d="M111.618,366.491v 4.95259" fill="none" stroke="black"/>
<path d="M120.689,366.491v 4.95259" fill="none" stroke="black"/>
<path d="M129.76,366.491v 4.95259" fill="none" stroke="black"/>
<path d="M138.831,366.491v 4.95259" fill="none" stroke="black"/>
<path d="M147.902,361.539v 9.90517" fill="none" stroke="black"/>
<path d="M156.972,366.491v 4.95259" fill="none" stroke="black"/>
<path d="M166.043,366.491v 4.95259" fill="none" stroke="black"/>
<path d="M175.114,366.491v 4.95259" fill="none" stroke="black"/>
<path d="M184.185,366.491v 4.95259" fill="none" stroke="black"/>
<path d="M193.256,361.539v 9.90517" fill="none" stroke="black"/>
<path d="M202.327,366.491v 4.95259" fill="none" stroke="black"/>
<path d="M211.398,366.491v 4.95259" fill="none" stroke="black"/>
<path d="M220.469,366.491v 4.95259" fill="none" stroke="black"/>
<path d="M229.539,366.491v 4.95259" fill="none" stroke="black"/>
<path d="M238.61,361.539v 9.90517" fill="none" stroke="black"/>
<path d="M247.681,366.491v 4.95259" fill="none" stroke="black"/>
<path d="M256.752,366.491v 4.95259" fill="none" stroke="black"/>
<path d="M265.823,366.491v 4.95259" fill="none" stroke="black"/>
<path d="M274.894,366.491v 4.95259" fill="none" stroke="black"/>
<path d="M283.965,361.539v 9.90517" fill="none" stroke="black"/>
<path d="M293.035,366.491v 4.95259" fill="none" stroke="black"/>
<path d="M302.106,366.491v 4.95259" fill="none" stroke="black"/>
<path d="M311.177,366.491v 4.95259" fill="none" stroke="black"/>
<path d="M320.248,366.491v 4.95259" fill="none" stroke="black"/>
<path d="M329.319,361.539v 9.90517" fill="none" stroke="black"/>
<path d="M338.39,366.491v 4.95259" fill="none" stroke="black"/>
<path d="M347.461,366.491v 4.95259" fill="none" stroke="black"/>
<path d="M356.531,366.491v 4.95259" fill="none" stroke="black"/>
<path d="M365.602,366.491v 4.95259" fill="none" stroke="black"/>
<path d="M374.673,361.539v 9.90517" fill="none" stroke="black"/>
<path d="M383.744,366.491v 4.95259" fill="none" stroke="black"/>
<path d="M392.815,366.491v 4.95259" fill="none" stroke="black"/>
<path d="M401.886,366.491v 4.95259" fill="none" stroke="black"/>
<path d="M410.957,366.491v 4.95259" fill="none" stroke="black"/>
<path d="M420.028,361.539v 9.90517" fill="none" stroke="black"/>
<path d="M429.098,366.491v 4.95259" fill="none" stroke="black"/>
<path d="M438.169,366.491v 4.95259" fill="none" stroke="black"/>
<path d="M447.24,366.491v 4.95259" fill="none" stroke="black"/>
<path d="M456.311,366.491v 4.95259" fill="none" stroke="black"/>
<path d="M465.382,361.539v 9.90517" fill="none" stroke="black"/>
<path d="M474.453,366.491v 4.95259" fill="none" stroke="black"/>
<path d="M483.524,366.491v 4.95259" fill="none" stroke="black"/>
<path d="M492.594,366.491v 4.95259" fill="none" stroke="black"/>
<path d="M501.665,366.491v 4.95259" fill="none" stroke="black"/>
<path d="M510.736,361.539v 9.90517" fill="none" stroke="black"/>
<text xml:space="preserve" x="44.3233" y="384.979" fill="black" font-size="13.7523" font-family="Helvetica">2.25</text>
<text xml:space="preserve" x="89.256" y="384.979" fill="black" font-size="13.7523" font-family="Helvetica">2.26</text>
<text xml:space="preserve" x="134.743" y="384.979" fill="black" font-size="13.7523" font-family="Helvetica">2.27</text>
<text xml:space="preserve" x="180.231" y="384.979" fill="black" font-size="13.7523" font-family="Helvetica">2.28</text>
<text xml:space="preserve" x="225.718" y="384.979" fill="black" font-size="13.7523" font-family="Helvetica">2.29</text>
<text xml:space="preserve" x="275.089" y="384.979" fill="black" font-size="13.7523" font-family="Helvetica">2.3</text>
<text xml:space="preserve" x="317.248" y="384.979" fill="black" font-size="13.7523" font-family="Helvetica">2.31</text>
<text xml:space="preserve" x="361.626" y="384.979" fill="black" font-size="13.7523" font-family="Helvetica">2.32</text>
<text xml:space="preserve" x="407.114" y="384.979" fill="black" font-size="13.7523" font-family="Helvetica">2.33</text>
<text xml:space="preserve" x="452.601" y="384.979" fill="black" font-size="13.7523" font-family="Helvetica">2.34</text>
<text xml:space="preserve" x="497.534" y="384.979" fill="black" font-size="13.7523" font-family="Helvetica">2.35</text>
<text xml:space="preserve" x="506.409" y="398.847" fill="black" font-size="13.7523" font-family="Helvetica">)</text>
<text xml:space="preserve" x="501.417" y="392.745" fill="black" font-size="9.33489" font-family="Helvetica">2</text>
<text xml:space="preserve" x="457.594" y="398.847" fill="black" font-size="13.7523" font-family="Helvetica"> (GeV/c</text>
<text xml:space="preserve" x="445.39" y="402.73" fill="black" font-size="9.33489" font-family="Helvetica">BC</text>
<text xml:space="preserve" x="434.85" y="398.847" fill="black" font-size="13.7523" font-family="Helvetica">M</text>
<path d="M57.1929,371.444v -330.172" fill="none" stroke="black"/>
<path d="M70.7992,371.444h -13.6063" fill="none" stroke="black"/>
<path d="M63.9961,364.019h -6.80315" fill="none" stroke="black"/>
<path d="M63.9961,356.594h -6.80315" fill="none" stroke="black"/>
<path d="M63.9961,349.169h -6.80315" fill="none" stroke="black"/>
<path d="M63.9961,341.743h -6.80315" fill="none" stroke="black"/>
<path d="M70.7992,334.318h -13.6063" fill="none" stroke="black"/>
<path d="M63.9961,326.893h -6.80315" fill="none" stroke="black"/>
<path d="M63.9961,319.468h -6.80315" fill="none" stroke="black"/>
<path d="M63.9961,312.043h -6.80315" fill="none" stroke="black"/>
<path d="M63.9961,304.618h -6.80315" fill="none" stroke="black"/>
<path d="M70.7992,297.193h -13.6063" fill="none" stroke="black"/>
<path d="M63.9961,289.767h -6.80315" fill="none" stroke="black"/>
<path d="M63.9961,282.342h -6.80315" fill="none" stroke="black"/>
<path d="M63.9961,274.917h -6.80315" fill="none" stroke="black"/>
<path d="M63.9961,267.492h -6.80315" fill="none" stroke="black"/>
<path d="M70.7992,260.067h -13.6063" fill="none" stroke="black"/>
<path d="M63.9961,252.642h -6.80315" fill="none" stroke="black"/>
<path d="M63.9961,245.217h -6.80315" fill="none" stroke="black"/>
<path d="M63.9961,237.792h -6.80315" fill="none" stroke="black"/>
<path d="M63.9961,230.366h -6.80315" fill="none" stroke="black"/>
<path d="M70.7992,222.941h -13.6063" fill="none" stroke="black"/>
<path d="M63.9961,215.516h -6.80315" fill="none" stroke="black"/>
<path d="M63.9961,208.091h -6.80315" fill="none" stroke="black"/>
<path d="M63.9961,200.666h -6.80315" fill="none" stroke="black"/>
<path d="M63.9961,193.241h -6.80315" fill="none" stroke="black"/>
<path d="M70.7992,185.816h -13.6063" fill="none" stroke="black"/>
<path d="M63.9961,178.39h -6.80315" fill="none" stroke="black"/>
<path d="M63.9961,170.965h -6.80315" fill="none" stroke="black"/>
<path d="M63.9961,163.54h -6.80315" fill="none" stroke="black"/>
<path d="M63.9961,156.115h -6.80315" fill="none" stroke="black"/>
<path d="M70.7992,148.69h -13.6063" fill="none" stroke="black"/>
<path d="M63.9961,141.265h -6.80315" fill="none" stroke="black"/>
<path d="M63.9961,133.84h -6.80315" fill="none" stroke="black"/>
<path d="M63.9961,126.415h -6.80315" fill="none" stroke="black"/>
<path d="M63.9961,118.989h -6.80315" fill="none" stroke="black"/>
<path d="M70.7992,111.564h -13.6063" fill="none" stroke="black"/>
<path d="M63.9961,104.139h -6.80315" fill="none" stroke="black"/>
<path d="M63.9961,96.714h -6.80315" fill="none" stroke="black"/>
<path d="M63.9961,89.2888h -6.80315" fill="none" stroke="black"/>
<path d="M63.9961,81.8637h -6.80315" fill="none" stroke="black"/>
<path d="M70.7992,74.4386h -13.6063" fill="none" stroke="black"/>
<path d="M70.7992,74.4386h -13.6063" fill="none" stroke="black"/>
<path d="M63.9961,67.0134h -6.80315" fill="none" stroke="black"/>
<path d="M63.9961,59.5883h -6.80315" fill="none" stroke="black"/>
<path d="M63.9961,52.1632h -6.80315" fill="none" stroke="black"/>
<path d="M63.9961,44.738h -6.80315" fill="none" stroke="black"/>
<text xml:space="preserve" x="47.0969" y="376.104" fill="black" font-size="13.7523" font-family="Helvetica">0</text>
<text xml:space="preserve" x="39.8855" y="338.937" fill="black" font-size="13.7523" font-family="Helvetica">10</text>
<text xml:space="preserve" x="39.8855" y="301.771" fill="black" font-size="13.7523" font-family="Helvetica">20</text>
<text xml:space="preserve" x="39.8855" y="264.604" fill="black" font-size="13.7523" font-family="Helvetica">30</text>
<text xml:space="preserve" x="39.8855" y="227.437" fill="black" font-size="13.7523" font-family="Helvetica">40</text>
<text xml:space="preserve" x="39.8855" y="190.271" fill="black" font-size="13.7523" font-family="Helvetica">50</text>
<text xml:space="preserve" x="39.8855" y="153.659" fill="black" font-size="13.7523" font-family="Helvetica">60</text>
<text xml:space="preserve" x="39.8855" y="116.492" fill="black" font-size="13.7523" font-family="Helvetica">70</text>
<text xml:space="preserve" x="39.8855" y="79.3257" fill="black" font-size="13.7523" font-family="Helvetica">80</text>
<g transform="rotate(-90,27.6815,44.9327)">
<text xml:space="preserve" x="27.6815" y="44.9327" fill="black" font-size="13.7523" font-family="Helvetica">)</text>
</g>
<g transform="rotate(-90,21.5796,49.9253)">
<text xml:space="preserve" x="21.5796" y="49.9253" fill="black" font-size="9.33489" font-family="Helvetica">2</text>
</g>
<g transform="rotate(-90,27.6815,163.089)">
<text xml:space="preserve" x="27.6815" y="163.089" fill="black" font-size="13.7523" font-family="Helvetica">Events/(  3.3 MeV/c</text>
</g>
<path d="M64.752,196.953h -7.55905" fill="none" stroke="black" stroke-width="4"/>
<path d="M57.1929,198.063v -2.2189" fill="none" stroke="black" stroke-width="4"/>
<path d="M64.752,196.953h 7.55905" fill="none" stroke="black" stroke-width="4"/>
<path d="M72.311,198.063v -2.2189" fill="none" stroke="black" stroke-width="4"/>
<path d="M64.752,196.953v -29.3452" fill="none" stroke="black" stroke-width="4"/>
<path d="M63.6425,167.608h 2.2189" fill="none" stroke="black" stroke-width="4"/>
<path d="M64.752,196.953v 25.3612" fill="none" stroke="black" stroke-width="4"/>
<path d="M63.6425,222.314h 2.2189" fill="none" stroke="black" stroke-width="4"/>
<path d="M79.8701,208.091h -7.55905" fill="none" stroke="black" stroke-width="4"/>
<path d="M72.311,209.2v -2.2189" fill="none" stroke="black" stroke-width="4"/>
<path d="M79.8701,208.091h 7.55905" fill="none" stroke="black" stroke-width="4"/>
<path d="M87.4291,209.2v -2.2189" fill="none" stroke="black" stroke-width="4"/>
<path d="M79.8701,208.091v -28.5256" fill="none" stroke="black" stroke-width="4"/>
<path d="M78.7606,179.565h 2.2189" fill="none" stroke="black" stroke-width="4"/>
<path d="M79.8701,208.091v 24.5324" fill="none" stroke="black" stroke-width="4"/>
<path d="M78.7606,232.623h 2.2189" fill="none" stroke="black" stroke-width="4"/>
<path d="M94.9882,226.654h -7.55905" fill="none" stroke="black" stroke-width="4"/>
<path d="M87.4291,227.763v -2.2189" fill="none" stroke="black" stroke-width="4"/>
<path d="M94.9882,226.654h 7.55905" fill="none" stroke="black" stroke-width="4"/>
<path d="M102.547,227.763v -2.2189" fill="none" stroke="black" stroke-width="4"/>
<path d="M94.9882,226.654v -27.0957" fill="none" stroke="black" stroke-width="4"/>
<path d="M93.8787,199.558h 2.2189" fill="none" stroke="black" stroke-width="4"/>
<path d="M94.9882,226.654v 23.0851" fill="none" stroke="black" stroke-width="4"/>
<path d="M93.8787,249.739h 2.2189" fill="none" stroke="black" stroke-width="4"/>
<path d="M110.106,230.366h -7.55905" fill="none" stroke="black" stroke-width="4"/>
<path d="M102.547,231.476v -2.2189" fill="none" stroke="black" stroke-width="4"/>
<path d="M110.106,230.366h 7.55905" fill="none" stroke="black" stroke-width="4"/>
<path d="M117.665,231.476v -2.2189" fill="none" stroke="black" stroke-width="4"/>
<path d="M110.106,230.366v -26.7991" fill="none" stroke="black" stroke-width="4"/>
<path d="M108.997,203.567h 2.2189" fill="none" stroke="black" stroke-width="4"/>
<path d="M110.106,230.366v 22.7846" fill="none" stroke="black" stroke-width="4"/>
<path d="M108.997,253.151h 2.2189" fill="none" stroke="black" stroke-width="4"/>
<path d="M125.224,215.516h -7.55905" fill="none" stroke="black" stroke-width="4"/>
<path d="M117.665,216.626v -2.2189" fill="none" stroke="black" stroke-width="4"/>
<path d="M125.224,215.516h 7.55905" fill="none" stroke="black" stroke-width="4"/>
<path d="M132.783,216.626v -2.2189" fill="none" stroke="black" stroke-width="4"/>
<path d="M125.224,215.516v -27.9637" fill="none" stroke="black" stroke-width="4"/>
<path d="M124.115,187.552h 2.2189" fill="none" stroke="black" stroke-width="4"/>
<path d="M125.224,215.516v 23.964" fill="none" stroke="black" stroke-width="4"/>
<path d="M124.115,239.48h 2.2189" fill="none" stroke="black" stroke-width="4"/>
<path d="M140.343,256.354h -7.55905" fill="none" stroke="black" stroke-width="4"/>
<path d="M132.783,257.464v -2.2189" fill="none" stroke="black" stroke-width="4"/>
<path d="M140.343,256.354h 7.55905" fill="none" stroke="black" stroke-width="4"/>
<path d="M147.902,257.464v -2.2189" fill="none" stroke="black" stroke-width="4"/>
<path d="M140.343,256.354v -24.6054" fill="none" stroke="black" stroke-width="4"/>
<path d="M139.233,231.749h 2.2189" fill="none" stroke="black" stroke-width="4"/>
<path d="M140.343,256.354v 20.5586" fill="none" stroke="black" stroke-width="4"/>
<path d="M139.233,276.913h 2.2189" fill="none" stroke="black" stroke-width="4"/>
<path d="M155.461,196.953h -7.55905" fill="none" stroke="black" stroke-width="4"/>
<path d="M147.902,198.063v -2.2189" fill="none" stroke="black" stroke-width="4"/>
<path d="M155.461,196.953h 7.55905" fill="none" stroke="black" stroke-width="4"/>
<path d="M163.02,198.063v -2.2189" fill="none" stroke="black" stroke-width="4"/>
<path d="M155.461,196.953v -29.3452" fill="none" stroke="black" stroke-width="4"/>
<path d="M154.351,167.608h 2.2189" fill="none" stroke="black" stroke-width="4"/>
<path d="M155.461,196.953v 25.3612" fill="none" stroke="black" stroke-width="4"/>
<path d="M154.351,222.314h 2.2189" fill="none" stroke="black" stroke-width="4"/>
<path d="M170.579,193.241h -7.55905" fill="none" stroke="black" stroke-width="4"/>
<path d="M163.02,194.35v -2.2189" fill="none" stroke="black" stroke-width="4"/>
<path d="M170.579,193.241h 7.55905" fill="none" stroke="black" stroke-width="4"/>
<path d="M178.138,194.35v -2.2189" fill="none" stroke="black" stroke-width="4"/>
<path d="M170.579,193.241v -29.6127" fill="none" stroke="black" stroke-width="4"/>
<path d="M169.469,163.628h 2.2189" fill="none" stroke="black" stroke-width="4"/>
<path d="M170.579,193.241v 25.6315" fill="none" stroke="black" stroke-width="4"/>
<path d="M169.469,218.872h 2.2189" fill="none" stroke="black" stroke-width="4"/>
<path d="M185.697,219.229h -7.55905" fill="none" stroke="black" stroke-width="4"/>
<path d="M178.138,220.338v -2.2189" fill="none" stroke="black" stroke-width="4"/>
<path d="M185.697,219.229h 7.55905" fill="none" stroke="black" stroke-width="4"/>
<path d="M193.256,220.338v -2.2189" fill="none" stroke="black" stroke-width="4"/>
<path d="M185.697,219.229v -27.6779" fill="none" stroke="black" stroke-width="4"/>
<path d="M184.587,191.551h 2.2189" fill="none" stroke="black" stroke-width="4"/>
<path d="M185.697,219.229v 23.6747" fill="none" stroke="black" stroke-width="4"/>
<path d="M184.587,242.903h 2.2189" fill="none" stroke="black" stroke-width="4"/>
<path d="M200.815,178.39h -7.55905" fill="none" stroke="black" stroke-width="4"/>
<path d="M193.256,179.5v -2.2189" fill="none" stroke="black" stroke-width="4"/>
<path d="M200.815,178.39h 7.55905" fill="none" stroke="black" stroke-width="4"/>
<path d="M208.374,179.5v -2.2189" fill="none" stroke="black" stroke-width="4"/>
<path d="M200.815,178.39v -30.656" fill="none" stroke="black" stroke-width="4"/>
<path d="M199.706,147.734h 2.2189" fill="none" stroke="black" stroke-width="4"/>
<path d="M200.815,178.39v 26.6853" fill="none" stroke="black" stroke-width="4"/>
<path d="M199.706,205.076h 2.2189" fill="none" stroke="black" stroke-width="4"/>
<path d="M215.933,93.0014h -7.55905" fill="none" stroke="black" stroke-width="4"/>
<path d="M208.374,94.1108v -2.2189" fill="none" stroke="black" stroke-width="4"/>
<path d="M215.933,93.0014h 7.55905" fill="none" stroke="black" stroke-width="4"/>
<path d="M223.492,94.1108v -2.2189" fill="none" stroke="black" stroke-width="4"/>
<path d="M215.933,93.0014v -36.0073" fill="none" stroke="black" stroke-width="4"/>
<path d="M214.824,56.9941h 2.2189" fill="none" stroke="black" stroke-width="4"/>
<path d="M215.933,93.0014v 32.0799" fill="none" stroke="black" stroke-width="4"/>
<path d="M214.824,125.081h 2.2189" fill="none" stroke="black" stroke-width="4"/>
<path d="M231.051,111.564h -7.55905" fill="none" stroke="black" stroke-width="4"/>
<path d="M223.492,112.674v -2.2189" fill="none" stroke="black" stroke-width="4"/>
<path d="M231.051,111.564h 7.55905" fill="none" stroke="black" stroke-width="4"/>
<path d="M238.61,112.674v -2.2189" fill="none" stroke="black" stroke-width="4"/>
<path d="M231.051,111.564v -34.9221" fill="none" stroke="black" stroke-width="4"/>
<path d="M229.942,76.6421h 2.2189" fill="none" stroke="black" stroke-width="4"/>
<path d="M231.051,111.564v 30.9872" fill="none" stroke="black" stroke-width="4"/>
<path d="M229.942,142.551h 2.2189" fill="none" stroke="black" stroke-width="4"/>
<path d="M246.169,182.103h -7.55905" fill="none" stroke="black" stroke-width="4"/>
<path d="M238.61,183.212v -2.2189" fill="none" stroke="black" stroke-width="4"/>
<path d="M246.169,182.103h 7.55905" fill="none" stroke="black" stroke-width="4"/>
<path d="M253.728,183.212v -2.2189" fill="none" stroke="black" stroke-width="4"/>
<path d="M246.169,182.103v -30.399" fill="none" stroke="black" stroke-width="4"/>
<path d="M245.06,151.704h 2.2189" fill="none" stroke="black" stroke-width="4"/>
<path d="M246.169,182.103v 26.4258" fill="none" stroke="black" stroke-width="4"/>
<path d="M245.06,208.529h 2.2189" fill="none" stroke="black" stroke-width="4"/>
<path d="M261.287,189.528h -7.55905" fill="none" stroke="black" stroke-width="4"/>
<path d="M253.728,190.638v -2.2189" fill="none" stroke="black" stroke-width="4"/>
<path d="M261.287,189.528h 7.55905" fill="none" stroke="black" stroke-width="4"/>
<path d="M268.846,190.638v -2.2189" fill="none" stroke="black" stroke-width="4"/>
<path d="M261.287,189.528v -29.8774" fill="none" stroke="black" stroke-width="4"/>
<path d="M260.178,159.651h 2.2189" fill="none" stroke="black" stroke-width="4"/>
<path d="M261.287,189.528v 25.899" fill="none" stroke="black" stroke-width="4"/>
<path d="M260.178,215.427h 2.2189" fill="none" stroke="black" stroke-width="4"/>
<path d="M276.406,237.792h -7.55905" fill="none" stroke="black" stroke-width="4"/>
<path d="M268.846,238.901v -2.2189" fill="none" stroke="black" stroke-width="4"/>
<path d="M276.406,237.792h 7.55905" fill="none" stroke="black" stroke-width="4"/>
<path d="M283.965,238.901v -2.2189" fill="none" stroke="black" stroke-width="4"/>
<path d="M276.406,237.792v -26.1942" fill="none" stroke="black" stroke-width="4"/>
<path d="M275.296,211.597h 2.2189" fill="none" stroke="black" stroke-width="4"/>
<path d="M276.406,237.792v 22.1714" fill="none" stroke="black" stroke-width="4"/>
<path d="M275.296,259.963h 2.2189" fill="none" stroke="black" stroke-width="4"/>
<path d="M291.524,200.666h -7.55905" fill="none" stroke="black" stroke-width="4"/>
<path d="M283.965,201.775v -2.2189" fill="none" stroke="black" stroke-width="4"/>
<path d="M291.524,200.666h 7.55905" fill="none" stroke="black" stroke-width="4"/>
<path d="M299.083,201.775v -2.2189" fill="none" stroke="black" stroke-width="4"/>
<path d="M291.524,200.666v -29.0749" fill="none" stroke="black" stroke-width="4"/>
<path d="M290.414,171.591h 2.2189" fill="none" stroke="black" stroke-width="4"/>
<path d="M291.524,200.666v 25.088" fill="none" stroke="black" stroke-width="4"/>
<path d="M290.414,225.754h 2.2189" fill="none" stroke="black" stroke-width="4"/>
<path d="M306.642,256.354h -7.55905" fill="none" stroke="black" stroke-width="4"/>
<path d="M299.083,257.464v -2.2189" fill="none" stroke="black" stroke-width="4"/>
<path d="M306.642,256.354h 7.55905" fill="none" stroke="black" stroke-width="4"/>
<path d="M314.201,257.464v -2.2189" fill="none" stroke="black" stroke-width="4"/>
<path d="M306.642,256.354v -24.6054" fill="none" stroke="black" stroke-width="4"/>
<path d="M305.532,231.749h 2.2189" fill="none" stroke="black" stroke-width="4"/>
<path d="M306.642,256.354v 20.5586" fill="none" stroke="black" stroke-width="4"/>
<path d="M305.532,276.913h 2.2189" fill="none" stroke="black" stroke-width="4"/>
<path d="M321.76,245.217h -7.55905" fill="none" stroke="black" stroke-width="4"/>
<path d="M314.201,246.326v -2.2189" fill="none" stroke="black" stroke-width="4"/>
<path d="M321.76,245.217h 7.55905" fill="none" stroke="black" stroke-width="4"/>
<path d="M329.319,246.326v -2.2189" fill="none" stroke="black" stroke-width="4"/>
<path d="M321.76,245.217v -25.5725" fill="none" stroke="black" stroke-width="4"/>
<path d="M320.65,219.644h 2.2189" fill="none" stroke="black" stroke-width="4"/>
<path d="M321.76,245.217v 21.5408" fill="none" stroke="black" stroke-width="4"/>
<path d="M320.65,266.757h 2.2189" fill="none" stroke="black" stroke-width="4"/>
<path d="M336.878,248.929h -7.55905" fill="none" stroke="black" stroke-width="4"/>
<path d="M329.319,250.039v -2.2189" fill="none" stroke="black" stroke-width="4"/>
<path d="M336.878,248.929h 7.55905" fill="none" stroke="black" stroke-width="4"/>
<path d="M344.437,250.039v -2.2189" fill="none" stroke="black" stroke-width="4"/>
<path d="M336.878,248.929v -25.255" fill="none" stroke="black" stroke-width="4"/>
<path d="M335.768,223.674h 2.2189" fill="none" stroke="black" stroke-width="4"/>
<path d="M336.878,248.929v 21.2184" fill="none" stroke="black" stroke-width="4"/>
<path d="M335.768,270.148h 2.2189" fill="none" stroke="black" stroke-width="4"/>
<path d="M351.996,263.78h -7.55905" fill="none" stroke="black" stroke-width="4"/>
<path d="M344.437,264.889v -2.2189" fill="none" stroke="black" stroke-width="4"/>
<path d="M351.996,263.78h 7.55905" fill="none" stroke="black" stroke-width="4"/>
<path d="M359.555,264.889v -2.2189" fill="none" stroke="black" stroke-width="4"/>
<path d="M351.996,263.78v -23.935" fill="none" stroke="black" stroke-width="4"/>
<path d="M350.887,239.845h 2.2189" fill="none" stroke="black" stroke-width="4"/>
<path d="M351.996,263.78v 19.8768" fill="none" stroke="black" stroke-width="4"/>
<path d="M350.887,283.656h 2.2189" fill="none" stroke="black" stroke-width="4"/>
<path d="M367.114,274.917h -7.55905" fill="none" stroke="black" stroke-width="4"/>
<path d="M359.555,276.027v -2.2189" fill="none" stroke="black" stroke-width="4"/>
<path d="M367.114,274.917h 7.55905" fill="none" stroke="black" stroke-width="4"/>
<path d="M374.673,276.027v -2.2189" fill="none" stroke="black" stroke-width="4"/>
<path d="M367.114,274.917v -22.8855" fill="none" stroke="black" stroke-width="4"/>
<path d="M366.005,252.032h 2.2189" fill="none" stroke="black" stroke-width="4"/>
<path d="M367.114,274.917v 18.8079" fill="none" stroke="black" stroke-width="4"/>
<path d="M366.005,293.725h 2.2189" fill="none" stroke="black" stroke-width="4"/>
<path d="M382.232,271.205h -7.55905" fill="none" stroke="black" stroke-width="4"/>
<path d="M374.673,272.314v -2.2189" fill="none" stroke="black" stroke-width="4"/>
<path d="M382.232,271.205h 7.55905" fill="none" stroke="black" stroke-width="4"/>
<path d="M389.791,272.314v -2.2189" fill="none" stroke="black" stroke-width="4"/>
<path d="M382.232,271.205v -23.2416" fill="none" stroke="black" stroke-width="4"/>
<path d="M381.123,247.963h 2.2189" fill="none" stroke="black" stroke-width="4"/>
<path d="M382.232,271.205v 19.1709" fill="none" stroke="black" stroke-width="4"/>
<path d="M381.123,290.375h 2.2189" fill="none" stroke="black" stroke-width="4"/>
<path d="M397.35,282.342h -7.55905" fill="none" stroke="black" stroke-width="4"/>
<path d="M389.791,283.452v -2.2189" fill="none" stroke="black" stroke-width="4"/>
<path d="M397.35,282.342h 7.55905" fill="none" stroke="black" stroke-width="4"/>
<path d="M404.909,283.452v -2.2189" fill="none" stroke="black" stroke-width="4"/>
<path d="M397.35,282.342v -22.1526" fill="none" stroke="black" stroke-width="4"/>
<path d="M396.241,260.19h 2.2189" fill="none" stroke="black" stroke-width="4"/>
<path d="M397.35,282.342v 18.0602" fill="none" stroke="black" stroke-width="4"/>
<path d="M396.241,300.403h 2.2189" fill="none" stroke="black" stroke-width="4"/>
<path d="M412.469,330.606h -7.55905" fill="none" stroke="black" stroke-width="4"/>
<path d="M404.909,331.715v -2.2189" fill="none" stroke="black" stroke-width="4"/>
<path d="M412.469,330.606h 7.55905" fill="none" stroke="black" stroke-width="4"/>
<path d="M420.028,331.715v -2.2189" fill="none" stroke="black" stroke-width="4"/>
<path d="M412.469,330.606v -16.3966" fill="none" stroke="black" stroke-width="4"/>
<path d="M411.359,314.209h 2.2189" fill="none" stroke="black" stroke-width="4"/>
<path d="M412.469,330.606v 12.1237" fill="none" stroke="black" stroke-width="4"/>
<path d="M411.359,342.729h 2.2189" fill="none" stroke="black" stroke-width="4"/>
<path d="M427.587,345.456h -7.55905" fill="none" stroke="black" stroke-width="4"/>
<path d="M420.028,346.565v -2.2189" fill="none" stroke="black" stroke-width="4"/>
<path d="M427.587,345.456h 7.55905" fill="none" stroke="black" stroke-width="4"/>
<path d="M435.146,346.565v -2.2189" fill="none" stroke="black" stroke-width="4"/>
<path d="M427.587,345.456v -13.9974" fill="none" stroke="black" stroke-width="4"/>
<path d="M426.477,331.459h 2.2189" fill="none" stroke="black" stroke-width="4"/>
<path d="M427.587,345.456v 9.58388" fill="none" stroke="black" stroke-width="4"/>
<path d="M426.477,355.04h 2.2189" fill="none" stroke="black" stroke-width="4"/>
<path d="M442.705,334.318h -7.55905" fill="none" stroke="black" stroke-width="4"/>
<path d="M435.146,335.428v -2.2189" fill="none" stroke="black" stroke-width="4"/>
<path d="M442.705,334.318h 7.55905" fill="none" stroke="black" stroke-width="4"/>
<path d="M450.264,335.428v -2.2189" fill="none" stroke="black" stroke-width="4"/>
<path d="M442.705,334.318v -15.8413" fill="none" stroke="black" stroke-width="4"/>
<path d="M441.595,318.477h 2.2189" fill="none" stroke="black" stroke-width="4"/>
<path d="M442.705,334.318v 11.5412" fill="none" stroke="black" stroke-width="4"/>
<path d="M441.595,345.86h 2.2189" fill="none" stroke="black" stroke-width="4"/>
<path d="M457.823,330.606h -7.55905" fill="none" stroke="black" stroke-width="4"/>
<path d="M450.264,331.715v -2.2189" fill="none" stroke="black" stroke-width="4"/>
<path d="M457.823,330.606h 7.55905" fill="none" stroke="black" stroke-width="4"/>
<path d="M465.382,331.715v -2.2189" fill="none" stroke="black" stroke-width="4"/>
<path d="M457.823,330.606v -16.3966" fill="none" stroke="black" stroke-width="4"/>
<path d="M456.713,314.209h 2.2189" fill="none" stroke="black" stroke-width="4"/>
<path d="M457.823,330.606v 12.1237" fill="none" stroke="black" stroke-width="4"/>
<path d="M456.713,342.729h 2.2189" fill="none" stroke="black" stroke-width="4"/>
<path d="M472.941,367.731h -7.55905" fill="none" stroke="black" stroke-width="4"/>
<path d="M465.382,368.841v -2.2189" fill="none" stroke="black" stroke-width="4"/>
<path d="M472.941,367.731h 7.55905" fill="none" stroke="black" stroke-width="4"/>
<path d="M480.5,368.841v -2.2189" fill="none" stroke="black" stroke-width="4"/>
<path d="M472.941,367.731v -8.53715" fill="none" stroke="black" stroke-width="4"/>
<path d="M471.831,359.194h 2.2189" fill="none" stroke="black" stroke-width="4"/>
<path d="M472.941,367.731v 3.07121" fill="none" stroke="black" stroke-width="4"/>
<path d="M471.831,370.803h 2.2189" fill="none" stroke="black" stroke-width="4"/>
<path d="M488.059,352.881h -7.55905" fill="none" stroke="black" stroke-width="4"/>
<path d="M480.5,353.991v -2.2189" fill="none" stroke="black" stroke-width="4"/>
<path d="M488.059,352.881h 7.55905" fill="none" stroke="black" stroke-width="4"/>
<path d="M495.618,353.991v -2.2189" fill="none" stroke="black" stroke-width="4"/>
<path d="M488.059,352.881v -12.5577" fill="none" stroke="black" stroke-width="4"/>
<path d="M486.95,340.323h 2.2189" fill="none" stroke="black" stroke-width="4"/>
<path d="M488.059,352.881v 8.018" fill="none" stroke="black" stroke-width="4"/>
<path d="M486.95,360.899h 2.2189" fill="none" stroke="black" stroke-width="4"/>
<path d="M503.177,364.019h -7.55905" fill="none" stroke="black" stroke-width="4"/>
<path d="M495.618,365.128v -2.2189" fill="none" stroke="black" stroke-width="4"/>
<path d="M503.177,364.019h 7.55905" fill="none" stroke="black" stroke-width="4"/>
<path d="M510.736,365.128v -2.2189" fill="none" stroke="black" stroke-width="4"/>
<path d="M503.177,364.019v -9.79323" fill="none" stroke="black" stroke-width="4"/>
<path d="M502.068,354.226h 2.2189" fill="none" stroke="black" stroke-width="4"/>
<path d="M503.177,364.019v 4.79595" fill="none" stroke="black" stroke-width="4"/>
<path d="M502.068,368.815h 2.2189" fill="none" stroke="black" stroke-width="4"/>
<g fill="black">
<circle cx="64.752" cy="196.953" r="2.2189"/>
<circle cx="79.8701" cy="208.091" r="2.2189"/>
<circle cx="94.9882" cy="226.654" r="2.2189"/>
<circle cx="110.106" cy="230.366" r="2.2189"/>
<circle cx="125.224" cy="215.516" r="2.2189"/>
<circle cx="140.343" cy="256.354" r="2.2189"/>
<circle cx="155.461" cy="196.953" r="2.2189"/>
<circle cx="170.579" cy="193.241" r="2.2189"/>
<circle cx="185.697" cy="219.229" r="2.2189"/>
<circle cx="200.815" cy="178.39" r="2.2189"/>
<circle cx="215.933" cy="93.0014" r="2.2189"/>
<circle cx="231.051" cy="111.564" r="2.2189"/>
<circle cx="246.169" cy="182.103" r="2.2189"/>
<circle cx="261.287" cy="189.528" r="2.2189"/>
<circle cx="276.406" cy="237.792" r="2.2189"/>
<circle cx="291.524" cy="200.666" r="2.2189"/>
<circle cx="306.642" cy="256.354" r="2.2189"/>
<circle cx="321.76" cy="245.217" r="2.2189"/>
<circle cx="336.878" cy="248.929" r="2.2189"/>
<circle cx="351.996" cy="263.78" r="2.2189"/>
<circle cx="367.114" cy="274.917" r="2.2189"/>
<circle cx="382.232" cy="271.205" r="2.2189"/>
<circle cx="397.35" cy="282.342" r="2.2189"/>
<circle cx="412.469" cy="330.606" r="2.2189"/>
<circle cx="427.587" cy="345.456" r="2.2189"/>
<circle cx="442.705" cy="334.318" r="2.2189"/>
<circle cx="457.823" cy="330.606" r="2.2189"/>
<circle cx="472.941" cy="367.731" r="2.2189"/>
<circle cx="488.059" cy="352.881" r="2.2189"/>
<circle cx="503.177" cy="364.019" r="2.2189"/>
</g>
<path d="M57.1929,205.128z" fill="none" stroke="#ff0000" stroke-width="6"/>
<path d="M57.1929,205.128l 4.53543, 0.404815l 4.53543, 0.418185l 4.53543, 0.432103l 4.53543, 0.445697l 4.53543, 0.458983l 4.53543, 0.472072l 4.53543, 0.485198l 4.53543, 0.498699l 4.53543, 0.512968l 4.53543, 0.528367l 4.53543, 0.545127l 4.53543,
 0.563245l 4.53543, 0.582413l 4.53543, 0.601979l 4.53543, 0.620967l 4.53543, 0.638124l 4.53543, 0.651992l 4.53543, 0.660949l 4.53543, 0.663046l 4.53543, 0.65527l 4.53543, 0.631654l 4.53543, 0.580286l 4.53543, 0.481303l 4.53543, 0.308722l 4.53543,
 0.0284476l 4.53543, -0.43576l 4.53543, -1.26798l 4.53543, -2.74309l 2.26772, -2.18451l 2.26772, -2.87404l 2.26772, -3.67896l 2.26772, -4.61599l 2.26772, -5.71777l 2.26772, -7.01355l 2.26772, -8.47767l 2.26772, -9.98002l 2.26772, -11.2925l 2.26772,
 -12.1817l 4.53543, -24.8086l 2.26772, -11.5969l 2.26772, -10.4483l 2.26772, -8.738l 1.13386, -3.5064l 1.13386, -2.80353l 1.13386, -2.01878l 1.13386, -1.1742l 1.13386, -0.299426l 1.13386, 0.573496l 1.13386, 1.41741l 1.13386, 2.21088l 1.13386,
 2.94133l 1.13386, 3.60188l 2.26772, 8.88854l 2.26772, 10.642l 2.26772, 11.824l 2.26772, 12.4652l 4.53543, 24.6407l 2.26772, 11.113l 2.26772, 9.88074l 2.26772, 8.66831l 2.26772, 7.64443l 2.26772, 6.80106l 2.26772, 6.03185l 2.26772, 5.25229l 2.26772,
 4.4565l 2.26772, 3.69649l 2.26772, 3.03205l 4.53543, 4.59507l 4.53543, 3.41204l 4.53543, 2.79989l 4.53543, 2.4778l 4.53543, 2.38062l 4.53543, 2.44134l 4.53543, 2.50504l 4.53543, 2.45646l 4.53543, 2.31043l 4.53543, 2.16279l 4.53543, 2.09015l 4.53543,
 2.09874l 4.53543, 2.14708l 4.53543, 2.19664l 4.53543, 2.23533l 4.53543, 2.26619l 4.53543, 2.29029l 4.53543, 2.30397l 4.53543, 2.30558l 4.53543, 2.29945l 4.53543, 2.29346l 4.53543, 2.2944l 4.53543, 2.30565l 4.53543, 2.3271l 4.53543, 2.35626l 4.53543,
 2.3894l 4.53543, 2.4228l 4.53543, 2.45394l 4.53543, 2.48217l 4.53543, 2.50855l 4.53543, 2.53495l 4.53543, 2.56313l 4.53543, 2.59408l 4.53543, 2.62795l 4.53543, 2.66426l 4.53543, 2.70235l 4.53543, 2.7416l 4.53543, 2.78167l 4.53543, 2.82244l 4.53543,
 2.86394l 4.53543, 2.90627l 4.53543, 2.94954l 4.53543, 2.9938l 4.53543, 3.03904l 4.53543, 3.08526l 4.53543, 3.13239l 4.53543, 3.1804l 4.53543, 3.22925l 4.53543, 3.2789l 4.53543, 3.32935l 4.53543, 3.38058l 4.53543, 3.43262l 4.53543, 3.48554l 4.53543,
 3.53921" fill="none" stroke="#ff0000" stroke-width="6"/>
<path d="M57.1929,371.232z" fill="none" stroke="#0000ff" stroke-width="6" stroke-dasharray=" 3, 3"/>
<path d="M57.1929,371.232l 4.53543, -0.0210294l 4.53543, -0.0229676l 4.53543, -0.0245752l 4.53543, -0.0267261l 4.53543, -0.0294068l 4.53543, -0.0325086l 4.53543, -0.0358008l 4.53543, -0.0389474l 4.53543, -0.0415588l 4.53543, -0.0432753l 4.53543,
 -0.0438696l 4.53543, -0.0433461l 4.53543, -0.042017l 4.53543, -0.0405356l 4.53543, -0.0398821l 4.53543, -0.0413129l 4.53543, -0.0462873l 4.53543, -0.0564318l 4.53543, -0.0736974l 4.53543, -0.1011l 4.53543, -0.144611l 4.53543, -0.216145l 4.53543,
 -0.335567l 4.53543, -0.528866l 4.53543, -0.830137l 4.53543, -1.31563l 4.53543, -2.16941l 2.26772, -1.59601l 2.26772, -2.07038l 2.26772, -2.65445l 2.26772, -3.34955l 2.26772, -4.16008l 2.26772, -5.10276l 2.26772, -6.21023l 1.13386, -3.58105l 1.13386,
 -3.93068l 1.13386, -4.30021l 1.13386, -4.68141l 1.13386, -5.06217l 1.13386, -5.4276l 2.26772, -11.8081l 2.26772, -12.7031l 4.53543, -25.8693l 2.26772, -12.1363l 1.13386, -5.67043l 1.13386, -5.32327l 1.13386, -4.89976l 1.13386, -4.3897l 1.13386,
 -3.78442l 1.13386, -3.08309l 1.13386, -2.29987l 1.13386, -1.45684l 1.13386, -0.583616l 1.13386, 0.287752l 1.13386, 1.13011l 1.13386, 1.92201l 1.13386, 2.65089l 1.13386, 3.30987l 1.13386, 3.8947l 1.13386, 4.40506l 1.13386, 4.8417l 1.13386, 5.20517l
 2.26772, 11.2225l 2.26772, 11.8572l 2.26772, 11.9441l 2.26772, 11.4611l 2.26772, 10.4854l 1.13386, 4.78291l 1.13386, 4.46362l 2.26772, 8.02744l 2.26772, 6.99686l 2.26772, 6.14674l 2.26772, 5.37074l 2.26772, 4.58434l 2.26772, 3.78167l 2.26772,
 3.01473l 2.26772, 2.34332l 2.26772, 1.8023l 2.26772, 1.39422l 4.53543, 1.98505l 4.53543, 1.3441l 4.53543, 0.992825l 4.53543, 0.866089l 4.53543, 0.896867l 4.53543, 0.930237l 4.53543, 0.85093l 4.53543, 0.673782l 4.53543, 0.494621l 4.53543, 0.39006l
 4.53543, 0.366311l 4.53543, 0.381891l 4.53543, 0.398277l 4.53543, 0.403375l 4.53543, 0.400204l 4.53543, 0.389843l 4.53543, 0.36862l 4.53543, 0.33488l 4.53543, 0.29296l 4.53543, 0.250712l 4.53543, 0.214944l 4.53543, 0.189006l 4.53543, 0.172806l
 4.53543, 0.163845l 4.53543, 0.158377l 4.53543, 0.152676l 4.53543, 0.144225l 4.53543, 0.132376l 4.53543, 0.118162l 4.53543, 0.103461l 4.53543, 0.0900182l 4.53543, 0.0788309l 4.53543, 0.0700296l 4.53543, 0.0631425l 4.53543, 0.0574811l 4.53543,
 0.0524472l 4.53543, 0.0476778l 4.53543, 0.0430457l 4.53543, 0.038582l 4.53543, 0.0343822l 4.53543, 0.0305357l 4.53543, 0.0270909l 4.53543, 0.024049l 4.53543, 0.0213758l 4.53543, 0.0190194l 4.53543, 0.0169259l 4.53543, 0.0150489l 4.53543, 0.0133541l
 4.53543, 0.0118187l 4.53543, 0.0104304l 4.53543, 0.00919724l 4.53543, 0.0081979l 4.53543, 0.00727912" fill="none" stroke="#0000ff" stroke-width="6" stroke-dasharray=" 3, 3"/>
<path d="M57.1929,205.34z" fill="none" stroke="#00ff00" stroke-width="6" stroke-dasharray=" 3, 3"/>
<path d="M57.1929,205.34l 4.53543, 0.425844l 4.53543, 0.441153l 4.53543, 0.456678l 4.53543, 0.472423l 4.53543, 0.488389l 4.53543, 0.50458l 4.53543, 0.520998l 4.53543, 0.537646l 4.53543, 0.554527l 4.53543, 0.571643l 4.53543, 0.588996l 4.53543,
 0.606591l 4.53543, 0.62443l 4.53543, 0.642515l 4.53543, 0.660849l 4.53543, 0.679437l 4.53543, 0.698279l 4.53543, 0.71738l 4.53543, 0.736743l 4.53543, 0.75637l 4.53543, 0.776265l 4.53543, 0.796431l 4.53543, 0.81687l 4.53543, 0.837587l 4.53543,
 0.858585l 4.53543, 0.879866l 4.53543, 0.901435l 4.53543, 0.923293l 4.53543, 0.945446l 4.53543, 0.967896l 4.53543, 0.990647l 4.53543, 1.0137l 4.53543, 1.03706l 4.53543, 1.06074l 4.53543, 1.08473l 4.53543, 1.10904l 4.53543, 1.13367l 4.53543, 1.15862l
 4.53543, 1.18391l 4.53543, 1.20953l 4.53543, 1.23549l 4.53543, 1.26179l 4.53543, 1.28844l 4.53543, 1.31543l 4.53543, 1.34278l 4.53543, 1.37049l 4.53543, 1.39856l 4.53543, 1.42699l 4.53543, 1.4558l 4.53543, 1.48498l 4.53543, 1.51453l 4.53543,
 1.54448l 4.53543, 1.57481l 4.53543, 1.60553l 4.53543, 1.63665l 4.53543, 1.66817l 4.53543, 1.70009l 4.53543, 1.73243l 4.53543, 1.76518l 4.53543, 1.79836l 4.53543, 1.83196l 4.53543, 1.86598l 4.53543, 1.90045l 4.53543, 1.93535l 4.53543, 1.9707l
 4.53543, 2.00649l 4.53543, 2.04275l 4.53543, 2.07946l 4.53543, 2.11664l 4.53543, 2.15429l 4.53543, 2.19242l 4.53543, 2.23103l 4.53543, 2.27012l 4.53543, 2.30971l 4.53543, 2.3498l 4.53543, 2.39039l 4.53543, 2.43149l 4.53543, 2.47311l 4.53543,
 2.51525l 4.53543, 2.55792l 4.53543, 2.60112l 4.53543, 2.64486l 4.53543, 2.68915l 4.53543, 2.73399l 4.53543, 2.77939l 4.53543, 2.82536l 4.53543, 2.87189l 4.53543, 2.91901l 4.53543, 2.9667l 4.53543, 3.01499l 4.53543, 3.06388l 4.53543, 3.11337l
 4.53543, 3.16348l 4.53543, 3.2142l 4.53543, 3.26555l 4.53543, 3.31753l 4.53543, 3.37015l 4.53543, 3.42342l 4.53543, 3.47734l 4.53543, 3.53193" fill="none" stroke="#00ff00" stroke-width="6" stroke-dasharray=" 3, 3"/>
<path d="M57.1929,371.444h 453.543" fill="none" stroke="black"/>
<path d="M57.1929,361.539v 9.90517" fill="none" stroke="black"/>
<path d="M66.2638,366.491v 4.95259" fill="none" stroke="black"/>
<path d="M75.3346,366.491v 4.95259" fill="none" stroke="black"/>
<path d="M84.4055,366.491v 4.95259" fill="none" stroke="black"/>
<path d="M93.4764,366.491v 4.95259" fill="none" stroke="black"/>
<path d="M102.547,361.539v 9.90517" fill="none" stroke="black"/>
<path d="M111.618,366.491v 4.95259" fill="none" stroke="black"/>
<path d="M120.689,366.491v 4.95259" fill="none" stroke="black"/>
<path d="M129.76,366.491v 4.95259" fill="none" stroke="black"/>
<path d="M138.831,366.491v 4.95259" fill="none" stroke="black"/>
<path d="M147.902,361.539v 9.90517" fill="none" stroke="black"/>
<path d="M156.972,366.491v 4.95259" fill="none" stroke="black"/>
<path d="M166.043,366.491v 4.95259" fill="none" stroke="black"/>
<path d="M175.114,366.491v 4.95259" fill="none" stroke="black"/>
<path d="M184.185,366.491v 4.95259" fill="none" stroke="black"/>
<path d="M193.256,361.539v 9.90517" fill="none" stroke="black"/>
<path d="M202.327,366.491v 4.95259" fill="none" stroke="black"/>
<path d="M211.398,366.491v 4.95259" fill="none" stroke="black"/>
<path d="M220.469,366.491v 4.95259" fill="none" stroke="black"/>
<path d="M229.539,366.491v 4.95259" fill="none" stroke="black"/>
<path d="M238.61,361.539v 9.90517" fill="none" stroke="black"/>
<path d="M247.681,366.491v 4.95259" fill="none" stroke="black"/>
<path d="M256.752,366.491v 4.95259" fill="none" stroke="black"/>
<path d="M265.823,366.491v 4.95259" fill="none" stroke="black"/>
<path d="M274.894,366.491v 4.95259" fill="none" stroke="black"/>
<path d="M283.965,361.539v 9.90517" fill="none" stroke="black"/>
<path d="M293.035,366.491v 4.95259" fill="none" stroke="black"/>
<path d="M302.106,366.491v 4.95259" fill="none" stroke="black"/>
<path d="M311.177,366.491v 4.95259" fill="none" stroke="black"/>
<path d="M320.248,366.491v 4.95259" fill="none" stroke="black"/>
<path d="M329.319,361.539v 9.90517" fill="none" stroke="black"/>
<path d="M338.39,366.491v 4.95259" fill="none" stroke="black"/>
<path d="M347.461,366.491v 4.95259" fill="none" stroke="black"/>
<path d="M356.531,366.491v 4.95259" fill="none" stroke="black"/>
<path d="M365.602,366.491v 4.95259" fill="none" stroke="black"/>
<path d="M374.673,361.539v 9.90517" fill="none" stroke="black"/>
<path d="M383.744,366.491v 4.95259" fill="none" stroke="black"/>
<path d="M392.815,366.491v 4.95259" fill="none" stroke="black"/>
<path d="M401.886,366.491v 4.95259" fill="none" stroke="black"/>
<path d="M410.957,366.491v 4.95259" fill="none" stroke="black"/>
<path d="M420.028,361.539v 9.90517" fill="none" stroke="black"/>
<path d="M429.098,366.491v 4.95259" fill="none" stroke="black"/>
<path d="M438.169,366.491v 4.95259" fill="none" stroke="black"/>
<path d="M447.24,366.491v 4.95259" fill="none" stroke="black"/>
<path d="M456.311,366.491v 4.95259" fill="none" stroke="black"/>
<path d="M465.382,361.539v 9.90517" fill="none" stroke="black"/>
<path d="M474.453,366.491v 4.95259" fill="none" stroke="black"/>
<path d="M483.524,366.491v 4.95259" fill="none" stroke="black"/>
<path d="M492.594,366.491v 4.95259" fill="none" stroke="black"/>
<path d="M501.665,366.491v 4.95259" fill="none" stroke="black"/>
<path d="M510.736,361.539v 9.90517" fill="none" stroke="black"/>
<path d="M57.1929,371.444v -330.172" fill="none" stroke="black"/>
<path d="M70.7992,371.444h -13.6063" fill="none" stroke="black"/>
<path d="M63.9961,364.019h -6.80315" fill="none" stroke="black"/>
<path d="M63.9961,356.594h -6.80315" fill="none" stroke="black"/>
<path d="M63.9961,349.169h -6.80315" fill="none" stroke="black"/>
<path d="M63.9961,341.743h -6.80315" fill="none" stroke="black"/>
<path d="M70.7992,334.318h -13.6063" fill="none" stroke="black"/>
<path d="M63.9961,326.893h -6.80315" fill="none" stroke="black"/>
<path d="M63.9961,319.468h -6.80315" fill="none" stroke="black"/>
<path d="M63.9961,312.043h -6.80315" fill="none" stroke="black"/>
<path d="M63.9961,304.618h -6.80315" fill="none" stroke="black"/>
<path d="M70.7992,297.193h -13.6063" fill="none" stroke="black"/>
<path d="M63.9961,289.767h -6.80315" fill="none" stroke="black"/>
<path d="M63.9961,282.342h -6.80315" fill="none" stroke="black"/>
<path d="M63.9961,274.917h -6.80315" fill="none" stroke="black"/>
<path d="M63.9961,267.492h -6.80315" fill="none" stroke="black"/>
<path d="M70.7992,260.067h -13.6063" fill="none" stroke="black"/>
<path d="M63.9961,252.642h -6.80315" fill="none" stroke="black"/>
<path d="M63.9961,245.217h -6.80315" fill="none" stroke="black"/>
<path d="M63.9961,237.792h -6.80315" fill="none" stroke="black"/>
<path d="M63.9961,230.366h -6.80315" fill="none" stroke="black"/>
<path d="M70.7992,222.941h -13.6063" fill="none" stroke="black"/>
<path d="M63.9961,215.516h -6.80315" fill="none" stroke="black"/>
<path d="M63.9961,208.091h -6.80315" fill="none" stroke="black"/>
<path d="M63.9961,200.666h -6.80315" fill="none" stroke="black"/>
<path d="M63.9961,193.241h -6.80315" fill="none" stroke="black"/>
<path d="M70.7992,185.816h -13.6063" fill="none" stroke="black"/>
<path d="M63.9961,178.39h -6.80315" fill="none" stroke="black"/>
<path d="M63.9961,170.965h -6.80315" fill="none" stroke="black"/>
<path d="M63.9961,163.54h -6.80315" fill="none" stroke="black"/>
<path d="M63.9961,156.115h -6.80315" fill="none" stroke="black"/>
<path d="M70.7992,148.69h -13.6063" fill="none" stroke="black"/>
<path d="M63.9961,141.265h -6.80315" fill="none" stroke="black"/>
<path d="M63.9961,133.84h -6.80315" fill="none" stroke="black"/>
<path d="M63.9961,126.415h -6.80315" fill="none" stroke="black"/>
<path d="M63.9961,118.989h -6.80315" fill="none" stroke="black"/>
<path d="M70.7992,111.564h -13.6063" fill="none" stroke="black"/>
<path d="M63.9961,104.139h -6.80315" fill="none" stroke="black"/>
<path d="M63.9961,96.714h -6.80315" fill="none" stroke="black"/>
<path d="M63.9961,89.2888h -6.80315" fill="none" stroke="black"/>
<path d="M63.9961,81.8637h -6.80315" fill="none" stroke="black"/>
<path d="M70.7992,74.4386h -13.6063" fill="none" stroke="black"/>
<path d="M70.7992,74.4386h -13.6063" fill="none" stroke="black"/>
<path d="M63.9961,67.0134h -6.80315" fill="none" stroke="black"/>
<path d="M63.9961,59.5883h -6.80315" fill="none" stroke="black"/>
<path d="M63.9961,52.1632h -6.80315" fill="none" stroke="black"/>
<path d="M63.9961,44.738h -6.80315" fill="none" stroke="black"/>
<rect x="369.004" y="49.5259" width="130.394" height="53.653" fill="white"/>
<text xml:space="preserve" x="374.385" y="88.756" fill="black" font-size="34.5151" font-family="Helvetica" font-weight="bold">all data</text></svg>
