<?xml version="1.0" standalone="no"?>
<svg width="567.429" height="409.712" viewBox="0 0 567.429 409.712" xmlns="http://www.w3.org/2000/svg" shape-rendering="crispEdges">
<title>
pic_fitInclusive4600.svg
</title>
<desc>
Creator: ROOT Version 6.20/06
CreationDate: Tue Apr 13 20:46:03 2021</desc>
<defs>
</defs>
<rect x="0.5" y="0" width="566.929" height="409.212" fill="white"/>
<rect x="57.1929" y="40.9212" width="453.543" height="327.37" fill="white"/>
<rect x="57.1929" y="40.9212" width="453.543" height="327.37" fill="none" stroke="black"/>
<rect x="57.1929" y="40.9212" width="453.543" height="327.37" fill="white"/>
<rect x="57.1929" y="40.9212" width="453.543" height="327.37" fill="none" stroke="black"/>
<path d="M57.1929,368.291h 453.543" fill="none" stroke="black"/>
<path d="M57.1929,358.47v 9.82109" fill="none" stroke="black"/>
<path d="M66.2638,363.38v 4.91054" fill="none" stroke="black"/>
<path d="M75.3346,363.38v 4.91054" fill="none" stroke="black"/>
<path d="M84.4055,363.38v 4.91054" fill="none" stroke="black"/>
<path d="M93.4764,363.38v 4.91054" fill="none" stroke="black"/>
<path d="M102.547,358.47v 9.82109" fill="none" stroke="black"/>
<path d="M111.618,363.38v 4.91054" fill="none" stroke="black"/>
<path d="M120.689,363.38v 4.91054" fill="none" stroke="black"/>
<path d="M129.76,363.38v 4.91054" fill="none" stroke="black"/>
<path d="M138.831,363.38v 4.91054" fill="none" stroke="black"/>
<path d="M147.902,358.47v 9.82109" fill="none" stroke="black"/>
<path d="M156.972,363.38v 4.91054" fill="none" stroke="black"/>
<path d="M166.043,363.38v 4.91054" fill="none" stroke="black"/>
<path d="M175.114,363.38v 4.91054" fill="none" stroke="black"/>
<path d="M184.185,363.38v 4.91054" fill="none" stroke="black"/>
<path d="M193.256,358.47v 9.82109" fill="none" stroke="black"/>
<path d="M202.327,363.38v 4.91054" fill="none" stroke="black"/>
<path d="M211.398,363.38v 4.91054" fill="none" stroke="black"/>
<path d="M220.469,363.38v 4.91054" fill="none" stroke="black"/>
<path d="M229.539,363.38v 4.91054" fill="none" stroke="black"/>
<path d="M238.61,358.47v 9.82109" fill="none" stroke="black"/>
<path d="M247.681,363.38v 4.91054" fill="none" stroke="black"/>
<path d="M256.752,363.38v 4.91054" fill="none" stroke="black"/>
<path d="M265.823,363.38v 4.91054" fill="none" stroke="black"/>
<path d="M274.894,363.38v 4.91054" fill="none" stroke="black"/>
<path d="M283.965,358.47v 9.82109" fill="none" stroke="black"/>
<path d="M293.035,363.38v 4.91054" fill="none" stroke="black"/>
<path d="M302.106,363.38v 4.91054" fill="none" stroke="black"/>
<path d="M311.177,363.38v 4.91054" fill="none" stroke="black"/>
<path d="M320.248,363.38v 4.91054" fill="none" stroke="black"/>
<path d="M329.319,358.47v 9.82109" fill="none" stroke="black"/>
<path d="M338.39,363.38v 4.91054" fill="none" stroke="black"/>
<path d="M347.461,363.38v 4.91054" fill="none" stroke="black"/>
<path d="M356.531,363.38v 4.91054" fill="none" stroke="black"/>
<path d="M365.602,363.38v 4.91054" fill="none" stroke="black"/>
<path d="M374.673,358.47v 9.82109" fill="none" stroke="black"/>
<path d="M383.744,363.38v 4.91054" fill="none" stroke="black"/>
<path d="M392.815,363.38v 4.91054" fill="none" stroke="black"/>
<path d="M401.886,363.38v 4.91054" fill="none" stroke="black"/>
<path d="M410.957,363.38v 4.91054" fill="none" stroke="black"/>
<path d="M420.028,358.47v 9.82109" fill="none" stroke="black"/>
<path d="M429.098,363.38v 4.91054" fill="none" stroke="black"/>
<path d="M438.169,363.38v 4.91054" fill="none" stroke="black"/>
<path d="M447.24,363.38v 4.91054" fill="none" stroke="black"/>
<path d="M456.311,363.38v 4.91054" fill="none" stroke="black"/>
<path d="M465.382,358.47v 9.82109" fill="none" stroke="black"/>
<path d="M474.453,363.38v 4.91054" fill="none" stroke="black"/>
<path d="M483.524,363.38v 4.91054" fill="none" stroke="black"/>
<path d="M492.594,363.38v 4.91054" fill="none" stroke="black"/>
<path d="M501.665,363.38v 4.91054" fill="none" stroke="black"/>
<path d="M510.736,358.47v 9.82109" fill="none" stroke="black"/>
<path d="M510.736,358.47v 9.82109" fill="none" stroke="black"/>
<text xml:space="preserve" x="43.8367" y="381.505" fill="black" font-size="13.6398" font-family="Helvetica">2.25</text>
<text xml:space="preserve" x="85.0421" y="381.505" fill="black" font-size="13.6398" font-family="Helvetica">2.255</text>
<text xml:space="preserve" x="134.773" y="381.505" fill="black" font-size="13.6398" font-family="Helvetica">2.26</text>
<text xml:space="preserve" x="175.978" y="381.505" fill="black" font-size="13.6398" font-family="Helvetica">2.265</text>
<text xml:space="preserve" x="225.709" y="381.505" fill="black" font-size="13.6398" font-family="Helvetica">2.27</text>
<text xml:space="preserve" x="266.914" y="381.505" fill="black" font-size="13.6398" font-family="Helvetica">2.275</text>
<text xml:space="preserve" x="315.934" y="381.505" fill="black" font-size="13.6398" font-family="Helvetica">2.28</text>
<text xml:space="preserve" x="357.14" y="381.505" fill="black" font-size="13.6398" font-family="Helvetica">2.285</text>
<text xml:space="preserve" x="406.87" y="381.505" fill="black" font-size="13.6398" font-family="Helvetica">2.29</text>
<text xml:space="preserve" x="448.076" y="381.505" fill="black" font-size="13.6398" font-family="Helvetica">2.295</text>
<text xml:space="preserve" x="501.358" y="381.505" fill="black" font-size="13.6398" font-family="Helvetica">2.3</text>
<text xml:space="preserve" x="507.042" y="395.714" fill="black" font-size="13.6398" font-family="Helvetica">)</text>
<text xml:space="preserve" x="502.069" y="389.32" fill="black" font-size="9.25989" font-family="Helvetica">2</text>
<text xml:space="preserve" x="457.311" y="395.714" fill="black" font-size="13.6398" font-family="Helvetica"> (GeV/c</text>
<text xml:space="preserve" x="444.523" y="399.976" fill="black" font-size="9.25989" font-family="Helvetica">BC</text>
<text xml:space="preserve" x="433.867" y="395.714" fill="black" font-size="13.6398" font-family="Helvetica">M</text>
<path d="M57.1929,368.291v -327.37" fill="none" stroke="black"/>
<path d="M70.7992,368.291h -13.6063" fill="none" stroke="black"/>
<path d="M63.9961,352.025h -6.80315" fill="none" stroke="black"/>
<path d="M63.9961,335.758h -6.80315" fill="none" stroke="black"/>
<path d="M63.9961,319.492h -6.80315" fill="none" stroke="black"/>
<path d="M70.7992,303.226h -13.6063" fill="none" stroke="black"/>
<path d="M63.9961,286.959h -6.80315" fill="none" stroke="black"/>
<path d="M63.9961,270.693h -6.80315" fill="none" stroke="black"/>
<path d="M63.9961,254.427h -6.80315" fill="none" stroke="black"/>
<path d="M70.7992,238.16h -13.6063" fill="none" stroke="black"/>
<path d="M63.9961,221.894h -6.80315" fill="none" stroke="black"/>
<path d="M63.9961,205.628h -6.80315" fill="none" stroke="black"/>
<path d="M63.9961,189.362h -6.80315" fill="none" stroke="black"/>
<path d="M70.7992,173.095h -13.6063" fill="none" stroke="black"/>
<path d="M63.9961,156.829h -6.80315" fill="none" stroke="black"/>
<path d="M63.9961,140.563h -6.80315" fill="none" stroke="black"/>
<path d="M63.9961,124.296h -6.80315" fill="none" stroke="black"/>
<path d="M70.7992,108.03h -13.6063" fill="none" stroke="black"/>
<path d="M63.9961,91.7639h -6.80315" fill="none" stroke="black"/>
<path d="M63.9961,75.4976h -6.80315" fill="none" stroke="black"/>
<path d="M63.9961,59.2313h -6.80315" fill="none" stroke="black"/>
<path d="M70.7992,42.965h -13.6063" fill="none" stroke="black"/>
<path d="M70.7992,42.965h -13.6063" fill="none" stroke="black"/>
<text xml:space="preserve" x="46.6784" y="372.98" fill="black" font-size="13.6398" font-family="Helvetica">0</text>
<text xml:space="preserve" x="46.6784" y="308.33" fill="black" font-size="13.6398" font-family="Helvetica">2</text>
<text xml:space="preserve" x="46.6784" y="243.68" fill="black" font-size="13.6398" font-family="Helvetica">4</text>
<text xml:space="preserve" x="46.6784" y="177.609" fill="black" font-size="13.6398" font-family="Helvetica">6</text>
<text xml:space="preserve" x="46.6784" y="112.96" fill="black" font-size="13.6398" font-family="Helvetica">8</text>
<text xml:space="preserve" x="38.8636" y="47.5993" fill="black" font-size="13.6398" font-family="Helvetica">10</text>
<g transform="rotate(-90,26.7862,44.0471)">
<text xml:space="preserve" x="26.7862" y="44.0471" fill="black" font-size="13.6398" font-family="Helvetica">)</text>
</g>
<g transform="rotate(-90,21.1027,49.0202)">
<text xml:space="preserve" x="21.1027" y="49.0202" fill="black" font-size="9.25989" font-family="Helvetica">2</text>
</g>
<g transform="rotate(-90,26.7862,163.401)">
<text xml:space="preserve" x="26.7862" y="163.401" fill="black" font-size="13.6398" font-family="Helvetica">Events/(  2.5 MeV/c</text>
</g>
<path d="M79.6864,238.16h -22.4935" fill="none" stroke="black" stroke-width="2"/>
<path d="M57.1929,239.581v -2.84175" fill="none" stroke="black" stroke-width="2"/>
<path d="M79.6864,238.16h 22.4935" fill="none" stroke="black" stroke-width="2"/>
<path d="M102.18,239.581v -2.84175" fill="none" stroke="black" stroke-width="2"/>
<path d="M79.6864,238.16v -102.893" fill="none" stroke="black" stroke-width="2"/>
<path d="M78.2655,135.268h 2.84175" fill="none" stroke="black" stroke-width="2"/>
<path d="M79.6864,238.16v 62.2784" fill="none" stroke="black" stroke-width="2"/>
<path d="M78.2655,300.439h 2.84175" fill="none" stroke="black" stroke-width="2"/>
<path d="M124.673,335.758h -22.4935" fill="none" stroke="black" stroke-width="2"/>
<path d="M102.18,337.179v -2.84175" fill="none" stroke="black" stroke-width="2"/>
<path d="M124.673,335.758h 22.4935" fill="none" stroke="black" stroke-width="2"/>
<path d="M147.167,337.179v -2.84175" fill="none" stroke="black" stroke-width="2"/>
<path d="M124.673,335.758v -74.8095" fill="none" stroke="black" stroke-width="2"/>
<path d="M123.252,260.949h 2.84175" fill="none" stroke="black" stroke-width="2"/>
<path d="M124.673,335.758v 26.9125" fill="none" stroke="black" stroke-width="2"/>
<path d="M123.252,362.671h 2.84175" fill="none" stroke="black" stroke-width="2"/>
<path d="M169.66,270.693h -22.4935" fill="none" stroke="black" stroke-width="2"/>
<path d="M147.167,272.114v -2.84175" fill="none" stroke="black" stroke-width="2"/>
<path d="M169.66,270.693h 22.4935" fill="none" stroke="black" stroke-width="2"/>
<path d="M192.154,272.114v -2.84175" fill="none" stroke="black" stroke-width="2"/>
<path d="M169.66,270.693v -94.9361" fill="none" stroke="black" stroke-width="2"/>
<path d="M168.239,175.757h 2.84175" fill="none" stroke="black" stroke-width="2"/>
<path d="M169.66,270.693v 53.1161" fill="none" stroke="black" stroke-width="2"/>
<path d="M168.239,323.809h 2.84175" fill="none" stroke="black" stroke-width="2"/>
<path d="M214.647,270.693h -22.4935" fill="none" stroke="black" stroke-width="2"/>
<path d="M192.154,272.114v -2.84175" fill="none" stroke="black" stroke-width="2"/>
<path d="M214.647,270.693h 22.4935" fill="none" stroke="black" stroke-width="2"/>
<path d="M237.141,272.114v -2.84175" fill="none" stroke="black" stroke-width="2"/>
<path d="M214.647,270.693v -94.9361" fill="none" stroke="black" stroke-width="2"/>
<path d="M213.226,175.757h 2.84175" fill="none" stroke="black" stroke-width="2"/>
<path d="M214.647,270.693v 53.1161" fill="none" stroke="black" stroke-width="2"/>
<path d="M213.226,323.809h 2.84175" fill="none" stroke="black" stroke-width="2"/>
<path d="M259.634,270.693h -22.4935" fill="none" stroke="black" stroke-width="2"/>
<path d="M237.141,272.114v -2.84175" fill="none" stroke="black" stroke-width="2"/>
<path d="M259.634,270.693h 22.4935" fill="none" stroke="black" stroke-width="2"/>
<path d="M282.128,272.114v -2.84175" fill="none" stroke="black" stroke-width="2"/>
<path d="M259.634,270.693v -94.9361" fill="none" stroke="black" stroke-width="2"/>
<path d="M258.213,175.757h 2.84175" fill="none" stroke="black" stroke-width="2"/>
<path d="M259.634,270.693v 53.1161" fill="none" stroke="black" stroke-width="2"/>
<path d="M258.213,323.809h 2.84175" fill="none" stroke="black" stroke-width="2"/>
<path d="M304.621,173.095h -22.4935" fill="none" stroke="black" stroke-width="2"/>
<path d="M282.128,174.516v -2.84175" fill="none" stroke="black" stroke-width="2"/>
<path d="M304.621,173.095h 22.4935" fill="none" stroke="black" stroke-width="2"/>
<path d="M327.115,174.516v -2.84175" fill="none" stroke="black" stroke-width="2"/>
<path d="M304.621,173.095v -116.585" fill="none" stroke="black" stroke-width="2"/>
<path d="M303.2,56.5102h 2.84175" fill="none" stroke="black" stroke-width="2"/>
<path d="M304.621,173.095v 77.4253" fill="none" stroke="black" stroke-width="2"/>
<path d="M303.2,250.521h 2.84175" fill="none" stroke="black" stroke-width="2"/>
<path d="M349.608,270.693h -22.4935" fill="none" stroke="black" stroke-width="2"/>
<path d="M327.115,272.114v -2.84175" fill="none" stroke="black" stroke-width="2"/>
<path d="M349.608,270.693h 22.4935" fill="none" stroke="black" stroke-width="2"/>
<path d="M372.102,272.114v -2.84175" fill="none" stroke="black" stroke-width="2"/>
<path d="M349.608,270.693v -94.9361" fill="none" stroke="black" stroke-width="2"/>
<path d="M348.187,175.757h 2.84175" fill="none" stroke="black" stroke-width="2"/>
<path d="M349.608,270.693v 53.1161" fill="none" stroke="black" stroke-width="2"/>
<path d="M348.187,323.809h 2.84175" fill="none" stroke="black" stroke-width="2"/>
<path d="M394.595,205.628h -22.4935" fill="none" stroke="black" stroke-width="2"/>
<path d="M372.102,207.049v -2.84175" fill="none" stroke="black" stroke-width="2"/>
<path d="M394.595,205.628h 22.4935" fill="none" stroke="black" stroke-width="2"/>
<path d="M417.089,207.049v -2.84175" fill="none" stroke="black" stroke-width="2"/>
<path d="M394.595,205.628v -110.041" fill="none" stroke="black" stroke-width="2"/>
<path d="M393.174,95.5874h 2.84175" fill="none" stroke="black" stroke-width="2"/>
<path d="M394.595,205.628v 70.2603" fill="none" stroke="black" stroke-width="2"/>
<path d="M393.174,275.888h 2.84175" fill="none" stroke="black" stroke-width="2"/>
<path d="M439.582,270.693h -22.4935" fill="none" stroke="black" stroke-width="2"/>
<path d="M417.089,272.114v -2.84175" fill="none" stroke="black" stroke-width="2"/>
<path d="M439.582,270.693h 22.4935" fill="none" stroke="black" stroke-width="2"/>
<path d="M462.076,272.114v -2.84175" fill="none" stroke="black" stroke-width="2"/>
<path d="M439.582,270.693v -94.9361" fill="none" stroke="black" stroke-width="2"/>
<path d="M438.161,175.757h 2.84175" fill="none" stroke="black" stroke-width="2"/>
<path d="M439.582,270.693v 53.1161" fill="none" stroke="black" stroke-width="2"/>
<path d="M438.161,323.809h 2.84175" fill="none" stroke="black" stroke-width="2"/>
<path d="M484.569,335.758h -22.4935" fill="none" stroke="black" stroke-width="2"/>
<path d="M462.076,337.179v -2.84175" fill="none" stroke="black" stroke-width="2"/>
<path d="M484.569,335.758h 22.4935" fill="none" stroke="black" stroke-width="2"/>
<path d="M507.063,337.179v -2.84175" fill="none" stroke="black" stroke-width="2"/>
<path d="M484.569,335.758v -74.8095" fill="none" stroke="black" stroke-width="2"/>
<path d="M483.148,260.949h 2.84175" fill="none" stroke="black" stroke-width="2"/>
<path d="M484.569,335.758v 26.9125" fill="none" stroke="black" stroke-width="2"/>
<path d="M483.148,362.671h 2.84175" fill="none" stroke="black" stroke-width="2"/>
<g fill="black">
<circle cx="79.6864" cy="238.16" r="2.84175"/>
<circle cx="124.673" cy="335.758" r="2.84175"/>
<circle cx="169.66" cy="270.693" r="2.84175"/>
<circle cx="214.647" cy="270.693" r="2.84175"/>
<circle cx="259.634" cy="270.693" r="2.84175"/>
<circle cx="304.621" cy="173.095" r="2.84175"/>
<circle cx="349.608" cy="270.693" r="2.84175"/>
<circle cx="394.595" cy="205.628" r="2.84175"/>
<circle cx="439.582" cy="270.693" r="2.84175"/>
<circle cx="484.569" cy="335.758" r="2.84175"/>
</g>
<path d="M57.1929,287.489z" fill="none" stroke="#ff0000" stroke-width="6"/>
<path d="M57.1929,287.489l 22.6772, -4.19829l 22.6772, -4.17517l 22.6772, -4.09202l 22.6772, -3.9427l 22.6772, -3.71779l 22.6772, -3.41167l 22.6772, -3.01726l 22.6772, -2.46546l 22.6772, -1.73584l 22.6772, -0.909444l 22.6772, -0.0471344l 22.6772,
 0.568339l 5.66929, -0.121278l 5.66929, -0.55937l 5.66929, -1.56788l 2.83465, -1.34454l 2.83465, -1.77806l 2.83465, -2.40529l 2.83465, -3.31708l 2.83465, -4.12989l 2.83465, -4.84549l 2.83465, -6.03986l 1.41732, -3.87874l 1.41732, -4.67532l 2.83465,
 -10.9501l 2.83465, -11.6295l 2.83465, -11.9514l 2.83465, -11.4811l 1.41732, -6.16977l 0.708661, -2.60528l 0.708661, -2.05793l 1.41732, -2.7926l 1.41732, -3.71748l 1.41732, -4.75022l 0.708661, -2.03861l 0.708661, -1.54968l 0.708661, -0.907691l
 0.708661, -0.388712l 1.41732, 0.102242l 1.41732, 0.914463l 1.41732, 1.70609l 2.83465, 3.66745l 11.3386, 45.578l 2.83465, 13.7787l 2.83465, 12.632l 1.41732, 6.09637l 1.41732, 5.609l 1.41732, 4.95946l 1.41732, 4.47421l 2.83465, 8.19699l 2.83465,
 7.29554l 2.83465, 5.9267l 2.83465, 4.76082l 2.83465, 4.28502l 2.83465, 3.7847l 5.66929, 6.65115l 22.6772, 22.9863l 11.3386, 12.2868l 11.3386, 13.1409l 5.66929, 7.16189l 5.66929, 7.70973l 5.66929, 8.45072l 2.83465, 4.44833l 0.708661, 1.11727l
 0.708661, 0.140992l 1.41732, 0.268462" fill="none" stroke="#ff0000" stroke-width="6"/>
<path d="M57.1929,368.247z" fill="none" stroke="#0000ff" stroke-width="6" stroke-dasharray=" 3, 3"/>
<path d="M57.1929,368.247l 22.6772, -0.0273515l 22.6772, -0.0289042l 22.6772, -0.0244923l 22.6772, -0.0195505l 22.6772, -0.0181523l 22.6772, -0.0303913l 22.6772, -0.0674035l 22.6772, -0.0812104l 22.6772, -0.0758431l 22.6772, -0.160586l 22.6772,
 -0.428906l 11.3386, -0.37798l 11.3386, -0.823161l 5.66929, -0.814637l 5.66929, -1.36314l 2.83465, -1.05909l 2.83465, -1.42834l 2.83465, -1.84946l 2.83465, -2.31402l 2.83465, -2.97303l 1.41732, -1.83572l 1.41732, -2.08161l 2.83465, -4.76342l 2.83465,
 -5.51307l 1.41732, -3.16183l 1.41732, -3.58043l 1.41732, -4.24326l 1.41732, -5.04885l 1.41732, -5.69721l 1.41732, -6.02738l 2.83465, -12.4413l 2.83465, -12.8013l 2.83465, -12.37l 1.41732, -6.62911l 0.708661, -2.83873l 0.708661, -2.2939l 1.41732,
 -3.27222l 0.708661, -1.90092l 0.708661, -2.30648l 1.41732, -5.25056l 0.708661, -2.29272l 0.708661, -1.80645l 0.708661, -1.16712l 0.708661, -0.650814l 1.41732, -0.430056l 0.708661, 0.0510219l 0.708661, 0.320254l 1.41732, 1.1519l 2.83465, 2.52554l
 11.3386, 40.5452l 1.41732, 6.32916l 1.41732, 6.06985l 2.83465, 11.2016l 1.41732, 5.36183l 1.41732, 4.86137l 1.41732, 4.19859l 1.41732, 3.69997l 2.83465, 6.60782l 1.41732, 2.96677l 1.41732, 2.68438l 1.41732, 2.31361l 1.41732, 1.91229l 2.83465,
 3.00241l 2.83465, 2.46777l 2.83465, 1.90736l 5.66929, 2.7111l 2.83465, 0.990378l 2.83465, 0.746183l 5.66929, 1.1799l 11.3386, 1.64019l 11.3386, 1.30853l 11.3386, 0.853279l 11.3386, 1.16512l 11.3386, 2.17138" fill="none" stroke="#0000ff"
 stroke-width="6" stroke-dasharray=" 3, 3"/>
<path d="M57.1929,287.533z" fill="none" stroke="#00ff00" stroke-width="6" stroke-dasharray=" 3, 3"/>
<path d="M57.1929,287.533l 22.6772, -4.17094l 22.6772, -4.14626l 22.6772, -4.06753l 22.6772, -3.92315l 22.6772, -3.69964l 22.6772, -3.38128l 22.6772, -2.94986l 22.6772, -2.38424l 22.6772, -1.65999l 11.3386, -0.50122l 11.3386, -0.247638l 11.3386,
 0.0344337l 11.3386, 0.347338l 11.3386, 0.69359l 11.3386, 1.07589l 11.3386, 1.49713l 11.3386, 1.96042l 11.3386, 2.46909l 11.3386, 3.0267l 11.3386, 3.63708l 11.3386, 4.30433l 11.3386, 5.03284l 11.3386, 5.82731l 5.66929, 3.23356l 5.66929, 3.45922l
 5.66929, 3.69459l 5.66929, 3.94004l 5.66929, 4.19595l 5.66929, 4.4627l 5.66929, 4.74068l 5.66929, 5.03032l 5.66929, 5.33203l 5.66929, 5.64626l 5.66929, 5.97347l 5.66929, 6.31413l 5.66929, 6.66873l 5.66929, 7.03777l 5.66929, 7.42178l 2.83465,
 3.85972l 0.708661, 0.972895h 2.12598" fill="none" stroke="#00ff00" stroke-width="6" stroke-dasharray=" 3, 3"/>
<path d="M57.1929,368.291h 453.543" fill="none" stroke="black"/>
<path d="M57.1929,358.47v 9.82109" fill="none" stroke="black"/>
<path d="M66.2638,363.38v 4.91054" fill="none" stroke="black"/>
<path d="M75.3346,363.38v 4.91054" fill="none" stroke="black"/>
<path d="M84.4055,363.38v 4.91054" fill="none" stroke="black"/>
<path d="M93.4764,363.38v 4.91054" fill="none" stroke="black"/>
<path d="M102.547,358.47v 9.82109" fill="none" stroke="black"/>
<path d="M111.618,363.38v 4.91054" fill="none" stroke="black"/>
<path d="M120.689,363.38v 4.91054" fill="none" stroke="black"/>
<path d="M129.76,363.38v 4.91054" fill="none" stroke="black"/>
<path d="M138.831,363.38v 4.91054" fill="none" stroke="black"/>
<path d="M147.902,358.47v 9.82109" fill="none" stroke="black"/>
<path d="M156.972,363.38v 4.91054" fill="none" stroke="black"/>
<path d="M166.043,363.38v 4.91054" fill="none" stroke="black"/>
<path d="M175.114,363.38v 4.91054" fill="none" stroke="black"/>
<path d="M184.185,363.38v 4.91054" fill="none" stroke="black"/>
<path d="M193.256,358.47v 9.82109" fill="none" stroke="black"/>
<path d="M202.327,363.38v 4.91054" fill="none" stroke="black"/>
<path d="M211.398,363.38v 4.91054" fill="none" stroke="black"/>
<path d="M220.469,363.38v 4.91054" fill="none" stroke="black"/>
<path d="M229.539,363.38v 4.91054" fill="none" stroke="black"/>
<path d="M238.61,358.47v 9.82109" fill="none" stroke="black"/>
<path d="M247.681,363.38v 4.91054" fill="none" stroke="black"/>
<path d="M256.752,363.38v 4.91054" fill="none" stroke="black"/>
<path d="M265.823,363.38v 4.91054" fill="none" stroke="black"/>
<path d="M274.894,363.38v 4.91054" fill="none" stroke="black"/>
<path d="M283.965,358.47v 9.82109" fill="none" stroke="black"/>
<path d="M293.035,363.38v 4.91054" fill="none" stroke="black"/>
<path d="M302.106,363.38v 4.91054" fill="none" stroke="black"/>
<path d="M311.177,363.38v 4.91054" fill="none" stroke="black"/>
<path d="M320.248,363.38v 4.91054" fill="none" stroke="black"/>
<path d="M329.319,358.47v 9.82109" fill="none" stroke="black"/>
<path d="M338.39,363.38v 4.91054" fill="none" stroke="black"/>
<path d="M347.461,363.38v 4.91054" fill="none" stroke="black"/>
<path d="M356.531,363.38v 4.91054" fill="none" stroke="black"/>
<path d="M365.602,363.38v 4.91054" fill="none" stroke="black"/>
<path d="M374.673,358.47v 9.82109" fill="none" stroke="black"/>
<path d="M383.744,363.38v 4.91054" fill="none" stroke="black"/>
<path d="M392.815,363.38v 4.91054" fill="none" stroke="black"/>
<path d="M401.886,363.38v 4.91054" fill="none" stroke="black"/>
<path d="M410.957,363.38v 4.91054" fill="none" stroke="black"/>
<path d="M420.028,358.47v 9.82109" fill="none" stroke="black"/>
<path d="M429.098,363.38v 4.91054" fill="none" stroke="black"/>
<path d="M438.169,363.38v 4.91054" fill="none" stroke="black"/>
<path d="M447.24,363.38v 4.91054" fill="none" stroke="black"/>
<path d="M456.311,363.38v 4.91054" fill="none" stroke="black"/>
<path d="M465.382,358.47v 9.82109" fill="none" stroke="black"/>
<path d="M474.453,363.38v 4.91054" fill="none" stroke="black"/>
<path d="M483.524,363.38v 4.91054" fill="none" stroke="black"/>
<path d="M492.594,363.38v 4.91054" fill="none" stroke="black"/>
<path d="M501.665,363.38v 4.91054" fill="none" stroke="black"/>
<path d="M510.736,358.47v 9.82109" fill="none" stroke="black"/>
<path d="M510.736,358.47v 9.82109" fill="none" stroke="black"/>
<path d="M57.1929,368.291v -327.37" fill="none" stroke="black"/>
<path d="M70.7992,368.291h -13.6063" fill="none" stroke="black"/>
<path d="M63.9961,352.025h -6.80315" fill="none" stroke="black"/>
<path d="M63.9961,335.758h -6.80315" fill="none" stroke="black"/>
<path d="M63.9961,319.492h -6.80315" fill="none" stroke="black"/>
<path d="M70.7992,303.226h -13.6063" fill="none" stroke="black"/>
<path d="M63.9961,286.959h -6.80315" fill="none" stroke="black"/>
<path d="M63.9961,270.693h -6.80315" fill="none" stroke="black"/>
<path d="M63.9961,254.427h -6.80315" fill="none" stroke="black"/>
<path d="M70.7992,238.16h -13.6063" fill="none" stroke="black"/>
<path d="M63.9961,221.894h -6.80315" fill="none" stroke="black"/>
<path d="M63.9961,205.628h -6.80315" fill="none" stroke="black"/>
<path d="M63.9961,189.362h -6.80315" fill="none" stroke="black"/>
<path d="M70.7992,173.095h -13.6063" fill="none" stroke="black"/>
<path d="M63.9961,156.829h -6.80315" fill="none" stroke="black"/>
<path d="M63.9961,140.563h -6.80315" fill="none" stroke="black"/>
<path d="M63.9961,124.296h -6.80315" fill="none" stroke="black"/>
<path d="M70.7992,108.03h -13.6063" fill="none" stroke="black"/>
<path d="M63.9961,91.7639h -6.80315" fill="none" stroke="black"/>
<path d="M63.9961,75.4976h -6.80315" fill="none" stroke="black"/>
<path d="M63.9961,59.2313h -6.80315" fill="none" stroke="black"/>
<path d="M70.7992,42.965h -13.6063" fill="none" stroke="black"/>
<path d="M70.7992,42.965h -13.6063" fill="none" stroke="black"/>
<rect x="369.004" y="49.1054" width="130.394" height="53.1976" fill="white"/>
<text xml:space="preserve" x="374.19" y="83.1212" fill="black" font-size="20.2879" font-family="Helvetica" font-weight="bold">E=4.600 GeV</text></svg>
