<?xml version="1.0" standalone="no"?>
<svg width="567.429" height="413.216" viewBox="0 0 567.429 413.216" xmlns="http://www.w3.org/2000/svg" shape-rendering="crispEdges">
<title>
pic_fit2.svg
</title>
<desc>
Creator: ROOT Version 6.20/06
CreationDate: Sun May 16 14:41:03 2021</desc>
<defs>
</defs>
<rect x="0.5" y="0" width="566.929" height="412.716" fill="white"/>
<rect x="57.1929" y="41.2716" width="453.543" height="330.172" fill="white"/>
<rect x="57.1929" y="41.2716" width="453.543" height="330.172" fill="none" stroke="black"/>
<rect x="57.1929" y="41.2716" width="453.543" height="330.172" fill="white"/>
<rect x="57.1929" y="41.2716" width="453.543" height="330.172" fill="none" stroke="black"/>
<path d="M57.1929,371.444h 453.543" fill="none" stroke="black"/>
<path d="M57.1929,361.539v 9.90517" fill="none" stroke="black"/>
<path d="M66.2638,366.491v 4.95259" fill="none" stroke="black"/>
<path d="M75.3346,366.491v 4.95259" fill="none" stroke="black"/>
<path d="M84.4055,366.491v 4.95259" fill="none" stroke="black"/>
<path d="M93.4764,366.491v 4.95259" fill="none" stroke="black"/>
<path d="M102.547,361.539v 9.90517" fill="none" stroke="black"/>
<path d="M111.618,366.491v 4.95259" fill="none" stroke="black"/>
<path d="M120.689,366.491v 4.95259" fill="none" stroke="black"/>
<path d="M129.76,366.491v 4.95259" fill="none" stroke="black"/>
<path d="M138.831,366.491v 4.95259" fill="none" stroke="black"/>
<path d="M147.902,361.539v 9.90517" fill="none" stroke="black"/>
<path d="M156.972,366.491v 4.95259" fill="none" stroke="black"/>
<path d="M166.043,366.491v 4.95259" fill="none" stroke="black"/>
<path d="M175.114,366.491v 4.95259" fill="none" stroke="black"/>
<path d="M184.185,366.491v 4.95259" fill="none" stroke="black"/>
<path d="M193.256,361.539v 9.90517" fill="none" stroke="black"/>
<path d="M202.327,366.491v 4.95259" fill="none" stroke="black"/>
<path d="M211.398,366.491v 4.95259" fill="none" stroke="black"/>
<path d="M220.469,366.491v 4.95259" fill="none" stroke="black"/>
<path d="M229.539,366.491v 4.95259" fill="none" stroke="black"/>
<path d="M238.61,361.539v 9.90517" fill="none" stroke="black"/>
<path d="M247.681,366.491v 4.95259" fill="none" stroke="black"/>
<path d="M256.752,366.491v 4.95259" fill="none" stroke="black"/>
<path d="M265.823,366.491v 4.95259" fill="none" stroke="black"/>
<path d="M274.894,366.491v 4.95259" fill="none" stroke="black"/>
<path d="M283.965,361.539v 9.90517" fill="none" stroke="black"/>
<path d="M293.035,366.491v 4.95259" fill="none" stroke="black"/>
<path d="M302.106,366.491v 4.95259" fill="none" stroke="black"/>
<path d="M311.177,366.491v 4.95259" fill="none" stroke="black"/>
<path d="M320.248,366.491v 4.95259" fill="none" stroke="black"/>
<path d="M329.319,361.539v 9.90517" fill="none" stroke="black"/>
<path d="M338.39,366.491v 4.95259" fill="none" stroke="black"/>
<path d="M347.461,366.491v 4.95259" fill="none" stroke="black"/>
<path d="M356.531,366.491v 4.95259" fill="none" stroke="black"/>
<path d="M365.602,366.491v 4.95259" fill="none" stroke="black"/>
<path d="M374.673,361.539v 9.90517" fill="none" stroke="black"/>
<path d="M383.744,366.491v 4.95259" fill="none" stroke="black"/>
<path d="M392.815,366.491v 4.95259" fill="none" stroke="black"/>
<path d="M401.886,366.491v 4.95259" fill="none" stroke="black"/>
<path d="M410.957,366.491v 4.95259" fill="none" stroke="black"/>
<path d="M420.028,361.539v 9.90517" fill="none" stroke="black"/>
<path d="M429.098,366.491v 4.95259" fill="none" stroke="black"/>
<path d="M438.169,366.491v 4.95259" fill="none" stroke="black"/>
<path d="M447.24,366.491v 4.95259" fill="none" stroke="black"/>
<path d="M456.311,366.491v 4.95259" fill="none" stroke="black"/>
<path d="M465.382,361.539v 9.90517" fill="none" stroke="black"/>
<path d="M474.453,366.491v 4.95259" fill="none" stroke="black"/>
<path d="M483.524,366.491v 4.95259" fill="none" stroke="black"/>
<path d="M492.594,366.491v 4.95259" fill="none" stroke="black"/>
<path d="M501.665,366.491v 4.95259" fill="none" stroke="black"/>
<path d="M510.736,361.539v 9.90517" fill="none" stroke="black"/>
<text xml:space="preserve" x="44.3233" y="384.979" fill="black" font-size="13.7523" font-family="Helvetica">2.25</text>
<text xml:space="preserve" x="89.256" y="384.979" fill="black" font-size="13.7523" font-family="Helvetica">2.26</text>
<text xml:space="preserve" x="134.743" y="384.979" fill="black" font-size="13.7523" font-family="Helvetica">2.27</text>
<text xml:space="preserve" x="180.231" y="384.979" fill="black" font-size="13.7523" font-family="Helvetica">2.28</text>
<text xml:space="preserve" x="225.718" y="384.979" fill="black" font-size="13.7523" font-family="Helvetica">2.29</text>
<text xml:space="preserve" x="275.089" y="384.979" fill="black" font-size="13.7523" font-family="Helvetica">2.3</text>
<text xml:space="preserve" x="317.248" y="384.979" fill="black" font-size="13.7523" font-family="Helvetica">2.31</text>
<text xml:space="preserve" x="361.626" y="384.979" fill="black" font-size="13.7523" font-family="Helvetica">2.32</text>
<text xml:space="preserve" x="407.114" y="384.979" fill="black" font-size="13.7523" font-family="Helvetica">2.33</text>
<text xml:space="preserve" x="452.601" y="384.979" fill="black" font-size="13.7523" font-family="Helvetica">2.34</text>
<text xml:space="preserve" x="497.534" y="384.979" fill="black" font-size="13.7523" font-family="Helvetica">2.35</text>
<text xml:space="preserve" x="506.409" y="398.847" fill="black" font-size="13.7523" font-family="Helvetica">)</text>
<text xml:space="preserve" x="501.417" y="392.745" fill="black" font-size="9.33489" font-family="Helvetica">2</text>
<text xml:space="preserve" x="457.594" y="398.847" fill="black" font-size="13.7523" font-family="Helvetica"> (GeV/c</text>
<text xml:space="preserve" x="445.39" y="402.73" fill="black" font-size="9.33489" font-family="Helvetica">BC</text>
<text xml:space="preserve" x="434.85" y="398.847" fill="black" font-size="13.7523" font-family="Helvetica">M</text>
<path d="M57.1929,371.444v -330.172" fill="none" stroke="black"/>
<path d="M70.7992,371.444h -13.6063" fill="none" stroke="black"/>
<path d="M63.9961,361.95h -6.80315" fill="none" stroke="black"/>
<path d="M63.9961,352.455h -6.80315" fill="none" stroke="black"/>
<path d="M63.9961,342.961h -6.80315" fill="none" stroke="black"/>
<path d="M70.7992,333.467h -13.6063" fill="none" stroke="black"/>
<path d="M63.9961,323.972h -6.80315" fill="none" stroke="black"/>
<path d="M63.9961,314.478h -6.80315" fill="none" stroke="black"/>
<path d="M63.9961,304.983h -6.80315" fill="none" stroke="black"/>
<path d="M70.7992,295.489h -13.6063" fill="none" stroke="black"/>
<path d="M63.9961,285.995h -6.80315" fill="none" stroke="black"/>
<path d="M63.9961,276.5h -6.80315" fill="none" stroke="black"/>
<path d="M63.9961,267.006h -6.80315" fill="none" stroke="black"/>
<path d="M70.7992,257.512h -13.6063" fill="none" stroke="black"/>
<path d="M63.9961,248.017h -6.80315" fill="none" stroke="black"/>
<path d="M63.9961,238.523h -6.80315" fill="none" stroke="black"/>
<path d="M63.9961,229.029h -6.80315" fill="none" stroke="black"/>
<path d="M70.7992,219.534h -13.6063" fill="none" stroke="black"/>
<path d="M63.9961,210.04h -6.80315" fill="none" stroke="black"/>
<path d="M63.9961,200.545h -6.80315" fill="none" stroke="black"/>
<path d="M63.9961,191.051h -6.80315" fill="none" stroke="black"/>
<path d="M70.7992,181.557h -13.6063" fill="none" stroke="black"/>
<path d="M63.9961,172.062h -6.80315" fill="none" stroke="black"/>
<path d="M63.9961,162.568h -6.80315" fill="none" stroke="black"/>
<path d="M63.9961,153.074h -6.80315" fill="none" stroke="black"/>
<path d="M70.7992,143.579h -13.6063" fill="none" stroke="black"/>
<path d="M63.9961,134.085h -6.80315" fill="none" stroke="black"/>
<path d="M63.9961,124.59h -6.80315" fill="none" stroke="black"/>
<path d="M63.9961,115.096h -6.80315" fill="none" stroke="black"/>
<path d="M70.7992,105.602h -13.6063" fill="none" stroke="black"/>
<path d="M63.9961,96.1074h -6.80315" fill="none" stroke="black"/>
<path d="M63.9961,86.613h -6.80315" fill="none" stroke="black"/>
<path d="M63.9961,77.1187h -6.80315" fill="none" stroke="black"/>
<path d="M70.7992,67.6243h -13.6063" fill="none" stroke="black"/>
<path d="M70.7992,67.6243h -13.6063" fill="none" stroke="black"/>
<path d="M63.9961,58.1299h -6.80315" fill="none" stroke="black"/>
<path d="M63.9961,48.6356h -6.80315" fill="none" stroke="black"/>
<text xml:space="preserve" x="47.0969" y="376.104" fill="black" font-size="13.7523" font-family="Helvetica">0</text>
<text xml:space="preserve" x="47.0969" y="338.937" fill="black" font-size="13.7523" font-family="Helvetica">2</text>
<text xml:space="preserve" x="47.0969" y="300.661" fill="black" font-size="13.7523" font-family="Helvetica">4</text>
<text xml:space="preserve" x="47.0969" y="262.385" fill="black" font-size="13.7523" font-family="Helvetica">6</text>
<text xml:space="preserve" x="47.0969" y="224.109" fill="black" font-size="13.7523" font-family="Helvetica">8</text>
<text xml:space="preserve" x="39.8855" y="186.388" fill="black" font-size="13.7523" font-family="Helvetica">10</text>
<text xml:space="preserve" x="39.8855" y="148.666" fill="black" font-size="13.7523" font-family="Helvetica">12</text>
<text xml:space="preserve" x="39.8855" y="110.945" fill="black" font-size="13.7523" font-family="Helvetica">14</text>
<text xml:space="preserve" x="39.8855" y="72.1143" fill="black" font-size="13.7523" font-family="Helvetica">16</text>
<g transform="rotate(-90,27.6815,44.9327)">
<text xml:space="preserve" x="27.6815" y="44.9327" fill="black" font-size="13.7523" font-family="Helvetica">)</text>
</g>
<g transform="rotate(-90,21.5796,49.9253)">
<text xml:space="preserve" x="21.5796" y="49.9253" fill="black" font-size="9.33489" font-family="Helvetica">2</text>
</g>
<g transform="rotate(-90,27.6815,163.089)">
<text xml:space="preserve" x="27.6815" y="163.089" fill="black" font-size="13.7523" font-family="Helvetica">Events/(  5.0 MeV/c</text>
</g>
<path d="M68.5315,352.455h -11.3386" fill="none" stroke="black" stroke-width="4"/>
<path d="M57.1929,353.565v -2.2189" fill="none" stroke="black" stroke-width="4"/>
<path d="M68.5315,352.455h 11.3386" fill="none" stroke="black" stroke-width="4"/>
<path d="M79.8701,353.565v -2.2189" fill="none" stroke="black" stroke-width="4"/>
<path d="M68.5315,352.455v -43.6651" fill="none" stroke="black" stroke-width="4"/>
<path d="M67.4221,308.79h 2.2189" fill="none" stroke="black" stroke-width="4"/>
<path d="M68.5315,352.455v 15.7084" fill="none" stroke="black" stroke-width="4"/>
<path d="M67.4221,368.164h 2.2189" fill="none" stroke="black" stroke-width="4"/>
<path d="M91.2087,333.467h -11.3386" fill="none" stroke="black" stroke-width="4"/>
<path d="M79.8701,334.576v -2.2189" fill="none" stroke="black" stroke-width="4"/>
<path d="M91.2087,333.467h 11.3386" fill="none" stroke="black" stroke-width="4"/>
<path d="M102.547,334.576v -2.2189" fill="none" stroke="black" stroke-width="4"/>
<path d="M91.2087,333.467v -50.0896" fill="none" stroke="black" stroke-width="4"/>
<path d="M90.0992,283.377h 2.2189" fill="none" stroke="black" stroke-width="4"/>
<path d="M91.2087,333.467v 24.5299" fill="none" stroke="black" stroke-width="4"/>
<path d="M90.0992,357.996h 2.2189" fill="none" stroke="black" stroke-width="4"/>
<path d="M113.886,333.467h -11.3386" fill="none" stroke="black" stroke-width="4"/>
<path d="M102.547,334.576v -2.2189" fill="none" stroke="black" stroke-width="4"/>
<path d="M113.886,333.467h 11.3386" fill="none" stroke="black" stroke-width="4"/>
<path d="M125.224,334.576v -2.2189" fill="none" stroke="black" stroke-width="4"/>
<path d="M113.886,333.467v -50.0896" fill="none" stroke="black" stroke-width="4"/>
<path d="M112.776,283.377h 2.2189" fill="none" stroke="black" stroke-width="4"/>
<path d="M113.886,333.467v 24.5299" fill="none" stroke="black" stroke-width="4"/>
<path d="M112.776,357.996h 2.2189" fill="none" stroke="black" stroke-width="4"/>
<path d="M136.563,314.478h -11.3386" fill="none" stroke="black" stroke-width="4"/>
<path d="M125.224,315.587v -2.2189" fill="none" stroke="black" stroke-width="4"/>
<path d="M136.563,314.478h 11.3386" fill="none" stroke="black" stroke-width="4"/>
<path d="M147.902,315.587v -2.2189" fill="none" stroke="black" stroke-width="4"/>
<path d="M136.563,314.478v -55.4126" fill="none" stroke="black" stroke-width="4"/>
<path d="M135.454,259.065h 2.2189" fill="none" stroke="black" stroke-width="4"/>
<path d="M136.563,314.478v 31.003" fill="none" stroke="black" stroke-width="4"/>
<path d="M135.454,345.481h 2.2189" fill="none" stroke="black" stroke-width="4"/>
<path d="M159.24,295.489h -11.3386" fill="none" stroke="black" stroke-width="4"/>
<path d="M147.902,296.599v -2.2189" fill="none" stroke="black" stroke-width="4"/>
<path d="M159.24,295.489h 11.3386" fill="none" stroke="black" stroke-width="4"/>
<path d="M170.579,296.599v -2.2189" fill="none" stroke="black" stroke-width="4"/>
<path d="M159.24,295.489v -60.0567" fill="none" stroke="black" stroke-width="4"/>
<path d="M158.131,235.432h 2.2189" fill="none" stroke="black" stroke-width="4"/>
<path d="M159.24,295.489v 36.3509" fill="none" stroke="black" stroke-width="4"/>
<path d="M158.131,331.84h 2.2189" fill="none" stroke="black" stroke-width="4"/>
<path d="M181.917,333.467h -11.3386" fill="none" stroke="black" stroke-width="4"/>
<path d="M170.579,334.576v -2.2189" fill="none" stroke="black" stroke-width="4"/>
<path d="M181.917,333.467h 11.3386" fill="none" stroke="black" stroke-width="4"/>
<path d="M193.256,334.576v -2.2189" fill="none" stroke="black" stroke-width="4"/>
<path d="M181.917,333.467v -50.0896" fill="none" stroke="black" stroke-width="4"/>
<path d="M180.808,283.377h 2.2189" fill="none" stroke="black" stroke-width="4"/>
<path d="M181.917,333.467v 24.5299" fill="none" stroke="black" stroke-width="4"/>
<path d="M180.808,357.996h 2.2189" fill="none" stroke="black" stroke-width="4"/>
<path d="M204.594,352.455h -11.3386" fill="none" stroke="black" stroke-width="4"/>
<path d="M193.256,353.565v -2.2189" fill="none" stroke="black" stroke-width="4"/>
<path d="M204.594,352.455h 11.3386" fill="none" stroke="black" stroke-width="4"/>
<path d="M215.933,353.565v -2.2189" fill="none" stroke="black" stroke-width="4"/>
<path d="M204.594,352.455v -43.6651" fill="none" stroke="black" stroke-width="4"/>
<path d="M203.485,308.79h 2.2189" fill="none" stroke="black" stroke-width="4"/>
<path d="M204.594,352.455v 15.7084" fill="none" stroke="black" stroke-width="4"/>
<path d="M203.485,368.164h 2.2189" fill="none" stroke="black" stroke-width="4"/>
<path d="M227.272,143.579h -11.3386" fill="none" stroke="black" stroke-width="4"/>
<path d="M215.933,144.689v -2.2189" fill="none" stroke="black" stroke-width="4"/>
<path d="M227.272,143.579h 11.3386" fill="none" stroke="black" stroke-width="4"/>
<path d="M238.61,144.689v -2.2189" fill="none" stroke="black" stroke-width="4"/>
<path d="M227.272,143.579v -86.5852" fill="none" stroke="black" stroke-width="4"/>
<path d="M226.162,56.9941h 2.2189" fill="none" stroke="black" stroke-width="4"/>
<path d="M227.272,143.579v 64.8516" fill="none" stroke="black" stroke-width="4"/>
<path d="M226.162,208.431h 2.2189" fill="none" stroke="black" stroke-width="4"/>
<path d="M249.949,314.478h -11.3386" fill="none" stroke="black" stroke-width="4"/>
<path d="M238.61,315.587v -2.2189" fill="none" stroke="black" stroke-width="4"/>
<path d="M249.949,314.478h 11.3386" fill="none" stroke="black" stroke-width="4"/>
<path d="M261.287,315.587v -2.2189" fill="none" stroke="black" stroke-width="4"/>
<path d="M249.949,314.478v -55.4126" fill="none" stroke="black" stroke-width="4"/>
<path d="M248.839,259.065h 2.2189" fill="none" stroke="black" stroke-width="4"/>
<path d="M249.949,314.478v 31.003" fill="none" stroke="black" stroke-width="4"/>
<path d="M248.839,345.481h 2.2189" fill="none" stroke="black" stroke-width="4"/>
<path d="M272.626,333.467h -11.3386" fill="none" stroke="black" stroke-width="4"/>
<path d="M261.287,334.576v -2.2189" fill="none" stroke="black" stroke-width="4"/>
<path d="M272.626,333.467h 11.3386" fill="none" stroke="black" stroke-width="4"/>
<path d="M283.965,334.576v -2.2189" fill="none" stroke="black" stroke-width="4"/>
<path d="M272.626,333.467v -50.0896" fill="none" stroke="black" stroke-width="4"/>
<path d="M271.517,283.377h 2.2189" fill="none" stroke="black" stroke-width="4"/>
<path d="M272.626,333.467v 24.5299" fill="none" stroke="black" stroke-width="4"/>
<path d="M271.517,357.996h 2.2189" fill="none" stroke="black" stroke-width="4"/>
<path d="M295.303,333.467h -11.3386" fill="none" stroke="black" stroke-width="4"/>
<path d="M283.965,334.576v -2.2189" fill="none" stroke="black" stroke-width="4"/>
<path d="M295.303,333.467h 11.3386" fill="none" stroke="black" stroke-width="4"/>
<path d="M306.642,334.576v -2.2189" fill="none" stroke="black" stroke-width="4"/>
<path d="M295.303,333.467v -50.0896" fill="none" stroke="black" stroke-width="4"/>
<path d="M294.194,283.377h 2.2189" fill="none" stroke="black" stroke-width="4"/>
<path d="M295.303,333.467v 24.5299" fill="none" stroke="black" stroke-width="4"/>
<path d="M294.194,357.996h 2.2189" fill="none" stroke="black" stroke-width="4"/>
<path d="M317.98,371.444h -11.3386" fill="none" stroke="black" stroke-width="4"/>
<path d="M306.642,371.444v -1.10945" fill="none" stroke="black" stroke-width="4"/>
<path d="M317.98,371.444h 11.3386" fill="none" stroke="black" stroke-width="4"/>
<path d="M329.319,371.444v -1.10945" fill="none" stroke="black" stroke-width="4"/>
<path d="M317.98,371.444v -21.7967" fill="none" stroke="black" stroke-width="4"/>
<path d="M316.871,349.647h 2.2189" fill="none" stroke="black" stroke-width="4"/>
<path d="M340.657,371.444h -11.3386" fill="none" stroke="black" stroke-width="4"/>
<path d="M329.319,371.444v -1.10945" fill="none" stroke="black" stroke-width="4"/>
<path d="M340.657,371.444h 11.3386" fill="none" stroke="black" stroke-width="4"/>
<path d="M351.996,371.444v -1.10945" fill="none" stroke="black" stroke-width="4"/>
<path d="M340.657,371.444v -21.7967" fill="none" stroke="black" stroke-width="4"/>
<path d="M339.548,349.647h 2.2189" fill="none" stroke="black" stroke-width="4"/>
<path d="M363.335,314.478h -11.3386" fill="none" stroke="black" stroke-width="4"/>
<path d="M351.996,315.587v -2.2189" fill="none" stroke="black" stroke-width="4"/>
<path d="M363.335,314.478h 11.3386" fill="none" stroke="black" stroke-width="4"/>
<path d="M374.673,315.587v -2.2189" fill="none" stroke="black" stroke-width="4"/>
<path d="M363.335,314.478v -55.4126" fill="none" stroke="black" stroke-width="4"/>
<path d="M362.225,259.065h 2.2189" fill="none" stroke="black" stroke-width="4"/>
<path d="M363.335,314.478v 31.003" fill="none" stroke="black" stroke-width="4"/>
<path d="M362.225,345.481h 2.2189" fill="none" stroke="black" stroke-width="4"/>
<path d="M386.012,371.444h -11.3386" fill="none" stroke="black" stroke-width="4"/>
<path d="M374.673,371.444v -1.10945" fill="none" stroke="black" stroke-width="4"/>
<path d="M386.012,371.444h 11.3386" fill="none" stroke="black" stroke-width="4"/>
<path d="M397.35,371.444v -1.10945" fill="none" stroke="black" stroke-width="4"/>
<path d="M386.012,371.444v -21.7967" fill="none" stroke="black" stroke-width="4"/>
<path d="M384.902,349.647h 2.2189" fill="none" stroke="black" stroke-width="4"/>
<path d="M408.689,371.444h -11.3386" fill="none" stroke="black" stroke-width="4"/>
<path d="M397.35,371.444v -1.10945" fill="none" stroke="black" stroke-width="4"/>
<path d="M408.689,371.444h 11.3386" fill="none" stroke="black" stroke-width="4"/>
<path d="M420.028,371.444v -1.10945" fill="none" stroke="black" stroke-width="4"/>
<path d="M408.689,371.444v -21.7967" fill="none" stroke="black" stroke-width="4"/>
<path d="M407.58,349.647h 2.2189" fill="none" stroke="black" stroke-width="4"/>
<path d="M431.366,371.444h -11.3386" fill="none" stroke="black" stroke-width="4"/>
<path d="M420.028,371.444v -1.10945" fill="none" stroke="black" stroke-width="4"/>
<path d="M431.366,371.444h 11.3386" fill="none" stroke="black" stroke-width="4"/>
<path d="M442.705,371.444v -1.10945" fill="none" stroke="black" stroke-width="4"/>
<path d="M431.366,371.444v -21.7967" fill="none" stroke="black" stroke-width="4"/>
<path d="M430.257,349.647h 2.2189" fill="none" stroke="black" stroke-width="4"/>
<path d="M454.043,371.444h -11.3386" fill="none" stroke="black" stroke-width="4"/>
<path d="M442.705,371.444v -1.10945" fill="none" stroke="black" stroke-width="4"/>
<path d="M454.043,371.444h 11.3386" fill="none" stroke="black" stroke-width="4"/>
<path d="M465.382,371.444v -1.10945" fill="none" stroke="black" stroke-width="4"/>
<path d="M454.043,371.444v -21.7967" fill="none" stroke="black" stroke-width="4"/>
<path d="M452.934,349.647h 2.2189" fill="none" stroke="black" stroke-width="4"/>
<path d="M476.72,371.444h -11.3386" fill="none" stroke="black" stroke-width="4"/>
<path d="M465.382,371.444v -1.10945" fill="none" stroke="black" stroke-width="4"/>
<path d="M476.72,371.444h 11.3386" fill="none" stroke="black" stroke-width="4"/>
<path d="M488.059,371.444v -1.10945" fill="none" stroke="black" stroke-width="4"/>
<path d="M476.72,371.444v -21.7967" fill="none" stroke="black" stroke-width="4"/>
<path d="M475.611,349.647h 2.2189" fill="none" stroke="black" stroke-width="4"/>
<path d="M499.398,371.444h -11.3386" fill="none" stroke="black" stroke-width="4"/>
<path d="M488.059,371.444v -1.10945" fill="none" stroke="black" stroke-width="4"/>
<path d="M499.398,371.444h 11.3386" fill="none" stroke="black" stroke-width="4"/>
<path d="M510.736,371.444v -1.10945" fill="none" stroke="black" stroke-width="4"/>
<path d="M499.398,371.444v -21.7967" fill="none" stroke="black" stroke-width="4"/>
<path d="M498.288,349.647h 2.2189" fill="none" stroke="black" stroke-width="4"/>
<g fill="black">
<circle cx="68.5315" cy="352.455" r="2.2189"/>
<circle cx="91.2087" cy="333.467" r="2.2189"/>
<circle cx="113.886" cy="333.467" r="2.2189"/>
<circle cx="136.563" cy="314.478" r="2.2189"/>
<circle cx="159.24" cy="295.489" r="2.2189"/>
<circle cx="181.917" cy="333.467" r="2.2189"/>
<circle cx="204.594" cy="352.455" r="2.2189"/>
<circle cx="227.272" cy="143.579" r="2.2189"/>
<circle cx="249.949" cy="314.478" r="2.2189"/>
<circle cx="272.626" cy="333.467" r="2.2189"/>
<circle cx="295.303" cy="333.467" r="2.2189"/>
<circle cx="317.98" cy="371.444" r="2.2189"/>
<circle cx="340.657" cy="371.444" r="2.2189"/>
<circle cx="363.335" cy="314.478" r="2.2189"/>
<circle cx="386.012" cy="371.444" r="2.2189"/>
<circle cx="408.689" cy="371.444" r="2.2189"/>
<circle cx="431.366" cy="371.444" r="2.2189"/>
<circle cx="454.043" cy="371.444" r="2.2189"/>
<circle cx="476.72" cy="371.444" r="2.2189"/>
<circle cx="499.398" cy="371.444" r="2.2189"/>
</g>
<path d="M57.1929,320.096z" fill="none" stroke="#ff0000" stroke-width="6"/>
<path d="M57.1929,320.096l 4.53543, 0.638821l 4.53543, 0.635162l 4.53543, 0.631091l 4.53543, 0.627112l 4.53543, 0.62333l 4.53543, 0.619807l 4.53543, 0.616587l 4.53543, 0.613679l 4.53543, 0.611049l 4.53543, 0.608616l 4.53543, 0.606249l 4.53543,
 0.603778l 4.53543, 0.600999l 4.53543, 0.59769l 4.53543, 0.593633l 4.53543, 0.588615l 4.53543, 0.582469l 4.53543, 0.575032l 4.53543, 0.566101l 4.53543, 0.555423l 4.53543, 0.542563l 4.53543, 0.526731l 4.53543, 0.506382l 4.53543, 0.478069l 4.53543,
 0.434418l 4.53543, 0.363857l 4.53543, 0.258173l 4.53543, 0.122514l 4.53543, -0.0516892l 4.53543, -0.424151l 4.53543, -1.45059l 2.26772, -1.51835l 2.26772, -2.38278l 2.26772, -3.52421l 1.13386, -2.33972l 1.13386, -2.94253l 1.13386, -3.88801l 1.13386,
 -5.32958l 0.566929, -3.3797l 0.566929, -3.93228l 0.566929, -4.52954l 0.566929, -5.12567l 1.13386, -11.7702l 1.13386, -13.1312l 2.26772, -26.7725l 2.26772, -24.3096l 0.566929, -6.89242l 0.566929, -7.78356l 1.13386, -17.0953l 0.566929, -8.22295l
 0.566929, -7.53943l 1.13386, -14.3611l 2.26772, -35.0756l 0.566929, -6.2267l 0.566929, -4.3829l 0.566929, -3.0755l 0.566929, -1.80685l 0.566929, 0.0264288l 0.566929, 2.38388l 0.566929, 4.57887l 0.566929, 5.92576l 1.13386, 12.9903l 1.13386, 14.3274l
 1.13386, 14.7758l 0.566929, 7.45886l 0.566929, 8.12946l 0.566929, 9.14295l 0.566929, 10.09l 1.13386, 21.2261l 0.566929, 10.1872l 0.566929, 9.46294l 0.566929, 8.60771l 0.566929, 7.65014l 0.566929, 6.67926l 0.566929, 5.80754l 1.13386, 9.82251l
 2.26772, 17.2735l 1.13386, 7.92461l 1.13386, 6.88584l 1.13386, 5.77236l 1.13386, 4.92459l 2.26772, 8.22326l 1.13386, 3.34679l 1.13386, 2.79288l 2.26772, 4.04755l 2.26772, 2.5487l 4.53543, 3.02103l 4.53543, 2.04105l 4.53543, 1.53189l 4.53543,
 1.15224l 4.53543, 0.88856l 4.53543, 0.719913l 4.53543, 0.620436l 4.53543, 0.565467l 4.53543, 0.536999l 4.53543, 0.523454l 4.53543, 0.517483l 4.53543, 0.514465l 4.53543, 0.51182l 4.53543, 0.508395l 4.53543, 0.503915l 4.53543, 0.498549l 4.53543,
 0.492637l 4.53543, 0.486571l 4.53543, 0.480686l 4.53543, 0.47524l 4.53543, 0.470441l 4.53543, 0.466432l 4.53543, 0.463291l 4.53543, 0.461041l 4.53543, 0.459626l 4.53543, 0.458909l 4.53543, 0.458687l 4.53543, 0.458684l 4.53543, 0.458619l 4.53543,
 0.458233l 4.53543, 0.457309l 4.53543, 0.455732l 4.53543, 0.453482l 4.53543, 0.450626l 4.53543, 0.447304l 4.53543, 0.443691l 4.53543, 0.43997l 4.53543, 0.436307l 4.53543, 0.432826l 4.53543, 0.429606l 4.53543, 0.426689l 4.53543, 0.424072l 4.53543,
 0.421729l 4.53543, 0.419616l 4.53543, 0.417682l 4.53543, 0.415873l 4.53543, 0.414137l 4.53543, 0.412427l 4.53543, 0.410705l 4.53543, 0.408938l 4.53543, 0.4071l 4.53543, 0.405177l 4.53543, 0.403159l 4.53543, 0.401041l 4.53543, 0.398829l 4.53543,
 0.396346" fill="none" stroke="#ff0000" stroke-width="6"/>
<path d="M57.1929,371.444z" fill="none" stroke="#0000ff" stroke-width="6" stroke-dasharray=" 3, 3"/>
<path d="M57.1929,371.444l 4.53543, -0.0401818l 4.53543, -0.00890889l 4.53543, -0.0100199l 4.53543, -0.0110468l 4.53543, -0.0118854l 4.53543, -0.0124733l 4.53543, -0.0127661l 4.53543, -0.0127555l 4.53543, -0.0124754l 4.53543, -0.0120063l 4.53543,
 -0.0114791l 4.53543, -0.0110641l 4.53543, -0.0109656l 4.53543, -0.0114054l 4.53543, -0.0126017l 4.53543, -0.0147665l 4.53543, -0.0180676l 4.53543, -0.0226682l 4.53543, -0.0287702l 4.53543, -0.0366285l 4.53543, -0.0466756l 4.53543, -0.0597034l
 4.53543, -0.0772573l 4.53543, -0.102782l 4.53543, -0.143653l 4.53543, -0.211443l 4.53543, -0.314364l 4.53543, -0.447267l 4.53543, -0.618722l 4.53543, -0.988445l 4.53543, -2.01215l 2.26772, -1.79811l 2.26772, -2.66186l 2.26772, -3.80261l 1.13386,
 -2.47867l 1.13386, -3.08131l 1.13386, -4.02662l 1.13386, -5.46801l 0.566929, -3.44886l 0.566929, -4.0014l 0.566929, -4.59861l 0.566929, -5.1947l 0.566929, -5.72697l 0.566929, -6.1812l 1.13386, -13.269l 2.26772, -27.0475l 2.26772, -24.584l 0.566929,
 -6.9609l 0.566929, -7.852l 1.13386, -17.2321l 0.566929, -8.29126l 0.566929, -7.6077l 1.13386, -14.4975l 2.26772, -35.348l 0.566929, -6.29468l 0.566929, -4.45084l 0.566929, -3.14339l 0.566929, -1.8747l 0.566929, -0.0413837l 0.566929, 2.31611l
 0.566929, 4.51114l 0.566929, 5.85807l 1.13386, 12.8551l 1.13386, 14.1923l 1.13386, 14.6409l 0.566929, 7.39146l 0.566929, 8.0621l 0.566929, 9.07563l 0.566929, 10.0228l 1.13386, 21.0917l 0.566929, 10.1201l 0.566929, 9.39583l 0.566929, 8.54065l
 0.566929, 7.58312l 0.566929, 6.61228l 0.566929, 5.7406l 1.13386, 9.68876l 2.26772, 17.0065l 1.13386, 7.79135l 1.13386, 6.75274l 1.13386, 5.63943l 1.13386, 4.79182l 1.13386, 4.21936l 1.13386, 3.73887l 1.13386, 3.21452l 1.13386, 2.66077l 1.13386,
 2.1254l 1.13386, 1.65843l 2.26772, 2.28564l 4.53543, 2.49686l 4.53543, 1.5195l 4.53543, 1.01294l 4.53543, 0.63589l 4.53543, 0.374798l 4.53543, 0.208731l 4.53543, 0.111826l 4.53543, 0.0594222l 4.53543, 0.0335119l 4.53543, 0.0225153l 4.53543,
 0.0190856l 4.53543, 0.0186021l 4.53543, 0.0184822l 4.53543, 0.0175759l 4.53543, 0.0156058l 4.53543, 0.0127424l 4.53543, 0.0093251l 4.53543, 0.00574661l 4.53543, 0.0023404l 4.53543, -0.000633697l 4.53543, -0.00296827l 4.53543, -0.00452071l 4.53543,
 -0.00521296l 4.53543, -0.0050218l 4.53543, -0.00400404l 4.53543, -0.00229531l 4.53543, -9.87208e-05l 4.53543, 0.00230876l 4.53543, 0.00464701l 4.53543, 0.00665636l 4.53543, 0.00811973l 4.53543, 0.00892326l 4.53543, 0.00904582l 4.53543, 0.00855479l
 4.53543, 0.00759079l 4.53543, 0.00632796l 4.53543, 0.00494923l 4.53543, 0.00362184l 4.53543, 0.00246812l 4.53543, 0.0015683l 4.53543, 0.000963783l 4.53543, 0.000651946l 4.53543, 0.000606782l 4.53543, 0.000785037l 4.53543, 0.00113387l 4.53543,
 0.00160074l 4.53543, 0.00213269l 4.53543, 0.0026834l 4.53543, 0.0032147l 4.53543, 0.00369364l 4.53543, 0.00409513l 4.53543, 0.00440351l 4.53543, 0.0046091l 4.53543, 0.00470853l 4.53543, 0.00470567l 4.53543, 0.00442536" fill="none" stroke="#0000ff"
 stroke-width="6" stroke-dasharray=" 3, 3"/>
<path d="M57.1929,320.128z" fill="none" stroke="#00ff00" stroke-width="6" stroke-dasharray=" 3, 3"/>
<path d="M57.1929,320.128l 4.53543, 0.647039l 4.53543, 0.644071l 4.53543, 0.641111l 4.53543, 0.638159l 4.53543, 0.635216l 4.53543, 0.63228l 4.53543, 0.629353l 4.53543, 0.626435l 4.53543, 0.623524l 4.53543, 0.620622l 4.53543, 0.617728l 4.53543,
 0.614842l 4.53543, 0.611965l 4.53543, 0.609095l 4.53543, 0.606234l 4.53543, 0.603381l 4.53543, 0.600536l 4.53543, 0.5977l 4.53543, 0.594871l 4.53543, 0.592051l 4.53543, 0.589239l 4.53543, 0.586435l 4.53543, 0.583639l 4.53543, 0.580851l 4.53543,
 0.578071l 4.53543, 0.5753l 4.53543, 0.572536l 4.53543, 0.569781l 4.53543, 0.567033l 4.53543, 0.564294l 4.53543, 0.561563l 4.53543, 0.558839l 4.53543, 0.556124l 4.53543, 0.553417l 4.53543, 0.550717l 4.53543, 0.548026l 4.53543, 0.545343l 4.53543,
 0.542668l 4.53543, 0.54l 4.53543, 0.537341l 4.53543, 0.534689l 4.53543, 0.532046l 4.53543, 0.52941l 4.53543, 0.526783l 4.53543, 0.524163l 4.53543, 0.521551l 4.53543, 0.518947l 4.53543, 0.516351l 4.53543, 0.513762l 4.53543, 0.511182l 4.53543,
 0.508609l 4.53543, 0.506045l 4.53543, 0.503488l 4.53543, 0.500938l 4.53543, 0.498397l 4.53543, 0.495863l 4.53543, 0.493338l 4.53543, 0.490819l 4.53543, 0.488309l 4.53543, 0.485807l 4.53543, 0.483312l 4.53543, 0.480825l 4.53543, 0.478345l 4.53543,
 0.475873l 4.53543, 0.473409l 4.53543, 0.470953l 4.53543, 0.468504l 4.53543, 0.466063l 4.53543, 0.46363l 4.53543, 0.461204l 4.53543, 0.458786l 4.53543, 0.456375l 4.53543, 0.453972l 4.53543, 0.451577l 4.53543, 0.449189l 4.53543, 0.446809l 4.53543,
 0.444436l 4.53543, 0.442071l 4.53543, 0.439713l 4.53543, 0.437363l 4.53543, 0.435021l 4.53543, 0.432685l 4.53543, 0.430358l 4.53543, 0.428038l 4.53543, 0.425725l 4.53543, 0.42342l 4.53543, 0.421122l 4.53543, 0.418831l 4.53543, 0.416548l 4.53543,
 0.414273l 4.53543, 0.412005l 4.53543, 0.409744l 4.53543, 0.40749l 4.53543, 0.405244l 4.53543, 0.403005l 4.53543, 0.400774l 4.53543, 0.39855l 4.53543, 0.396333l 4.53543, 0.394123l 4.53543, 0.391921" fill="none" stroke="#00ff00" stroke-width="6"
 stroke-dasharray=" 3, 3"/>
<path d="M57.1929,371.444h 453.543" fill="none" stroke="black"/>
<path d="M57.1929,361.539v 9.90517" fill="none" stroke="black"/>
<path d="M66.2638,366.491v 4.95259" fill="none" stroke="black"/>
<path d="M75.3346,366.491v 4.95259" fill="none" stroke="black"/>
<path d="M84.4055,366.491v 4.95259" fill="none" stroke="black"/>
<path d="M93.4764,366.491v 4.95259" fill="none" stroke="black"/>
<path d="M102.547,361.539v 9.90517" fill="none" stroke="black"/>
<path d="M111.618,366.491v 4.95259" fill="none" stroke="black"/>
<path d="M120.689,366.491v 4.95259" fill="none" stroke="black"/>
<path d="M129.76,366.491v 4.95259" fill="none" stroke="black"/>
<path d="M138.831,366.491v 4.95259" fill="none" stroke="black"/>
<path d="M147.902,361.539v 9.90517" fill="none" stroke="black"/>
<path d="M156.972,366.491v 4.95259" fill="none" stroke="black"/>
<path d="M166.043,366.491v 4.95259" fill="none" stroke="black"/>
<path d="M175.114,366.491v 4.95259" fill="none" stroke="black"/>
<path d="M184.185,366.491v 4.95259" fill="none" stroke="black"/>
<path d="M193.256,361.539v 9.90517" fill="none" stroke="black"/>
<path d="M202.327,366.491v 4.95259" fill="none" stroke="black"/>
<path d="M211.398,366.491v 4.95259" fill="none" stroke="black"/>
<path d="M220.469,366.491v 4.95259" fill="none" stroke="black"/>
<path d="M229.539,366.491v 4.95259" fill="none" stroke="black"/>
<path d="M238.61,361.539v 9.90517" fill="none" stroke="black"/>
<path d="M247.681,366.491v 4.95259" fill="none" stroke="black"/>
<path d="M256.752,366.491v 4.95259" fill="none" stroke="black"/>
<path d="M265.823,366.491v 4.95259" fill="none" stroke="black"/>
<path d="M274.894,366.491v 4.95259" fill="none" stroke="black"/>
<path d="M283.965,361.539v 9.90517" fill="none" stroke="black"/>
<path d="M293.035,366.491v 4.95259" fill="none" stroke="black"/>
<path d="M302.106,366.491v 4.95259" fill="none" stroke="black"/>
<path d="M311.177,366.491v 4.95259" fill="none" stroke="black"/>
<path d="M320.248,366.491v 4.95259" fill="none" stroke="black"/>
<path d="M329.319,361.539v 9.90517" fill="none" stroke="black"/>
<path d="M338.39,366.491v 4.95259" fill="none" stroke="black"/>
<path d="M347.461,366.491v 4.95259" fill="none" stroke="black"/>
<path d="M356.531,366.491v 4.95259" fill="none" stroke="black"/>
<path d="M365.602,366.491v 4.95259" fill="none" stroke="black"/>
<path d="M374.673,361.539v 9.90517" fill="none" stroke="black"/>
<path d="M383.744,366.491v 4.95259" fill="none" stroke="black"/>
<path d="M392.815,366.491v 4.95259" fill="none" stroke="black"/>
<path d="M401.886,366.491v 4.95259" fill="none" stroke="black"/>
<path d="M410.957,366.491v 4.95259" fill="none" stroke="black"/>
<path d="M420.028,361.539v 9.90517" fill="none" stroke="black"/>
<path d="M429.098,366.491v 4.95259" fill="none" stroke="black"/>
<path d="M438.169,366.491v 4.95259" fill="none" stroke="black"/>
<path d="M447.24,366.491v 4.95259" fill="none" stroke="black"/>
<path d="M456.311,366.491v 4.95259" fill="none" stroke="black"/>
<path d="M465.382,361.539v 9.90517" fill="none" stroke="black"/>
<path d="M474.453,366.491v 4.95259" fill="none" stroke="black"/>
<path d="M483.524,366.491v 4.95259" fill="none" stroke="black"/>
<path d="M492.594,366.491v 4.95259" fill="none" stroke="black"/>
<path d="M501.665,366.491v 4.95259" fill="none" stroke="black"/>
<path d="M510.736,361.539v 9.90517" fill="none" stroke="black"/>
<path d="M57.1929,371.444v -330.172" fill="none" stroke="black"/>
<path d="M70.7992,371.444h -13.6063" fill="none" stroke="black"/>
<path d="M63.9961,361.95h -6.80315" fill="none" stroke="black"/>
<path d="M63.9961,352.455h -6.80315" fill="none" stroke="black"/>
<path d="M63.9961,342.961h -6.80315" fill="none" stroke="black"/>
<path d="M70.7992,333.467h -13.6063" fill="none" stroke="black"/>
<path d="M63.9961,323.972h -6.80315" fill="none" stroke="black"/>
<path d="M63.9961,314.478h -6.80315" fill="none" stroke="black"/>
<path d="M63.9961,304.983h -6.80315" fill="none" stroke="black"/>
<path d="M70.7992,295.489h -13.6063" fill="none" stroke="black"/>
<path d="M63.9961,285.995h -6.80315" fill="none" stroke="black"/>
<path d="M63.9961,276.5h -6.80315" fill="none" stroke="black"/>
<path d="M63.9961,267.006h -6.80315" fill="none" stroke="black"/>
<path d="M70.7992,257.512h -13.6063" fill="none" stroke="black"/>
<path d="M63.9961,248.017h -6.80315" fill="none" stroke="black"/>
<path d="M63.9961,238.523h -6.80315" fill="none" stroke="black"/>
<path d="M63.9961,229.029h -6.80315" fill="none" stroke="black"/>
<path d="M70.7992,219.534h -13.6063" fill="none" stroke="black"/>
<path d="M63.9961,210.04h -6.80315" fill="none" stroke="black"/>
<path d="M63.9961,200.545h -6.80315" fill="none" stroke="black"/>
<path d="M63.9961,191.051h -6.80315" fill="none" stroke="black"/>
<path d="M70.7992,181.557h -13.6063" fill="none" stroke="black"/>
<path d="M63.9961,172.062h -6.80315" fill="none" stroke="black"/>
<path d="M63.9961,162.568h -6.80315" fill="none" stroke="black"/>
<path d="M63.9961,153.074h -6.80315" fill="none" stroke="black"/>
<path d="M70.7992,143.579h -13.6063" fill="none" stroke="black"/>
<path d="M63.9961,134.085h -6.80315" fill="none" stroke="black"/>
<path d="M63.9961,124.59h -6.80315" fill="none" stroke="black"/>
<path d="M63.9961,115.096h -6.80315" fill="none" stroke="black"/>
<path d="M70.7992,105.602h -13.6063" fill="none" stroke="black"/>
<path d="M63.9961,96.1074h -6.80315" fill="none" stroke="black"/>
<path d="M63.9961,86.613h -6.80315" fill="none" stroke="black"/>
<path d="M63.9961,77.1187h -6.80315" fill="none" stroke="black"/>
<path d="M70.7992,67.6243h -13.6063" fill="none" stroke="black"/>
<path d="M70.7992,67.6243h -13.6063" fill="none" stroke="black"/>
<path d="M63.9961,58.1299h -6.80315" fill="none" stroke="black"/>
<path d="M63.9961,48.6356h -6.80315" fill="none" stroke="black"/>
<rect x="369.004" y="49.5259" width="130.394" height="53.653" fill="white"/>
<text xml:space="preserve" x="374.385" y="88.756" fill="black" font-size="34.5151" font-family="Helvetica" font-weight="bold">all data</text></svg>
