<?xml version="1.0" standalone="no"?>
<svg width="567.429" height="413.216" viewBox="0 0 567.429 413.216" xmlns="http://www.w3.org/2000/svg" shape-rendering="crispEdges">
<title>
pic_fit2.svg
</title>
<desc>
Creator: ROOT Version 6.20/06
CreationDate: Mon May 17 19:11:01 2021</desc>
<defs>
</defs>
<rect x="0.5" y="0" width="566.929" height="412.716" fill="white"/>
<rect x="57.1929" y="41.2716" width="453.543" height="330.172" fill="white"/>
<rect x="57.1929" y="41.2716" width="453.543" height="330.172" fill="none" stroke="black"/>
<rect x="57.1929" y="41.2716" width="453.543" height="330.172" fill="white"/>
<rect x="57.1929" y="41.2716" width="453.543" height="330.172" fill="none" stroke="black"/>
<path d="M57.1929,371.444h 453.543" fill="none" stroke="black"/>
<path d="M57.1929,361.539v 9.90517" fill="none" stroke="black"/>
<path d="M66.2638,366.491v 4.95259" fill="none" stroke="black"/>
<path d="M75.3346,366.491v 4.95259" fill="none" stroke="black"/>
<path d="M84.4055,366.491v 4.95259" fill="none" stroke="black"/>
<path d="M93.4764,366.491v 4.95259" fill="none" stroke="black"/>
<path d="M102.547,361.539v 9.90517" fill="none" stroke="black"/>
<path d="M111.618,366.491v 4.95259" fill="none" stroke="black"/>
<path d="M120.689,366.491v 4.95259" fill="none" stroke="black"/>
<path d="M129.76,366.491v 4.95259" fill="none" stroke="black"/>
<path d="M138.831,366.491v 4.95259" fill="none" stroke="black"/>
<path d="M147.902,361.539v 9.90517" fill="none" stroke="black"/>
<path d="M156.972,366.491v 4.95259" fill="none" stroke="black"/>
<path d="M166.043,366.491v 4.95259" fill="none" stroke="black"/>
<path d="M175.114,366.491v 4.95259" fill="none" stroke="black"/>
<path d="M184.185,366.491v 4.95259" fill="none" stroke="black"/>
<path d="M193.256,361.539v 9.90517" fill="none" stroke="black"/>
<path d="M202.327,366.491v 4.95259" fill="none" stroke="black"/>
<path d="M211.398,366.491v 4.95259" fill="none" stroke="black"/>
<path d="M220.469,366.491v 4.95259" fill="none" stroke="black"/>
<path d="M229.539,366.491v 4.95259" fill="none" stroke="black"/>
<path d="M238.61,361.539v 9.90517" fill="none" stroke="black"/>
<path d="M247.681,366.491v 4.95259" fill="none" stroke="black"/>
<path d="M256.752,366.491v 4.95259" fill="none" stroke="black"/>
<path d="M265.823,366.491v 4.95259" fill="none" stroke="black"/>
<path d="M274.894,366.491v 4.95259" fill="none" stroke="black"/>
<path d="M283.965,361.539v 9.90517" fill="none" stroke="black"/>
<path d="M293.035,366.491v 4.95259" fill="none" stroke="black"/>
<path d="M302.106,366.491v 4.95259" fill="none" stroke="black"/>
<path d="M311.177,366.491v 4.95259" fill="none" stroke="black"/>
<path d="M320.248,366.491v 4.95259" fill="none" stroke="black"/>
<path d="M329.319,361.539v 9.90517" fill="none" stroke="black"/>
<path d="M338.39,366.491v 4.95259" fill="none" stroke="black"/>
<path d="M347.461,366.491v 4.95259" fill="none" stroke="black"/>
<path d="M356.531,366.491v 4.95259" fill="none" stroke="black"/>
<path d="M365.602,366.491v 4.95259" fill="none" stroke="black"/>
<path d="M374.673,361.539v 9.90517" fill="none" stroke="black"/>
<path d="M383.744,366.491v 4.95259" fill="none" stroke="black"/>
<path d="M392.815,366.491v 4.95259" fill="none" stroke="black"/>
<path d="M401.886,366.491v 4.95259" fill="none" stroke="black"/>
<path d="M410.957,366.491v 4.95259" fill="none" stroke="black"/>
<path d="M420.028,361.539v 9.90517" fill="none" stroke="black"/>
<path d="M429.098,366.491v 4.95259" fill="none" stroke="black"/>
<path d="M438.169,366.491v 4.95259" fill="none" stroke="black"/>
<path d="M447.24,366.491v 4.95259" fill="none" stroke="black"/>
<path d="M456.311,366.491v 4.95259" fill="none" stroke="black"/>
<path d="M465.382,361.539v 9.90517" fill="none" stroke="black"/>
<path d="M474.453,366.491v 4.95259" fill="none" stroke="black"/>
<path d="M483.524,366.491v 4.95259" fill="none" stroke="black"/>
<path d="M492.594,366.491v 4.95259" fill="none" stroke="black"/>
<path d="M501.665,366.491v 4.95259" fill="none" stroke="black"/>
<path d="M510.736,361.539v 9.90517" fill="none" stroke="black"/>
<text xml:space="preserve" x="44.3233" y="384.979" fill="black" font-size="13.7523" font-family="Helvetica">2.25</text>
<text xml:space="preserve" x="89.256" y="384.979" fill="black" font-size="13.7523" font-family="Helvetica">2.26</text>
<text xml:space="preserve" x="134.743" y="384.979" fill="black" font-size="13.7523" font-family="Helvetica">2.27</text>
<text xml:space="preserve" x="180.231" y="384.979" fill="black" font-size="13.7523" font-family="Helvetica">2.28</text>
<text xml:space="preserve" x="225.718" y="384.979" fill="black" font-size="13.7523" font-family="Helvetica">2.29</text>
<text xml:space="preserve" x="275.089" y="384.979" fill="black" font-size="13.7523" font-family="Helvetica">2.3</text>
<text xml:space="preserve" x="317.248" y="384.979" fill="black" font-size="13.7523" font-family="Helvetica">2.31</text>
<text xml:space="preserve" x="361.626" y="384.979" fill="black" font-size="13.7523" font-family="Helvetica">2.32</text>
<text xml:space="preserve" x="407.114" y="384.979" fill="black" font-size="13.7523" font-family="Helvetica">2.33</text>
<text xml:space="preserve" x="452.601" y="384.979" fill="black" font-size="13.7523" font-family="Helvetica">2.34</text>
<text xml:space="preserve" x="497.534" y="384.979" fill="black" font-size="13.7523" font-family="Helvetica">2.35</text>
<text xml:space="preserve" x="506.409" y="398.847" fill="black" font-size="13.7523" font-family="Helvetica">)</text>
<text xml:space="preserve" x="501.417" y="392.745" fill="black" font-size="9.33489" font-family="Helvetica">2</text>
<text xml:space="preserve" x="457.594" y="398.847" fill="black" font-size="13.7523" font-family="Helvetica"> (GeV/c</text>
<text xml:space="preserve" x="445.39" y="402.73" fill="black" font-size="9.33489" font-family="Helvetica">BC</text>
<text xml:space="preserve" x="434.85" y="398.847" fill="black" font-size="13.7523" font-family="Helvetica">M</text>
<path d="M57.1929,371.444v -330.172" fill="none" stroke="black"/>
<path d="M70.7992,371.444h -13.6063" fill="none" stroke="black"/>
<path d="M63.9961,364.287h -6.80315" fill="none" stroke="black"/>
<path d="M63.9961,357.13h -6.80315" fill="none" stroke="black"/>
<path d="M63.9961,349.972h -6.80315" fill="none" stroke="black"/>
<path d="M63.9961,342.815h -6.80315" fill="none" stroke="black"/>
<path d="M70.7992,335.658h -13.6063" fill="none" stroke="black"/>
<path d="M63.9961,328.501h -6.80315" fill="none" stroke="black"/>
<path d="M63.9961,321.344h -6.80315" fill="none" stroke="black"/>
<path d="M63.9961,314.186h -6.80315" fill="none" stroke="black"/>
<path d="M63.9961,307.029h -6.80315" fill="none" stroke="black"/>
<path d="M70.7992,299.872h -13.6063" fill="none" stroke="black"/>
<path d="M63.9961,292.715h -6.80315" fill="none" stroke="black"/>
<path d="M63.9961,285.558h -6.80315" fill="none" stroke="black"/>
<path d="M63.9961,278.4h -6.80315" fill="none" stroke="black"/>
<path d="M63.9961,271.243h -6.80315" fill="none" stroke="black"/>
<path d="M70.7992,264.086h -13.6063" fill="none" stroke="black"/>
<path d="M63.9961,256.929h -6.80315" fill="none" stroke="black"/>
<path d="M63.9961,249.772h -6.80315" fill="none" stroke="black"/>
<path d="M63.9961,242.614h -6.80315" fill="none" stroke="black"/>
<path d="M63.9961,235.457h -6.80315" fill="none" stroke="black"/>
<path d="M70.7992,228.3h -13.6063" fill="none" stroke="black"/>
<path d="M63.9961,221.143h -6.80315" fill="none" stroke="black"/>
<path d="M63.9961,213.986h -6.80315" fill="none" stroke="black"/>
<path d="M63.9961,206.828h -6.80315" fill="none" stroke="black"/>
<path d="M63.9961,199.671h -6.80315" fill="none" stroke="black"/>
<path d="M70.7992,192.514h -13.6063" fill="none" stroke="black"/>
<path d="M63.9961,185.357h -6.80315" fill="none" stroke="black"/>
<path d="M63.9961,178.2h -6.80315" fill="none" stroke="black"/>
<path d="M63.9961,171.042h -6.80315" fill="none" stroke="black"/>
<path d="M63.9961,163.885h -6.80315" fill="none" stroke="black"/>
<path d="M70.7992,156.728h -13.6063" fill="none" stroke="black"/>
<path d="M63.9961,149.571h -6.80315" fill="none" stroke="black"/>
<path d="M63.9961,142.414h -6.80315" fill="none" stroke="black"/>
<path d="M63.9961,135.256h -6.80315" fill="none" stroke="black"/>
<path d="M63.9961,128.099h -6.80315" fill="none" stroke="black"/>
<path d="M70.7992,120.942h -13.6063" fill="none" stroke="black"/>
<path d="M63.9961,113.785h -6.80315" fill="none" stroke="black"/>
<path d="M63.9961,106.628h -6.80315" fill="none" stroke="black"/>
<path d="M63.9961,99.4704h -6.80315" fill="none" stroke="black"/>
<path d="M63.9961,92.3132h -6.80315" fill="none" stroke="black"/>
<path d="M70.7992,85.156h -13.6063" fill="none" stroke="black"/>
<path d="M63.9961,77.9988h -6.80315" fill="none" stroke="black"/>
<path d="M63.9961,70.8416h -6.80315" fill="none" stroke="black"/>
<path d="M63.9961,63.6844h -6.80315" fill="none" stroke="black"/>
<path d="M63.9961,56.5272h -6.80315" fill="none" stroke="black"/>
<path d="M70.7992,49.37h -13.6063" fill="none" stroke="black"/>
<path d="M70.7992,49.37h -13.6063" fill="none" stroke="black"/>
<path d="M63.9961,42.2128h -6.80315" fill="none" stroke="black"/>
<text xml:space="preserve" x="47.0969" y="376.104" fill="black" font-size="13.7523" font-family="Helvetica">0</text>
<text xml:space="preserve" x="39.8855" y="340.601" fill="black" font-size="13.7523" font-family="Helvetica">10</text>
<text xml:space="preserve" x="39.8855" y="304.544" fill="black" font-size="13.7523" font-family="Helvetica">20</text>
<text xml:space="preserve" x="39.8855" y="269.042" fill="black" font-size="13.7523" font-family="Helvetica">30</text>
<text xml:space="preserve" x="39.8855" y="232.985" fill="black" font-size="13.7523" font-family="Helvetica">40</text>
<text xml:space="preserve" x="39.8855" y="197.482" fill="black" font-size="13.7523" font-family="Helvetica">50</text>
<text xml:space="preserve" x="39.8855" y="161.425" fill="black" font-size="13.7523" font-family="Helvetica">60</text>
<text xml:space="preserve" x="39.8855" y="125.923" fill="black" font-size="13.7523" font-family="Helvetica">70</text>
<text xml:space="preserve" x="39.8855" y="89.8655" fill="black" font-size="13.7523" font-family="Helvetica">80</text>
<text xml:space="preserve" x="39.8855" y="53.8083" fill="black" font-size="13.7523" font-family="Helvetica">90</text>
<g transform="rotate(-90,27.6815,44.9327)">
<text xml:space="preserve" x="27.6815" y="44.9327" fill="black" font-size="13.7523" font-family="Helvetica">)</text>
</g>
<g transform="rotate(-90,21.5796,49.9253)">
<text xml:space="preserve" x="21.5796" y="49.9253" fill="black" font-size="9.33489" font-family="Helvetica">2</text>
</g>
<g transform="rotate(-90,27.6815,163.089)">
<text xml:space="preserve" x="27.6815" y="163.089" fill="black" font-size="13.7523" font-family="Helvetica">Events/(  3.3 MeV/c</text>
</g>
<path d="M64.752,224.721h -7.55905" fill="none" stroke="black" stroke-width="4"/>
<path d="M57.1929,225.831v -2.2189" fill="none" stroke="black" stroke-width="4"/>
<path d="M64.752,224.721h 7.55905" fill="none" stroke="black" stroke-width="4"/>
<path d="M72.311,225.831v -2.2189" fill="none" stroke="black" stroke-width="4"/>
<path d="M64.752,224.721v -26.6791" fill="none" stroke="black" stroke-width="4"/>
<path d="M63.6425,198.042h 2.2189" fill="none" stroke="black" stroke-width="4"/>
<path d="M64.752,224.721v 22.8204" fill="none" stroke="black" stroke-width="4"/>
<path d="M63.6425,247.542h 2.2189" fill="none" stroke="black" stroke-width="4"/>
<path d="M79.8701,235.457h -7.55905" fill="none" stroke="black" stroke-width="4"/>
<path d="M72.311,236.567v -2.2189" fill="none" stroke="black" stroke-width="4"/>
<path d="M79.8701,235.457h 7.55905" fill="none" stroke="black" stroke-width="4"/>
<path d="M87.4291,236.567v -2.2189" fill="none" stroke="black" stroke-width="4"/>
<path d="M79.8701,235.457v -25.8321" fill="none" stroke="black" stroke-width="4"/>
<path d="M78.7606,209.625h 2.2189" fill="none" stroke="black" stroke-width="4"/>
<path d="M79.8701,235.457v 21.9625" fill="none" stroke="black" stroke-width="4"/>
<path d="M78.7606,257.42h 2.2189" fill="none" stroke="black" stroke-width="4"/>
<path d="M94.9882,249.772h -7.55905" fill="none" stroke="black" stroke-width="4"/>
<path d="M87.4291,250.881v -2.2189" fill="none" stroke="black" stroke-width="4"/>
<path d="M94.9882,249.772h 7.55905" fill="none" stroke="black" stroke-width="4"/>
<path d="M102.547,250.881v -2.2189" fill="none" stroke="black" stroke-width="4"/>
<path d="M94.9882,249.772v -24.6498" fill="none" stroke="black" stroke-width="4"/>
<path d="M93.8787,225.122h 2.2189" fill="none" stroke="black" stroke-width="4"/>
<path d="M94.9882,249.772v 20.7635" fill="none" stroke="black" stroke-width="4"/>
<path d="M93.8787,270.535h 2.2189" fill="none" stroke="black" stroke-width="4"/>
<path d="M110.106,210.407h -7.55905" fill="none" stroke="black" stroke-width="4"/>
<path d="M102.547,211.516v -2.2189" fill="none" stroke="black" stroke-width="4"/>
<path d="M110.106,210.407h 7.55905" fill="none" stroke="black" stroke-width="4"/>
<path d="M117.665,211.516v -2.2189" fill="none" stroke="black" stroke-width="4"/>
<path d="M110.106,210.407v -27.7624" fill="none" stroke="black" stroke-width="4"/>
<path d="M108.997,182.645h 2.2189" fill="none" stroke="black" stroke-width="4"/>
<path d="M110.106,210.407v 23.9164" fill="none" stroke="black" stroke-width="4"/>
<path d="M108.997,234.323h 2.2189" fill="none" stroke="black" stroke-width="4"/>
<path d="M125.224,235.457h -7.55905" fill="none" stroke="black" stroke-width="4"/>
<path d="M117.665,236.567v -2.2189" fill="none" stroke="black" stroke-width="4"/>
<path d="M125.224,235.457h 7.55905" fill="none" stroke="black" stroke-width="4"/>
<path d="M132.783,236.567v -2.2189" fill="none" stroke="black" stroke-width="4"/>
<path d="M125.224,235.457v -25.8321" fill="none" stroke="black" stroke-width="4"/>
<path d="M124.115,209.625h 2.2189" fill="none" stroke="black" stroke-width="4"/>
<path d="M125.224,235.457v 21.9625" fill="none" stroke="black" stroke-width="4"/>
<path d="M124.115,257.42h 2.2189" fill="none" stroke="black" stroke-width="4"/>
<path d="M140.343,246.193h -7.55905" fill="none" stroke="black" stroke-width="4"/>
<path d="M132.783,247.302v -2.2189" fill="none" stroke="black" stroke-width="4"/>
<path d="M140.343,246.193h 7.55905" fill="none" stroke="black" stroke-width="4"/>
<path d="M147.902,247.302v -2.2189" fill="none" stroke="black" stroke-width="4"/>
<path d="M140.343,246.193v -24.9515" fill="none" stroke="black" stroke-width="4"/>
<path d="M139.233,221.242h 2.2189" fill="none" stroke="black" stroke-width="4"/>
<path d="M140.343,246.193v 21.0696" fill="none" stroke="black" stroke-width="4"/>
<path d="M139.233,267.263h 2.2189" fill="none" stroke="black" stroke-width="4"/>
<path d="M155.461,242.614h -7.55905" fill="none" stroke="black" stroke-width="4"/>
<path d="M147.902,243.724v -2.2189" fill="none" stroke="black" stroke-width="4"/>
<path d="M155.461,242.614h 7.55905" fill="none" stroke="black" stroke-width="4"/>
<path d="M163.02,243.724v -2.2189" fill="none" stroke="black" stroke-width="4"/>
<path d="M155.461,242.614v -25.249" fill="none" stroke="black" stroke-width="4"/>
<path d="M154.351,217.365h 2.2189" fill="none" stroke="black" stroke-width="4"/>
<path d="M155.461,242.614v 21.3714" fill="none" stroke="black" stroke-width="4"/>
<path d="M154.351,263.986h 2.2189" fill="none" stroke="black" stroke-width="4"/>
<path d="M170.579,206.828h -7.55905" fill="none" stroke="black" stroke-width="4"/>
<path d="M163.02,207.938v -2.2189" fill="none" stroke="black" stroke-width="4"/>
<path d="M170.579,206.828h 7.55905" fill="none" stroke="black" stroke-width="4"/>
<path d="M178.138,207.938v -2.2189" fill="none" stroke="black" stroke-width="4"/>
<path d="M170.579,206.828v -28.0258" fill="none" stroke="black" stroke-width="4"/>
<path d="M169.469,178.803h 2.2189" fill="none" stroke="black" stroke-width="4"/>
<path d="M170.579,206.828v 24.1827" fill="none" stroke="black" stroke-width="4"/>
<path d="M169.469,231.011h 2.2189" fill="none" stroke="black" stroke-width="4"/>
<path d="M185.697,221.143h -7.55905" fill="none" stroke="black" stroke-width="4"/>
<path d="M178.138,222.252v -2.2189" fill="none" stroke="black" stroke-width="4"/>
<path d="M185.697,221.143h 7.55905" fill="none" stroke="black" stroke-width="4"/>
<path d="M193.256,222.252v -2.2189" fill="none" stroke="black" stroke-width="4"/>
<path d="M185.697,221.143v -26.9547" fill="none" stroke="black" stroke-width="4"/>
<path d="M184.587,194.188h 2.2189" fill="none" stroke="black" stroke-width="4"/>
<path d="M185.697,221.143v 23.0993" fill="none" stroke="black" stroke-width="4"/>
<path d="M184.587,244.242h 2.2189" fill="none" stroke="black" stroke-width="4"/>
<path d="M200.815,210.407h -7.55905" fill="none" stroke="black" stroke-width="4"/>
<path d="M193.256,211.516v -2.2189" fill="none" stroke="black" stroke-width="4"/>
<path d="M200.815,210.407h 7.55905" fill="none" stroke="black" stroke-width="4"/>
<path d="M208.374,211.516v -2.2189" fill="none" stroke="black" stroke-width="4"/>
<path d="M200.815,210.407v -27.7624" fill="none" stroke="black" stroke-width="4"/>
<path d="M199.706,182.645h 2.2189" fill="none" stroke="black" stroke-width="4"/>
<path d="M200.815,210.407v 23.9164" fill="none" stroke="black" stroke-width="4"/>
<path d="M199.706,234.323h 2.2189" fill="none" stroke="black" stroke-width="4"/>
<path d="M215.933,145.992h -7.55905" fill="none" stroke="black" stroke-width="4"/>
<path d="M208.374,147.102v -2.2189" fill="none" stroke="black" stroke-width="4"/>
<path d="M215.933,145.992h 7.55905" fill="none" stroke="black" stroke-width="4"/>
<path d="M223.492,147.102v -2.2189" fill="none" stroke="black" stroke-width="4"/>
<path d="M215.933,145.992v -32.1332" fill="none" stroke="black" stroke-width="4"/>
<path d="M214.824,113.859h 2.2189" fill="none" stroke="black" stroke-width="4"/>
<path d="M215.933,145.992v 28.3287" fill="none" stroke="black" stroke-width="4"/>
<path d="M214.824,174.321h 2.2189" fill="none" stroke="black" stroke-width="4"/>
<path d="M231.051,92.3132h -7.55905" fill="none" stroke="black" stroke-width="4"/>
<path d="M223.492,93.4226v -2.2189" fill="none" stroke="black" stroke-width="4"/>
<path d="M231.051,92.3132h 7.55905" fill="none" stroke="black" stroke-width="4"/>
<path d="M238.61,93.4226v -2.2189" fill="none" stroke="black" stroke-width="4"/>
<path d="M231.051,92.3132v -35.3191" fill="none" stroke="black" stroke-width="4"/>
<path d="M229.942,56.9941h 2.2189" fill="none" stroke="black" stroke-width="4"/>
<path d="M231.051,92.3132v 31.5374" fill="none" stroke="black" stroke-width="4"/>
<path d="M229.942,123.851h 2.2189" fill="none" stroke="black" stroke-width="4"/>
<path d="M246.169,224.721h -7.55905" fill="none" stroke="black" stroke-width="4"/>
<path d="M238.61,225.831v -2.2189" fill="none" stroke="black" stroke-width="4"/>
<path d="M246.169,224.721h 7.55905" fill="none" stroke="black" stroke-width="4"/>
<path d="M253.728,225.831v -2.2189" fill="none" stroke="black" stroke-width="4"/>
<path d="M246.169,224.721v -26.6791" fill="none" stroke="black" stroke-width="4"/>
<path d="M245.06,198.042h 2.2189" fill="none" stroke="black" stroke-width="4"/>
<path d="M246.169,224.721v 22.8204" fill="none" stroke="black" stroke-width="4"/>
<path d="M245.06,247.542h 2.2189" fill="none" stroke="black" stroke-width="4"/>
<path d="M261.287,246.193h -7.55905" fill="none" stroke="black" stroke-width="4"/>
<path d="M253.728,247.302v -2.2189" fill="none" stroke="black" stroke-width="4"/>
<path d="M261.287,246.193h 7.55905" fill="none" stroke="black" stroke-width="4"/>
<path d="M268.846,247.302v -2.2189" fill="none" stroke="black" stroke-width="4"/>
<path d="M261.287,246.193v -24.9515" fill="none" stroke="black" stroke-width="4"/>
<path d="M260.178,221.242h 2.2189" fill="none" stroke="black" stroke-width="4"/>
<path d="M261.287,246.193v 21.0696" fill="none" stroke="black" stroke-width="4"/>
<path d="M260.178,267.263h 2.2189" fill="none" stroke="black" stroke-width="4"/>
<path d="M276.406,267.665h -7.55905" fill="none" stroke="black" stroke-width="4"/>
<path d="M268.846,268.774v -2.2189" fill="none" stroke="black" stroke-width="4"/>
<path d="M276.406,267.665h 7.55905" fill="none" stroke="black" stroke-width="4"/>
<path d="M283.965,268.774v -2.2189" fill="none" stroke="black" stroke-width="4"/>
<path d="M276.406,267.665v -23.0713" fill="none" stroke="black" stroke-width="4"/>
<path d="M275.296,244.593h 2.2189" fill="none" stroke="black" stroke-width="4"/>
<path d="M276.406,267.665v 19.1596" fill="none" stroke="black" stroke-width="4"/>
<path d="M275.296,286.824h 2.2189" fill="none" stroke="black" stroke-width="4"/>
<path d="M291.524,271.243h -7.55905" fill="none" stroke="black" stroke-width="4"/>
<path d="M283.965,272.353v -2.2189" fill="none" stroke="black" stroke-width="4"/>
<path d="M291.524,271.243h 7.55905" fill="none" stroke="black" stroke-width="4"/>
<path d="M299.083,272.353v -2.2189" fill="none" stroke="black" stroke-width="4"/>
<path d="M291.524,271.243v -22.74" fill="none" stroke="black" stroke-width="4"/>
<path d="M290.414,248.503h 2.2189" fill="none" stroke="black" stroke-width="4"/>
<path d="M291.524,271.243v 18.8224" fill="none" stroke="black" stroke-width="4"/>
<path d="M290.414,290.066h 2.2189" fill="none" stroke="black" stroke-width="4"/>
<path d="M306.642,281.979h -7.55905" fill="none" stroke="black" stroke-width="4"/>
<path d="M299.083,283.088v -2.2189" fill="none" stroke="black" stroke-width="4"/>
<path d="M306.642,281.979h 7.55905" fill="none" stroke="black" stroke-width="4"/>
<path d="M314.201,283.088v -2.2189" fill="none" stroke="black" stroke-width="4"/>
<path d="M306.642,281.979v -21.7099" fill="none" stroke="black" stroke-width="4"/>
<path d="M305.532,260.269h 2.2189" fill="none" stroke="black" stroke-width="4"/>
<path d="M306.642,281.979v 17.7725" fill="none" stroke="black" stroke-width="4"/>
<path d="M305.532,299.751h 2.2189" fill="none" stroke="black" stroke-width="4"/>
<path d="M321.76,253.35h -7.55905" fill="none" stroke="black" stroke-width="4"/>
<path d="M314.201,254.46v -2.2189" fill="none" stroke="black" stroke-width="4"/>
<path d="M321.76,253.35h 7.55905" fill="none" stroke="black" stroke-width="4"/>
<path d="M329.319,254.46v -2.2189" fill="none" stroke="black" stroke-width="4"/>
<path d="M321.76,253.35v -24.3437" fill="none" stroke="black" stroke-width="4"/>
<path d="M320.65,229.007h 2.2189" fill="none" stroke="black" stroke-width="4"/>
<path d="M321.76,253.35v 20.4528" fill="none" stroke="black" stroke-width="4"/>
<path d="M320.65,273.803h 2.2189" fill="none" stroke="black" stroke-width="4"/>
<path d="M336.878,281.979h -7.55905" fill="none" stroke="black" stroke-width="4"/>
<path d="M329.319,283.088v -2.2189" fill="none" stroke="black" stroke-width="4"/>
<path d="M336.878,281.979h 7.55905" fill="none" stroke="black" stroke-width="4"/>
<path d="M344.437,283.088v -2.2189" fill="none" stroke="black" stroke-width="4"/>
<path d="M336.878,281.979v -21.7099" fill="none" stroke="black" stroke-width="4"/>
<path d="M335.768,260.269h 2.2189" fill="none" stroke="black" stroke-width="4"/>
<path d="M336.878,281.979v 17.7725" fill="none" stroke="black" stroke-width="4"/>
<path d="M335.768,299.751h 2.2189" fill="none" stroke="black" stroke-width="4"/>
<path d="M351.996,274.822h -7.55905" fill="none" stroke="black" stroke-width="4"/>
<path d="M344.437,275.931v -2.2189" fill="none" stroke="black" stroke-width="4"/>
<path d="M351.996,274.822h 7.55905" fill="none" stroke="black" stroke-width="4"/>
<path d="M359.555,275.931v -2.2189" fill="none" stroke="black" stroke-width="4"/>
<path d="M351.996,274.822v -22.4029" fill="none" stroke="black" stroke-width="4"/>
<path d="M350.887,252.419h 2.2189" fill="none" stroke="black" stroke-width="4"/>
<path d="M351.996,274.822v 18.4791" fill="none" stroke="black" stroke-width="4"/>
<path d="M350.887,293.301h 2.2189" fill="none" stroke="black" stroke-width="4"/>
<path d="M367.114,317.765h -7.55905" fill="none" stroke="black" stroke-width="4"/>
<path d="M359.555,318.874v -2.2189" fill="none" stroke="black" stroke-width="4"/>
<path d="M367.114,317.765h 7.55905" fill="none" stroke="black" stroke-width="4"/>
<path d="M374.673,318.874v -2.2189" fill="none" stroke="black" stroke-width="4"/>
<path d="M367.114,317.765v -17.7453" fill="none" stroke="black" stroke-width="4"/>
<path d="M366.005,300.02h 2.2189" fill="none" stroke="black" stroke-width="4"/>
<path d="M367.114,317.765v 13.7038" fill="none" stroke="black" stroke-width="4"/>
<path d="M366.005,331.469h 2.2189" fill="none" stroke="black" stroke-width="4"/>
<path d="M382.232,285.558h -7.55905" fill="none" stroke="black" stroke-width="4"/>
<path d="M374.673,286.667v -2.2189" fill="none" stroke="black" stroke-width="4"/>
<path d="M382.232,285.558h 7.55905" fill="none" stroke="black" stroke-width="4"/>
<path d="M389.791,286.667v -2.2189" fill="none" stroke="black" stroke-width="4"/>
<path d="M382.232,285.558v -21.3533" fill="none" stroke="black" stroke-width="4"/>
<path d="M381.123,264.204h 2.2189" fill="none" stroke="black" stroke-width="4"/>
<path d="M382.232,285.558v 17.4085" fill="none" stroke="black" stroke-width="4"/>
<path d="M381.123,302.966h 2.2189" fill="none" stroke="black" stroke-width="4"/>
<path d="M397.35,289.136h -7.55905" fill="none" stroke="black" stroke-width="4"/>
<path d="M389.791,290.246v -2.2189" fill="none" stroke="black" stroke-width="4"/>
<path d="M397.35,289.136h 7.55905" fill="none" stroke="black" stroke-width="4"/>
<path d="M404.909,290.246v -2.2189" fill="none" stroke="black" stroke-width="4"/>
<path d="M397.35,289.136v -20.9893" fill="none" stroke="black" stroke-width="4"/>
<path d="M396.241,268.147h 2.2189" fill="none" stroke="black" stroke-width="4"/>
<path d="M397.35,289.136v 17.0367" fill="none" stroke="black" stroke-width="4"/>
<path d="M396.241,306.173h 2.2189" fill="none" stroke="black" stroke-width="4"/>
<path d="M412.469,317.765h -7.55905" fill="none" stroke="black" stroke-width="4"/>
<path d="M404.909,318.874v -2.2189" fill="none" stroke="black" stroke-width="4"/>
<path d="M412.469,317.765h 7.55905" fill="none" stroke="black" stroke-width="4"/>
<path d="M420.028,318.874v -2.2189" fill="none" stroke="black" stroke-width="4"/>
<path d="M412.469,317.765v -17.7453" fill="none" stroke="black" stroke-width="4"/>
<path d="M411.359,300.02h 2.2189" fill="none" stroke="black" stroke-width="4"/>
<path d="M412.469,317.765v 13.7038" fill="none" stroke="black" stroke-width="4"/>
<path d="M411.359,331.469h 2.2189" fill="none" stroke="black" stroke-width="4"/>
<path d="M427.587,332.079h -7.55905" fill="none" stroke="black" stroke-width="4"/>
<path d="M420.028,333.189v -2.2189" fill="none" stroke="black" stroke-width="4"/>
<path d="M427.587,332.079h 7.55905" fill="none" stroke="black" stroke-width="4"/>
<path d="M435.146,333.189v -2.2189" fill="none" stroke="black" stroke-width="4"/>
<path d="M427.587,332.079v -15.805" fill="none" stroke="black" stroke-width="4"/>
<path d="M426.477,316.274h 2.2189" fill="none" stroke="black" stroke-width="4"/>
<path d="M427.587,332.079v 11.6862" fill="none" stroke="black" stroke-width="4"/>
<path d="M426.477,343.766h 2.2189" fill="none" stroke="black" stroke-width="4"/>
<path d="M442.705,342.815h -7.55905" fill="none" stroke="black" stroke-width="4"/>
<path d="M435.146,343.925v -2.2189" fill="none" stroke="black" stroke-width="4"/>
<path d="M442.705,342.815h 7.55905" fill="none" stroke="black" stroke-width="4"/>
<path d="M450.264,343.925v -2.2189" fill="none" stroke="black" stroke-width="4"/>
<path d="M442.705,342.815v -14.1181" fill="none" stroke="black" stroke-width="4"/>
<path d="M441.595,328.697h 2.2189" fill="none" stroke="black" stroke-width="4"/>
<path d="M442.705,342.815v 9.90695" fill="none" stroke="black" stroke-width="4"/>
<path d="M441.595,352.722h 2.2189" fill="none" stroke="black" stroke-width="4"/>
<path d="M457.823,349.972h -7.55905" fill="none" stroke="black" stroke-width="4"/>
<path d="M450.264,351.082v -2.2189" fill="none" stroke="black" stroke-width="4"/>
<path d="M457.823,349.972h 7.55905" fill="none" stroke="black" stroke-width="4"/>
<path d="M465.382,351.082v -2.2189" fill="none" stroke="black" stroke-width="4"/>
<path d="M457.823,349.972v -12.8244" fill="none" stroke="black" stroke-width="4"/>
<path d="M456.713,337.148h 2.2189" fill="none" stroke="black" stroke-width="4"/>
<path d="M457.823,349.972v 8.51682" fill="none" stroke="black" stroke-width="4"/>
<path d="M456.713,358.489h 2.2189" fill="none" stroke="black" stroke-width="4"/>
<path d="M472.941,367.865h -7.55905" fill="none" stroke="black" stroke-width="4"/>
<path d="M465.382,368.975v -2.2189" fill="none" stroke="black" stroke-width="4"/>
<path d="M472.941,367.865h 7.55905" fill="none" stroke="black" stroke-width="4"/>
<path d="M480.5,368.975v -2.2189" fill="none" stroke="black" stroke-width="4"/>
<path d="M472.941,367.865v -8.22909" fill="none" stroke="black" stroke-width="4"/>
<path d="M471.831,359.636h 2.2189" fill="none" stroke="black" stroke-width="4"/>
<path d="M472.941,367.865v 2.96038" fill="none" stroke="black" stroke-width="4"/>
<path d="M471.831,370.826h 2.2189" fill="none" stroke="black" stroke-width="4"/>
<path d="M488.059,364.287h -7.55905" fill="none" stroke="black" stroke-width="4"/>
<path d="M480.5,365.396v -2.2189" fill="none" stroke="black" stroke-width="4"/>
<path d="M488.059,364.287h 7.55905" fill="none" stroke="black" stroke-width="4"/>
<path d="M495.618,365.396v -2.2189" fill="none" stroke="black" stroke-width="4"/>
<path d="M488.059,364.287v -9.43985" fill="none" stroke="black" stroke-width="4"/>
<path d="M486.95,354.847h 2.2189" fill="none" stroke="black" stroke-width="4"/>
<path d="M488.059,364.287v 4.62289" fill="none" stroke="black" stroke-width="4"/>
<path d="M486.95,368.91h 2.2189" fill="none" stroke="black" stroke-width="4"/>
<path d="M503.177,371.444h -7.55905" fill="none" stroke="black" stroke-width="4"/>
<path d="M495.618,371.444v -1.10945" fill="none" stroke="black" stroke-width="4"/>
<path d="M503.177,371.444h 7.55905" fill="none" stroke="black" stroke-width="4"/>
<path d="M510.736,371.444v -1.10945" fill="none" stroke="black" stroke-width="4"/>
<path d="M503.177,371.444v -4.10778" fill="none" stroke="black" stroke-width="4"/>
<path d="M502.068,367.336h 2.2189" fill="none" stroke="black" stroke-width="4"/>
<g fill="black">
<circle cx="64.752" cy="224.721" r="2.2189"/>
<circle cx="79.8701" cy="235.457" r="2.2189"/>
<circle cx="94.9882" cy="249.772" r="2.2189"/>
<circle cx="110.106" cy="210.407" r="2.2189"/>
<circle cx="125.224" cy="235.457" r="2.2189"/>
<circle cx="140.343" cy="246.193" r="2.2189"/>
<circle cx="155.461" cy="242.614" r="2.2189"/>
<circle cx="170.579" cy="206.828" r="2.2189"/>
<circle cx="185.697" cy="221.143" r="2.2189"/>
<circle cx="200.815" cy="210.407" r="2.2189"/>
<circle cx="215.933" cy="145.992" r="2.2189"/>
<circle cx="231.051" cy="92.3132" r="2.2189"/>
<circle cx="246.169" cy="224.721" r="2.2189"/>
<circle cx="261.287" cy="246.193" r="2.2189"/>
<circle cx="276.406" cy="267.665" r="2.2189"/>
<circle cx="291.524" cy="271.243" r="2.2189"/>
<circle cx="306.642" cy="281.979" r="2.2189"/>
<circle cx="321.76" cy="253.35" r="2.2189"/>
<circle cx="336.878" cy="281.979" r="2.2189"/>
<circle cx="351.996" cy="274.822" r="2.2189"/>
<circle cx="367.114" cy="317.765" r="2.2189"/>
<circle cx="382.232" cy="285.558" r="2.2189"/>
<circle cx="397.35" cy="289.136" r="2.2189"/>
<circle cx="412.469" cy="317.765" r="2.2189"/>
<circle cx="427.587" cy="332.079" r="2.2189"/>
<circle cx="442.705" cy="342.815" r="2.2189"/>
<circle cx="457.823" cy="349.972" r="2.2189"/>
<circle cx="472.941" cy="367.865" r="2.2189"/>
<circle cx="488.059" cy="364.287" r="2.2189"/>
<circle cx="503.177" cy="371.444" r="2.2189"/>
</g>
<path d="M57.1929,218.453z" fill="none" stroke="#ff0000" stroke-width="6"/>
<path d="M57.1929,218.453l 4.53543, 0.65717l 4.53543, 0.668186l 4.53543, 0.67979l 4.53543, 0.691415l 4.53543, 0.702985l 4.53543, 0.714414l 4.53543, 0.725611l 4.53543, 0.73649l 4.53543, 0.746968l 4.53543, 0.756972l 4.53543, 0.766425l 4.53543,
 0.775268l 4.53543, 0.783428l 4.53543, 0.790891l 4.53543, 0.797786l 4.53543, 0.804583l 4.53543, 0.81216l 4.53543, 0.821744l 4.53543, 0.83449l 4.53543, 0.850529l 4.53543, 0.867615l 4.53543, 0.880018l 4.53543, 0.877734l 4.53543, 0.843602l 4.53543,
 0.745956l 4.53543, 0.535264l 4.53543, 0.169175l 4.53543, -0.353829l 4.53543, -1.09683l 4.53543, -2.49164l 2.26772, -2.16201l 2.26772, -3.23921l 2.26772, -5.03297l 2.26772, -7.26918l 2.26772, -9.27542l 1.13386, -5.48397l 1.13386, -6.31557l 1.13386,
 -7.30664l 1.13386, -8.20704l 2.26772, -17.6912l 2.26772, -18.6745l 2.26772, -20.5769l 2.26772, -21.4257l 1.13386, -10.1664l 0.566929, -4.38267l 0.566929, -3.52454l 0.566929, -2.55824l 0.566929, -1.78055l 1.13386, -2.41721l 1.13386, -1.54076l
 0.566929, -0.0280435l 0.566929, 0.645906l 1.13386, 2.79324l 1.13386, 3.78398l 0.566929, 2.45653l 0.566929, 3.06446l 1.13386, 8.0068l 1.13386, 9.88306l 1.13386, 11.1703l 2.26772, 23.5167l 1.13386, 10.5203l 1.13386, 9.11573l 2.26772, 16.6706l 2.26772,
 16.4984l 1.13386, 7.4148l 1.13386, 6.65111l 1.13386, 5.79809l 1.13386, 4.93588l 1.13386, 4.17479l 1.13386, 3.54115l 2.26772, 5.5785l 2.26772, 4.12548l 4.53543, 6.5068l 4.53543, 5.51385l 4.53543, 3.85829l 4.53543, 3.09839l 4.53543, 3.25686l 4.53543,
 2.90421l 4.53543, 2.47795l 4.53543, 2.38756l 4.53543, 2.35484l 4.53543, 2.19671l 4.53543, 1.99009l 4.53543, 1.85338l 4.53543, 1.82423l 4.53543, 1.86621l 4.53543, 1.91981l 4.53543, 1.94739l 4.53543, 1.9453l 4.53543, 1.92674l 4.53543, 1.90378l
 4.53543, 1.88281l 4.53543, 1.86716l 4.53543, 1.85879l 4.53543, 1.85833l 4.53543, 1.86513l 4.53543, 1.87769l 4.53543, 1.89425l 4.53543, 1.91324l 4.53543, 1.93352l 4.53543, 1.95443l 4.53543, 1.97571l 4.53543, 1.99734l 4.53543, 2.01944l 4.53543,
 2.04214l 4.53543, 2.06553l 4.53543, 2.0896l 4.53543, 2.1143l 4.53543, 2.13951l 4.53543, 2.16512l 4.53543, 2.19102l 4.53543, 2.21715l 4.53543, 2.24347l 4.53543, 2.26998l 4.53543, 2.29669l 4.53543, 2.32364l 4.53543, 2.35086l 4.53543, 2.37838l 4.53543,
 2.40623l 4.53543, 2.43443l 4.53543, 2.46298l 4.53543, 2.49189l 4.53543, 2.52116l 4.53543, 2.55078l 4.53543, 2.58074l 4.53543, 2.61103l 4.53543, 2.64166l 4.53543, 2.67261l 4.53543, 2.71827" fill="none" stroke="#ff0000" stroke-width="6"/>
<path d="M57.1929,371.327z" fill="none" stroke="#0000ff" stroke-width="6" stroke-dasharray=" 3, 3"/>
<path d="M57.1929,371.327l 4.53543, -0.0131792l 4.53543, -0.0143859l 4.53543, -0.0151289l 4.53543, -0.0159772l 4.53543, -0.0170064l 4.53543, -0.0183048l 4.53543, -0.0199647l 4.53543, -0.0220728l 4.53543, -0.0247133l 4.53543, -0.0279604l 4.53543,
 -0.0318921l 4.53543, -0.0365689l 4.53543, -0.0420642l 4.53543, -0.0483946l 4.53543, -0.0554307l 4.53543, -0.0627055l 4.53543, -0.0693416l 4.53543, -0.0741122l 4.53543, -0.0758647l 4.53543, -0.074469l 4.53543, -0.0721725l 4.53543, -0.0747061l
 4.53543, -0.0920759l 4.53543, -0.141443l 4.53543, -0.254476l 4.53543, -0.480709l 4.53543, -0.862492l 4.53543, -1.40135l 4.53543, -2.16035l 2.26772, -1.54119l 2.26772, -2.03014l 2.26772, -2.70797l 1.13386, -1.71762l 1.13386, -2.07165l 1.13386,
 -2.52318l 1.13386, -3.06396l 1.13386, -3.64115l 1.13386, -4.18635l 1.13386, -4.6778l 1.13386, -5.1601l 1.13386, -5.76677l 1.13386, -6.59943l 1.13386, -7.59154l 1.13386, -8.493l 2.26772, -18.2663l 2.26772, -19.2539l 1.13386, -10.3225l 1.13386,
 -10.838l 2.26772, -22.0136l 1.13386, -10.4619l 0.566929, -4.53086l 0.566929, -3.67299l 0.566929, -2.70697l 0.566929, -1.92955l 1.13386, -2.71601l 1.13386, -1.84065l 0.566929, -0.178397l 0.566929, 0.49528l 1.13386, 2.49117l 1.13386, 3.48082l
 0.566929, 2.30454l 0.566929, 2.91219l 0.566929, 3.56256l 0.566929, 4.13887l 0.566929, 4.60066l 0.566929, 4.97593l 1.13386, 10.8628l 2.26772, 22.8982l 0.566929, 5.28287l 0.566929, 4.92649l 1.13386, 8.8037l 2.26772, 16.0431l 1.13386, 8.1128l 1.13386,
 7.75364l 1.13386, 7.09715l 1.13386, 6.33232l 1.13386, 5.47817l 1.13386, 4.61482l 1.13386, 3.85259l 1.13386, 3.2178l 1.13386, 2.68961l 1.13386, 2.23876l 2.26772, 3.47074l 4.53543, 5.18338l 4.53543, 4.17173l 2.26772, 1.45151l 2.26772, 1.04575l
 4.53543, 1.71829l 4.53543, 1.85749l 4.53543, 1.48539l 4.53543, 1.03949l 4.53543, 0.929272l 4.53543, 0.876525l 4.53543, 0.698185l 4.53543, 0.471152l 4.53543, 0.313834l 4.53543, 0.263872l 4.53543, 0.284846l 4.53543, 0.317239l 4.53543, 0.323404l
 4.53543, 0.299686l 4.53543, 0.259302l 4.53543, 0.214303l 4.53543, 0.171082l 4.53543, 0.132967l 4.53543, 0.101921l 4.53543, 0.078567l 4.53543, 0.0622583l 4.53543, 0.0514782l 4.53543, 0.0444816l 4.53543, 0.039684l 4.53543, 0.0359574l 4.53543,
 0.0326327l 4.53543, 0.0294427l 4.53543, 0.0263732l 4.53543, 0.0235375l 4.53543, 0.0210658l 4.53543, 0.0190394l 4.53543, 0.0174629l 4.53543, 0.0162648l 4.53543, 0.0153352l 4.53543, 0.0145539l 4.53543, 0.0138199l 4.53543, 0.0130601l 4.53543,
 0.0122373l 4.53543, 0.011344l 4.53543, 0.010398l 4.53543, 0.0094285l 4.53543, 0.00846695l 4.53543, 0.00754257l 4.53543, 0.00667819l 4.53543, 0.00589126l 4.53543, 0.00518735l 4.53543, 0.00456676l 4.53543, 0.034523h 27.2126" fill="none"
 stroke="#0000ff" stroke-width="6" stroke-dasharray=" 3, 3"/>
<path d="M57.1929,218.57z" fill="none" stroke="#00ff00" stroke-width="6" stroke-dasharray=" 3, 3"/>
<path d="M57.1929,218.57l 4.53543, 0.670349l 4.53543, 0.682572l 4.53543, 0.694919l 4.53543, 0.707392l 4.53543, 0.719992l 4.53543, 0.732719l 4.53543, 0.745576l 4.53543, 0.758563l 4.53543, 0.771681l 4.53543, 0.784932l 4.53543, 0.798317l 4.53543,
 0.811837l 4.53543, 0.825492l 4.53543, 0.839285l 4.53543, 0.853217l 4.53543, 0.867289l 4.53543, 0.881501l 4.53543, 0.895856l 4.53543, 0.910354l 4.53543, 0.924998l 4.53543, 0.939787l 4.53543, 0.954724l 4.53543, 0.96981l 4.53543, 0.985046l 4.53543,
 1.00043l 4.53543, 1.01597l 4.53543, 1.03167l 4.53543, 1.04752l 4.53543, 1.06352l 4.53543, 1.07969l 4.53543, 1.09601l 4.53543, 1.1125l 4.53543, 1.12914l 4.53543, 1.14596l 4.53543, 1.16293l 4.53543, 1.18008l 4.53543, 1.19739l 4.53543, 1.21487l
 4.53543, 1.23252l 4.53543, 1.25035l 4.53543, 1.26835l 4.53543, 1.28653l 4.53543, 1.30488l 4.53543, 1.32341l 4.53543, 1.34213l 4.53543, 1.36102l 4.53543, 1.3801l 4.53543, 1.39937l 4.53543, 1.41882l 4.53543, 1.43846l 4.53543, 1.45829l 4.53543,
 1.47831l 4.53543, 1.49853l 4.53543, 1.51894l 4.53543, 1.53955l 4.53543, 1.56036l 4.53543, 1.58136l 4.53543, 1.60257l 4.53543, 1.62399l 4.53543, 1.64561l 4.53543, 1.66744l 4.53543, 1.68948l 4.53543, 1.71173l 4.53543, 1.73419l 4.53543, 1.75687l
 4.53543, 1.77976l 4.53543, 1.80288l 4.53543, 1.82621l 4.53543, 1.84977l 4.53543, 1.87355l 4.53543, 1.89756l 4.53543, 1.9218l 4.53543, 1.94627l 4.53543, 1.97097l 4.53543, 1.9959l 4.53543, 2.02108l 4.53543, 2.04649l 4.53543, 2.07214l 4.53543, 2.09804l
 4.53543, 2.12418l 4.53543, 2.15057l 4.53543, 2.1772l 4.53543, 2.20409l 4.53543, 2.23124l 4.53543, 2.25864l 4.53543, 2.2863l 4.53543, 2.31421l 4.53543, 2.3424l 4.53543, 2.37084l 4.53543, 2.39956l 4.53543, 2.42854l 4.53543, 2.4578l 4.53543, 2.48733l
 4.53543, 2.51714l 4.53543, 2.54722l 4.53543, 2.57759l 4.53543, 2.60824l 4.53543, 2.63918l 4.53543, 2.67041l 4.53543, 2.70193" fill="none" stroke="#00ff00" stroke-width="6" stroke-dasharray=" 3, 3"/>
<path d="M57.1929,371.444h 453.543" fill="none" stroke="black"/>
<path d="M57.1929,361.539v 9.90517" fill="none" stroke="black"/>
<path d="M66.2638,366.491v 4.95259" fill="none" stroke="black"/>
<path d="M75.3346,366.491v 4.95259" fill="none" stroke="black"/>
<path d="M84.4055,366.491v 4.95259" fill="none" stroke="black"/>
<path d="M93.4764,366.491v 4.95259" fill="none" stroke="black"/>
<path d="M102.547,361.539v 9.90517" fill="none" stroke="black"/>
<path d="M111.618,366.491v 4.95259" fill="none" stroke="black"/>
<path d="M120.689,366.491v 4.95259" fill="none" stroke="black"/>
<path d="M129.76,366.491v 4.95259" fill="none" stroke="black"/>
<path d="M138.831,366.491v 4.95259" fill="none" stroke="black"/>
<path d="M147.902,361.539v 9.90517" fill="none" stroke="black"/>
<path d="M156.972,366.491v 4.95259" fill="none" stroke="black"/>
<path d="M166.043,366.491v 4.95259" fill="none" stroke="black"/>
<path d="M175.114,366.491v 4.95259" fill="none" stroke="black"/>
<path d="M184.185,366.491v 4.95259" fill="none" stroke="black"/>
<path d="M193.256,361.539v 9.90517" fill="none" stroke="black"/>
<path d="M202.327,366.491v 4.95259" fill="none" stroke="black"/>
<path d="M211.398,366.491v 4.95259" fill="none" stroke="black"/>
<path d="M220.469,366.491v 4.95259" fill="none" stroke="black"/>
<path d="M229.539,366.491v 4.95259" fill="none" stroke="black"/>
<path d="M238.61,361.539v 9.90517" fill="none" stroke="black"/>
<path d="M247.681,366.491v 4.95259" fill="none" stroke="black"/>
<path d="M256.752,366.491v 4.95259" fill="none" stroke="black"/>
<path d="M265.823,366.491v 4.95259" fill="none" stroke="black"/>
<path d="M274.894,366.491v 4.95259" fill="none" stroke="black"/>
<path d="M283.965,361.539v 9.90517" fill="none" stroke="black"/>
<path d="M293.035,366.491v 4.95259" fill="none" stroke="black"/>
<path d="M302.106,366.491v 4.95259" fill="none" stroke="black"/>
<path d="M311.177,366.491v 4.95259" fill="none" stroke="black"/>
<path d="M320.248,366.491v 4.95259" fill="none" stroke="black"/>
<path d="M329.319,361.539v 9.90517" fill="none" stroke="black"/>
<path d="M338.39,366.491v 4.95259" fill="none" stroke="black"/>
<path d="M347.461,366.491v 4.95259" fill="none" stroke="black"/>
<path d="M356.531,366.491v 4.95259" fill="none" stroke="black"/>
<path d="M365.602,366.491v 4.95259" fill="none" stroke="black"/>
<path d="M374.673,361.539v 9.90517" fill="none" stroke="black"/>
<path d="M383.744,366.491v 4.95259" fill="none" stroke="black"/>
<path d="M392.815,366.491v 4.95259" fill="none" stroke="black"/>
<path d="M401.886,366.491v 4.95259" fill="none" stroke="black"/>
<path d="M410.957,366.491v 4.95259" fill="none" stroke="black"/>
<path d="M420.028,361.539v 9.90517" fill="none" stroke="black"/>
<path d="M429.098,366.491v 4.95259" fill="none" stroke="black"/>
<path d="M438.169,366.491v 4.95259" fill="none" stroke="black"/>
<path d="M447.24,366.491v 4.95259" fill="none" stroke="black"/>
<path d="M456.311,366.491v 4.95259" fill="none" stroke="black"/>
<path d="M465.382,361.539v 9.90517" fill="none" stroke="black"/>
<path d="M474.453,366.491v 4.95259" fill="none" stroke="black"/>
<path d="M483.524,366.491v 4.95259" fill="none" stroke="black"/>
<path d="M492.594,366.491v 4.95259" fill="none" stroke="black"/>
<path d="M501.665,366.491v 4.95259" fill="none" stroke="black"/>
<path d="M510.736,361.539v 9.90517" fill="none" stroke="black"/>
<path d="M57.1929,371.444v -330.172" fill="none" stroke="black"/>
<path d="M70.7992,371.444h -13.6063" fill="none" stroke="black"/>
<path d="M63.9961,364.287h -6.80315" fill="none" stroke="black"/>
<path d="M63.9961,357.13h -6.80315" fill="none" stroke="black"/>
<path d="M63.9961,349.972h -6.80315" fill="none" stroke="black"/>
<path d="M63.9961,342.815h -6.80315" fill="none" stroke="black"/>
<path d="M70.7992,335.658h -13.6063" fill="none" stroke="black"/>
<path d="M63.9961,328.501h -6.80315" fill="none" stroke="black"/>
<path d="M63.9961,321.344h -6.80315" fill="none" stroke="black"/>
<path d="M63.9961,314.186h -6.80315" fill="none" stroke="black"/>
<path d="M63.9961,307.029h -6.80315" fill="none" stroke="black"/>
<path d="M70.7992,299.872h -13.6063" fill="none" stroke="black"/>
<path d="M63.9961,292.715h -6.80315" fill="none" stroke="black"/>
<path d="M63.9961,285.558h -6.80315" fill="none" stroke="black"/>
<path d="M63.9961,278.4h -6.80315" fill="none" stroke="black"/>
<path d="M63.9961,271.243h -6.80315" fill="none" stroke="black"/>
<path d="M70.7992,264.086h -13.6063" fill="none" stroke="black"/>
<path d="M63.9961,256.929h -6.80315" fill="none" stroke="black"/>
<path d="M63.9961,249.772h -6.80315" fill="none" stroke="black"/>
<path d="M63.9961,242.614h -6.80315" fill="none" stroke="black"/>
<path d="M63.9961,235.457h -6.80315" fill="none" stroke="black"/>
<path d="M70.7992,228.3h -13.6063" fill="none" stroke="black"/>
<path d="M63.9961,221.143h -6.80315" fill="none" stroke="black"/>
<path d="M63.9961,213.986h -6.80315" fill="none" stroke="black"/>
<path d="M63.9961,206.828h -6.80315" fill="none" stroke="black"/>
<path d="M63.9961,199.671h -6.80315" fill="none" stroke="black"/>
<path d="M70.7992,192.514h -13.6063" fill="none" stroke="black"/>
<path d="M63.9961,185.357h -6.80315" fill="none" stroke="black"/>
<path d="M63.9961,178.2h -6.80315" fill="none" stroke="black"/>
<path d="M63.9961,171.042h -6.80315" fill="none" stroke="black"/>
<path d="M63.9961,163.885h -6.80315" fill="none" stroke="black"/>
<path d="M70.7992,156.728h -13.6063" fill="none" stroke="black"/>
<path d="M63.9961,149.571h -6.80315" fill="none" stroke="black"/>
<path d="M63.9961,142.414h -6.80315" fill="none" stroke="black"/>
<path d="M63.9961,135.256h -6.80315" fill="none" stroke="black"/>
<path d="M63.9961,128.099h -6.80315" fill="none" stroke="black"/>
<path d="M70.7992,120.942h -13.6063" fill="none" stroke="black"/>
<path d="M63.9961,113.785h -6.80315" fill="none" stroke="black"/>
<path d="M63.9961,106.628h -6.80315" fill="none" stroke="black"/>
<path d="M63.9961,99.4704h -6.80315" fill="none" stroke="black"/>
<path d="M63.9961,92.3132h -6.80315" fill="none" stroke="black"/>
<path d="M70.7992,85.156h -13.6063" fill="none" stroke="black"/>
<path d="M63.9961,77.9988h -6.80315" fill="none" stroke="black"/>
<path d="M63.9961,70.8416h -6.80315" fill="none" stroke="black"/>
<path d="M63.9961,63.6844h -6.80315" fill="none" stroke="black"/>
<path d="M63.9961,56.5272h -6.80315" fill="none" stroke="black"/>
<path d="M70.7992,49.37h -13.6063" fill="none" stroke="black"/>
<path d="M70.7992,49.37h -13.6063" fill="none" stroke="black"/>
<path d="M63.9961,42.2128h -6.80315" fill="none" stroke="black"/>
<rect x="369.004" y="49.5259" width="130.394" height="53.653" fill="white"/>
<text xml:space="preserve" x="374.385" y="88.756" fill="black" font-size="34.5151" font-family="Helvetica" font-weight="bold">all data</text></svg>
