<?xml version="1.0" standalone="no"?>
<svg width="567" height="407" viewBox="0 0 567 407" xmlns="http://www.w3.org/2000/svg">
<title>
pic_fom2.svg
</title>
<desc>
Creator: ROOT Version 5.34/09
CreationDate: Thu Apr  8 09:45:34 2021</desc>
<defs>
</defs>
<rect x="0" y="0" width="567" height="407" fill="white"/>
<rect x="74" y="53" width="419" height="301" fill="white"/>
<rect x="74" y="53" width="419" height="301" fill="none" stroke="black"/>
<path d="M74,354h 14v -33h 14v -39h 14v -32h 14v -27h 14v -22h 14v -19h 14v -15h 14v -13h 14v -11h 14v -10h 14v -8h 14v -7h 13v -6h 14v -6h 14v -5h 14v -4h 14v -4h 14v -3h 14v -4h 14v -3h 14v -2h 14v -3h 14v -2h 14v -2h 14v -1h 14v -2h 14v -1h 14v
 -2h 14v -1h 14" fill="none" stroke="#ff0000" stroke-width="3"/>
<path d="M74,354h 419" fill="none" stroke="black"/>
<text x="469" y="381" fill="black" font-size="13" font-family="Helvetica">
chi2
</text>
<path d="M74,345v 9" fill="none" stroke="black"/>
<path d="M88,350v 4" fill="none" stroke="black"/>
<path d="M102,350v 4" fill="none" stroke="black"/>
<path d="M116,350v 4" fill="none" stroke="black"/>
<path d="M130,350v 4" fill="none" stroke="black"/>
<path d="M144,345v 9" fill="none" stroke="black"/>
<path d="M158,350v 4" fill="none" stroke="black"/>
<path d="M172,350v 4" fill="none" stroke="black"/>
<path d="M186,350v 4" fill="none" stroke="black"/>
<path d="M200,350v 4" fill="none" stroke="black"/>
<path d="M214,345v 9" fill="none" stroke="black"/>
<path d="M228,350v 4" fill="none" stroke="black"/>
<path d="M242,350v 4" fill="none" stroke="black"/>
<path d="M255,350v 4" fill="none" stroke="black"/>
<path d="M269,350v 4" fill="none" stroke="black"/>
<path d="M283,345v 9" fill="none" stroke="black"/>
<path d="M297,350v 4" fill="none" stroke="black"/>
<path d="M311,350v 4" fill="none" stroke="black"/>
<path d="M325,350v 4" fill="none" stroke="black"/>
<path d="M339,350v 4" fill="none" stroke="black"/>
<path d="M353,345v 9" fill="none" stroke="black"/>
<path d="M367,350v 4" fill="none" stroke="black"/>
<path d="M381,350v 4" fill="none" stroke="black"/>
<path d="M395,350v 4" fill="none" stroke="black"/>
<path d="M409,350v 4" fill="none" stroke="black"/>
<path d="M423,345v 9" fill="none" stroke="black"/>
<path d="M437,350v 4" fill="none" stroke="black"/>
<path d="M451,350v 4" fill="none" stroke="black"/>
<path d="M465,350v 4" fill="none" stroke="black"/>
<path d="M479,350v 4" fill="none" stroke="black"/>
<path d="M493,345v 9" fill="none" stroke="black"/>
<text x="70" y="367" fill="black" font-size="13" font-family="Helvetica">
0
</text>
<text x="140" y="367" fill="black" font-size="13" font-family="Helvetica">
5
</text>
<text x="205" y="367" fill="black" font-size="13" font-family="Helvetica">
10
</text>
<text x="276" y="367" fill="black" font-size="13" font-family="Helvetica">
15
</text>
<text x="345" y="367" fill="black" font-size="13" font-family="Helvetica">
20
</text>
<text x="415" y="367" fill="black" font-size="13" font-family="Helvetica">
25
</text>
<text x="485" y="367" fill="black" font-size="13" font-family="Helvetica">
30
</text>
<path d="M74,354v -301" fill="none" stroke="black"/>
<g transform="rotate(-90,46,94)">
<text x="46" y="94" fill="black" font-size="13" font-family="Helvetica">
Events
</text>
</g>
<path d="M86,354h -12" fill="none" stroke="black"/>
<path d="M80,345h -6" fill="none" stroke="black"/>
<path d="M80,337h -6" fill="none" stroke="black"/>
<path d="M80,328h -6" fill="none" stroke="black"/>
<path d="M80,320h -6" fill="none" stroke="black"/>
<path d="M86,311h -12" fill="none" stroke="black"/>
<path d="M80,302h -6" fill="none" stroke="black"/>
<path d="M80,294h -6" fill="none" stroke="black"/>
<path d="M80,285h -6" fill="none" stroke="black"/>
<path d="M80,277h -6" fill="none" stroke="black"/>
<path d="M86,268h -12" fill="none" stroke="black"/>
<path d="M80,259h -6" fill="none" stroke="black"/>
<path d="M80,251h -6" fill="none" stroke="black"/>
<path d="M80,242h -6" fill="none" stroke="black"/>
<path d="M80,233h -6" fill="none" stroke="black"/>
<path d="M86,225h -12" fill="none" stroke="black"/>
<path d="M80,216h -6" fill="none" stroke="black"/>
<path d="M80,208h -6" fill="none" stroke="black"/>
<path d="M80,199h -6" fill="none" stroke="black"/>
<path d="M80,190h -6" fill="none" stroke="black"/>
<path d="M86,182h -12" fill="none" stroke="black"/>
<path d="M80,173h -6" fill="none" stroke="black"/>
<path d="M80,165h -6" fill="none" stroke="black"/>
<path d="M80,156h -6" fill="none" stroke="black"/>
<path d="M80,147h -6" fill="none" stroke="black"/>
<path d="M86,139h -12" fill="none" stroke="black"/>
<path d="M80,130h -6" fill="none" stroke="black"/>
<path d="M80,122h -6" fill="none" stroke="black"/>
<path d="M80,113h -6" fill="none" stroke="black"/>
<path d="M80,104h -6" fill="none" stroke="black"/>
<path d="M86,96h -12" fill="none" stroke="black"/>
<path d="M80,87h -6" fill="none" stroke="black"/>
<path d="M80,78h -6" fill="none" stroke="black"/>
<path d="M80,70h -6" fill="none" stroke="black"/>
<path d="M80,61h -6" fill="none" stroke="black"/>
<path d="M86,53h -12" fill="none" stroke="black"/>
<path d="M86,53h -12" fill="none" stroke="black"/>
<text x="63" y="359" fill="black" font-size="13" font-family="Helvetica">
0
</text>
<text x="33" y="316" fill="black" font-size="13" font-family="Helvetica">
10000
</text>
<text x="33" y="272" fill="black" font-size="13" font-family="Helvetica">
20000
</text>
<text x="33" y="230" fill="black" font-size="13" font-family="Helvetica">
30000
</text>
<text x="33" y="186" fill="black" font-size="13" font-family="Helvetica">
40000
</text>
<text x="33" y="143" fill="black" font-size="13" font-family="Helvetica">
50000
</text>
<text x="33" y="100" fill="black" font-size="13" font-family="Helvetica">
60000
</text>
<text x="33" y="57" fill="black" font-size="13" font-family="Helvetica">
70000
</text>
<path d="M74,354h 14v -12h 14v -13h 14v -13h 14v -12h 14v -10h 14v -9h 14v -7h 14v -8h 14v -7h 14v -6h 14v -6h 14v -6h 13v -5h 14v -5h 14v -5h 14v -4h 14v -5h 14v -3h 14v -4h 14v -3h 14v -4h 14v -3h 14v -3h 14v -3h 14v -3h 14v -3h 14v -2h 14v -3h 14v
 -3h 14" fill="none" stroke="#0000ff"/>
<rect x="340" y="203" width="142" height="61" fill="white"/>
<text x="375" y="225" fill="black" font-size="23" font-family="Helvetica">
sig
</text>
<path d="M345,229h 25v -21h -25z" fill="white"/>
<path d="M345,208h 25" fill="none" stroke="#ff0000" stroke-width="3"/>
<path d="M345,229h 25" fill="none" stroke="#ff0000" stroke-width="3"/>
<path d="M370,229v -21" fill="none" stroke="#ff0000" stroke-width="3"/>
<path d="M345,229v -21" fill="none" stroke="#ff0000" stroke-width="3"/>
<text x="375" y="255" fill="black" font-size="23" font-family="Helvetica">
bkg
</text>
<path d="M345,260h 25v -22h -25z" fill="white"/>
<path d="M345,238h 25" fill="none" stroke="#0000ff"/>
<path d="M345,260h 25" fill="none" stroke="#0000ff"/>
<path d="M370,260v -22" fill="none" stroke="#0000ff"/>
<path d="M345,260v -22" fill="none" stroke="#0000ff"/></svg>
