<?xml version="1.0" standalone="no"?>
<svg width="567.429" height="409.712" viewBox="0 0 567.429 409.712" xmlns="http://www.w3.org/2000/svg" shape-rendering="crispEdges">
<title>
pic_fitInclusive4600.svg
</title>
<desc>
Creator: ROOT Version 6.20/06
CreationDate: Sat Apr 17 11:28:38 2021</desc>
<defs>
</defs>
<rect x="0.5" y="0" width="566.929" height="409.212" fill="white"/>
<rect x="57.1929" y="40.9212" width="453.543" height="327.37" fill="white"/>
<rect x="57.1929" y="40.9212" width="453.543" height="327.37" fill="none" stroke="black"/>
<rect x="57.1929" y="40.9212" width="453.543" height="327.37" fill="white"/>
<rect x="57.1929" y="40.9212" width="453.543" height="327.37" fill="none" stroke="black"/>
<path d="M57.1929,368.291h 453.543" fill="none" stroke="black"/>
<path d="M57.1929,358.47v 9.82109" fill="none" stroke="black"/>
<path d="M66.3066,363.38v 4.91054" fill="none" stroke="black"/>
<path d="M75.4203,363.38v 4.91054" fill="none" stroke="black"/>
<path d="M84.534,363.38v 4.91054" fill="none" stroke="black"/>
<path d="M93.6477,363.38v 4.91054" fill="none" stroke="black"/>
<path d="M102.761,358.47v 9.82109" fill="none" stroke="black"/>
<path d="M111.875,363.38v 4.91054" fill="none" stroke="black"/>
<path d="M120.989,363.38v 4.91054" fill="none" stroke="black"/>
<path d="M130.103,363.38v 4.91054" fill="none" stroke="black"/>
<path d="M139.216,363.38v 4.91054" fill="none" stroke="black"/>
<path d="M148.33,358.47v 9.82109" fill="none" stroke="black"/>
<path d="M157.444,363.38v 4.91054" fill="none" stroke="black"/>
<path d="M166.557,363.38v 4.91054" fill="none" stroke="black"/>
<path d="M175.671,363.38v 4.91054" fill="none" stroke="black"/>
<path d="M184.785,363.38v 4.91054" fill="none" stroke="black"/>
<path d="M193.898,358.47v 9.82109" fill="none" stroke="black"/>
<path d="M203.012,363.38v 4.91054" fill="none" stroke="black"/>
<path d="M212.126,363.38v 4.91054" fill="none" stroke="black"/>
<path d="M221.24,363.38v 4.91054" fill="none" stroke="black"/>
<path d="M230.353,363.38v 4.91054" fill="none" stroke="black"/>
<path d="M239.467,358.47v 9.82109" fill="none" stroke="black"/>
<path d="M248.581,363.38v 4.91054" fill="none" stroke="black"/>
<path d="M257.694,363.38v 4.91054" fill="none" stroke="black"/>
<path d="M266.808,363.38v 4.91054" fill="none" stroke="black"/>
<path d="M275.922,363.38v 4.91054" fill="none" stroke="black"/>
<path d="M285.035,358.47v 9.82109" fill="none" stroke="black"/>
<path d="M294.149,363.38v 4.91054" fill="none" stroke="black"/>
<path d="M303.263,363.38v 4.91054" fill="none" stroke="black"/>
<path d="M312.377,363.38v 4.91054" fill="none" stroke="black"/>
<path d="M321.49,363.38v 4.91054" fill="none" stroke="black"/>
<path d="M330.604,358.47v 9.82109" fill="none" stroke="black"/>
<path d="M339.718,363.38v 4.91054" fill="none" stroke="black"/>
<path d="M348.831,363.38v 4.91054" fill="none" stroke="black"/>
<path d="M357.945,363.38v 4.91054" fill="none" stroke="black"/>
<path d="M367.059,363.38v 4.91054" fill="none" stroke="black"/>
<path d="M376.172,358.47v 9.82109" fill="none" stroke="black"/>
<path d="M385.286,363.38v 4.91054" fill="none" stroke="black"/>
<path d="M394.4,363.38v 4.91054" fill="none" stroke="black"/>
<path d="M403.514,363.38v 4.91054" fill="none" stroke="black"/>
<path d="M412.627,363.38v 4.91054" fill="none" stroke="black"/>
<path d="M421.741,358.47v 9.82109" fill="none" stroke="black"/>
<path d="M430.855,363.38v 4.91054" fill="none" stroke="black"/>
<path d="M439.968,363.38v 4.91054" fill="none" stroke="black"/>
<path d="M449.082,363.38v 4.91054" fill="none" stroke="black"/>
<path d="M458.196,363.38v 4.91054" fill="none" stroke="black"/>
<path d="M467.309,358.47v 9.82109" fill="none" stroke="black"/>
<path d="M467.309,358.47v 9.82109" fill="none" stroke="black"/>
<path d="M476.423,363.38v 4.91054" fill="none" stroke="black"/>
<path d="M485.537,363.38v 4.91054" fill="none" stroke="black"/>
<path d="M494.651,363.38v 4.91054" fill="none" stroke="black"/>
<path d="M503.764,363.38v 4.91054" fill="none" stroke="black"/>
<text xml:space="preserve" x="43.8367" y="381.505" fill="black" font-size="13.6398" font-family="Helvetica">2.25</text>
<text xml:space="preserve" x="85.0421" y="381.505" fill="black" font-size="13.6398" font-family="Helvetica">2.255</text>
<text xml:space="preserve" x="135.483" y="381.505" fill="black" font-size="13.6398" font-family="Helvetica">2.26</text>
<text xml:space="preserve" x="176.689" y="381.505" fill="black" font-size="13.6398" font-family="Helvetica">2.265</text>
<text xml:space="preserve" x="226.419" y="381.505" fill="black" font-size="13.6398" font-family="Helvetica">2.27</text>
<text xml:space="preserve" x="267.625" y="381.505" fill="black" font-size="13.6398" font-family="Helvetica">2.275</text>
<text xml:space="preserve" x="317.355" y="381.505" fill="black" font-size="13.6398" font-family="Helvetica">2.28</text>
<text xml:space="preserve" x="358.561" y="381.505" fill="black" font-size="13.6398" font-family="Helvetica">2.285</text>
<text xml:space="preserve" x="408.291" y="381.505" fill="black" font-size="13.6398" font-family="Helvetica">2.29</text>
<text xml:space="preserve" x="450.207" y="381.505" fill="black" font-size="13.6398" font-family="Helvetica">2.295</text>
<text xml:space="preserve" x="507.042" y="395.714" fill="black" font-size="13.6398" font-family="Helvetica">)</text>
<text xml:space="preserve" x="502.069" y="389.32" fill="black" font-size="9.25989" font-family="Helvetica">2</text>
<text xml:space="preserve" x="457.311" y="395.714" fill="black" font-size="13.6398" font-family="Helvetica"> (GeV/c</text>
<text xml:space="preserve" x="444.523" y="399.976" fill="black" font-size="9.25989" font-family="Helvetica">BC</text>
<text xml:space="preserve" x="433.867" y="395.714" fill="black" font-size="13.6398" font-family="Helvetica">M</text>
<path d="M57.1929,368.291v -327.37" fill="none" stroke="black"/>
<path d="M70.7992,368.291h -13.6063" fill="none" stroke="black"/>
<path d="M63.9961,359.585h -6.80315" fill="none" stroke="black"/>
<path d="M63.9961,350.88h -6.80315" fill="none" stroke="black"/>
<path d="M63.9961,342.174h -6.80315" fill="none" stroke="black"/>
<path d="M63.9961,333.468h -6.80315" fill="none" stroke="black"/>
<path d="M70.7992,324.763h -13.6063" fill="none" stroke="black"/>
<path d="M63.9961,316.057h -6.80315" fill="none" stroke="black"/>
<path d="M63.9961,307.352h -6.80315" fill="none" stroke="black"/>
<path d="M63.9961,298.646h -6.80315" fill="none" stroke="black"/>
<path d="M63.9961,289.94h -6.80315" fill="none" stroke="black"/>
<path d="M70.7992,281.235h -13.6063" fill="none" stroke="black"/>
<path d="M63.9961,272.529h -6.80315" fill="none" stroke="black"/>
<path d="M63.9961,263.824h -6.80315" fill="none" stroke="black"/>
<path d="M63.9961,255.118h -6.80315" fill="none" stroke="black"/>
<path d="M63.9961,246.412h -6.80315" fill="none" stroke="black"/>
<path d="M70.7992,237.707h -13.6063" fill="none" stroke="black"/>
<path d="M63.9961,229.001h -6.80315" fill="none" stroke="black"/>
<path d="M63.9961,220.295h -6.80315" fill="none" stroke="black"/>
<path d="M63.9961,211.59h -6.80315" fill="none" stroke="black"/>
<path d="M63.9961,202.884h -6.80315" fill="none" stroke="black"/>
<path d="M70.7992,194.179h -13.6063" fill="none" stroke="black"/>
<path d="M63.9961,185.473h -6.80315" fill="none" stroke="black"/>
<path d="M63.9961,176.767h -6.80315" fill="none" stroke="black"/>
<path d="M63.9961,168.062h -6.80315" fill="none" stroke="black"/>
<path d="M63.9961,159.356h -6.80315" fill="none" stroke="black"/>
<path d="M70.7992,150.651h -13.6063" fill="none" stroke="black"/>
<path d="M63.9961,141.945h -6.80315" fill="none" stroke="black"/>
<path d="M63.9961,133.239h -6.80315" fill="none" stroke="black"/>
<path d="M63.9961,124.534h -6.80315" fill="none" stroke="black"/>
<path d="M63.9961,115.828h -6.80315" fill="none" stroke="black"/>
<path d="M70.7992,107.123h -13.6063" fill="none" stroke="black"/>
<path d="M63.9961,98.417h -6.80315" fill="none" stroke="black"/>
<path d="M63.9961,89.7114h -6.80315" fill="none" stroke="black"/>
<path d="M63.9961,81.0058h -6.80315" fill="none" stroke="black"/>
<path d="M63.9961,72.3002h -6.80315" fill="none" stroke="black"/>
<path d="M70.7992,63.5946h -13.6063" fill="none" stroke="black"/>
<path d="M70.7992,63.5946h -13.6063" fill="none" stroke="black"/>
<path d="M63.9961,54.889h -6.80315" fill="none" stroke="black"/>
<path d="M63.9961,46.1833h -6.80315" fill="none" stroke="black"/>
<text xml:space="preserve" x="46.6784" y="372.98" fill="black" font-size="13.6398" font-family="Helvetica">0</text>
<text xml:space="preserve" x="48.8097" y="330.353" fill="black" font-size="13.6398" font-family="Helvetica">1</text>
<text xml:space="preserve" x="46.6784" y="286.306" fill="black" font-size="13.6398" font-family="Helvetica">2</text>
<text xml:space="preserve" x="46.6784" y="242.259" fill="black" font-size="13.6398" font-family="Helvetica">3</text>
<text xml:space="preserve" x="46.6784" y="199.633" fill="black" font-size="13.6398" font-family="Helvetica">4</text>
<text xml:space="preserve" x="46.6784" y="155.586" fill="black" font-size="13.6398" font-family="Helvetica">5</text>
<text xml:space="preserve" x="46.6784" y="111.539" fill="black" font-size="13.6398" font-family="Helvetica">6</text>
<text xml:space="preserve" x="46.6784" y="68.9124" fill="black" font-size="13.6398" font-family="Helvetica">7</text>
<g transform="rotate(-90,34.601,44.0471)">
<text xml:space="preserve" x="34.601" y="44.0471" fill="black" font-size="13.6398" font-family="Helvetica">)</text>
</g>
<g transform="rotate(-90,28.9175,49.0202)">
<text xml:space="preserve" x="28.9175" y="49.0202" fill="black" font-size="9.25989" font-family="Helvetica">2</text>
</g>
<g transform="rotate(-90,34.601,163.401)">
<text xml:space="preserve" x="34.601" y="163.401" fill="black" font-size="13.6398" font-family="Helvetica">Events/(  2.5 MeV/c</text>
</g>
<path d="M68.5315,281.235h -11.3386" fill="none" stroke="black" stroke-width="2"/>
<path d="M57.1929,282.656v -2.84175" fill="none" stroke="black" stroke-width="2"/>
<path d="M68.5315,281.235h 11.3386" fill="none" stroke="black" stroke-width="2"/>
<path d="M79.8701,282.656v -2.84175" fill="none" stroke="black" stroke-width="2"/>
<path d="M68.5315,281.235v -114.821" fill="none" stroke="black" stroke-width="2"/>
<path d="M67.1106,166.414h 2.84175" fill="none" stroke="black" stroke-width="2"/>
<path d="M68.5315,281.235v 56.2302" fill="none" stroke="black" stroke-width="2"/>
<path d="M67.1106,337.465h 2.84175" fill="none" stroke="black" stroke-width="2"/>
<path d="M91.2087,281.235h -11.3386" fill="none" stroke="black" stroke-width="2"/>
<path d="M79.8701,282.656v -2.84175" fill="none" stroke="black" stroke-width="2"/>
<path d="M91.2087,281.235h 11.3386" fill="none" stroke="black" stroke-width="2"/>
<path d="M102.547,282.656v -2.84175" fill="none" stroke="black" stroke-width="2"/>
<path d="M91.2087,281.235v -114.821" fill="none" stroke="black" stroke-width="2"/>
<path d="M89.7878,166.414h 2.84175" fill="none" stroke="black" stroke-width="2"/>
<path d="M91.2087,281.235v 56.2302" fill="none" stroke="black" stroke-width="2"/>
<path d="M89.7878,337.465h 2.84175" fill="none" stroke="black" stroke-width="2"/>
<path d="M113.886,324.763h -11.3386" fill="none" stroke="black" stroke-width="2"/>
<path d="M102.547,326.184v -2.84175" fill="none" stroke="black" stroke-width="2"/>
<path d="M113.886,324.763h 11.3386" fill="none" stroke="black" stroke-width="2"/>
<path d="M125.224,326.184v -2.84175" fill="none" stroke="black" stroke-width="2"/>
<path d="M113.886,324.763v -100.094" fill="none" stroke="black" stroke-width="2"/>
<path d="M112.465,224.669h 2.84175" fill="none" stroke="black" stroke-width="2"/>
<path d="M113.886,324.763v 36.0084" fill="none" stroke="black" stroke-width="2"/>
<path d="M112.465,360.771h 2.84175" fill="none" stroke="black" stroke-width="2"/>
<path d="M136.563,368.291h -11.3386" fill="none" stroke="black" stroke-width="2"/>
<path d="M125.224,368.291v -1.42088" fill="none" stroke="black" stroke-width="2"/>
<path d="M136.563,368.291h 11.3386" fill="none" stroke="black" stroke-width="2"/>
<path d="M147.902,368.291v -1.42088" fill="none" stroke="black" stroke-width="2"/>
<path d="M136.563,368.291v -49.9647" fill="none" stroke="black" stroke-width="2"/>
<path d="M135.142,318.326h 2.84175" fill="none" stroke="black" stroke-width="2"/>
<path d="M159.24,281.235h -11.3386" fill="none" stroke="black" stroke-width="2"/>
<path d="M147.902,282.656v -2.84175" fill="none" stroke="black" stroke-width="2"/>
<path d="M159.24,281.235h 11.3386" fill="none" stroke="black" stroke-width="2"/>
<path d="M170.579,282.656v -2.84175" fill="none" stroke="black" stroke-width="2"/>
<path d="M159.24,281.235v -114.821" fill="none" stroke="black" stroke-width="2"/>
<path d="M157.819,166.414h 2.84175" fill="none" stroke="black" stroke-width="2"/>
<path d="M159.24,281.235v 56.2302" fill="none" stroke="black" stroke-width="2"/>
<path d="M157.819,337.465h 2.84175" fill="none" stroke="black" stroke-width="2"/>
<path d="M181.917,324.763h -11.3386" fill="none" stroke="black" stroke-width="2"/>
<path d="M170.579,326.184v -2.84175" fill="none" stroke="black" stroke-width="2"/>
<path d="M181.917,324.763h 11.3386" fill="none" stroke="black" stroke-width="2"/>
<path d="M193.256,326.184v -2.84175" fill="none" stroke="black" stroke-width="2"/>
<path d="M181.917,324.763v -100.094" fill="none" stroke="black" stroke-width="2"/>
<path d="M180.496,224.669h 2.84175" fill="none" stroke="black" stroke-width="2"/>
<path d="M181.917,324.763v 36.0084" fill="none" stroke="black" stroke-width="2"/>
<path d="M180.496,360.771h 2.84175" fill="none" stroke="black" stroke-width="2"/>
<path d="M204.594,324.763h -11.3386" fill="none" stroke="black" stroke-width="2"/>
<path d="M193.256,326.184v -2.84175" fill="none" stroke="black" stroke-width="2"/>
<path d="M204.594,324.763h 11.3386" fill="none" stroke="black" stroke-width="2"/>
<path d="M215.933,326.184v -2.84175" fill="none" stroke="black" stroke-width="2"/>
<path d="M204.594,324.763v -100.094" fill="none" stroke="black" stroke-width="2"/>
<path d="M203.174,224.669h 2.84175" fill="none" stroke="black" stroke-width="2"/>
<path d="M204.594,324.763v 36.0084" fill="none" stroke="black" stroke-width="2"/>
<path d="M203.174,360.771h 2.84175" fill="none" stroke="black" stroke-width="2"/>
<path d="M227.272,281.235h -11.3386" fill="none" stroke="black" stroke-width="2"/>
<path d="M215.933,282.656v -2.84175" fill="none" stroke="black" stroke-width="2"/>
<path d="M227.272,281.235h 11.3386" fill="none" stroke="black" stroke-width="2"/>
<path d="M238.61,282.656v -2.84175" fill="none" stroke="black" stroke-width="2"/>
<path d="M227.272,281.235v -114.821" fill="none" stroke="black" stroke-width="2"/>
<path d="M225.851,166.414h 2.84175" fill="none" stroke="black" stroke-width="2"/>
<path d="M227.272,281.235v 56.2302" fill="none" stroke="black" stroke-width="2"/>
<path d="M225.851,337.465h 2.84175" fill="none" stroke="black" stroke-width="2"/>
<path d="M249.949,324.763h -11.3386" fill="none" stroke="black" stroke-width="2"/>
<path d="M238.61,326.184v -2.84175" fill="none" stroke="black" stroke-width="2"/>
<path d="M249.949,324.763h 11.3386" fill="none" stroke="black" stroke-width="2"/>
<path d="M261.287,326.184v -2.84175" fill="none" stroke="black" stroke-width="2"/>
<path d="M249.949,324.763v -100.094" fill="none" stroke="black" stroke-width="2"/>
<path d="M248.528,224.669h 2.84175" fill="none" stroke="black" stroke-width="2"/>
<path d="M249.949,324.763v 36.0084" fill="none" stroke="black" stroke-width="2"/>
<path d="M248.528,360.771h 2.84175" fill="none" stroke="black" stroke-width="2"/>
<path d="M272.626,281.235h -11.3386" fill="none" stroke="black" stroke-width="2"/>
<path d="M261.287,282.656v -2.84175" fill="none" stroke="black" stroke-width="2"/>
<path d="M272.626,281.235h 11.3386" fill="none" stroke="black" stroke-width="2"/>
<path d="M283.965,282.656v -2.84175" fill="none" stroke="black" stroke-width="2"/>
<path d="M272.626,281.235v -114.821" fill="none" stroke="black" stroke-width="2"/>
<path d="M271.205,166.414h 2.84175" fill="none" stroke="black" stroke-width="2"/>
<path d="M272.626,281.235v 56.2302" fill="none" stroke="black" stroke-width="2"/>
<path d="M271.205,337.465h 2.84175" fill="none" stroke="black" stroke-width="2"/>
<path d="M295.303,194.179h -11.3386" fill="none" stroke="black" stroke-width="2"/>
<path d="M283.965,195.6v -2.84175" fill="none" stroke="black" stroke-width="2"/>
<path d="M295.303,194.179h 11.3386" fill="none" stroke="black" stroke-width="2"/>
<path d="M306.642,195.6v -2.84175" fill="none" stroke="black" stroke-width="2"/>
<path d="M295.303,194.179v -137.668" fill="none" stroke="black" stroke-width="2"/>
<path d="M293.882,56.5102h 2.84175" fill="none" stroke="black" stroke-width="2"/>
<path d="M295.303,194.179v 83.3274" fill="none" stroke="black" stroke-width="2"/>
<path d="M293.882,277.506h 2.84175" fill="none" stroke="black" stroke-width="2"/>
<path d="M317.98,281.235h -11.3386" fill="none" stroke="black" stroke-width="2"/>
<path d="M306.642,282.656v -2.84175" fill="none" stroke="black" stroke-width="2"/>
<path d="M317.98,281.235h 11.3386" fill="none" stroke="black" stroke-width="2"/>
<path d="M329.319,282.656v -2.84175" fill="none" stroke="black" stroke-width="2"/>
<path d="M317.98,281.235v -114.821" fill="none" stroke="black" stroke-width="2"/>
<path d="M316.559,166.414h 2.84175" fill="none" stroke="black" stroke-width="2"/>
<path d="M317.98,281.235v 56.2302" fill="none" stroke="black" stroke-width="2"/>
<path d="M316.559,337.465h 2.84175" fill="none" stroke="black" stroke-width="2"/>
<path d="M340.657,368.291h -11.3386" fill="none" stroke="black" stroke-width="2"/>
<path d="M329.319,368.291v -1.42088" fill="none" stroke="black" stroke-width="2"/>
<path d="M340.657,368.291h 11.3386" fill="none" stroke="black" stroke-width="2"/>
<path d="M351.996,368.291v -1.42088" fill="none" stroke="black" stroke-width="2"/>
<path d="M340.657,368.291v -49.9647" fill="none" stroke="black" stroke-width="2"/>
<path d="M339.237,318.326h 2.84175" fill="none" stroke="black" stroke-width="2"/>
<path d="M363.335,237.707h -11.3386" fill="none" stroke="black" stroke-width="2"/>
<path d="M351.996,239.128v -2.84175" fill="none" stroke="black" stroke-width="2"/>
<path d="M363.335,237.707h 11.3386" fill="none" stroke="black" stroke-width="2"/>
<path d="M374.673,239.128v -2.84175" fill="none" stroke="black" stroke-width="2"/>
<path d="M363.335,237.707v -127.023" fill="none" stroke="black" stroke-width="2"/>
<path d="M361.914,110.684h 2.84175" fill="none" stroke="black" stroke-width="2"/>
<path d="M363.335,237.707v 71.0684" fill="none" stroke="black" stroke-width="2"/>
<path d="M361.914,308.775h 2.84175" fill="none" stroke="black" stroke-width="2"/>
<path d="M386.012,237.707h -11.3386" fill="none" stroke="black" stroke-width="2"/>
<path d="M374.673,239.128v -2.84175" fill="none" stroke="black" stroke-width="2"/>
<path d="M386.012,237.707h 11.3386" fill="none" stroke="black" stroke-width="2"/>
<path d="M397.35,239.128v -2.84175" fill="none" stroke="black" stroke-width="2"/>
<path d="M386.012,237.707v -127.023" fill="none" stroke="black" stroke-width="2"/>
<path d="M384.591,110.684h 2.84175" fill="none" stroke="black" stroke-width="2"/>
<path d="M386.012,237.707v 71.0684" fill="none" stroke="black" stroke-width="2"/>
<path d="M384.591,308.775h 2.84175" fill="none" stroke="black" stroke-width="2"/>
<path d="M408.689,194.179h -11.3386" fill="none" stroke="black" stroke-width="2"/>
<path d="M397.35,195.6v -2.84175" fill="none" stroke="black" stroke-width="2"/>
<path d="M408.689,194.179h 11.3386" fill="none" stroke="black" stroke-width="2"/>
<path d="M420.028,195.6v -2.84175" fill="none" stroke="black" stroke-width="2"/>
<path d="M408.689,194.179v -137.668" fill="none" stroke="black" stroke-width="2"/>
<path d="M407.268,56.5102h 2.84175" fill="none" stroke="black" stroke-width="2"/>
<path d="M408.689,194.179v 83.3274" fill="none" stroke="black" stroke-width="2"/>
<path d="M407.268,277.506h 2.84175" fill="none" stroke="black" stroke-width="2"/>
<path d="M431.366,324.763h -11.3386" fill="none" stroke="black" stroke-width="2"/>
<path d="M420.028,326.184v -2.84175" fill="none" stroke="black" stroke-width="2"/>
<path d="M431.366,324.763h 11.3386" fill="none" stroke="black" stroke-width="2"/>
<path d="M442.705,326.184v -2.84175" fill="none" stroke="black" stroke-width="2"/>
<path d="M431.366,324.763v -100.094" fill="none" stroke="black" stroke-width="2"/>
<path d="M429.945,224.669h 2.84175" fill="none" stroke="black" stroke-width="2"/>
<path d="M431.366,324.763v 36.0084" fill="none" stroke="black" stroke-width="2"/>
<path d="M429.945,360.771h 2.84175" fill="none" stroke="black" stroke-width="2"/>
<path d="M454.043,324.763h -11.3386" fill="none" stroke="black" stroke-width="2"/>
<path d="M442.705,326.184v -2.84175" fill="none" stroke="black" stroke-width="2"/>
<path d="M454.043,324.763h 11.3386" fill="none" stroke="black" stroke-width="2"/>
<path d="M465.382,326.184v -2.84175" fill="none" stroke="black" stroke-width="2"/>
<path d="M454.043,324.763v -100.094" fill="none" stroke="black" stroke-width="2"/>
<path d="M452.622,224.669h 2.84175" fill="none" stroke="black" stroke-width="2"/>
<path d="M454.043,324.763v 36.0084" fill="none" stroke="black" stroke-width="2"/>
<path d="M452.622,360.771h 2.84175" fill="none" stroke="black" stroke-width="2"/>
<path d="M476.72,368.291h -11.3386" fill="none" stroke="black" stroke-width="2"/>
<path d="M465.382,368.291v -1.42088" fill="none" stroke="black" stroke-width="2"/>
<path d="M476.72,368.291h 11.3386" fill="none" stroke="black" stroke-width="2"/>
<path d="M488.059,368.291v -1.42088" fill="none" stroke="black" stroke-width="2"/>
<path d="M476.72,368.291v -49.9647" fill="none" stroke="black" stroke-width="2"/>
<path d="M475.3,318.326h 2.84175" fill="none" stroke="black" stroke-width="2"/>
<path d="M499.398,368.291h -11.3386" fill="none" stroke="black" stroke-width="2"/>
<path d="M488.059,368.291v -1.42088" fill="none" stroke="black" stroke-width="2"/>
<path d="M499.398,368.291h 11.3386" fill="none" stroke="black" stroke-width="2"/>
<path d="M510.736,368.291v -1.42088" fill="none" stroke="black" stroke-width="2"/>
<path d="M499.398,368.291v -49.9647" fill="none" stroke="black" stroke-width="2"/>
<path d="M497.977,318.326h 2.84175" fill="none" stroke="black" stroke-width="2"/>
<g fill="black">
<circle cx="68.5315" cy="281.235" r="2.84175"/>
<circle cx="91.2087" cy="281.235" r="2.84175"/>
<circle cx="113.886" cy="324.763" r="2.84175"/>
<circle cx="136.563" cy="368.291" r="2.84175"/>
<circle cx="159.24" cy="281.235" r="2.84175"/>
<circle cx="181.917" cy="324.763" r="2.84175"/>
<circle cx="204.594" cy="324.763" r="2.84175"/>
<circle cx="227.272" cy="281.235" r="2.84175"/>
<circle cx="249.949" cy="324.763" r="2.84175"/>
<circle cx="272.626" cy="281.235" r="2.84175"/>
<circle cx="295.303" cy="194.179" r="2.84175"/>
<circle cx="317.98" cy="281.235" r="2.84175"/>
<circle cx="340.657" cy="368.291" r="2.84175"/>
<circle cx="363.335" cy="237.707" r="2.84175"/>
<circle cx="386.012" cy="237.707" r="2.84175"/>
<circle cx="408.689" cy="194.179" r="2.84175"/>
<circle cx="431.366" cy="324.763" r="2.84175"/>
<circle cx="454.043" cy="324.763" r="2.84175"/>
<circle cx="476.72" cy="368.291" r="2.84175"/>
<circle cx="499.398" cy="368.291" r="2.84175"/>
</g>
<path d="M57.1929,304.197z" fill="none" stroke="#ff0000" stroke-width="6"/>
<path d="M57.1929,304.197l 22.6772, -1.19737l 22.6772, -1.04284l 22.6772, -0.852563l 22.6772, -0.627353l 22.6772, -0.369062l 22.6772, -0.0825627l 22.6772, 0.229273l 22.6772, 0.604686l 22.6772, 1.04735l 22.6772, 1.49298l 22.6772, 1.77759l 22.6772,
 1.68699l 5.66929, 0.0421726l 5.66929, -0.398938l 5.66929, -1.33049l 2.83465, -1.2634l 2.83465, -1.75557l 2.83465, -2.33056l 2.83465, -3.17894l 2.83465, -4.2757l 2.83465, -5.13331l 2.83465, -5.93494l 1.41732, -3.47941l 1.41732, -4.07747l 1.41732,
 -5.00452l 1.41732, -6.01207l 2.83465, -13.6707l 5.66929, -28.358l 1.41732, -6.8649l 1.41732, -7.2992l 1.41732, -7.40646l 0.708661, -2.93258l 0.708661, -2.04865l 1.41732, -3.2345l 0.708661, -2.30315l 0.708661, -2.87499l 1.41732, -6.10398l 0.708661,
 -2.37043l 0.708661, -1.61425l 0.708661, -0.857331l 0.708661, -0.24433l 1.41732, 0.136254l 1.41732, 1.01691l 1.41732, 1.71483l 1.41732, 1.91451l 1.41732, 2.33311l 0.708661, 1.92876l 0.708661, 2.82941l 0.708661, 3.44533l 0.708661, 3.83153l 1.41732,
 7.65029l 1.41732, 6.82966l 2.83465, 11.414l 1.41732, 6.98763l 1.41732, 7.59879l 2.83465, 15.3971l 2.83465, 14.0854l 1.41732, 6.75187l 1.41732, 6.0935l 1.41732, 5.2906l 1.41732, 4.75849l 2.83465, 8.64602l 1.41732, 3.8482l 1.41732, 3.46537l 1.41732,
 3.03198l 1.41732, 2.62067l 2.83465, 4.47687l 2.83465, 3.94522l 2.83465, 3.30987l 2.83465, 2.7782l 5.66929, 4.58819l 5.66929, 3.6436l 11.3386, 6.54458l 11.3386, 6.89215l 11.3386, 6.4924l 11.3386, 7.1153l 11.3386, 8.2959" fill="none" stroke="#ff0000"
 stroke-width="6"/>
<path d="M57.1929,368.243z" fill="none" stroke="#0000ff" stroke-width="6" stroke-dasharray=" 3, 3"/>
<path d="M57.1929,368.243l 22.6772, -0.0296658l 22.6772, -0.0329394l 22.6772, -0.0296632l 22.6772, -0.0241483l 22.6772, -0.0220812l 22.6772, -0.0325731l 22.6772, -0.0631682l 22.6772, -0.0807733l 22.6772, -0.0873863l 22.6772, -0.15354l 22.6772,
 -0.45009l 11.3386, -0.39359l 11.3386, -0.805194l 5.66929, -0.791896l 5.66929, -1.28084l 2.83465, -0.95695l 2.83465, -1.30472l 2.83465, -1.74794l 2.83465, -2.253l 2.83465, -2.84107l 2.83465, -3.70271l 2.83465, -4.81295l 2.83465, -5.68422l 2.83465,
 -6.49973l 1.41732, -3.76706l 1.41732, -4.36867l 1.41732, -5.2993l 1.41732, -6.31044l 2.83465, -14.2784l 5.66929, -29.6176l 1.41732, -7.1892l 1.41732, -7.62732l 1.41732, -7.73841l 0.708661, -3.10001l 0.708661, -2.21704l 1.41732, -3.57422l 0.708661,
 -2.47448l 0.708661, -3.04731l 1.41732, -6.45158l 0.708661, -2.54572l 0.708661, -1.79054l 0.708661, -1.03462l 0.708661, -0.422628l 1.41732, -0.223375l 1.41732, 0.653207l 1.41732, 1.34703l 1.41732, 1.54259l 1.41732, 1.95703l 0.708661, 1.73915l
 0.708661, 2.63875l 0.708661, 3.25362l 0.708661, 3.63876l 1.41732, 7.26155l 0.708661, 3.38143l 0.708661, 3.05522l 2.83465, 10.615l 1.41732, 6.5816l 1.41732, 7.18836l 2.83465, 14.5629l 2.83465, 13.2332l 1.41732, 6.31896l 1.41732, 5.656l 1.41732,
 4.84847l 1.41732, 4.3117l 1.41732, 4.01519l 1.41732, 3.72314l 1.41732, 3.38723l 1.41732, 2.99962l 1.41732, 2.5614l 1.41732, 2.14523l 2.83465, 3.51127l 2.83465, 2.95977l 2.83465, 2.30429l 2.83465, 1.7522l 2.83465, 1.41479l 2.83465, 1.059l 5.66929,
 1.44406l 11.3386, 1.88038l 11.3386, 1.85778l 11.3386, 1.06695l 11.3386, 1.27682l 11.3386, 2.02134" fill="none" stroke="#0000ff" stroke-width="6" stroke-dasharray=" 3, 3"/>
<path d="M57.1929,304.244z" fill="none" stroke="#00ff00" stroke-width="6" stroke-dasharray=" 3, 3"/>
<path d="M57.1929,304.244l 22.6772, -1.1677l 22.6772, -1.00991l 22.6772, -0.822899l 22.6772, -0.603205l 22.6772, -0.346981l 22.6772, -0.0499896l 22.6772, 0.292441l 22.6772, 0.685459l 22.6772, 1.13474l 11.3386, 0.75512l 11.3386, 0.8914l 11.3386,
 1.03657l 11.3386, 1.19111l 11.3386, 1.3555l 11.3386, 1.53027l 11.3386, 1.71597l 11.3386, 1.91316l 11.3386, 2.12244l 11.3386, 2.34444l 11.3386, 2.57981l 11.3386, 2.82925l 11.3386, 3.09347l 11.3386, 3.37325l 11.3386, 3.66935l 11.3386, 3.98263l
 11.3386, 4.31394l 11.3386, 4.6642l 11.3386, 5.03437l 11.3386, 5.42545l 11.3386, 5.83848l 11.3386, 6.27456" fill="none" stroke="#00ff00" stroke-width="6" stroke-dasharray=" 3, 3"/>
<path d="M57.1929,368.291h 453.543" fill="none" stroke="black"/>
<path d="M57.1929,358.47v 9.82109" fill="none" stroke="black"/>
<path d="M66.3066,363.38v 4.91054" fill="none" stroke="black"/>
<path d="M75.4203,363.38v 4.91054" fill="none" stroke="black"/>
<path d="M84.534,363.38v 4.91054" fill="none" stroke="black"/>
<path d="M93.6477,363.38v 4.91054" fill="none" stroke="black"/>
<path d="M102.761,358.47v 9.82109" fill="none" stroke="black"/>
<path d="M111.875,363.38v 4.91054" fill="none" stroke="black"/>
<path d="M120.989,363.38v 4.91054" fill="none" stroke="black"/>
<path d="M130.103,363.38v 4.91054" fill="none" stroke="black"/>
<path d="M139.216,363.38v 4.91054" fill="none" stroke="black"/>
<path d="M148.33,358.47v 9.82109" fill="none" stroke="black"/>
<path d="M157.444,363.38v 4.91054" fill="none" stroke="black"/>
<path d="M166.557,363.38v 4.91054" fill="none" stroke="black"/>
<path d="M175.671,363.38v 4.91054" fill="none" stroke="black"/>
<path d="M184.785,363.38v 4.91054" fill="none" stroke="black"/>
<path d="M193.898,358.47v 9.82109" fill="none" stroke="black"/>
<path d="M203.012,363.38v 4.91054" fill="none" stroke="black"/>
<path d="M212.126,363.38v 4.91054" fill="none" stroke="black"/>
<path d="M221.24,363.38v 4.91054" fill="none" stroke="black"/>
<path d="M230.353,363.38v 4.91054" fill="none" stroke="black"/>
<path d="M239.467,358.47v 9.82109" fill="none" stroke="black"/>
<path d="M248.581,363.38v 4.91054" fill="none" stroke="black"/>
<path d="M257.694,363.38v 4.91054" fill="none" stroke="black"/>
<path d="M266.808,363.38v 4.91054" fill="none" stroke="black"/>
<path d="M275.922,363.38v 4.91054" fill="none" stroke="black"/>
<path d="M285.035,358.47v 9.82109" fill="none" stroke="black"/>
<path d="M294.149,363.38v 4.91054" fill="none" stroke="black"/>
<path d="M303.263,363.38v 4.91054" fill="none" stroke="black"/>
<path d="M312.377,363.38v 4.91054" fill="none" stroke="black"/>
<path d="M321.49,363.38v 4.91054" fill="none" stroke="black"/>
<path d="M330.604,358.47v 9.82109" fill="none" stroke="black"/>
<path d="M339.718,363.38v 4.91054" fill="none" stroke="black"/>
<path d="M348.831,363.38v 4.91054" fill="none" stroke="black"/>
<path d="M357.945,363.38v 4.91054" fill="none" stroke="black"/>
<path d="M367.059,363.38v 4.91054" fill="none" stroke="black"/>
<path d="M376.172,358.47v 9.82109" fill="none" stroke="black"/>
<path d="M385.286,363.38v 4.91054" fill="none" stroke="black"/>
<path d="M394.4,363.38v 4.91054" fill="none" stroke="black"/>
<path d="M403.514,363.38v 4.91054" fill="none" stroke="black"/>
<path d="M412.627,363.38v 4.91054" fill="none" stroke="black"/>
<path d="M421.741,358.47v 9.82109" fill="none" stroke="black"/>
<path d="M430.855,363.38v 4.91054" fill="none" stroke="black"/>
<path d="M439.968,363.38v 4.91054" fill="none" stroke="black"/>
<path d="M449.082,363.38v 4.91054" fill="none" stroke="black"/>
<path d="M458.196,363.38v 4.91054" fill="none" stroke="black"/>
<path d="M467.309,358.47v 9.82109" fill="none" stroke="black"/>
<path d="M467.309,358.47v 9.82109" fill="none" stroke="black"/>
<path d="M476.423,363.38v 4.91054" fill="none" stroke="black"/>
<path d="M485.537,363.38v 4.91054" fill="none" stroke="black"/>
<path d="M494.651,363.38v 4.91054" fill="none" stroke="black"/>
<path d="M503.764,363.38v 4.91054" fill="none" stroke="black"/>
<path d="M57.1929,368.291v -327.37" fill="none" stroke="black"/>
<path d="M70.7992,368.291h -13.6063" fill="none" stroke="black"/>
<path d="M63.9961,359.585h -6.80315" fill="none" stroke="black"/>
<path d="M63.9961,350.88h -6.80315" fill="none" stroke="black"/>
<path d="M63.9961,342.174h -6.80315" fill="none" stroke="black"/>
<path d="M63.9961,333.468h -6.80315" fill="none" stroke="black"/>
<path d="M70.7992,324.763h -13.6063" fill="none" stroke="black"/>
<path d="M63.9961,316.057h -6.80315" fill="none" stroke="black"/>
<path d="M63.9961,307.352h -6.80315" fill="none" stroke="black"/>
<path d="M63.9961,298.646h -6.80315" fill="none" stroke="black"/>
<path d="M63.9961,289.94h -6.80315" fill="none" stroke="black"/>
<path d="M70.7992,281.235h -13.6063" fill="none" stroke="black"/>
<path d="M63.9961,272.529h -6.80315" fill="none" stroke="black"/>
<path d="M63.9961,263.824h -6.80315" fill="none" stroke="black"/>
<path d="M63.9961,255.118h -6.80315" fill="none" stroke="black"/>
<path d="M63.9961,246.412h -6.80315" fill="none" stroke="black"/>
<path d="M70.7992,237.707h -13.6063" fill="none" stroke="black"/>
<path d="M63.9961,229.001h -6.80315" fill="none" stroke="black"/>
<path d="M63.9961,220.295h -6.80315" fill="none" stroke="black"/>
<path d="M63.9961,211.59h -6.80315" fill="none" stroke="black"/>
<path d="M63.9961,202.884h -6.80315" fill="none" stroke="black"/>
<path d="M70.7992,194.179h -13.6063" fill="none" stroke="black"/>
<path d="M63.9961,185.473h -6.80315" fill="none" stroke="black"/>
<path d="M63.9961,176.767h -6.80315" fill="none" stroke="black"/>
<path d="M63.9961,168.062h -6.80315" fill="none" stroke="black"/>
<path d="M63.9961,159.356h -6.80315" fill="none" stroke="black"/>
<path d="M70.7992,150.651h -13.6063" fill="none" stroke="black"/>
<path d="M63.9961,141.945h -6.80315" fill="none" stroke="black"/>
<path d="M63.9961,133.239h -6.80315" fill="none" stroke="black"/>
<path d="M63.9961,124.534h -6.80315" fill="none" stroke="black"/>
<path d="M63.9961,115.828h -6.80315" fill="none" stroke="black"/>
<path d="M70.7992,107.123h -13.6063" fill="none" stroke="black"/>
<path d="M63.9961,98.417h -6.80315" fill="none" stroke="black"/>
<path d="M63.9961,89.7114h -6.80315" fill="none" stroke="black"/>
<path d="M63.9961,81.0058h -6.80315" fill="none" stroke="black"/>
<path d="M63.9961,72.3002h -6.80315" fill="none" stroke="black"/>
<path d="M70.7992,63.5946h -13.6063" fill="none" stroke="black"/>
<path d="M70.7992,63.5946h -13.6063" fill="none" stroke="black"/>
<path d="M63.9961,54.889h -6.80315" fill="none" stroke="black"/>
<path d="M63.9961,46.1833h -6.80315" fill="none" stroke="black"/>
<rect x="85.5394" y="49.1054" width="130.394" height="53.1976" fill="white"/>
<text xml:space="preserve" x="90.7256" y="83.1212" fill="black" font-size="20.2879" font-family="Helvetica" font-weight="bold">E=4.600 GeV</text></svg>
