<?xml version="1.0" standalone="no"?>
<svg width="567.429" height="407.891" viewBox="0 0 567.429 407.891" xmlns="http://www.w3.org/2000/svg" shape-rendering="crispEdges">
<title>
pic_fitInclusive4600.svg
</title>
<desc>
Creator: ROOT Version 6.20/06
CreationDate: Mon Apr 26 14:22:35 2021</desc>
<defs>
</defs>
<rect x="0.5" y="0" width="566.929" height="407.391" fill="white"/>
<rect x="57.1929" y="40.7391" width="453.543" height="325.913" fill="white"/>
<rect x="57.1929" y="40.7391" width="453.543" height="325.913" fill="none" stroke="black"/>
<rect x="57.1929" y="40.7391" width="453.543" height="325.913" fill="white"/>
<rect x="57.1929" y="40.7391" width="453.543" height="325.913" fill="none" stroke="black"/>
<path d="M57.1929,366.652h 453.543" fill="none" stroke="black"/>
<path d="M57.1929,356.875v 9.77739" fill="none" stroke="black"/>
<path d="M66.3066,361.763v 4.8887" fill="none" stroke="black"/>
<path d="M75.4203,361.763v 4.8887" fill="none" stroke="black"/>
<path d="M84.534,361.763v 4.8887" fill="none" stroke="black"/>
<path d="M93.6477,361.763v 4.8887" fill="none" stroke="black"/>
<path d="M102.761,356.875v 9.77739" fill="none" stroke="black"/>
<path d="M111.875,361.763v 4.8887" fill="none" stroke="black"/>
<path d="M120.989,361.763v 4.8887" fill="none" stroke="black"/>
<path d="M130.103,361.763v 4.8887" fill="none" stroke="black"/>
<path d="M139.216,361.763v 4.8887" fill="none" stroke="black"/>
<path d="M148.33,356.875v 9.77739" fill="none" stroke="black"/>
<path d="M157.444,361.763v 4.8887" fill="none" stroke="black"/>
<path d="M166.557,361.763v 4.8887" fill="none" stroke="black"/>
<path d="M175.671,361.763v 4.8887" fill="none" stroke="black"/>
<path d="M184.785,361.763v 4.8887" fill="none" stroke="black"/>
<path d="M193.898,356.875v 9.77739" fill="none" stroke="black"/>
<path d="M203.012,361.763v 4.8887" fill="none" stroke="black"/>
<path d="M212.126,361.763v 4.8887" fill="none" stroke="black"/>
<path d="M221.24,361.763v 4.8887" fill="none" stroke="black"/>
<path d="M230.353,361.763v 4.8887" fill="none" stroke="black"/>
<path d="M239.467,356.875v 9.77739" fill="none" stroke="black"/>
<path d="M248.581,361.763v 4.8887" fill="none" stroke="black"/>
<path d="M257.694,361.763v 4.8887" fill="none" stroke="black"/>
<path d="M266.808,361.763v 4.8887" fill="none" stroke="black"/>
<path d="M275.922,361.763v 4.8887" fill="none" stroke="black"/>
<path d="M285.035,356.875v 9.77739" fill="none" stroke="black"/>
<path d="M294.149,361.763v 4.8887" fill="none" stroke="black"/>
<path d="M303.263,361.763v 4.8887" fill="none" stroke="black"/>
<path d="M312.377,361.763v 4.8887" fill="none" stroke="black"/>
<path d="M321.49,361.763v 4.8887" fill="none" stroke="black"/>
<path d="M330.604,356.875v 9.77739" fill="none" stroke="black"/>
<path d="M339.718,361.763v 4.8887" fill="none" stroke="black"/>
<path d="M348.831,361.763v 4.8887" fill="none" stroke="black"/>
<path d="M357.945,361.763v 4.8887" fill="none" stroke="black"/>
<path d="M367.059,361.763v 4.8887" fill="none" stroke="black"/>
<path d="M376.172,356.875v 9.77739" fill="none" stroke="black"/>
<path d="M385.286,361.763v 4.8887" fill="none" stroke="black"/>
<path d="M394.4,361.763v 4.8887" fill="none" stroke="black"/>
<path d="M403.514,361.763v 4.8887" fill="none" stroke="black"/>
<path d="M412.627,361.763v 4.8887" fill="none" stroke="black"/>
<path d="M421.741,356.875v 9.77739" fill="none" stroke="black"/>
<path d="M430.855,361.763v 4.8887" fill="none" stroke="black"/>
<path d="M439.968,361.763v 4.8887" fill="none" stroke="black"/>
<path d="M449.082,361.763v 4.8887" fill="none" stroke="black"/>
<path d="M458.196,361.763v 4.8887" fill="none" stroke="black"/>
<path d="M467.309,356.875v 9.77739" fill="none" stroke="black"/>
<path d="M467.309,356.875v 9.77739" fill="none" stroke="black"/>
<path d="M476.423,361.763v 4.8887" fill="none" stroke="black"/>
<path d="M485.537,361.763v 4.8887" fill="none" stroke="black"/>
<path d="M494.651,361.763v 4.8887" fill="none" stroke="black"/>
<path d="M503.764,361.763v 4.8887" fill="none" stroke="black"/>
<text xml:space="preserve" x="43.9456" y="379.615" fill="black" font-size="13.5814" font-family="Helvetica">2.25</text>
<text xml:space="preserve" x="85.2545" y="379.615" fill="black" font-size="13.5814" font-family="Helvetica">2.255</text>
<text xml:space="preserve" x="135.11" y="379.615" fill="black" font-size="13.5814" font-family="Helvetica">2.26</text>
<text xml:space="preserve" x="176.419" y="379.615" fill="black" font-size="13.5814" font-family="Helvetica">2.265</text>
<text xml:space="preserve" x="226.275" y="379.615" fill="black" font-size="13.5814" font-family="Helvetica">2.27</text>
<text xml:space="preserve" x="267.583" y="379.615" fill="black" font-size="13.5814" font-family="Helvetica">2.275</text>
<text xml:space="preserve" x="317.439" y="379.615" fill="black" font-size="13.5814" font-family="Helvetica">2.28</text>
<text xml:space="preserve" x="358.748" y="379.615" fill="black" font-size="13.5814" font-family="Helvetica">2.285</text>
<text xml:space="preserve" x="408.604" y="379.615" fill="black" font-size="13.5814" font-family="Helvetica">2.29</text>
<text xml:space="preserve" x="449.912" y="379.615" fill="black" font-size="13.5814" font-family="Helvetica">2.295</text>
<text xml:space="preserve" x="506.89" y="393.147" fill="black" font-size="13.5814" font-family="Helvetica">)</text>
<text xml:space="preserve" x="501.905" y="386.737" fill="black" font-size="9.22091" font-family="Helvetica">2</text>
<text xml:space="preserve" x="457.035" y="393.147" fill="black" font-size="13.5814" font-family="Helvetica"> (GeV/c</text>
<text xml:space="preserve" x="445.639" y="397.42" fill="black" font-size="9.22091" font-family="Helvetica">BC</text>
<text xml:space="preserve" x="434.956" y="393.147" fill="black" font-size="13.5814" font-family="Helvetica">M</text>
<path d="M57.1929,366.652v -325.913" fill="none" stroke="black"/>
<path d="M70.7992,366.652h -13.6063" fill="none" stroke="black"/>
<path d="M63.9961,352.242h -6.80315" fill="none" stroke="black"/>
<path d="M63.9961,337.833h -6.80315" fill="none" stroke="black"/>
<path d="M63.9961,323.423h -6.80315" fill="none" stroke="black"/>
<path d="M70.7992,309.013h -13.6063" fill="none" stroke="black"/>
<path d="M63.9961,294.604h -6.80315" fill="none" stroke="black"/>
<path d="M63.9961,280.194h -6.80315" fill="none" stroke="black"/>
<path d="M63.9961,265.784h -6.80315" fill="none" stroke="black"/>
<path d="M70.7992,251.374h -13.6063" fill="none" stroke="black"/>
<path d="M63.9961,236.965h -6.80315" fill="none" stroke="black"/>
<path d="M63.9961,222.555h -6.80315" fill="none" stroke="black"/>
<path d="M63.9961,208.145h -6.80315" fill="none" stroke="black"/>
<path d="M70.7992,193.736h -13.6063" fill="none" stroke="black"/>
<path d="M63.9961,179.326h -6.80315" fill="none" stroke="black"/>
<path d="M63.9961,164.916h -6.80315" fill="none" stroke="black"/>
<path d="M63.9961,150.506h -6.80315" fill="none" stroke="black"/>
<path d="M70.7992,136.097h -13.6063" fill="none" stroke="black"/>
<path d="M63.9961,121.687h -6.80315" fill="none" stroke="black"/>
<path d="M63.9961,107.277h -6.80315" fill="none" stroke="black"/>
<path d="M63.9961,92.8676h -6.80315" fill="none" stroke="black"/>
<path d="M70.7992,78.4579h -13.6063" fill="none" stroke="black"/>
<path d="M70.7992,78.4579h -13.6063" fill="none" stroke="black"/>
<path d="M63.9961,64.0481h -6.80315" fill="none" stroke="black"/>
<path d="M63.9961,49.6384h -6.80315" fill="none" stroke="black"/>
<text xml:space="preserve" x="46.7945" y="371.068" fill="black" font-size="13.5814" font-family="Helvetica">0</text>
<text xml:space="preserve" x="46.7945" y="314.09" fill="black" font-size="13.5814" font-family="Helvetica">2</text>
<text xml:space="preserve" x="46.7945" y="256.4" fill="black" font-size="13.5814" font-family="Helvetica">4</text>
<text xml:space="preserve" x="46.7945" y="198.71" fill="black" font-size="13.5814" font-family="Helvetica">6</text>
<text xml:space="preserve" x="46.7945" y="141.02" fill="black" font-size="13.5814" font-family="Helvetica">8</text>
<text xml:space="preserve" x="38.96" y="83.33" fill="black" font-size="13.5814" font-family="Helvetica">10</text>
<g transform="rotate(-90,26.8522,44.1578)">
<text xml:space="preserve" x="26.8522" y="44.1578" fill="black" font-size="13.5814" font-family="Helvetica">)</text>
</g>
<g transform="rotate(-90,20.4422,49.1434)">
<text xml:space="preserve" x="20.4422" y="49.1434" fill="black" font-size="9.22091" font-family="Helvetica">2</text>
</g>
<g transform="rotate(-90,26.8522,163.811)">
<text xml:space="preserve" x="26.8522" y="163.811" fill="black" font-size="13.5814" font-family="Helvetica">Events/(  2.0 MeV/c</text>
</g>
<path d="M66.2638,280.194h -9.07087" fill="none" stroke="black" stroke-width="2"/>
<path d="M57.1929,281.618v -2.84889" fill="none" stroke="black" stroke-width="2"/>
<path d="M66.2638,280.194h 9.07087" fill="none" stroke="black" stroke-width="2"/>
<path d="M75.3346,281.618v -2.84889" fill="none" stroke="black" stroke-width="2"/>
<path d="M66.2638,280.194v -84.1005" fill="none" stroke="black" stroke-width="2"/>
<path d="M64.8393,196.093h 2.84889" fill="none" stroke="black" stroke-width="2"/>
<path d="M66.2638,280.194v 47.0536" fill="none" stroke="black" stroke-width="2"/>
<path d="M64.8393,327.247h 2.84889" fill="none" stroke="black" stroke-width="2"/>
<path d="M84.4055,337.833h -9.07087" fill="none" stroke="black" stroke-width="2"/>
<path d="M75.3346,339.257v -2.84889" fill="none" stroke="black" stroke-width="2"/>
<path d="M84.4055,337.833h 9.07087" fill="none" stroke="black" stroke-width="2"/>
<path d="M93.4764,339.257v -2.84889" fill="none" stroke="black" stroke-width="2"/>
<path d="M84.4055,337.833v -66.271" fill="none" stroke="black" stroke-width="2"/>
<path d="M82.9811,271.562h 2.84889" fill="none" stroke="black" stroke-width="2"/>
<path d="M84.4055,337.833v 23.8408" fill="none" stroke="black" stroke-width="2"/>
<path d="M82.9811,361.673h 2.84889" fill="none" stroke="black" stroke-width="2"/>
<path d="M102.547,309.013h -9.07087" fill="none" stroke="black" stroke-width="2"/>
<path d="M93.4764,310.438v -2.84889" fill="none" stroke="black" stroke-width="2"/>
<path d="M102.547,309.013h 9.07087" fill="none" stroke="black" stroke-width="2"/>
<path d="M111.618,310.438v -2.84889" fill="none" stroke="black" stroke-width="2"/>
<path d="M102.547,309.013v -76.0216" fill="none" stroke="black" stroke-width="2"/>
<path d="M101.123,232.992h 2.84889" fill="none" stroke="black" stroke-width="2"/>
<path d="M102.547,309.013v 37.2294" fill="none" stroke="black" stroke-width="2"/>
<path d="M101.123,346.243h 2.84889" fill="none" stroke="black" stroke-width="2"/>
<path d="M120.689,337.833h -9.07087" fill="none" stroke="black" stroke-width="2"/>
<path d="M111.618,339.257v -2.84889" fill="none" stroke="black" stroke-width="2"/>
<path d="M120.689,337.833h 9.07087" fill="none" stroke="black" stroke-width="2"/>
<path d="M129.76,339.257v -2.84889" fill="none" stroke="black" stroke-width="2"/>
<path d="M120.689,337.833v -66.271" fill="none" stroke="black" stroke-width="2"/>
<path d="M119.265,271.562h 2.84889" fill="none" stroke="black" stroke-width="2"/>
<path d="M120.689,337.833v 23.8408" fill="none" stroke="black" stroke-width="2"/>
<path d="M119.265,361.673h 2.84889" fill="none" stroke="black" stroke-width="2"/>
<path d="M138.831,337.833h -9.07087" fill="none" stroke="black" stroke-width="2"/>
<path d="M129.76,339.257v -2.84889" fill="none" stroke="black" stroke-width="2"/>
<path d="M138.831,337.833h 9.07087" fill="none" stroke="black" stroke-width="2"/>
<path d="M147.902,339.257v -2.84889" fill="none" stroke="black" stroke-width="2"/>
<path d="M138.831,337.833v -66.271" fill="none" stroke="black" stroke-width="2"/>
<path d="M137.406,271.562h 2.84889" fill="none" stroke="black" stroke-width="2"/>
<path d="M138.831,337.833v 23.8408" fill="none" stroke="black" stroke-width="2"/>
<path d="M137.406,361.673h 2.84889" fill="none" stroke="black" stroke-width="2"/>
<path d="M156.972,309.013h -9.07087" fill="none" stroke="black" stroke-width="2"/>
<path d="M147.902,310.438v -2.84889" fill="none" stroke="black" stroke-width="2"/>
<path d="M156.972,309.013h 9.07087" fill="none" stroke="black" stroke-width="2"/>
<path d="M166.043,310.438v -2.84889" fill="none" stroke="black" stroke-width="2"/>
<path d="M156.972,309.013v -76.0216" fill="none" stroke="black" stroke-width="2"/>
<path d="M155.548,232.992h 2.84889" fill="none" stroke="black" stroke-width="2"/>
<path d="M156.972,309.013v 37.2294" fill="none" stroke="black" stroke-width="2"/>
<path d="M155.548,346.243h 2.84889" fill="none" stroke="black" stroke-width="2"/>
<path d="M175.114,280.194h -9.07087" fill="none" stroke="black" stroke-width="2"/>
<path d="M166.043,281.618v -2.84889" fill="none" stroke="black" stroke-width="2"/>
<path d="M175.114,280.194h 9.07087" fill="none" stroke="black" stroke-width="2"/>
<path d="M184.185,281.618v -2.84889" fill="none" stroke="black" stroke-width="2"/>
<path d="M175.114,280.194v -84.1005" fill="none" stroke="black" stroke-width="2"/>
<path d="M173.69,196.093h 2.84889" fill="none" stroke="black" stroke-width="2"/>
<path d="M175.114,280.194v 47.0536" fill="none" stroke="black" stroke-width="2"/>
<path d="M173.69,327.247h 2.84889" fill="none" stroke="black" stroke-width="2"/>
<path d="M193.256,280.194h -9.07087" fill="none" stroke="black" stroke-width="2"/>
<path d="M184.185,281.618v -2.84889" fill="none" stroke="black" stroke-width="2"/>
<path d="M193.256,280.194h 9.07087" fill="none" stroke="black" stroke-width="2"/>
<path d="M202.327,281.618v -2.84889" fill="none" stroke="black" stroke-width="2"/>
<path d="M193.256,280.194v -84.1005" fill="none" stroke="black" stroke-width="2"/>
<path d="M191.831,196.093h 2.84889" fill="none" stroke="black" stroke-width="2"/>
<path d="M193.256,280.194v 47.0536" fill="none" stroke="black" stroke-width="2"/>
<path d="M191.831,327.247h 2.84889" fill="none" stroke="black" stroke-width="2"/>
<path d="M211.398,366.652h -9.07087" fill="none" stroke="black" stroke-width="2"/>
<path d="M202.327,366.652v -1.42445" fill="none" stroke="black" stroke-width="2"/>
<path d="M211.398,366.652h 9.07087" fill="none" stroke="black" stroke-width="2"/>
<path d="M220.469,366.652v -1.42445" fill="none" stroke="black" stroke-width="2"/>
<path d="M211.398,366.652v -33.0811" fill="none" stroke="black" stroke-width="2"/>
<path d="M209.973,333.571h 2.84889" fill="none" stroke="black" stroke-width="2"/>
<path d="M229.539,309.013h -9.07087" fill="none" stroke="black" stroke-width="2"/>
<path d="M220.469,310.438v -2.84889" fill="none" stroke="black" stroke-width="2"/>
<path d="M229.539,309.013h 9.07087" fill="none" stroke="black" stroke-width="2"/>
<path d="M238.61,310.438v -2.84889" fill="none" stroke="black" stroke-width="2"/>
<path d="M229.539,309.013v -76.0216" fill="none" stroke="black" stroke-width="2"/>
<path d="M228.115,232.992h 2.84889" fill="none" stroke="black" stroke-width="2"/>
<path d="M229.539,309.013v 37.2294" fill="none" stroke="black" stroke-width="2"/>
<path d="M228.115,346.243h 2.84889" fill="none" stroke="black" stroke-width="2"/>
<path d="M247.681,337.833h -9.07087" fill="none" stroke="black" stroke-width="2"/>
<path d="M238.61,339.257v -2.84889" fill="none" stroke="black" stroke-width="2"/>
<path d="M247.681,337.833h 9.07087" fill="none" stroke="black" stroke-width="2"/>
<path d="M256.752,339.257v -2.84889" fill="none" stroke="black" stroke-width="2"/>
<path d="M247.681,337.833v -66.271" fill="none" stroke="black" stroke-width="2"/>
<path d="M246.257,271.562h 2.84889" fill="none" stroke="black" stroke-width="2"/>
<path d="M247.681,337.833v 23.8408" fill="none" stroke="black" stroke-width="2"/>
<path d="M246.257,361.673h 2.84889" fill="none" stroke="black" stroke-width="2"/>
<path d="M265.823,366.652h -9.07087" fill="none" stroke="black" stroke-width="2"/>
<path d="M256.752,366.652v -1.42445" fill="none" stroke="black" stroke-width="2"/>
<path d="M265.823,366.652h 9.07087" fill="none" stroke="black" stroke-width="2"/>
<path d="M274.894,366.652v -1.42445" fill="none" stroke="black" stroke-width="2"/>
<path d="M265.823,366.652v -33.0811" fill="none" stroke="black" stroke-width="2"/>
<path d="M264.398,333.571h 2.84889" fill="none" stroke="black" stroke-width="2"/>
<path d="M283.965,280.194h -9.07087" fill="none" stroke="black" stroke-width="2"/>
<path d="M274.894,281.618v -2.84889" fill="none" stroke="black" stroke-width="2"/>
<path d="M283.965,280.194h 9.07087" fill="none" stroke="black" stroke-width="2"/>
<path d="M293.035,281.618v -2.84889" fill="none" stroke="black" stroke-width="2"/>
<path d="M283.965,280.194v -84.1005" fill="none" stroke="black" stroke-width="2"/>
<path d="M282.54,196.093h 2.84889" fill="none" stroke="black" stroke-width="2"/>
<path d="M283.965,280.194v 47.0536" fill="none" stroke="black" stroke-width="2"/>
<path d="M282.54,327.247h 2.84889" fill="none" stroke="black" stroke-width="2"/>
<path d="M302.106,280.194h -9.07087" fill="none" stroke="black" stroke-width="2"/>
<path d="M293.035,281.618v -2.84889" fill="none" stroke="black" stroke-width="2"/>
<path d="M302.106,280.194h 9.07087" fill="none" stroke="black" stroke-width="2"/>
<path d="M311.177,281.618v -2.84889" fill="none" stroke="black" stroke-width="2"/>
<path d="M302.106,280.194v -84.1005" fill="none" stroke="black" stroke-width="2"/>
<path d="M300.682,196.093h 2.84889" fill="none" stroke="black" stroke-width="2"/>
<path d="M302.106,280.194v 47.0536" fill="none" stroke="black" stroke-width="2"/>
<path d="M300.682,327.247h 2.84889" fill="none" stroke="black" stroke-width="2"/>
<path d="M320.248,309.013h -9.07087" fill="none" stroke="black" stroke-width="2"/>
<path d="M311.177,310.438v -2.84889" fill="none" stroke="black" stroke-width="2"/>
<path d="M320.248,309.013h 9.07087" fill="none" stroke="black" stroke-width="2"/>
<path d="M329.319,310.438v -2.84889" fill="none" stroke="black" stroke-width="2"/>
<path d="M320.248,309.013v -76.0216" fill="none" stroke="black" stroke-width="2"/>
<path d="M318.824,232.992h 2.84889" fill="none" stroke="black" stroke-width="2"/>
<path d="M320.248,309.013v 37.2294" fill="none" stroke="black" stroke-width="2"/>
<path d="M318.824,346.243h 2.84889" fill="none" stroke="black" stroke-width="2"/>
<path d="M338.39,280.194h -9.07087" fill="none" stroke="black" stroke-width="2"/>
<path d="M329.319,281.618v -2.84889" fill="none" stroke="black" stroke-width="2"/>
<path d="M338.39,280.194h 9.07087" fill="none" stroke="black" stroke-width="2"/>
<path d="M347.461,281.618v -2.84889" fill="none" stroke="black" stroke-width="2"/>
<path d="M338.39,280.194v -84.1005" fill="none" stroke="black" stroke-width="2"/>
<path d="M336.965,196.093h 2.84889" fill="none" stroke="black" stroke-width="2"/>
<path d="M338.39,280.194v 47.0536" fill="none" stroke="black" stroke-width="2"/>
<path d="M336.965,327.247h 2.84889" fill="none" stroke="black" stroke-width="2"/>
<path d="M356.531,309.013h -9.07087" fill="none" stroke="black" stroke-width="2"/>
<path d="M347.461,310.438v -2.84889" fill="none" stroke="black" stroke-width="2"/>
<path d="M356.531,309.013h 9.07087" fill="none" stroke="black" stroke-width="2"/>
<path d="M365.602,310.438v -2.84889" fill="none" stroke="black" stroke-width="2"/>
<path d="M356.531,309.013v -76.0216" fill="none" stroke="black" stroke-width="2"/>
<path d="M355.107,232.992h 2.84889" fill="none" stroke="black" stroke-width="2"/>
<path d="M356.531,309.013v 37.2294" fill="none" stroke="black" stroke-width="2"/>
<path d="M355.107,346.243h 2.84889" fill="none" stroke="black" stroke-width="2"/>
<path d="M374.673,193.736h -9.07087" fill="none" stroke="black" stroke-width="2"/>
<path d="M365.602,195.16v -2.84889" fill="none" stroke="black" stroke-width="2"/>
<path d="M374.673,193.736h 9.07087" fill="none" stroke="black" stroke-width="2"/>
<path d="M383.744,195.16v -2.84889" fill="none" stroke="black" stroke-width="2"/>
<path d="M374.673,193.736v -103.279" fill="none" stroke="black" stroke-width="2"/>
<path d="M373.249,90.4571h 2.84889" fill="none" stroke="black" stroke-width="2"/>
<path d="M374.673,193.736v 68.5883" fill="none" stroke="black" stroke-width="2"/>
<path d="M373.249,262.324h 2.84889" fill="none" stroke="black" stroke-width="2"/>
<path d="M392.815,164.916h -9.07087" fill="none" stroke="black" stroke-width="2"/>
<path d="M383.744,166.341v -2.84889" fill="none" stroke="black" stroke-width="2"/>
<path d="M392.815,164.916h 9.07087" fill="none" stroke="black" stroke-width="2"/>
<path d="M401.886,166.341v -2.84889" fill="none" stroke="black" stroke-width="2"/>
<path d="M392.815,164.916v -108.657" fill="none" stroke="black" stroke-width="2"/>
<path d="M391.391,56.2588h 2.84889" fill="none" stroke="black" stroke-width="2"/>
<path d="M392.815,164.916v 74.3965" fill="none" stroke="black" stroke-width="2"/>
<path d="M391.391,239.313h 2.84889" fill="none" stroke="black" stroke-width="2"/>
<path d="M410.957,280.194h -9.07087" fill="none" stroke="black" stroke-width="2"/>
<path d="M401.886,281.618v -2.84889" fill="none" stroke="black" stroke-width="2"/>
<path d="M410.957,280.194h 9.07087" fill="none" stroke="black" stroke-width="2"/>
<path d="M420.028,281.618v -2.84889" fill="none" stroke="black" stroke-width="2"/>
<path d="M410.957,280.194v -84.1005" fill="none" stroke="black" stroke-width="2"/>
<path d="M409.532,196.093h 2.84889" fill="none" stroke="black" stroke-width="2"/>
<path d="M410.957,280.194v 47.0536" fill="none" stroke="black" stroke-width="2"/>
<path d="M409.532,327.247h 2.84889" fill="none" stroke="black" stroke-width="2"/>
<path d="M429.098,309.013h -9.07087" fill="none" stroke="black" stroke-width="2"/>
<path d="M420.028,310.438v -2.84889" fill="none" stroke="black" stroke-width="2"/>
<path d="M429.098,309.013h 9.07087" fill="none" stroke="black" stroke-width="2"/>
<path d="M438.169,310.438v -2.84889" fill="none" stroke="black" stroke-width="2"/>
<path d="M429.098,309.013v -76.0216" fill="none" stroke="black" stroke-width="2"/>
<path d="M427.674,232.992h 2.84889" fill="none" stroke="black" stroke-width="2"/>
<path d="M429.098,309.013v 37.2294" fill="none" stroke="black" stroke-width="2"/>
<path d="M427.674,346.243h 2.84889" fill="none" stroke="black" stroke-width="2"/>
<path d="M447.24,366.652h -9.07087" fill="none" stroke="black" stroke-width="2"/>
<path d="M438.169,366.652v -1.42445" fill="none" stroke="black" stroke-width="2"/>
<path d="M447.24,366.652h 9.07087" fill="none" stroke="black" stroke-width="2"/>
<path d="M456.311,366.652v -1.42445" fill="none" stroke="black" stroke-width="2"/>
<path d="M447.24,366.652v -33.0811" fill="none" stroke="black" stroke-width="2"/>
<path d="M445.816,333.571h 2.84889" fill="none" stroke="black" stroke-width="2"/>
<path d="M465.382,337.833h -9.07087" fill="none" stroke="black" stroke-width="2"/>
<path d="M456.311,339.257v -2.84889" fill="none" stroke="black" stroke-width="2"/>
<path d="M465.382,337.833h 9.07087" fill="none" stroke="black" stroke-width="2"/>
<path d="M474.453,339.257v -2.84889" fill="none" stroke="black" stroke-width="2"/>
<path d="M465.382,337.833v -66.271" fill="none" stroke="black" stroke-width="2"/>
<path d="M463.957,271.562h 2.84889" fill="none" stroke="black" stroke-width="2"/>
<path d="M465.382,337.833v 23.8408" fill="none" stroke="black" stroke-width="2"/>
<path d="M463.957,361.673h 2.84889" fill="none" stroke="black" stroke-width="2"/>
<path d="M483.524,337.833h -9.07087" fill="none" stroke="black" stroke-width="2"/>
<path d="M474.453,339.257v -2.84889" fill="none" stroke="black" stroke-width="2"/>
<path d="M483.524,337.833h 9.07087" fill="none" stroke="black" stroke-width="2"/>
<path d="M492.594,339.257v -2.84889" fill="none" stroke="black" stroke-width="2"/>
<path d="M483.524,337.833v -66.271" fill="none" stroke="black" stroke-width="2"/>
<path d="M482.099,271.562h 2.84889" fill="none" stroke="black" stroke-width="2"/>
<path d="M483.524,337.833v 23.8408" fill="none" stroke="black" stroke-width="2"/>
<path d="M482.099,361.673h 2.84889" fill="none" stroke="black" stroke-width="2"/>
<path d="M501.665,366.652h -9.07087" fill="none" stroke="black" stroke-width="2"/>
<path d="M492.594,366.652v -1.42445" fill="none" stroke="black" stroke-width="2"/>
<path d="M501.665,366.652h 9.07087" fill="none" stroke="black" stroke-width="2"/>
<path d="M510.736,366.652v -1.42445" fill="none" stroke="black" stroke-width="2"/>
<path d="M501.665,366.652v -33.0811" fill="none" stroke="black" stroke-width="2"/>
<path d="M500.241,333.571h 2.84889" fill="none" stroke="black" stroke-width="2"/>
<g fill="black">
<circle cx="66.2638" cy="280.194" r="2.84889"/>
<circle cx="84.4055" cy="337.833" r="2.84889"/>
<circle cx="102.547" cy="309.013" r="2.84889"/>
<circle cx="120.689" cy="337.833" r="2.84889"/>
<circle cx="138.831" cy="337.833" r="2.84889"/>
<circle cx="156.972" cy="309.013" r="2.84889"/>
<circle cx="175.114" cy="280.194" r="2.84889"/>
<circle cx="193.256" cy="280.194" r="2.84889"/>
<circle cx="211.398" cy="366.652" r="2.84889"/>
<circle cx="229.539" cy="309.013" r="2.84889"/>
<circle cx="247.681" cy="337.833" r="2.84889"/>
<circle cx="265.823" cy="366.652" r="2.84889"/>
<circle cx="283.965" cy="280.194" r="2.84889"/>
<circle cx="302.106" cy="280.194" r="2.84889"/>
<circle cx="320.248" cy="309.013" r="2.84889"/>
<circle cx="338.39" cy="280.194" r="2.84889"/>
<circle cx="356.531" cy="309.013" r="2.84889"/>
<circle cx="374.673" cy="193.736" r="2.84889"/>
<circle cx="392.815" cy="164.916" r="2.84889"/>
<circle cx="410.957" cy="280.194" r="2.84889"/>
<circle cx="429.098" cy="309.013" r="2.84889"/>
<circle cx="447.24" cy="366.652" r="2.84889"/>
<circle cx="465.382" cy="337.833" r="2.84889"/>
<circle cx="483.524" cy="337.833" r="2.84889"/>
<circle cx="501.665" cy="366.652" r="2.84889"/>
</g>
<path d="M57.1929,330.148z" fill="none" stroke="#ff0000" stroke-width="6"/>
<path d="M57.1929,330.148l 18.1417, -2.71618l 18.1417, -2.84923l 18.1417, -2.9753l 18.1417, -3.09076l 18.1417, -3.19119l 18.1417, -3.27125l 18.1417, -3.3245l 18.1417, -3.34324l 18.1417, -3.31827l 18.1417, -3.23866l 18.1417, -3.09142l 18.1417,
 -2.86122l 18.1417, -2.52994l 18.1417, -2.07627l 9.07087, -0.823018l 9.07087, -0.652116l 9.07087, -0.458156l 9.07087, -0.238991l 9.07087, 0.00769893l 9.07087, 0.284423l 9.07087, 0.593894l 9.07087, 0.939042l 9.07087, 1.32303l 9.07087, 1.74928l
 9.07087, 2.22148l 9.07087, 2.74361l 9.07087, 3.31997l 4.53543, 1.89432l 4.53543, 2.06087l 4.53543, 2.23555l 4.53543, 2.41872l 4.53543, 2.61071l 4.53543, 2.81189l 4.53543, 3.02264l 4.53543, 3.24334l 4.53543, 3.47441l 4.53543, 3.71626l 4.53543,
 3.96933l 4.53543, 4.23408l 4.53543, 4.51097l 4.53543, 4.80049l 4.53543, 5.10316l 4.53543, 5.41949l 4.53543, 5.75003l 4.53543, 6.09535" fill="none" stroke="#ff0000" stroke-width="6"/>
<path d="M57.1929,366.652z" fill="none" stroke="#0000ff" stroke-width="6" stroke-dasharray=" 3, 3"/>
<path d="M57.1929,366.652h 453.543" fill="none" stroke="#0000ff" stroke-width="6" stroke-dasharray=" 3, 3"/>
<path d="M57.1929,330.148z" fill="none" stroke="#00ff00" stroke-width="6" stroke-dasharray=" 3, 3"/>
<path d="M57.1929,330.148l 18.1417, -2.71618l 18.1417, -2.84923l 18.1417, -2.9753l 18.1417, -3.09076l 18.1417, -3.19119l 18.1417, -3.27125l 18.1417, -3.3245l 18.1417, -3.34324l 18.1417, -3.31827l 18.1417, -3.23866l 18.1417, -3.09142l 18.1417,
 -2.86122l 18.1417, -2.52994l 18.1417, -2.07627l 9.07087, -0.823018l 9.07087, -0.652116l 9.07087, -0.458156l 9.07087, -0.238991l 9.07087, 0.00769893l 9.07087, 0.284423l 9.07087, 0.593894l 9.07087, 0.939042l 9.07087, 1.32303l 9.07087, 1.74928l
 9.07087, 2.22148l 9.07087, 2.74361l 9.07087, 3.31997l 4.53543, 1.89432l 4.53543, 2.06087l 4.53543, 2.23555l 4.53543, 2.41872l 4.53543, 2.61071l 4.53543, 2.81189l 4.53543, 3.02264l 4.53543, 3.24334l 4.53543, 3.47441l 4.53543, 3.71626l 4.53543,
 3.96933l 4.53543, 4.23408l 4.53543, 4.51097l 4.53543, 4.80049l 4.53543, 5.10316l 4.53543, 5.41949l 4.53543, 5.75003l 4.53543, 6.09535" fill="none" stroke="#00ff00" stroke-width="6" stroke-dasharray=" 3, 3"/>
<path d="M57.1929,366.652h 453.543" fill="none" stroke="black"/>
<path d="M57.1929,356.875v 9.77739" fill="none" stroke="black"/>
<path d="M66.3066,361.763v 4.8887" fill="none" stroke="black"/>
<path d="M75.4203,361.763v 4.8887" fill="none" stroke="black"/>
<path d="M84.534,361.763v 4.8887" fill="none" stroke="black"/>
<path d="M93.6477,361.763v 4.8887" fill="none" stroke="black"/>
<path d="M102.761,356.875v 9.77739" fill="none" stroke="black"/>
<path d="M111.875,361.763v 4.8887" fill="none" stroke="black"/>
<path d="M120.989,361.763v 4.8887" fill="none" stroke="black"/>
<path d="M130.103,361.763v 4.8887" fill="none" stroke="black"/>
<path d="M139.216,361.763v 4.8887" fill="none" stroke="black"/>
<path d="M148.33,356.875v 9.77739" fill="none" stroke="black"/>
<path d="M157.444,361.763v 4.8887" fill="none" stroke="black"/>
<path d="M166.557,361.763v 4.8887" fill="none" stroke="black"/>
<path d="M175.671,361.763v 4.8887" fill="none" stroke="black"/>
<path d="M184.785,361.763v 4.8887" fill="none" stroke="black"/>
<path d="M193.898,356.875v 9.77739" fill="none" stroke="black"/>
<path d="M203.012,361.763v 4.8887" fill="none" stroke="black"/>
<path d="M212.126,361.763v 4.8887" fill="none" stroke="black"/>
<path d="M221.24,361.763v 4.8887" fill="none" stroke="black"/>
<path d="M230.353,361.763v 4.8887" fill="none" stroke="black"/>
<path d="M239.467,356.875v 9.77739" fill="none" stroke="black"/>
<path d="M248.581,361.763v 4.8887" fill="none" stroke="black"/>
<path d="M257.694,361.763v 4.8887" fill="none" stroke="black"/>
<path d="M266.808,361.763v 4.8887" fill="none" stroke="black"/>
<path d="M275.922,361.763v 4.8887" fill="none" stroke="black"/>
<path d="M285.035,356.875v 9.77739" fill="none" stroke="black"/>
<path d="M294.149,361.763v 4.8887" fill="none" stroke="black"/>
<path d="M303.263,361.763v 4.8887" fill="none" stroke="black"/>
<path d="M312.377,361.763v 4.8887" fill="none" stroke="black"/>
<path d="M321.49,361.763v 4.8887" fill="none" stroke="black"/>
<path d="M330.604,356.875v 9.77739" fill="none" stroke="black"/>
<path d="M339.718,361.763v 4.8887" fill="none" stroke="black"/>
<path d="M348.831,361.763v 4.8887" fill="none" stroke="black"/>
<path d="M357.945,361.763v 4.8887" fill="none" stroke="black"/>
<path d="M367.059,361.763v 4.8887" fill="none" stroke="black"/>
<path d="M376.172,356.875v 9.77739" fill="none" stroke="black"/>
<path d="M385.286,361.763v 4.8887" fill="none" stroke="black"/>
<path d="M394.4,361.763v 4.8887" fill="none" stroke="black"/>
<path d="M403.514,361.763v 4.8887" fill="none" stroke="black"/>
<path d="M412.627,361.763v 4.8887" fill="none" stroke="black"/>
<path d="M421.741,356.875v 9.77739" fill="none" stroke="black"/>
<path d="M430.855,361.763v 4.8887" fill="none" stroke="black"/>
<path d="M439.968,361.763v 4.8887" fill="none" stroke="black"/>
<path d="M449.082,361.763v 4.8887" fill="none" stroke="black"/>
<path d="M458.196,361.763v 4.8887" fill="none" stroke="black"/>
<path d="M467.309,356.875v 9.77739" fill="none" stroke="black"/>
<path d="M467.309,356.875v 9.77739" fill="none" stroke="black"/>
<path d="M476.423,361.763v 4.8887" fill="none" stroke="black"/>
<path d="M485.537,361.763v 4.8887" fill="none" stroke="black"/>
<path d="M494.651,361.763v 4.8887" fill="none" stroke="black"/>
<path d="M503.764,361.763v 4.8887" fill="none" stroke="black"/>
<path d="M57.1929,366.652v -325.913" fill="none" stroke="black"/>
<path d="M70.7992,366.652h -13.6063" fill="none" stroke="black"/>
<path d="M63.9961,352.242h -6.80315" fill="none" stroke="black"/>
<path d="M63.9961,337.833h -6.80315" fill="none" stroke="black"/>
<path d="M63.9961,323.423h -6.80315" fill="none" stroke="black"/>
<path d="M70.7992,309.013h -13.6063" fill="none" stroke="black"/>
<path d="M63.9961,294.604h -6.80315" fill="none" stroke="black"/>
<path d="M63.9961,280.194h -6.80315" fill="none" stroke="black"/>
<path d="M63.9961,265.784h -6.80315" fill="none" stroke="black"/>
<path d="M70.7992,251.374h -13.6063" fill="none" stroke="black"/>
<path d="M63.9961,236.965h -6.80315" fill="none" stroke="black"/>
<path d="M63.9961,222.555h -6.80315" fill="none" stroke="black"/>
<path d="M63.9961,208.145h -6.80315" fill="none" stroke="black"/>
<path d="M70.7992,193.736h -13.6063" fill="none" stroke="black"/>
<path d="M63.9961,179.326h -6.80315" fill="none" stroke="black"/>
<path d="M63.9961,164.916h -6.80315" fill="none" stroke="black"/>
<path d="M63.9961,150.506h -6.80315" fill="none" stroke="black"/>
<path d="M70.7992,136.097h -13.6063" fill="none" stroke="black"/>
<path d="M63.9961,121.687h -6.80315" fill="none" stroke="black"/>
<path d="M63.9961,107.277h -6.80315" fill="none" stroke="black"/>
<path d="M63.9961,92.8676h -6.80315" fill="none" stroke="black"/>
<path d="M70.7992,78.4579h -13.6063" fill="none" stroke="black"/>
<path d="M70.7992,78.4579h -13.6063" fill="none" stroke="black"/>
<path d="M63.9961,64.0481h -6.80315" fill="none" stroke="black"/>
<path d="M63.9961,49.6384h -6.80315" fill="none" stroke="black"/>
<rect x="85.5394" y="48.887" width="130.394" height="52.9609" fill="white"/>
<text xml:space="preserve" x="90.24" y="82.6178" fill="black" font-size="20.1505" font-family="Helvetica" font-weight="bold">E=4.600 GeV</text></svg>
