<?xml version="1.0" standalone="no"?>
<svg width="567.429" height="409.712" viewBox="0 0 567.429 409.712" xmlns="http://www.w3.org/2000/svg" shape-rendering="crispEdges">
<title>
pic_fitInclusive4600.svg
</title>
<desc>
Creator: ROOT Version 6.20/06
CreationDate: Thu Apr 15 23:28:20 2021</desc>
<defs>
</defs>
<rect x="0.5" y="0" width="566.929" height="409.212" fill="white"/>
<rect x="57.1929" y="40.9212" width="453.543" height="327.37" fill="white"/>
<rect x="57.1929" y="40.9212" width="453.543" height="327.37" fill="none" stroke="black"/>
<rect x="57.1929" y="40.9212" width="453.543" height="327.37" fill="white"/>
<rect x="57.1929" y="40.9212" width="453.543" height="327.37" fill="none" stroke="black"/>
<path d="M57.1929,368.291h 453.543" fill="none" stroke="black"/>
<path d="M57.1929,358.47v 9.82109" fill="none" stroke="black"/>
<path d="M66.2638,363.38v 4.91054" fill="none" stroke="black"/>
<path d="M75.3346,363.38v 4.91054" fill="none" stroke="black"/>
<path d="M84.4055,363.38v 4.91054" fill="none" stroke="black"/>
<path d="M93.4764,363.38v 4.91054" fill="none" stroke="black"/>
<path d="M102.547,358.47v 9.82109" fill="none" stroke="black"/>
<path d="M111.618,363.38v 4.91054" fill="none" stroke="black"/>
<path d="M120.689,363.38v 4.91054" fill="none" stroke="black"/>
<path d="M129.76,363.38v 4.91054" fill="none" stroke="black"/>
<path d="M138.831,363.38v 4.91054" fill="none" stroke="black"/>
<path d="M147.902,358.47v 9.82109" fill="none" stroke="black"/>
<path d="M156.972,363.38v 4.91054" fill="none" stroke="black"/>
<path d="M166.043,363.38v 4.91054" fill="none" stroke="black"/>
<path d="M175.114,363.38v 4.91054" fill="none" stroke="black"/>
<path d="M184.185,363.38v 4.91054" fill="none" stroke="black"/>
<path d="M193.256,358.47v 9.82109" fill="none" stroke="black"/>
<path d="M202.327,363.38v 4.91054" fill="none" stroke="black"/>
<path d="M211.398,363.38v 4.91054" fill="none" stroke="black"/>
<path d="M220.469,363.38v 4.91054" fill="none" stroke="black"/>
<path d="M229.539,363.38v 4.91054" fill="none" stroke="black"/>
<path d="M238.61,358.47v 9.82109" fill="none" stroke="black"/>
<path d="M247.681,363.38v 4.91054" fill="none" stroke="black"/>
<path d="M256.752,363.38v 4.91054" fill="none" stroke="black"/>
<path d="M265.823,363.38v 4.91054" fill="none" stroke="black"/>
<path d="M274.894,363.38v 4.91054" fill="none" stroke="black"/>
<path d="M283.965,358.47v 9.82109" fill="none" stroke="black"/>
<path d="M293.035,363.38v 4.91054" fill="none" stroke="black"/>
<path d="M302.106,363.38v 4.91054" fill="none" stroke="black"/>
<path d="M311.177,363.38v 4.91054" fill="none" stroke="black"/>
<path d="M320.248,363.38v 4.91054" fill="none" stroke="black"/>
<path d="M329.319,358.47v 9.82109" fill="none" stroke="black"/>
<path d="M338.39,363.38v 4.91054" fill="none" stroke="black"/>
<path d="M347.461,363.38v 4.91054" fill="none" stroke="black"/>
<path d="M356.531,363.38v 4.91054" fill="none" stroke="black"/>
<path d="M365.602,363.38v 4.91054" fill="none" stroke="black"/>
<path d="M374.673,358.47v 9.82109" fill="none" stroke="black"/>
<path d="M383.744,363.38v 4.91054" fill="none" stroke="black"/>
<path d="M392.815,363.38v 4.91054" fill="none" stroke="black"/>
<path d="M401.886,363.38v 4.91054" fill="none" stroke="black"/>
<path d="M410.957,363.38v 4.91054" fill="none" stroke="black"/>
<path d="M420.028,358.47v 9.82109" fill="none" stroke="black"/>
<path d="M429.098,363.38v 4.91054" fill="none" stroke="black"/>
<path d="M438.169,363.38v 4.91054" fill="none" stroke="black"/>
<path d="M447.24,363.38v 4.91054" fill="none" stroke="black"/>
<path d="M456.311,363.38v 4.91054" fill="none" stroke="black"/>
<path d="M465.382,358.47v 9.82109" fill="none" stroke="black"/>
<path d="M474.453,363.38v 4.91054" fill="none" stroke="black"/>
<path d="M483.524,363.38v 4.91054" fill="none" stroke="black"/>
<path d="M492.594,363.38v 4.91054" fill="none" stroke="black"/>
<path d="M501.665,363.38v 4.91054" fill="none" stroke="black"/>
<path d="M510.736,358.47v 9.82109" fill="none" stroke="black"/>
<path d="M510.736,358.47v 9.82109" fill="none" stroke="black"/>
<text xml:space="preserve" x="43.8367" y="381.505" fill="black" font-size="13.6398" font-family="Helvetica">2.25</text>
<text xml:space="preserve" x="85.0421" y="381.505" fill="black" font-size="13.6398" font-family="Helvetica">2.255</text>
<text xml:space="preserve" x="134.773" y="381.505" fill="black" font-size="13.6398" font-family="Helvetica">2.26</text>
<text xml:space="preserve" x="175.978" y="381.505" fill="black" font-size="13.6398" font-family="Helvetica">2.265</text>
<text xml:space="preserve" x="225.709" y="381.505" fill="black" font-size="13.6398" font-family="Helvetica">2.27</text>
<text xml:space="preserve" x="266.914" y="381.505" fill="black" font-size="13.6398" font-family="Helvetica">2.275</text>
<text xml:space="preserve" x="315.934" y="381.505" fill="black" font-size="13.6398" font-family="Helvetica">2.28</text>
<text xml:space="preserve" x="357.14" y="381.505" fill="black" font-size="13.6398" font-family="Helvetica">2.285</text>
<text xml:space="preserve" x="406.87" y="381.505" fill="black" font-size="13.6398" font-family="Helvetica">2.29</text>
<text xml:space="preserve" x="448.076" y="381.505" fill="black" font-size="13.6398" font-family="Helvetica">2.295</text>
<text xml:space="preserve" x="501.358" y="381.505" fill="black" font-size="13.6398" font-family="Helvetica">2.3</text>
<text xml:space="preserve" x="507.042" y="395.714" fill="black" font-size="13.6398" font-family="Helvetica">)</text>
<text xml:space="preserve" x="502.069" y="389.32" fill="black" font-size="9.25989" font-family="Helvetica">2</text>
<text xml:space="preserve" x="457.311" y="395.714" fill="black" font-size="13.6398" font-family="Helvetica"> (GeV/c</text>
<text xml:space="preserve" x="444.523" y="399.976" fill="black" font-size="9.25989" font-family="Helvetica">BC</text>
<text xml:space="preserve" x="433.867" y="395.714" fill="black" font-size="13.6398" font-family="Helvetica">M</text>
<path d="M57.1929,368.291v -327.37" fill="none" stroke="black"/>
<path d="M70.7992,368.291h -13.6063" fill="none" stroke="black"/>
<path d="M63.9961,352.025h -6.80315" fill="none" stroke="black"/>
<path d="M63.9961,335.758h -6.80315" fill="none" stroke="black"/>
<path d="M63.9961,319.492h -6.80315" fill="none" stroke="black"/>
<path d="M70.7992,303.226h -13.6063" fill="none" stroke="black"/>
<path d="M63.9961,286.959h -6.80315" fill="none" stroke="black"/>
<path d="M63.9961,270.693h -6.80315" fill="none" stroke="black"/>
<path d="M63.9961,254.427h -6.80315" fill="none" stroke="black"/>
<path d="M70.7992,238.16h -13.6063" fill="none" stroke="black"/>
<path d="M63.9961,221.894h -6.80315" fill="none" stroke="black"/>
<path d="M63.9961,205.628h -6.80315" fill="none" stroke="black"/>
<path d="M63.9961,189.362h -6.80315" fill="none" stroke="black"/>
<path d="M70.7992,173.095h -13.6063" fill="none" stroke="black"/>
<path d="M63.9961,156.829h -6.80315" fill="none" stroke="black"/>
<path d="M63.9961,140.563h -6.80315" fill="none" stroke="black"/>
<path d="M63.9961,124.296h -6.80315" fill="none" stroke="black"/>
<path d="M70.7992,108.03h -13.6063" fill="none" stroke="black"/>
<path d="M63.9961,91.7639h -6.80315" fill="none" stroke="black"/>
<path d="M63.9961,75.4976h -6.80315" fill="none" stroke="black"/>
<path d="M63.9961,59.2313h -6.80315" fill="none" stroke="black"/>
<path d="M70.7992,42.965h -13.6063" fill="none" stroke="black"/>
<path d="M70.7992,42.965h -13.6063" fill="none" stroke="black"/>
<text xml:space="preserve" x="46.6784" y="372.98" fill="black" font-size="13.6398" font-family="Helvetica">0</text>
<text xml:space="preserve" x="46.6784" y="308.33" fill="black" font-size="13.6398" font-family="Helvetica">2</text>
<text xml:space="preserve" x="46.6784" y="243.68" fill="black" font-size="13.6398" font-family="Helvetica">4</text>
<text xml:space="preserve" x="46.6784" y="177.609" fill="black" font-size="13.6398" font-family="Helvetica">6</text>
<text xml:space="preserve" x="46.6784" y="112.96" fill="black" font-size="13.6398" font-family="Helvetica">8</text>
<text xml:space="preserve" x="38.8636" y="47.5993" fill="black" font-size="13.6398" font-family="Helvetica">10</text>
<g transform="rotate(-90,26.7862,44.0471)">
<text xml:space="preserve" x="26.7862" y="44.0471" fill="black" font-size="13.6398" font-family="Helvetica">)</text>
</g>
<g transform="rotate(-90,21.1027,49.0202)">
<text xml:space="preserve" x="21.1027" y="49.0202" fill="black" font-size="9.25989" font-family="Helvetica">2</text>
</g>
<g transform="rotate(-90,26.7862,163.401)">
<text xml:space="preserve" x="26.7862" y="163.401" fill="black" font-size="13.6398" font-family="Helvetica">Events/(  2.5 MeV/c</text>
</g>
<path d="M79.6864,238.16h -22.4935" fill="none" stroke="black" stroke-width="2"/>
<path d="M57.1929,239.581v -2.84175" fill="none" stroke="black" stroke-width="2"/>
<path d="M79.6864,238.16h 22.4935" fill="none" stroke="black" stroke-width="2"/>
<path d="M102.18,239.581v -2.84175" fill="none" stroke="black" stroke-width="2"/>
<path d="M79.6864,238.16v -102.893" fill="none" stroke="black" stroke-width="2"/>
<path d="M78.2655,135.268h 2.84175" fill="none" stroke="black" stroke-width="2"/>
<path d="M79.6864,238.16v 62.2784" fill="none" stroke="black" stroke-width="2"/>
<path d="M78.2655,300.439h 2.84175" fill="none" stroke="black" stroke-width="2"/>
<path d="M124.673,335.758h -22.4935" fill="none" stroke="black" stroke-width="2"/>
<path d="M102.18,337.179v -2.84175" fill="none" stroke="black" stroke-width="2"/>
<path d="M124.673,335.758h 22.4935" fill="none" stroke="black" stroke-width="2"/>
<path d="M147.167,337.179v -2.84175" fill="none" stroke="black" stroke-width="2"/>
<path d="M124.673,335.758v -74.8095" fill="none" stroke="black" stroke-width="2"/>
<path d="M123.252,260.949h 2.84175" fill="none" stroke="black" stroke-width="2"/>
<path d="M124.673,335.758v 26.9125" fill="none" stroke="black" stroke-width="2"/>
<path d="M123.252,362.671h 2.84175" fill="none" stroke="black" stroke-width="2"/>
<path d="M169.66,270.693h -22.4935" fill="none" stroke="black" stroke-width="2"/>
<path d="M147.167,272.114v -2.84175" fill="none" stroke="black" stroke-width="2"/>
<path d="M169.66,270.693h 22.4935" fill="none" stroke="black" stroke-width="2"/>
<path d="M192.154,272.114v -2.84175" fill="none" stroke="black" stroke-width="2"/>
<path d="M169.66,270.693v -94.9361" fill="none" stroke="black" stroke-width="2"/>
<path d="M168.239,175.757h 2.84175" fill="none" stroke="black" stroke-width="2"/>
<path d="M169.66,270.693v 53.1161" fill="none" stroke="black" stroke-width="2"/>
<path d="M168.239,323.809h 2.84175" fill="none" stroke="black" stroke-width="2"/>
<path d="M214.647,270.693h -22.4935" fill="none" stroke="black" stroke-width="2"/>
<path d="M192.154,272.114v -2.84175" fill="none" stroke="black" stroke-width="2"/>
<path d="M214.647,270.693h 22.4935" fill="none" stroke="black" stroke-width="2"/>
<path d="M237.141,272.114v -2.84175" fill="none" stroke="black" stroke-width="2"/>
<path d="M214.647,270.693v -94.9361" fill="none" stroke="black" stroke-width="2"/>
<path d="M213.226,175.757h 2.84175" fill="none" stroke="black" stroke-width="2"/>
<path d="M214.647,270.693v 53.1161" fill="none" stroke="black" stroke-width="2"/>
<path d="M213.226,323.809h 2.84175" fill="none" stroke="black" stroke-width="2"/>
<path d="M259.634,270.693h -22.4935" fill="none" stroke="black" stroke-width="2"/>
<path d="M237.141,272.114v -2.84175" fill="none" stroke="black" stroke-width="2"/>
<path d="M259.634,270.693h 22.4935" fill="none" stroke="black" stroke-width="2"/>
<path d="M282.128,272.114v -2.84175" fill="none" stroke="black" stroke-width="2"/>
<path d="M259.634,270.693v -94.9361" fill="none" stroke="black" stroke-width="2"/>
<path d="M258.213,175.757h 2.84175" fill="none" stroke="black" stroke-width="2"/>
<path d="M259.634,270.693v 53.1161" fill="none" stroke="black" stroke-width="2"/>
<path d="M258.213,323.809h 2.84175" fill="none" stroke="black" stroke-width="2"/>
<path d="M304.621,173.095h -22.4935" fill="none" stroke="black" stroke-width="2"/>
<path d="M282.128,174.516v -2.84175" fill="none" stroke="black" stroke-width="2"/>
<path d="M304.621,173.095h 22.4935" fill="none" stroke="black" stroke-width="2"/>
<path d="M327.115,174.516v -2.84175" fill="none" stroke="black" stroke-width="2"/>
<path d="M304.621,173.095v -116.585" fill="none" stroke="black" stroke-width="2"/>
<path d="M303.2,56.5102h 2.84175" fill="none" stroke="black" stroke-width="2"/>
<path d="M304.621,173.095v 77.4253" fill="none" stroke="black" stroke-width="2"/>
<path d="M303.2,250.521h 2.84175" fill="none" stroke="black" stroke-width="2"/>
<path d="M349.608,270.693h -22.4935" fill="none" stroke="black" stroke-width="2"/>
<path d="M327.115,272.114v -2.84175" fill="none" stroke="black" stroke-width="2"/>
<path d="M349.608,270.693h 22.4935" fill="none" stroke="black" stroke-width="2"/>
<path d="M372.102,272.114v -2.84175" fill="none" stroke="black" stroke-width="2"/>
<path d="M349.608,270.693v -94.9361" fill="none" stroke="black" stroke-width="2"/>
<path d="M348.187,175.757h 2.84175" fill="none" stroke="black" stroke-width="2"/>
<path d="M349.608,270.693v 53.1161" fill="none" stroke="black" stroke-width="2"/>
<path d="M348.187,323.809h 2.84175" fill="none" stroke="black" stroke-width="2"/>
<path d="M394.595,205.628h -22.4935" fill="none" stroke="black" stroke-width="2"/>
<path d="M372.102,207.049v -2.84175" fill="none" stroke="black" stroke-width="2"/>
<path d="M394.595,205.628h 22.4935" fill="none" stroke="black" stroke-width="2"/>
<path d="M417.089,207.049v -2.84175" fill="none" stroke="black" stroke-width="2"/>
<path d="M394.595,205.628v -110.041" fill="none" stroke="black" stroke-width="2"/>
<path d="M393.174,95.5874h 2.84175" fill="none" stroke="black" stroke-width="2"/>
<path d="M394.595,205.628v 70.2603" fill="none" stroke="black" stroke-width="2"/>
<path d="M393.174,275.888h 2.84175" fill="none" stroke="black" stroke-width="2"/>
<path d="M439.582,335.758h -22.4935" fill="none" stroke="black" stroke-width="2"/>
<path d="M417.089,337.179v -2.84175" fill="none" stroke="black" stroke-width="2"/>
<path d="M439.582,335.758h 22.4935" fill="none" stroke="black" stroke-width="2"/>
<path d="M462.076,337.179v -2.84175" fill="none" stroke="black" stroke-width="2"/>
<path d="M439.582,335.758v -74.8095" fill="none" stroke="black" stroke-width="2"/>
<path d="M438.161,260.949h 2.84175" fill="none" stroke="black" stroke-width="2"/>
<path d="M439.582,335.758v 26.9125" fill="none" stroke="black" stroke-width="2"/>
<path d="M438.161,362.671h 2.84175" fill="none" stroke="black" stroke-width="2"/>
<path d="M484.569,335.758h -22.4935" fill="none" stroke="black" stroke-width="2"/>
<path d="M462.076,337.179v -2.84175" fill="none" stroke="black" stroke-width="2"/>
<path d="M484.569,335.758h 22.4935" fill="none" stroke="black" stroke-width="2"/>
<path d="M507.063,337.179v -2.84175" fill="none" stroke="black" stroke-width="2"/>
<path d="M484.569,335.758v -74.8095" fill="none" stroke="black" stroke-width="2"/>
<path d="M483.148,260.949h 2.84175" fill="none" stroke="black" stroke-width="2"/>
<path d="M484.569,335.758v 26.9125" fill="none" stroke="black" stroke-width="2"/>
<path d="M483.148,362.671h 2.84175" fill="none" stroke="black" stroke-width="2"/>
<g fill="black">
<circle cx="79.6864" cy="238.16" r="2.84175"/>
<circle cx="124.673" cy="335.758" r="2.84175"/>
<circle cx="169.66" cy="270.693" r="2.84175"/>
<circle cx="214.647" cy="270.693" r="2.84175"/>
<circle cx="259.634" cy="270.693" r="2.84175"/>
<circle cx="304.621" cy="173.095" r="2.84175"/>
<circle cx="349.608" cy="270.693" r="2.84175"/>
<circle cx="394.595" cy="205.628" r="2.84175"/>
<circle cx="439.582" cy="335.758" r="2.84175"/>
<circle cx="484.569" cy="335.758" r="2.84175"/>
</g>
<path d="M57.1929,274.931z" fill="none" stroke="#ff0000" stroke-width="6"/>
<path d="M57.1929,274.931l 22.6772, -2.22349l 22.6772, -2.01047l 22.6772, -1.74372l 22.6772, -1.4234l 22.6772, -1.04713l 22.6772, -0.6199l 22.6772, -0.142605l 22.6772, 0.452974l 22.6772, 1.15772l 22.6772, 1.85964l 22.6772, 2.47144l 22.6772, 2.49258l
 5.66929, 0.108683l 5.66929, -0.609581l 2.83465, -0.807236l 2.83465, -1.24987l 2.83465, -1.73095l 2.83465, -2.35485l 2.83465, -3.33131l 2.83465, -4.3474l 2.83465, -5.14206l 2.83465, -6.26085l 1.41732, -3.87663l 1.41732, -4.71642l 1.41732, -5.59521l
 1.41732, -6.19139l 2.83465, -12.9889l 2.83465, -13.5709l 2.83465, -12.9939l 2.83465, -13.4979l 0.708661, -2.52668l 0.708661, -1.7406l 1.41732, -3.26951l 2.83465, -10.1668l 0.708661, -1.947l 0.708661, -1.20902l 0.708661, -0.595882l 0.708661,
 -0.124327l 1.41732, 0.355868l 1.41732, 1.3796l 2.83465, 3.83442l 0.708661, 1.02154l 0.708661, 1.48015l 0.708661, 2.12571l 0.708661, 2.94057l 2.83465, 14.7013l 1.41732, 6.51717l 1.41732, 5.42481l 1.41732, 5.95624l 1.41732, 6.998l 2.83465, 15.3855l
 2.83465, 14.261l 2.83465, 13.3886l 1.41732, 5.87179l 1.41732, 5.1604l 2.83465, 9.15211l 2.83465, 8.14674l 1.41732, 3.59531l 1.41732, 3.15246l 2.83465, 5.16392l 2.83465, 4.43835l 2.83465, 3.88575l 2.83465, 3.32447l 5.66929, 5.91718l 11.3386, 9.71118l
 11.3386, 9.28782l 22.6772, 19.227l 22.6772, 21.7839" fill="none" stroke="#ff0000" stroke-width="6"/>
<path d="M57.1929,368.239z" fill="none" stroke="#0000ff" stroke-width="6" stroke-dasharray=" 3, 3"/>
<path d="M57.1929,368.239l 22.6772, -0.0312587l 22.6772, -0.0324234l 22.6772, -0.0271299l 22.6772, -0.0217395l 22.6772, -0.0207975l 22.6772, -0.0369958l 22.6772, -0.0797738l 22.6772, -0.0904157l 22.6772, -0.0885869l 22.6772, -0.197983l 22.6772,
 -0.518885l 11.3386, -0.473423l 11.3386, -1.09279l 5.66929, -1.09037l 2.83465, -0.801258l 2.83465, -1.08609l 2.83465, -1.47645l 2.83465, -1.93974l 2.83465, -2.44182l 2.83465, -3.08706l 1.41732, -1.90241l 1.41732, -2.1828l 2.83465, -5.12333l 2.83465,
 -5.94039l 1.41732, -3.35559l 1.41732, -3.72634l 1.41732, -4.29582l 1.41732, -5.14143l 1.41732, -6.0261l 1.41732, -6.6282l 2.83465, -13.8805l 2.83465, -14.4867l 2.83465, -13.9343l 2.83465, -14.4634l 0.708661, -2.77201l 0.708661, -1.98753l 1.41732,
 -3.76816l 2.83465, -11.1836l 0.708661, -2.20527l 0.708661, -1.46893l 0.708661, -0.857446l 0.708661, -0.38755l 1.41732, -0.175581l 0.708661, 0.279934l 0.708661, 0.561501l 2.83465, 2.73775l 0.708661, 0.743095l 0.708661, 1.19998l 0.708661, 1.84381l
 0.708661, 2.65693l 0.708661, 3.17644l 0.708661, 3.44108l 1.41732, 6.93172l 0.708661, 3.12991l 0.708661, 2.8006l 1.41732, 4.83102l 1.41732, 5.35524l 1.41732, 6.38975l 2.83465, 14.147l 1.41732, 6.6778l 1.41732, 6.31498l 1.41732, 6.19763l 1.41732,
 5.89264l 1.41732, 5.21115l 1.41732, 4.49205l 1.41732, 4.02936l 1.41732, 3.76265l 1.41732, 3.51386l 1.41732, 3.2412l 1.41732, 2.88747l 1.41732, 2.43654l 1.41732, 2.00343l 1.41732, 1.70418l 2.83465, 2.94897l 2.83465, 2.36281l 2.83465, 1.76745l
 5.66929, 2.69883l 5.66929, 1.65328l 5.66929, 1.18896l 11.3386, 1.81294l 11.3386, 1.34129l 11.3386, 0.967334l 5.66929, 0.599739l 5.66929, 0.891313l 11.3386, 2.47285" fill="none" stroke="#0000ff" stroke-width="6" stroke-dasharray=" 3, 3"/>
<path d="M57.1929,274.983z" fill="none" stroke="#00ff00" stroke-width="6" stroke-dasharray=" 3, 3"/>
<path d="M57.1929,274.983l 22.6772, -2.19223l 22.6772, -1.97804l 22.6772, -1.71659l 22.6772, -1.40166l 22.6772, -1.02633l 22.6772, -0.582904l 22.6772, -0.0628316l 22.6772, 0.543389l 22.6772, 1.24631l 11.3386, 0.920132l 11.3386, 1.13749l 11.3386,
 1.37044l 11.3386, 1.61988l 11.3386, 1.88675l 11.3386, 2.17205l 11.3386, 2.47682l 11.3386, 2.80216l 11.3386, 3.14924l 11.3386, 3.51928l 11.3386, 3.91356l 11.3386, 4.33342l 11.3386, 4.7803l 11.3386, 5.25568l 11.3386, 5.76113l 11.3386, 6.29831l
 11.3386, 6.86895l 11.3386, 7.47487l 11.3386, 8.118l 11.3386, 8.80036l 11.3386, 9.52406l 5.66929, 5.04694l 2.83465, 2.59715l 0.708661, 0.651816h 2.12598" fill="none" stroke="#00ff00" stroke-width="6" stroke-dasharray=" 3, 3"/>
<path d="M57.1929,368.291h 453.543" fill="none" stroke="black"/>
<path d="M57.1929,358.47v 9.82109" fill="none" stroke="black"/>
<path d="M66.2638,363.38v 4.91054" fill="none" stroke="black"/>
<path d="M75.3346,363.38v 4.91054" fill="none" stroke="black"/>
<path d="M84.4055,363.38v 4.91054" fill="none" stroke="black"/>
<path d="M93.4764,363.38v 4.91054" fill="none" stroke="black"/>
<path d="M102.547,358.47v 9.82109" fill="none" stroke="black"/>
<path d="M111.618,363.38v 4.91054" fill="none" stroke="black"/>
<path d="M120.689,363.38v 4.91054" fill="none" stroke="black"/>
<path d="M129.76,363.38v 4.91054" fill="none" stroke="black"/>
<path d="M138.831,363.38v 4.91054" fill="none" stroke="black"/>
<path d="M147.902,358.47v 9.82109" fill="none" stroke="black"/>
<path d="M156.972,363.38v 4.91054" fill="none" stroke="black"/>
<path d="M166.043,363.38v 4.91054" fill="none" stroke="black"/>
<path d="M175.114,363.38v 4.91054" fill="none" stroke="black"/>
<path d="M184.185,363.38v 4.91054" fill="none" stroke="black"/>
<path d="M193.256,358.47v 9.82109" fill="none" stroke="black"/>
<path d="M202.327,363.38v 4.91054" fill="none" stroke="black"/>
<path d="M211.398,363.38v 4.91054" fill="none" stroke="black"/>
<path d="M220.469,363.38v 4.91054" fill="none" stroke="black"/>
<path d="M229.539,363.38v 4.91054" fill="none" stroke="black"/>
<path d="M238.61,358.47v 9.82109" fill="none" stroke="black"/>
<path d="M247.681,363.38v 4.91054" fill="none" stroke="black"/>
<path d="M256.752,363.38v 4.91054" fill="none" stroke="black"/>
<path d="M265.823,363.38v 4.91054" fill="none" stroke="black"/>
<path d="M274.894,363.38v 4.91054" fill="none" stroke="black"/>
<path d="M283.965,358.47v 9.82109" fill="none" stroke="black"/>
<path d="M293.035,363.38v 4.91054" fill="none" stroke="black"/>
<path d="M302.106,363.38v 4.91054" fill="none" stroke="black"/>
<path d="M311.177,363.38v 4.91054" fill="none" stroke="black"/>
<path d="M320.248,363.38v 4.91054" fill="none" stroke="black"/>
<path d="M329.319,358.47v 9.82109" fill="none" stroke="black"/>
<path d="M338.39,363.38v 4.91054" fill="none" stroke="black"/>
<path d="M347.461,363.38v 4.91054" fill="none" stroke="black"/>
<path d="M356.531,363.38v 4.91054" fill="none" stroke="black"/>
<path d="M365.602,363.38v 4.91054" fill="none" stroke="black"/>
<path d="M374.673,358.47v 9.82109" fill="none" stroke="black"/>
<path d="M383.744,363.38v 4.91054" fill="none" stroke="black"/>
<path d="M392.815,363.38v 4.91054" fill="none" stroke="black"/>
<path d="M401.886,363.38v 4.91054" fill="none" stroke="black"/>
<path d="M410.957,363.38v 4.91054" fill="none" stroke="black"/>
<path d="M420.028,358.47v 9.82109" fill="none" stroke="black"/>
<path d="M429.098,363.38v 4.91054" fill="none" stroke="black"/>
<path d="M438.169,363.38v 4.91054" fill="none" stroke="black"/>
<path d="M447.24,363.38v 4.91054" fill="none" stroke="black"/>
<path d="M456.311,363.38v 4.91054" fill="none" stroke="black"/>
<path d="M465.382,358.47v 9.82109" fill="none" stroke="black"/>
<path d="M474.453,363.38v 4.91054" fill="none" stroke="black"/>
<path d="M483.524,363.38v 4.91054" fill="none" stroke="black"/>
<path d="M492.594,363.38v 4.91054" fill="none" stroke="black"/>
<path d="M501.665,363.38v 4.91054" fill="none" stroke="black"/>
<path d="M510.736,358.47v 9.82109" fill="none" stroke="black"/>
<path d="M510.736,358.47v 9.82109" fill="none" stroke="black"/>
<path d="M57.1929,368.291v -327.37" fill="none" stroke="black"/>
<path d="M70.7992,368.291h -13.6063" fill="none" stroke="black"/>
<path d="M63.9961,352.025h -6.80315" fill="none" stroke="black"/>
<path d="M63.9961,335.758h -6.80315" fill="none" stroke="black"/>
<path d="M63.9961,319.492h -6.80315" fill="none" stroke="black"/>
<path d="M70.7992,303.226h -13.6063" fill="none" stroke="black"/>
<path d="M63.9961,286.959h -6.80315" fill="none" stroke="black"/>
<path d="M63.9961,270.693h -6.80315" fill="none" stroke="black"/>
<path d="M63.9961,254.427h -6.80315" fill="none" stroke="black"/>
<path d="M70.7992,238.16h -13.6063" fill="none" stroke="black"/>
<path d="M63.9961,221.894h -6.80315" fill="none" stroke="black"/>
<path d="M63.9961,205.628h -6.80315" fill="none" stroke="black"/>
<path d="M63.9961,189.362h -6.80315" fill="none" stroke="black"/>
<path d="M70.7992,173.095h -13.6063" fill="none" stroke="black"/>
<path d="M63.9961,156.829h -6.80315" fill="none" stroke="black"/>
<path d="M63.9961,140.563h -6.80315" fill="none" stroke="black"/>
<path d="M63.9961,124.296h -6.80315" fill="none" stroke="black"/>
<path d="M70.7992,108.03h -13.6063" fill="none" stroke="black"/>
<path d="M63.9961,91.7639h -6.80315" fill="none" stroke="black"/>
<path d="M63.9961,75.4976h -6.80315" fill="none" stroke="black"/>
<path d="M63.9961,59.2313h -6.80315" fill="none" stroke="black"/>
<path d="M70.7992,42.965h -13.6063" fill="none" stroke="black"/>
<path d="M70.7992,42.965h -13.6063" fill="none" stroke="black"/>
<rect x="369.004" y="49.1054" width="130.394" height="53.1976" fill="white"/>
<text xml:space="preserve" x="374.19" y="83.1212" fill="black" font-size="20.2879" font-family="Helvetica" font-weight="bold">E=4.600 GeV</text></svg>
