<?xml version="1.0" standalone="no"?>
<svg width="567.429" height="413.216" viewBox="0 0 567.429 413.216" xmlns="http://www.w3.org/2000/svg" shape-rendering="crispEdges">
<title>
pic_fit2.svg
</title>
<desc>
Creator: ROOT Version 6.20/06
CreationDate: Sun May 16 14:09:12 2021</desc>
<defs>
</defs>
<rect x="0.5" y="0" width="566.929" height="412.716" fill="white"/>
<rect x="57.1929" y="41.2716" width="453.543" height="330.172" fill="white"/>
<rect x="57.1929" y="41.2716" width="453.543" height="330.172" fill="none" stroke="black"/>
<rect x="57.1929" y="41.2716" width="453.543" height="330.172" fill="white"/>
<rect x="57.1929" y="41.2716" width="453.543" height="330.172" fill="none" stroke="black"/>
<path d="M57.1929,371.444h 453.543" fill="none" stroke="black"/>
<path d="M57.1929,361.539v 9.90517" fill="none" stroke="black"/>
<path d="M66.2638,366.491v 4.95259" fill="none" stroke="black"/>
<path d="M75.3346,366.491v 4.95259" fill="none" stroke="black"/>
<path d="M84.4055,366.491v 4.95259" fill="none" stroke="black"/>
<path d="M93.4764,366.491v 4.95259" fill="none" stroke="black"/>
<path d="M102.547,361.539v 9.90517" fill="none" stroke="black"/>
<path d="M111.618,366.491v 4.95259" fill="none" stroke="black"/>
<path d="M120.689,366.491v 4.95259" fill="none" stroke="black"/>
<path d="M129.76,366.491v 4.95259" fill="none" stroke="black"/>
<path d="M138.831,366.491v 4.95259" fill="none" stroke="black"/>
<path d="M147.902,361.539v 9.90517" fill="none" stroke="black"/>
<path d="M156.972,366.491v 4.95259" fill="none" stroke="black"/>
<path d="M166.043,366.491v 4.95259" fill="none" stroke="black"/>
<path d="M175.114,366.491v 4.95259" fill="none" stroke="black"/>
<path d="M184.185,366.491v 4.95259" fill="none" stroke="black"/>
<path d="M193.256,361.539v 9.90517" fill="none" stroke="black"/>
<path d="M202.327,366.491v 4.95259" fill="none" stroke="black"/>
<path d="M211.398,366.491v 4.95259" fill="none" stroke="black"/>
<path d="M220.469,366.491v 4.95259" fill="none" stroke="black"/>
<path d="M229.539,366.491v 4.95259" fill="none" stroke="black"/>
<path d="M238.61,361.539v 9.90517" fill="none" stroke="black"/>
<path d="M247.681,366.491v 4.95259" fill="none" stroke="black"/>
<path d="M256.752,366.491v 4.95259" fill="none" stroke="black"/>
<path d="M265.823,366.491v 4.95259" fill="none" stroke="black"/>
<path d="M274.894,366.491v 4.95259" fill="none" stroke="black"/>
<path d="M283.965,361.539v 9.90517" fill="none" stroke="black"/>
<path d="M293.035,366.491v 4.95259" fill="none" stroke="black"/>
<path d="M302.106,366.491v 4.95259" fill="none" stroke="black"/>
<path d="M311.177,366.491v 4.95259" fill="none" stroke="black"/>
<path d="M320.248,366.491v 4.95259" fill="none" stroke="black"/>
<path d="M329.319,361.539v 9.90517" fill="none" stroke="black"/>
<path d="M338.39,366.491v 4.95259" fill="none" stroke="black"/>
<path d="M347.461,366.491v 4.95259" fill="none" stroke="black"/>
<path d="M356.531,366.491v 4.95259" fill="none" stroke="black"/>
<path d="M365.602,366.491v 4.95259" fill="none" stroke="black"/>
<path d="M374.673,361.539v 9.90517" fill="none" stroke="black"/>
<path d="M383.744,366.491v 4.95259" fill="none" stroke="black"/>
<path d="M392.815,366.491v 4.95259" fill="none" stroke="black"/>
<path d="M401.886,366.491v 4.95259" fill="none" stroke="black"/>
<path d="M410.957,366.491v 4.95259" fill="none" stroke="black"/>
<path d="M420.028,361.539v 9.90517" fill="none" stroke="black"/>
<path d="M429.098,366.491v 4.95259" fill="none" stroke="black"/>
<path d="M438.169,366.491v 4.95259" fill="none" stroke="black"/>
<path d="M447.24,366.491v 4.95259" fill="none" stroke="black"/>
<path d="M456.311,366.491v 4.95259" fill="none" stroke="black"/>
<path d="M465.382,361.539v 9.90517" fill="none" stroke="black"/>
<path d="M474.453,366.491v 4.95259" fill="none" stroke="black"/>
<path d="M483.524,366.491v 4.95259" fill="none" stroke="black"/>
<path d="M492.594,366.491v 4.95259" fill="none" stroke="black"/>
<path d="M501.665,366.491v 4.95259" fill="none" stroke="black"/>
<path d="M510.736,361.539v 9.90517" fill="none" stroke="black"/>
<text xml:space="preserve" x="44.3233" y="384.979" fill="black" font-size="13.7523" font-family="Helvetica">2.25</text>
<text xml:space="preserve" x="89.256" y="384.979" fill="black" font-size="13.7523" font-family="Helvetica">2.26</text>
<text xml:space="preserve" x="134.743" y="384.979" fill="black" font-size="13.7523" font-family="Helvetica">2.27</text>
<text xml:space="preserve" x="180.231" y="384.979" fill="black" font-size="13.7523" font-family="Helvetica">2.28</text>
<text xml:space="preserve" x="225.718" y="384.979" fill="black" font-size="13.7523" font-family="Helvetica">2.29</text>
<text xml:space="preserve" x="275.089" y="384.979" fill="black" font-size="13.7523" font-family="Helvetica">2.3</text>
<text xml:space="preserve" x="317.248" y="384.979" fill="black" font-size="13.7523" font-family="Helvetica">2.31</text>
<text xml:space="preserve" x="361.626" y="384.979" fill="black" font-size="13.7523" font-family="Helvetica">2.32</text>
<text xml:space="preserve" x="407.114" y="384.979" fill="black" font-size="13.7523" font-family="Helvetica">2.33</text>
<text xml:space="preserve" x="452.601" y="384.979" fill="black" font-size="13.7523" font-family="Helvetica">2.34</text>
<text xml:space="preserve" x="497.534" y="384.979" fill="black" font-size="13.7523" font-family="Helvetica">2.35</text>
<text xml:space="preserve" x="506.409" y="398.847" fill="black" font-size="13.7523" font-family="Helvetica">)</text>
<text xml:space="preserve" x="501.417" y="392.745" fill="black" font-size="9.33489" font-family="Helvetica">2</text>
<text xml:space="preserve" x="457.594" y="398.847" fill="black" font-size="13.7523" font-family="Helvetica"> (GeV/c</text>
<text xml:space="preserve" x="445.39" y="402.73" fill="black" font-size="9.33489" font-family="Helvetica">BC</text>
<text xml:space="preserve" x="434.85" y="398.847" fill="black" font-size="13.7523" font-family="Helvetica">M</text>
<path d="M57.1929,371.444v -330.172" fill="none" stroke="black"/>
<path d="M70.7992,371.444h -13.6063" fill="none" stroke="black"/>
<path d="M63.9961,358.575h -6.80315" fill="none" stroke="black"/>
<path d="M63.9961,345.707h -6.80315" fill="none" stroke="black"/>
<path d="M63.9961,332.838h -6.80315" fill="none" stroke="black"/>
<path d="M63.9961,319.969h -6.80315" fill="none" stroke="black"/>
<path d="M70.7992,307.1h -13.6063" fill="none" stroke="black"/>
<path d="M63.9961,294.232h -6.80315" fill="none" stroke="black"/>
<path d="M63.9961,281.363h -6.80315" fill="none" stroke="black"/>
<path d="M63.9961,268.494h -6.80315" fill="none" stroke="black"/>
<path d="M63.9961,255.625h -6.80315" fill="none" stroke="black"/>
<path d="M70.7992,242.757h -13.6063" fill="none" stroke="black"/>
<path d="M63.9961,229.888h -6.80315" fill="none" stroke="black"/>
<path d="M63.9961,217.019h -6.80315" fill="none" stroke="black"/>
<path d="M63.9961,204.15h -6.80315" fill="none" stroke="black"/>
<path d="M63.9961,191.282h -6.80315" fill="none" stroke="black"/>
<path d="M70.7992,178.413h -13.6063" fill="none" stroke="black"/>
<path d="M63.9961,165.544h -6.80315" fill="none" stroke="black"/>
<path d="M63.9961,152.676h -6.80315" fill="none" stroke="black"/>
<path d="M63.9961,139.807h -6.80315" fill="none" stroke="black"/>
<path d="M63.9961,126.938h -6.80315" fill="none" stroke="black"/>
<path d="M70.7992,114.069h -13.6063" fill="none" stroke="black"/>
<path d="M63.9961,101.201h -6.80315" fill="none" stroke="black"/>
<path d="M63.9961,88.3319h -6.80315" fill="none" stroke="black"/>
<path d="M63.9961,75.4632h -6.80315" fill="none" stroke="black"/>
<path d="M63.9961,62.5945h -6.80315" fill="none" stroke="black"/>
<path d="M70.7992,49.7257h -13.6063" fill="none" stroke="black"/>
<path d="M70.7992,49.7257h -13.6063" fill="none" stroke="black"/>
<text xml:space="preserve" x="47.0969" y="376.104" fill="black" font-size="13.7523" font-family="Helvetica">0</text>
<text xml:space="preserve" x="47.0969" y="311.756" fill="black" font-size="13.7523" font-family="Helvetica">5</text>
<text xml:space="preserve" x="39.8855" y="247.407" fill="black" font-size="13.7523" font-family="Helvetica">10</text>
<text xml:space="preserve" x="39.8855" y="183.059" fill="black" font-size="13.7523" font-family="Helvetica">15</text>
<text xml:space="preserve" x="39.8855" y="118.711" fill="black" font-size="13.7523" font-family="Helvetica">20</text>
<text xml:space="preserve" x="39.8855" y="54.3631" fill="black" font-size="13.7523" font-family="Helvetica">25</text>
<g transform="rotate(-90,27.6815,44.9327)">
<text xml:space="preserve" x="27.6815" y="44.9327" fill="black" font-size="13.7523" font-family="Helvetica">)</text>
</g>
<g transform="rotate(-90,21.5796,49.9253)">
<text xml:space="preserve" x="21.5796" y="49.9253" fill="black" font-size="9.33489" font-family="Helvetica">2</text>
</g>
<g transform="rotate(-90,27.6815,163.089)">
<text xml:space="preserve" x="27.6815" y="163.089" fill="black" font-size="13.7523" font-family="Helvetica">Events/(  3.3 MeV/c</text>
</g>
<path d="M64.752,332.838h -7.55905" fill="none" stroke="black" stroke-width="4"/>
<path d="M57.1929,333.947v -2.2189" fill="none" stroke="black" stroke-width="4"/>
<path d="M64.752,332.838h 7.55905" fill="none" stroke="black" stroke-width="4"/>
<path d="M72.311,333.947v -2.2189" fill="none" stroke="black" stroke-width="4"/>
<path d="M64.752,332.838v -37.5533" fill="none" stroke="black" stroke-width="4"/>
<path d="M63.6425,295.284h 2.2189" fill="none" stroke="black" stroke-width="4"/>
<path d="M64.752,332.838v 21.0108" fill="none" stroke="black" stroke-width="4"/>
<path d="M63.6425,353.849h 2.2189" fill="none" stroke="black" stroke-width="4"/>
<path d="M79.8701,307.1h -7.55905" fill="none" stroke="black" stroke-width="4"/>
<path d="M72.311,308.21v -2.2189" fill="none" stroke="black" stroke-width="4"/>
<path d="M79.8701,307.1h 7.55905" fill="none" stroke="black" stroke-width="4"/>
<path d="M87.4291,308.21v -2.2189" fill="none" stroke="black" stroke-width="4"/>
<path d="M79.8701,307.1v -43.5281" fill="none" stroke="black" stroke-width="4"/>
<path d="M78.7606,263.572h 2.2189" fill="none" stroke="black" stroke-width="4"/>
<path d="M79.8701,307.1v 27.7925" fill="none" stroke="black" stroke-width="4"/>
<path d="M78.7606,334.893h 2.2189" fill="none" stroke="black" stroke-width="4"/>
<path d="M94.9882,255.625h -7.55905" fill="none" stroke="black" stroke-width="4"/>
<path d="M87.4291,256.735v -2.2189" fill="none" stroke="black" stroke-width="4"/>
<path d="M94.9882,255.625h 7.55905" fill="none" stroke="black" stroke-width="4"/>
<path d="M102.547,256.735v -2.2189" fill="none" stroke="black" stroke-width="4"/>
<path d="M94.9882,255.625v -52.8931" fill="none" stroke="black" stroke-width="4"/>
<path d="M93.8787,202.732h 2.2189" fill="none" stroke="black" stroke-width="4"/>
<path d="M94.9882,255.625v 37.8786" fill="none" stroke="black" stroke-width="4"/>
<path d="M93.8787,293.504h 2.2189" fill="none" stroke="black" stroke-width="4"/>
<path d="M110.106,268.494h -7.55905" fill="none" stroke="black" stroke-width="4"/>
<path d="M102.547,269.604v -2.2189" fill="none" stroke="black" stroke-width="4"/>
<path d="M110.106,268.494h 7.55905" fill="none" stroke="black" stroke-width="4"/>
<path d="M117.665,269.604v -2.2189" fill="none" stroke="black" stroke-width="4"/>
<path d="M110.106,268.494v -50.769" fill="none" stroke="black" stroke-width="4"/>
<path d="M108.997,217.725h 2.2189" fill="none" stroke="black" stroke-width="4"/>
<path d="M110.106,268.494v 35.6256" fill="none" stroke="black" stroke-width="4"/>
<path d="M108.997,304.12h 2.2189" fill="none" stroke="black" stroke-width="4"/>
<path d="M125.224,268.494h -7.55905" fill="none" stroke="black" stroke-width="4"/>
<path d="M117.665,269.604v -2.2189" fill="none" stroke="black" stroke-width="4"/>
<path d="M125.224,268.494h 7.55905" fill="none" stroke="black" stroke-width="4"/>
<path d="M132.783,269.604v -2.2189" fill="none" stroke="black" stroke-width="4"/>
<path d="M125.224,268.494v -50.769" fill="none" stroke="black" stroke-width="4"/>
<path d="M124.115,217.725h 2.2189" fill="none" stroke="black" stroke-width="4"/>
<path d="M125.224,268.494v 35.6256" fill="none" stroke="black" stroke-width="4"/>
<path d="M124.115,304.12h 2.2189" fill="none" stroke="black" stroke-width="4"/>
<path d="M140.343,294.232h -7.55905" fill="none" stroke="black" stroke-width="4"/>
<path d="M132.783,295.341v -2.2189" fill="none" stroke="black" stroke-width="4"/>
<path d="M140.343,294.232h 7.55905" fill="none" stroke="black" stroke-width="4"/>
<path d="M147.902,295.341v -2.2189" fill="none" stroke="black" stroke-width="4"/>
<path d="M140.343,294.232v -46.1169" fill="none" stroke="black" stroke-width="4"/>
<path d="M139.233,248.115h 2.2189" fill="none" stroke="black" stroke-width="4"/>
<path d="M140.343,294.232v 30.6267" fill="none" stroke="black" stroke-width="4"/>
<path d="M139.233,324.858h 2.2189" fill="none" stroke="black" stroke-width="4"/>
<path d="M155.461,294.232h -7.55905" fill="none" stroke="black" stroke-width="4"/>
<path d="M147.902,295.341v -2.2189" fill="none" stroke="black" stroke-width="4"/>
<path d="M155.461,294.232h 7.55905" fill="none" stroke="black" stroke-width="4"/>
<path d="M163.02,295.341v -2.2189" fill="none" stroke="black" stroke-width="4"/>
<path d="M155.461,294.232v -46.1169" fill="none" stroke="black" stroke-width="4"/>
<path d="M154.351,248.115h 2.2189" fill="none" stroke="black" stroke-width="4"/>
<path d="M155.461,294.232v 30.6267" fill="none" stroke="black" stroke-width="4"/>
<path d="M154.351,324.858h 2.2189" fill="none" stroke="black" stroke-width="4"/>
<path d="M170.579,307.1h -7.55905" fill="none" stroke="black" stroke-width="4"/>
<path d="M163.02,308.21v -2.2189" fill="none" stroke="black" stroke-width="4"/>
<path d="M170.579,307.1h 7.55905" fill="none" stroke="black" stroke-width="4"/>
<path d="M178.138,308.21v -2.2189" fill="none" stroke="black" stroke-width="4"/>
<path d="M170.579,307.1v -43.5281" fill="none" stroke="black" stroke-width="4"/>
<path d="M169.469,263.572h 2.2189" fill="none" stroke="black" stroke-width="4"/>
<path d="M170.579,307.1v 27.7925" fill="none" stroke="black" stroke-width="4"/>
<path d="M169.469,334.893h 2.2189" fill="none" stroke="black" stroke-width="4"/>
<path d="M185.697,268.494h -7.55905" fill="none" stroke="black" stroke-width="4"/>
<path d="M178.138,269.604v -2.2189" fill="none" stroke="black" stroke-width="4"/>
<path d="M185.697,268.494h 7.55905" fill="none" stroke="black" stroke-width="4"/>
<path d="M193.256,269.604v -2.2189" fill="none" stroke="black" stroke-width="4"/>
<path d="M185.697,268.494v -50.769" fill="none" stroke="black" stroke-width="4"/>
<path d="M184.587,217.725h 2.2189" fill="none" stroke="black" stroke-width="4"/>
<path d="M185.697,268.494v 35.6256" fill="none" stroke="black" stroke-width="4"/>
<path d="M184.587,304.12h 2.2189" fill="none" stroke="black" stroke-width="4"/>
<path d="M200.815,294.232h -7.55905" fill="none" stroke="black" stroke-width="4"/>
<path d="M193.256,295.341v -2.2189" fill="none" stroke="black" stroke-width="4"/>
<path d="M200.815,294.232h 7.55905" fill="none" stroke="black" stroke-width="4"/>
<path d="M208.374,295.341v -2.2189" fill="none" stroke="black" stroke-width="4"/>
<path d="M200.815,294.232v -46.1169" fill="none" stroke="black" stroke-width="4"/>
<path d="M199.706,248.115h 2.2189" fill="none" stroke="black" stroke-width="4"/>
<path d="M200.815,294.232v 30.6267" fill="none" stroke="black" stroke-width="4"/>
<path d="M199.706,324.858h 2.2189" fill="none" stroke="black" stroke-width="4"/>
<path d="M215.933,229.888h -7.55905" fill="none" stroke="black" stroke-width="4"/>
<path d="M208.374,230.997v -2.2189" fill="none" stroke="black" stroke-width="4"/>
<path d="M215.933,229.888h 7.55905" fill="none" stroke="black" stroke-width="4"/>
<path d="M223.492,230.997v -2.2189" fill="none" stroke="black" stroke-width="4"/>
<path d="M215.933,229.888v -56.835" fill="none" stroke="black" stroke-width="4"/>
<path d="M214.824,173.053h 2.2189" fill="none" stroke="black" stroke-width="4"/>
<path d="M215.933,229.888v 42.0239" fill="none" stroke="black" stroke-width="4"/>
<path d="M214.824,271.912h 2.2189" fill="none" stroke="black" stroke-width="4"/>
<path d="M231.051,126.938h -7.55905" fill="none" stroke="black" stroke-width="4"/>
<path d="M223.492,128.048v -2.2189" fill="none" stroke="black" stroke-width="4"/>
<path d="M231.051,126.938h 7.55905" fill="none" stroke="black" stroke-width="4"/>
<path d="M238.61,128.048v -2.2189" fill="none" stroke="black" stroke-width="4"/>
<path d="M231.051,126.938v -69.9441" fill="none" stroke="black" stroke-width="4"/>
<path d="M229.942,56.9941h 2.2189" fill="none" stroke="black" stroke-width="4"/>
<path d="M231.051,126.938v 55.5957" fill="none" stroke="black" stroke-width="4"/>
<path d="M229.942,182.534h 2.2189" fill="none" stroke="black" stroke-width="4"/>
<path d="M246.169,319.969h -7.55905" fill="none" stroke="black" stroke-width="4"/>
<path d="M238.61,321.078v -2.2189" fill="none" stroke="black" stroke-width="4"/>
<path d="M246.169,319.969h 7.55905" fill="none" stroke="black" stroke-width="4"/>
<path d="M253.728,321.078v -2.2189" fill="none" stroke="black" stroke-width="4"/>
<path d="M246.169,319.969v -40.7006" fill="none" stroke="black" stroke-width="4"/>
<path d="M245.06,279.268h 2.2189" fill="none" stroke="black" stroke-width="4"/>
<path d="M246.169,319.969v 24.6351" fill="none" stroke="black" stroke-width="4"/>
<path d="M245.06,344.604h 2.2189" fill="none" stroke="black" stroke-width="4"/>
<path d="M261.287,332.838h -7.55905" fill="none" stroke="black" stroke-width="4"/>
<path d="M253.728,333.947v -2.2189" fill="none" stroke="black" stroke-width="4"/>
<path d="M261.287,332.838h 7.55905" fill="none" stroke="black" stroke-width="4"/>
<path d="M268.846,333.947v -2.2189" fill="none" stroke="black" stroke-width="4"/>
<path d="M261.287,332.838v -37.5533" fill="none" stroke="black" stroke-width="4"/>
<path d="M260.178,295.284h 2.2189" fill="none" stroke="black" stroke-width="4"/>
<path d="M261.287,332.838v 21.0108" fill="none" stroke="black" stroke-width="4"/>
<path d="M260.178,353.849h 2.2189" fill="none" stroke="black" stroke-width="4"/>
<path d="M276.406,319.969h -7.55905" fill="none" stroke="black" stroke-width="4"/>
<path d="M268.846,321.078v -2.2189" fill="none" stroke="black" stroke-width="4"/>
<path d="M276.406,319.969h 7.55905" fill="none" stroke="black" stroke-width="4"/>
<path d="M283.965,321.078v -2.2189" fill="none" stroke="black" stroke-width="4"/>
<path d="M276.406,319.969v -40.7006" fill="none" stroke="black" stroke-width="4"/>
<path d="M275.296,279.268h 2.2189" fill="none" stroke="black" stroke-width="4"/>
<path d="M276.406,319.969v 24.6351" fill="none" stroke="black" stroke-width="4"/>
<path d="M275.296,344.604h 2.2189" fill="none" stroke="black" stroke-width="4"/>
<path d="M291.524,294.232h -7.55905" fill="none" stroke="black" stroke-width="4"/>
<path d="M283.965,295.341v -2.2189" fill="none" stroke="black" stroke-width="4"/>
<path d="M291.524,294.232h 7.55905" fill="none" stroke="black" stroke-width="4"/>
<path d="M299.083,295.341v -2.2189" fill="none" stroke="black" stroke-width="4"/>
<path d="M291.524,294.232v -46.1169" fill="none" stroke="black" stroke-width="4"/>
<path d="M290.414,248.115h 2.2189" fill="none" stroke="black" stroke-width="4"/>
<path d="M291.524,294.232v 30.6267" fill="none" stroke="black" stroke-width="4"/>
<path d="M290.414,324.858h 2.2189" fill="none" stroke="black" stroke-width="4"/>
<path d="M306.642,294.232h -7.55905" fill="none" stroke="black" stroke-width="4"/>
<path d="M299.083,295.341v -2.2189" fill="none" stroke="black" stroke-width="4"/>
<path d="M306.642,294.232h 7.55905" fill="none" stroke="black" stroke-width="4"/>
<path d="M314.201,295.341v -2.2189" fill="none" stroke="black" stroke-width="4"/>
<path d="M306.642,294.232v -46.1169" fill="none" stroke="black" stroke-width="4"/>
<path d="M305.532,248.115h 2.2189" fill="none" stroke="black" stroke-width="4"/>
<path d="M306.642,294.232v 30.6267" fill="none" stroke="black" stroke-width="4"/>
<path d="M305.532,324.858h 2.2189" fill="none" stroke="black" stroke-width="4"/>
<path d="M321.76,319.969h -7.55905" fill="none" stroke="black" stroke-width="4"/>
<path d="M314.201,321.078v -2.2189" fill="none" stroke="black" stroke-width="4"/>
<path d="M321.76,319.969h 7.55905" fill="none" stroke="black" stroke-width="4"/>
<path d="M329.319,321.078v -2.2189" fill="none" stroke="black" stroke-width="4"/>
<path d="M321.76,319.969v -40.7006" fill="none" stroke="black" stroke-width="4"/>
<path d="M320.65,279.268h 2.2189" fill="none" stroke="black" stroke-width="4"/>
<path d="M321.76,319.969v 24.6351" fill="none" stroke="black" stroke-width="4"/>
<path d="M320.65,344.604h 2.2189" fill="none" stroke="black" stroke-width="4"/>
<path d="M336.878,371.444h -7.55905" fill="none" stroke="black" stroke-width="4"/>
<path d="M329.319,371.444v -1.10945" fill="none" stroke="black" stroke-width="4"/>
<path d="M336.878,371.444h 7.55905" fill="none" stroke="black" stroke-width="4"/>
<path d="M344.437,371.444v -1.10945" fill="none" stroke="black" stroke-width="4"/>
<path d="M336.878,371.444v -14.7717" fill="none" stroke="black" stroke-width="4"/>
<path d="M335.768,356.672h 2.2189" fill="none" stroke="black" stroke-width="4"/>
<path d="M351.996,319.969h -7.55905" fill="none" stroke="black" stroke-width="4"/>
<path d="M344.437,321.078v -2.2189" fill="none" stroke="black" stroke-width="4"/>
<path d="M351.996,319.969h 7.55905" fill="none" stroke="black" stroke-width="4"/>
<path d="M359.555,321.078v -2.2189" fill="none" stroke="black" stroke-width="4"/>
<path d="M351.996,319.969v -40.7006" fill="none" stroke="black" stroke-width="4"/>
<path d="M350.887,279.268h 2.2189" fill="none" stroke="black" stroke-width="4"/>
<path d="M351.996,319.969v 24.6351" fill="none" stroke="black" stroke-width="4"/>
<path d="M350.887,344.604h 2.2189" fill="none" stroke="black" stroke-width="4"/>
<path d="M367.114,307.1h -7.55905" fill="none" stroke="black" stroke-width="4"/>
<path d="M359.555,308.21v -2.2189" fill="none" stroke="black" stroke-width="4"/>
<path d="M367.114,307.1h 7.55905" fill="none" stroke="black" stroke-width="4"/>
<path d="M374.673,308.21v -2.2189" fill="none" stroke="black" stroke-width="4"/>
<path d="M367.114,307.1v -43.5281" fill="none" stroke="black" stroke-width="4"/>
<path d="M366.005,263.572h 2.2189" fill="none" stroke="black" stroke-width="4"/>
<path d="M367.114,307.1v 27.7925" fill="none" stroke="black" stroke-width="4"/>
<path d="M366.005,334.893h 2.2189" fill="none" stroke="black" stroke-width="4"/>
<path d="M382.232,358.575h -7.55905" fill="none" stroke="black" stroke-width="4"/>
<path d="M374.673,359.685v -2.2189" fill="none" stroke="black" stroke-width="4"/>
<path d="M382.232,358.575h 7.55905" fill="none" stroke="black" stroke-width="4"/>
<path d="M389.791,359.685v -2.2189" fill="none" stroke="black" stroke-width="4"/>
<path d="M382.232,358.575v -29.592" fill="none" stroke="black" stroke-width="4"/>
<path d="M381.123,328.983h 2.2189" fill="none" stroke="black" stroke-width="4"/>
<path d="M382.232,358.575v 10.6456" fill="none" stroke="black" stroke-width="4"/>
<path d="M381.123,369.221h 2.2189" fill="none" stroke="black" stroke-width="4"/>
<path d="M397.35,371.444h -7.55905" fill="none" stroke="black" stroke-width="4"/>
<path d="M389.791,371.444v -1.10945" fill="none" stroke="black" stroke-width="4"/>
<path d="M397.35,371.444h 7.55905" fill="none" stroke="black" stroke-width="4"/>
<path d="M404.909,371.444v -1.10945" fill="none" stroke="black" stroke-width="4"/>
<path d="M397.35,371.444v -14.7717" fill="none" stroke="black" stroke-width="4"/>
<path d="M396.241,356.672h 2.2189" fill="none" stroke="black" stroke-width="4"/>
<path d="M412.469,345.707h -7.55905" fill="none" stroke="black" stroke-width="4"/>
<path d="M404.909,346.816v -2.2189" fill="none" stroke="black" stroke-width="4"/>
<path d="M412.469,345.707h 7.55905" fill="none" stroke="black" stroke-width="4"/>
<path d="M420.028,346.816v -2.2189" fill="none" stroke="black" stroke-width="4"/>
<path d="M412.469,345.707v -33.9459" fill="none" stroke="black" stroke-width="4"/>
<path d="M411.359,311.761h 2.2189" fill="none" stroke="black" stroke-width="4"/>
<path d="M412.469,345.707v 16.624" fill="none" stroke="black" stroke-width="4"/>
<path d="M411.359,362.331h 2.2189" fill="none" stroke="black" stroke-width="4"/>
<path d="M427.587,345.707h -7.55905" fill="none" stroke="black" stroke-width="4"/>
<path d="M420.028,346.816v -2.2189" fill="none" stroke="black" stroke-width="4"/>
<path d="M427.587,345.707h 7.55905" fill="none" stroke="black" stroke-width="4"/>
<path d="M435.146,346.816v -2.2189" fill="none" stroke="black" stroke-width="4"/>
<path d="M427.587,345.707v -33.9459" fill="none" stroke="black" stroke-width="4"/>
<path d="M426.477,311.761h 2.2189" fill="none" stroke="black" stroke-width="4"/>
<path d="M427.587,345.707v 16.624" fill="none" stroke="black" stroke-width="4"/>
<path d="M426.477,362.331h 2.2189" fill="none" stroke="black" stroke-width="4"/>
<path d="M442.705,371.444h -7.55905" fill="none" stroke="black" stroke-width="4"/>
<path d="M435.146,371.444v -1.10945" fill="none" stroke="black" stroke-width="4"/>
<path d="M442.705,371.444h 7.55905" fill="none" stroke="black" stroke-width="4"/>
<path d="M450.264,371.444v -1.10945" fill="none" stroke="black" stroke-width="4"/>
<path d="M442.705,371.444v -14.7717" fill="none" stroke="black" stroke-width="4"/>
<path d="M441.595,356.672h 2.2189" fill="none" stroke="black" stroke-width="4"/>
<path d="M457.823,358.575h -7.55905" fill="none" stroke="black" stroke-width="4"/>
<path d="M450.264,359.685v -2.2189" fill="none" stroke="black" stroke-width="4"/>
<path d="M457.823,358.575h 7.55905" fill="none" stroke="black" stroke-width="4"/>
<path d="M465.382,359.685v -2.2189" fill="none" stroke="black" stroke-width="4"/>
<path d="M457.823,358.575v -29.592" fill="none" stroke="black" stroke-width="4"/>
<path d="M456.713,328.983h 2.2189" fill="none" stroke="black" stroke-width="4"/>
<path d="M457.823,358.575v 10.6456" fill="none" stroke="black" stroke-width="4"/>
<path d="M456.713,369.221h 2.2189" fill="none" stroke="black" stroke-width="4"/>
<path d="M472.941,371.444h -7.55905" fill="none" stroke="black" stroke-width="4"/>
<path d="M465.382,371.444v -1.10945" fill="none" stroke="black" stroke-width="4"/>
<path d="M472.941,371.444h 7.55905" fill="none" stroke="black" stroke-width="4"/>
<path d="M480.5,371.444v -1.10945" fill="none" stroke="black" stroke-width="4"/>
<path d="M472.941,371.444v -14.7717" fill="none" stroke="black" stroke-width="4"/>
<path d="M471.831,356.672h 2.2189" fill="none" stroke="black" stroke-width="4"/>
<path d="M488.059,371.444h -7.55905" fill="none" stroke="black" stroke-width="4"/>
<path d="M480.5,371.444v -1.10945" fill="none" stroke="black" stroke-width="4"/>
<path d="M488.059,371.444h 7.55905" fill="none" stroke="black" stroke-width="4"/>
<path d="M495.618,371.444v -1.10945" fill="none" stroke="black" stroke-width="4"/>
<path d="M488.059,371.444v -14.7717" fill="none" stroke="black" stroke-width="4"/>
<path d="M486.95,356.672h 2.2189" fill="none" stroke="black" stroke-width="4"/>
<path d="M503.177,371.444h -7.55905" fill="none" stroke="black" stroke-width="4"/>
<path d="M495.618,371.444v -1.10945" fill="none" stroke="black" stroke-width="4"/>
<path d="M503.177,371.444h 7.55905" fill="none" stroke="black" stroke-width="4"/>
<path d="M510.736,371.444v -1.10945" fill="none" stroke="black" stroke-width="4"/>
<path d="M503.177,371.444v -14.7717" fill="none" stroke="black" stroke-width="4"/>
<path d="M502.068,356.672h 2.2189" fill="none" stroke="black" stroke-width="4"/>
<g fill="black">
<circle cx="64.752" cy="332.838" r="2.2189"/>
<circle cx="79.8701" cy="307.1" r="2.2189"/>
<circle cx="94.9882" cy="255.625" r="2.2189"/>
<circle cx="110.106" cy="268.494" r="2.2189"/>
<circle cx="125.224" cy="268.494" r="2.2189"/>
<circle cx="140.343" cy="294.232" r="2.2189"/>
<circle cx="155.461" cy="294.232" r="2.2189"/>
<circle cx="170.579" cy="307.1" r="2.2189"/>
<circle cx="185.697" cy="268.494" r="2.2189"/>
<circle cx="200.815" cy="294.232" r="2.2189"/>
<circle cx="215.933" cy="229.888" r="2.2189"/>
<circle cx="231.051" cy="126.938" r="2.2189"/>
<circle cx="246.169" cy="319.969" r="2.2189"/>
<circle cx="261.287" cy="332.838" r="2.2189"/>
<circle cx="276.406" cy="319.969" r="2.2189"/>
<circle cx="291.524" cy="294.232" r="2.2189"/>
<circle cx="306.642" cy="294.232" r="2.2189"/>
<circle cx="321.76" cy="319.969" r="2.2189"/>
<circle cx="336.878" cy="371.444" r="2.2189"/>
<circle cx="351.996" cy="319.969" r="2.2189"/>
<circle cx="367.114" cy="307.1" r="2.2189"/>
<circle cx="382.232" cy="358.575" r="2.2189"/>
<circle cx="397.35" cy="371.444" r="2.2189"/>
<circle cx="412.469" cy="345.707" r="2.2189"/>
<circle cx="427.587" cy="345.707" r="2.2189"/>
<circle cx="442.705" cy="371.444" r="2.2189"/>
<circle cx="457.823" cy="358.575" r="2.2189"/>
<circle cx="472.941" cy="371.444" r="2.2189"/>
<circle cx="488.059" cy="371.444" r="2.2189"/>
<circle cx="503.177" cy="371.444" r="2.2189"/>
</g>
<path d="M57.1929,277.065z" fill="none" stroke="#ff0000" stroke-width="6"/>
<path d="M57.1929,277.065l 4.53543, 0.904955l 4.53543, 0.904119l 4.53543, 0.903728l 4.53543, 0.903628l 4.53543, 0.903906l 4.53543, 0.904609l 4.53543, 0.905728l 4.53543, 0.907195l 4.53543, 0.908874l 4.53543, 0.910596l 4.53543, 0.912177l 4.53543,
 0.913443l 4.53543, 0.914261l 4.53543, 0.914544l 4.53543, 0.914226l 4.53543, 0.913217l 4.53543, 0.911289l 4.53543, 0.90787l 4.53543, 0.901713l 4.53543, 0.890305l 4.53543, 0.869348l 4.53543, 0.83327l 4.53543, 0.776674l 4.53543, 0.696843l 4.53543,
 0.593187l 4.53543, 0.449619l 4.53543, 0.205602l 4.53543, -0.229309l 4.53543, -0.947191l 4.53543, -2.20382l 2.26772, -1.84742l 2.26772, -2.54071l 2.26772, -3.51175l 1.13386, -2.31182l 1.13386, -2.884l 1.13386, -3.69617l 1.13386, -4.754l 1.13386,
 -5.88517l 1.13386, -6.71845l 2.26772, -14.0087l 1.13386, -7.48367l 1.13386, -8.7072l 4.53543, -41.4393l 1.13386, -9.75352l 1.13386, -9.08552l 2.26772, -17.1709l 1.13386, -8.88904l 0.566929, -3.64368l 0.566929, -2.60299l 0.566929, -1.30448l 0.566929,
 0.042304l 0.566929, 1.20911l 0.566929, 1.97982l 1.13386, 4.23773l 1.13386, 2.91821l 0.566929, 1.70717l 0.566929, 2.64796l 0.566929, 3.9402l 0.566929, 5.25219l 0.566929, 6.33698l 0.566929, 7.11586l 1.13386, 15.4665l 1.13386, 15.0501l 0.566929,
 6.49117l 0.566929, 5.48364l 0.566929, 4.55357l 0.566929, 3.86244l 1.13386, 7.03606l 1.13386, 7.76733l 1.13386, 8.53555l 1.13386, 8.20058l 1.13386, 7.12975l 1.13386, 6.09455l 1.13386, 5.32315l 1.13386, 4.73445l 1.13386, 4.17897l 1.13386, 3.58105l
 1.13386, 2.97653l 2.26772, 4.61694l 2.26772, 3.72615l 4.53543, 6.15002l 4.53543, 4.40998l 4.53543, 3.34779l 4.53543, 2.65582l 4.53543, 2.1284l 4.53543, 1.7609l 4.53543, 1.50008l 4.53543, 1.30849l 4.53543, 1.17435l 4.53543, 1.09066l 4.53543, 1.04396l
 4.53543, 1.0188l 4.53543, 1.00407l 4.53543, 0.993849l 4.53543, 0.985612l 4.53543, 0.978559l 4.53543, 0.972611l 4.53543, 0.967893l 4.53543, 0.96442l 4.53543, 0.962097l 4.53543, 0.960749l 4.53543, 0.960149l 4.53543, 0.960099l 4.53543, 0.960451l
 4.53543, 0.961093l 4.53543, 0.961943l 4.53543, 0.962928l 4.53543, 0.963971l 4.53543, 0.964993l 4.53543, 0.96591l 4.53543, 0.96665l 4.53543, 0.967158l 4.53543, 0.967408l 4.53543, 0.967405l 4.53543, 0.967183l 4.53543, 0.966795l 4.53543, 0.966318l
 4.53543, 0.965825l 4.53543, 0.965382l 4.53543, 0.965049l 4.53543, 0.964866l 4.53543, 0.964853l 4.53543, 0.965016l 4.53543, 0.965347l 4.53543, 0.965828l 4.53543, 0.966435l 4.53543, 0.96714l 4.53543, 0.967914l 4.53543, 0.968732l 4.53543, 0.969569l
 4.53543, 0.970405l 4.53543, 0.971224l 4.53543, 0.972011l 4.53543, 0.972756l 4.53543, 0.973454l 4.53543, 0.974098l 4.53543, 0.974531" fill="none" stroke="#ff0000" stroke-width="6"/>
<path d="M57.1929,371.392z" fill="none" stroke="#0000ff" stroke-width="6" stroke-dasharray=" 3, 3"/>
<path d="M57.1929,371.392l 4.53543, -0.00938395l 4.53543, -0.0108332l 4.53543, -0.0118355l 4.53543, -0.0125464l 4.53543, -0.0128792l 4.53543, -0.012785l 4.53543, -0.0122745l 4.53543, -0.0114158l 4.53543, -0.0103429l 4.53543, -0.00922685l 4.53543,
 -0.00825105l 4.53543, -0.00758975l 4.53543, -0.00737478l 4.53543, -0.00769393l 4.53543, -0.00861384l 4.53543, -0.010224l 4.53543, -0.012752l 4.53543, -0.0167693l 4.53543, -0.0235243l 4.53543, -0.0355303l 4.53543, -0.057084l 4.53543, -0.0937575l
 4.53543, -0.150948l 4.53543, -0.231373l 4.53543, -0.335622l 4.53543, -0.479782l 4.53543, -0.72439l 4.53543, -1.15989l 4.53543, -1.87836l 2.26772, -1.36194l 2.26772, -1.77363l 2.26772, -2.31353l 2.26772, -3.00696l 2.26772, -3.97815l 1.13386,
 -2.54507l 1.13386, -3.11729l 1.13386, -3.92949l 1.13386, -4.98736l 1.13386, -6.11857l 1.13386, -6.95188l 2.26772, -14.4757l 1.13386, -7.71722l 0.566929, -4.28506l 0.566929, -4.65572l 4.53543, -42.374l 1.13386, -9.98728l 1.13386, -9.31932l 1.13386,
 -8.6171l 1.13386, -9.02155l 1.13386, -9.12295l 0.566929, -3.76065l 0.566929, -2.71997l 0.566929, -1.42147l 0.566929, -0.0746919l 0.566929, 1.0921l 0.566929, 1.86281l 1.13386, 4.00367l 1.13386, 2.68412l 0.566929, 1.59011l 0.566929, 2.53089l 0.566929,
 3.82312l 0.566929, 5.1351l 0.566929, 6.21989l 0.566929, 6.99876l 1.13386, 15.2323l 0.566929, 7.63463l 0.566929, 7.18117l 0.566929, 6.37402l 0.566929, 5.36648l 0.566929, 4.4364l 0.566929, 3.74526l 1.13386, 6.80168l 1.13386, 7.53291l 1.13386, 8.30109l
 1.13386, 7.96609l 1.13386, 6.89522l 1.13386, 5.85998l 1.13386, 5.08855l 1.13386, 4.49982l 1.13386, 3.94429l 1.13386, 3.34635l 1.13386, 2.74179l 1.13386, 2.24681l 1.13386, 1.90054l 2.26772, 3.25641l 2.26772, 2.83096l 2.26772, 2.37915l 2.26772,
 1.9171l 2.26772, 1.55239l 4.53543, 2.40673l 4.53543, 1.71418l 4.53543, 1.18619l 4.53543, 0.818115l 4.53543, 0.556724l 4.53543, 0.364565l 4.53543, 0.229856l 4.53543, 0.145594l 4.53543, 0.0983284l 4.53543, 0.0726039l 4.53543, 0.0573114l 4.53543,
 0.0465212l 4.53543, 0.0377206l 4.53543, 0.0301039l 4.53543, 0.0235934l 4.53543, 0.0183136l 4.53543, 0.0142805l 4.53543, 0.0113972l 4.53543, 0.00949049l 4.53543, 0.00833211l 4.53543, 0.00772518l 4.53543, 0.00752041l 4.53543, 0.00760662l 4.53543,
 0.00790211l 4.53543, 0.00833349l 4.53543, 0.00882408l 4.53543, 0.00929385l 4.53543, 0.00966055l 4.53543, 0.00984996l 4.53543, 0.00980936l 4.53543, 0.00951067l 4.53543, 0.00896007l 4.53543, 0.00819125l 4.53543, 0.00725822l 4.53543, 0.00623644l
 4.53543, 0.00519931l 4.53543, 0.00421339l 4.53543, 0.00333839l 4.53543, 0.00261385l 4.53543, 0.00206008l 4.53543, 0.00168364l 4.53543, 0.00147672l 4.53543, 0.00142023l 4.53543, 0.00149032l 4.53543, 0.00165894l 4.53543, 0.00189818l 4.53543,
 0.00218253l 4.53543, 0.00248659l 4.53543, 0.00279045l 4.53543, 0.00307791l 4.53543, 0.00333432l 4.53543, 0.00355001l 4.53543, 0.00371852l 4.53543, 0.00383531l 4.53543, 0.00374101" fill="none" stroke="#0000ff" stroke-width="6" stroke-dasharray=" 3,
 3"/>
<path d="M57.1929,277.117z" fill="none" stroke="#00ff00" stroke-width="6" stroke-dasharray=" 3, 3"/>
<path d="M57.1929,277.117l 4.53543, 0.914339l 4.53543, 0.914952l 4.53543, 0.915564l 4.53543, 0.916175l 4.53543, 0.916785l 4.53543, 0.917394l 4.53543, 0.918003l 4.53543, 0.91861l 4.53543, 0.919217l 4.53543, 0.919823l 4.53543, 0.920428l 4.53543,
 0.921032l 4.53543, 0.921636l 4.53543, 0.922238l 4.53543, 0.92284l 4.53543, 0.923441l 4.53543, 0.924041l 4.53543, 0.92464l 4.53543, 0.925238l 4.53543, 0.925835l 4.53543, 0.926432l 4.53543, 0.927027l 4.53543, 0.927622l 4.53543, 0.928216l 4.53543,
 0.928809l 4.53543, 0.929401l 4.53543, 0.929992l 4.53543, 0.930583l 4.53543, 0.931172l 4.53543, 0.931761l 4.53543, 0.932349l 4.53543, 0.932936l 4.53543, 0.933522l 4.53543, 0.934107l 4.53543, 0.934692l 4.53543, 0.935275l 4.53543, 0.935858l 4.53543,
 0.93644l 4.53543, 0.937021l 4.53543, 0.937601l 4.53543, 0.93818l 4.53543, 0.938758l 4.53543, 0.939336l 4.53543, 0.939912l 4.53543, 0.940488l 4.53543, 0.941063l 4.53543, 0.941637l 4.53543, 0.94221l 4.53543, 0.942782l 4.53543, 0.943353l 4.53543,
 0.943923l 4.53543, 0.944493l 4.53543, 0.945062l 4.53543, 0.945629l 4.53543, 0.946196l 4.53543, 0.946762l 4.53543, 0.947327l 4.53543, 0.947892l 4.53543, 0.948455l 4.53543, 0.949018l 4.53543, 0.949579l 4.53543, 0.95014l 4.53543, 0.9507l 4.53543,
 0.951259l 4.53543, 0.951817l 4.53543, 0.952374l 4.53543, 0.952931l 4.53543, 0.953486l 4.53543, 0.95404l 4.53543, 0.954594l 4.53543, 0.955147l 4.53543, 0.955699l 4.53543, 0.95625l 4.53543, 0.9568l 4.53543, 0.957349l 4.53543, 0.957897l 4.53543,
 0.958445l 4.53543, 0.958992l 4.53543, 0.959537l 4.53543, 0.960082l 4.53543, 0.960626l 4.53543, 0.961169l 4.53543, 0.961711l 4.53543, 0.962252l 4.53543, 0.962792l 4.53543, 0.963332l 4.53543, 0.96387l 4.53543, 0.964408l 4.53543, 0.964945l 4.53543,
 0.965481l 4.53543, 0.966016l 4.53543, 0.96655l 4.53543, 0.967083l 4.53543, 0.967615l 4.53543, 0.968146l 4.53543, 0.968677l 4.53543, 0.969206l 4.53543, 0.969735l 4.53543, 0.970263l 4.53543, 0.97079" fill="none" stroke="#00ff00" stroke-width="6"
 stroke-dasharray=" 3, 3"/>
<path d="M57.1929,371.444h 453.543" fill="none" stroke="black"/>
<path d="M57.1929,361.539v 9.90517" fill="none" stroke="black"/>
<path d="M66.2638,366.491v 4.95259" fill="none" stroke="black"/>
<path d="M75.3346,366.491v 4.95259" fill="none" stroke="black"/>
<path d="M84.4055,366.491v 4.95259" fill="none" stroke="black"/>
<path d="M93.4764,366.491v 4.95259" fill="none" stroke="black"/>
<path d="M102.547,361.539v 9.90517" fill="none" stroke="black"/>
<path d="M111.618,366.491v 4.95259" fill="none" stroke="black"/>
<path d="M120.689,366.491v 4.95259" fill="none" stroke="black"/>
<path d="M129.76,366.491v 4.95259" fill="none" stroke="black"/>
<path d="M138.831,366.491v 4.95259" fill="none" stroke="black"/>
<path d="M147.902,361.539v 9.90517" fill="none" stroke="black"/>
<path d="M156.972,366.491v 4.95259" fill="none" stroke="black"/>
<path d="M166.043,366.491v 4.95259" fill="none" stroke="black"/>
<path d="M175.114,366.491v 4.95259" fill="none" stroke="black"/>
<path d="M184.185,366.491v 4.95259" fill="none" stroke="black"/>
<path d="M193.256,361.539v 9.90517" fill="none" stroke="black"/>
<path d="M202.327,366.491v 4.95259" fill="none" stroke="black"/>
<path d="M211.398,366.491v 4.95259" fill="none" stroke="black"/>
<path d="M220.469,366.491v 4.95259" fill="none" stroke="black"/>
<path d="M229.539,366.491v 4.95259" fill="none" stroke="black"/>
<path d="M238.61,361.539v 9.90517" fill="none" stroke="black"/>
<path d="M247.681,366.491v 4.95259" fill="none" stroke="black"/>
<path d="M256.752,366.491v 4.95259" fill="none" stroke="black"/>
<path d="M265.823,366.491v 4.95259" fill="none" stroke="black"/>
<path d="M274.894,366.491v 4.95259" fill="none" stroke="black"/>
<path d="M283.965,361.539v 9.90517" fill="none" stroke="black"/>
<path d="M293.035,366.491v 4.95259" fill="none" stroke="black"/>
<path d="M302.106,366.491v 4.95259" fill="none" stroke="black"/>
<path d="M311.177,366.491v 4.95259" fill="none" stroke="black"/>
<path d="M320.248,366.491v 4.95259" fill="none" stroke="black"/>
<path d="M329.319,361.539v 9.90517" fill="none" stroke="black"/>
<path d="M338.39,366.491v 4.95259" fill="none" stroke="black"/>
<path d="M347.461,366.491v 4.95259" fill="none" stroke="black"/>
<path d="M356.531,366.491v 4.95259" fill="none" stroke="black"/>
<path d="M365.602,366.491v 4.95259" fill="none" stroke="black"/>
<path d="M374.673,361.539v 9.90517" fill="none" stroke="black"/>
<path d="M383.744,366.491v 4.95259" fill="none" stroke="black"/>
<path d="M392.815,366.491v 4.95259" fill="none" stroke="black"/>
<path d="M401.886,366.491v 4.95259" fill="none" stroke="black"/>
<path d="M410.957,366.491v 4.95259" fill="none" stroke="black"/>
<path d="M420.028,361.539v 9.90517" fill="none" stroke="black"/>
<path d="M429.098,366.491v 4.95259" fill="none" stroke="black"/>
<path d="M438.169,366.491v 4.95259" fill="none" stroke="black"/>
<path d="M447.24,366.491v 4.95259" fill="none" stroke="black"/>
<path d="M456.311,366.491v 4.95259" fill="none" stroke="black"/>
<path d="M465.382,361.539v 9.90517" fill="none" stroke="black"/>
<path d="M474.453,366.491v 4.95259" fill="none" stroke="black"/>
<path d="M483.524,366.491v 4.95259" fill="none" stroke="black"/>
<path d="M492.594,366.491v 4.95259" fill="none" stroke="black"/>
<path d="M501.665,366.491v 4.95259" fill="none" stroke="black"/>
<path d="M510.736,361.539v 9.90517" fill="none" stroke="black"/>
<path d="M57.1929,371.444v -330.172" fill="none" stroke="black"/>
<path d="M70.7992,371.444h -13.6063" fill="none" stroke="black"/>
<path d="M63.9961,358.575h -6.80315" fill="none" stroke="black"/>
<path d="M63.9961,345.707h -6.80315" fill="none" stroke="black"/>
<path d="M63.9961,332.838h -6.80315" fill="none" stroke="black"/>
<path d="M63.9961,319.969h -6.80315" fill="none" stroke="black"/>
<path d="M70.7992,307.1h -13.6063" fill="none" stroke="black"/>
<path d="M63.9961,294.232h -6.80315" fill="none" stroke="black"/>
<path d="M63.9961,281.363h -6.80315" fill="none" stroke="black"/>
<path d="M63.9961,268.494h -6.80315" fill="none" stroke="black"/>
<path d="M63.9961,255.625h -6.80315" fill="none" stroke="black"/>
<path d="M70.7992,242.757h -13.6063" fill="none" stroke="black"/>
<path d="M63.9961,229.888h -6.80315" fill="none" stroke="black"/>
<path d="M63.9961,217.019h -6.80315" fill="none" stroke="black"/>
<path d="M63.9961,204.15h -6.80315" fill="none" stroke="black"/>
<path d="M63.9961,191.282h -6.80315" fill="none" stroke="black"/>
<path d="M70.7992,178.413h -13.6063" fill="none" stroke="black"/>
<path d="M63.9961,165.544h -6.80315" fill="none" stroke="black"/>
<path d="M63.9961,152.676h -6.80315" fill="none" stroke="black"/>
<path d="M63.9961,139.807h -6.80315" fill="none" stroke="black"/>
<path d="M63.9961,126.938h -6.80315" fill="none" stroke="black"/>
<path d="M70.7992,114.069h -13.6063" fill="none" stroke="black"/>
<path d="M63.9961,101.201h -6.80315" fill="none" stroke="black"/>
<path d="M63.9961,88.3319h -6.80315" fill="none" stroke="black"/>
<path d="M63.9961,75.4632h -6.80315" fill="none" stroke="black"/>
<path d="M63.9961,62.5945h -6.80315" fill="none" stroke="black"/>
<path d="M70.7992,49.7257h -13.6063" fill="none" stroke="black"/>
<path d="M70.7992,49.7257h -13.6063" fill="none" stroke="black"/>
<rect x="369.004" y="49.5259" width="130.394" height="53.653" fill="white"/>
<text xml:space="preserve" x="374.385" y="88.756" fill="black" font-size="34.5151" font-family="Helvetica" font-weight="bold">all data</text></svg>
