<?xml version="1.0" standalone="no"?>
<svg width="567.429" height="407.891" viewBox="0 0 567.429 407.891" xmlns="http://www.w3.org/2000/svg" shape-rendering="crispEdges">
<title>
pic_fitInclusive4600.svg
</title>
<desc>
Creator: ROOT Version 6.20/06
CreationDate: Thu Apr 29 13:06:12 2021</desc>
<defs>
</defs>
<rect x="0.5" y="0" width="566.929" height="407.391" fill="white"/>
<rect x="57.1929" y="40.7391" width="453.543" height="325.913" fill="white"/>
<rect x="57.1929" y="40.7391" width="453.543" height="325.913" fill="none" stroke="black"/>
<rect x="57.1929" y="40.7391" width="453.543" height="325.913" fill="white"/>
<rect x="57.1929" y="40.7391" width="453.543" height="325.913" fill="none" stroke="black"/>
<path d="M57.1929,366.652h 453.543" fill="none" stroke="black"/>
<path d="M57.1929,356.875v 9.77739" fill="none" stroke="black"/>
<path d="M66.3066,361.763v 4.8887" fill="none" stroke="black"/>
<path d="M75.4203,361.763v 4.8887" fill="none" stroke="black"/>
<path d="M84.534,361.763v 4.8887" fill="none" stroke="black"/>
<path d="M93.6477,361.763v 4.8887" fill="none" stroke="black"/>
<path d="M102.761,356.875v 9.77739" fill="none" stroke="black"/>
<path d="M111.875,361.763v 4.8887" fill="none" stroke="black"/>
<path d="M120.989,361.763v 4.8887" fill="none" stroke="black"/>
<path d="M130.103,361.763v 4.8887" fill="none" stroke="black"/>
<path d="M139.216,361.763v 4.8887" fill="none" stroke="black"/>
<path d="M148.33,356.875v 9.77739" fill="none" stroke="black"/>
<path d="M157.444,361.763v 4.8887" fill="none" stroke="black"/>
<path d="M166.557,361.763v 4.8887" fill="none" stroke="black"/>
<path d="M175.671,361.763v 4.8887" fill="none" stroke="black"/>
<path d="M184.785,361.763v 4.8887" fill="none" stroke="black"/>
<path d="M193.898,356.875v 9.77739" fill="none" stroke="black"/>
<path d="M203.012,361.763v 4.8887" fill="none" stroke="black"/>
<path d="M212.126,361.763v 4.8887" fill="none" stroke="black"/>
<path d="M221.24,361.763v 4.8887" fill="none" stroke="black"/>
<path d="M230.353,361.763v 4.8887" fill="none" stroke="black"/>
<path d="M239.467,356.875v 9.77739" fill="none" stroke="black"/>
<path d="M248.581,361.763v 4.8887" fill="none" stroke="black"/>
<path d="M257.694,361.763v 4.8887" fill="none" stroke="black"/>
<path d="M266.808,361.763v 4.8887" fill="none" stroke="black"/>
<path d="M275.922,361.763v 4.8887" fill="none" stroke="black"/>
<path d="M285.035,356.875v 9.77739" fill="none" stroke="black"/>
<path d="M294.149,361.763v 4.8887" fill="none" stroke="black"/>
<path d="M303.263,361.763v 4.8887" fill="none" stroke="black"/>
<path d="M312.377,361.763v 4.8887" fill="none" stroke="black"/>
<path d="M321.49,361.763v 4.8887" fill="none" stroke="black"/>
<path d="M330.604,356.875v 9.77739" fill="none" stroke="black"/>
<path d="M339.718,361.763v 4.8887" fill="none" stroke="black"/>
<path d="M348.831,361.763v 4.8887" fill="none" stroke="black"/>
<path d="M357.945,361.763v 4.8887" fill="none" stroke="black"/>
<path d="M367.059,361.763v 4.8887" fill="none" stroke="black"/>
<path d="M376.172,356.875v 9.77739" fill="none" stroke="black"/>
<path d="M385.286,361.763v 4.8887" fill="none" stroke="black"/>
<path d="M394.4,361.763v 4.8887" fill="none" stroke="black"/>
<path d="M403.514,361.763v 4.8887" fill="none" stroke="black"/>
<path d="M412.627,361.763v 4.8887" fill="none" stroke="black"/>
<path d="M421.741,356.875v 9.77739" fill="none" stroke="black"/>
<path d="M430.855,361.763v 4.8887" fill="none" stroke="black"/>
<path d="M439.968,361.763v 4.8887" fill="none" stroke="black"/>
<path d="M449.082,361.763v 4.8887" fill="none" stroke="black"/>
<path d="M458.196,361.763v 4.8887" fill="none" stroke="black"/>
<path d="M467.309,356.875v 9.77739" fill="none" stroke="black"/>
<path d="M467.309,356.875v 9.77739" fill="none" stroke="black"/>
<path d="M476.423,361.763v 4.8887" fill="none" stroke="black"/>
<path d="M485.537,361.763v 4.8887" fill="none" stroke="black"/>
<path d="M494.651,361.763v 4.8887" fill="none" stroke="black"/>
<path d="M503.764,361.763v 4.8887" fill="none" stroke="black"/>
<text xml:space="preserve" x="43.9456" y="379.615" fill="black" font-size="13.5814" font-family="Helvetica">2.25</text>
<text xml:space="preserve" x="85.2545" y="379.615" fill="black" font-size="13.5814" font-family="Helvetica">2.255</text>
<text xml:space="preserve" x="135.11" y="379.615" fill="black" font-size="13.5814" font-family="Helvetica">2.26</text>
<text xml:space="preserve" x="176.419" y="379.615" fill="black" font-size="13.5814" font-family="Helvetica">2.265</text>
<text xml:space="preserve" x="226.275" y="379.615" fill="black" font-size="13.5814" font-family="Helvetica">2.27</text>
<text xml:space="preserve" x="267.583" y="379.615" fill="black" font-size="13.5814" font-family="Helvetica">2.275</text>
<text xml:space="preserve" x="317.439" y="379.615" fill="black" font-size="13.5814" font-family="Helvetica">2.28</text>
<text xml:space="preserve" x="358.748" y="379.615" fill="black" font-size="13.5814" font-family="Helvetica">2.285</text>
<text xml:space="preserve" x="408.604" y="379.615" fill="black" font-size="13.5814" font-family="Helvetica">2.29</text>
<text xml:space="preserve" x="449.912" y="379.615" fill="black" font-size="13.5814" font-family="Helvetica">2.295</text>
<text xml:space="preserve" x="506.89" y="393.147" fill="black" font-size="13.5814" font-family="Helvetica">)</text>
<text xml:space="preserve" x="501.905" y="386.737" fill="black" font-size="9.22091" font-family="Helvetica">2</text>
<text xml:space="preserve" x="457.035" y="393.147" fill="black" font-size="13.5814" font-family="Helvetica"> (GeV/c</text>
<text xml:space="preserve" x="445.639" y="397.42" fill="black" font-size="9.22091" font-family="Helvetica">BC</text>
<text xml:space="preserve" x="434.956" y="393.147" fill="black" font-size="13.5814" font-family="Helvetica">M</text>
<path d="M57.1929,366.652v -325.913" fill="none" stroke="black"/>
<path d="M70.7992,366.652h -13.6063" fill="none" stroke="black"/>
<path d="M63.9961,357.883h -6.80315" fill="none" stroke="black"/>
<path d="M63.9961,349.113h -6.80315" fill="none" stroke="black"/>
<path d="M63.9961,340.344h -6.80315" fill="none" stroke="black"/>
<path d="M70.7992,331.575h -13.6063" fill="none" stroke="black"/>
<path d="M63.9961,322.805h -6.80315" fill="none" stroke="black"/>
<path d="M63.9961,314.036h -6.80315" fill="none" stroke="black"/>
<path d="M63.9961,305.267h -6.80315" fill="none" stroke="black"/>
<path d="M70.7992,296.497h -13.6063" fill="none" stroke="black"/>
<path d="M63.9961,287.728h -6.80315" fill="none" stroke="black"/>
<path d="M63.9961,278.958h -6.80315" fill="none" stroke="black"/>
<path d="M63.9961,270.189h -6.80315" fill="none" stroke="black"/>
<path d="M70.7992,261.42h -13.6063" fill="none" stroke="black"/>
<path d="M63.9961,252.65h -6.80315" fill="none" stroke="black"/>
<path d="M63.9961,243.881h -6.80315" fill="none" stroke="black"/>
<path d="M63.9961,235.112h -6.80315" fill="none" stroke="black"/>
<path d="M70.7992,226.342h -13.6063" fill="none" stroke="black"/>
<path d="M63.9961,217.573h -6.80315" fill="none" stroke="black"/>
<path d="M63.9961,208.803h -6.80315" fill="none" stroke="black"/>
<path d="M63.9961,200.034h -6.80315" fill="none" stroke="black"/>
<path d="M70.7992,191.265h -13.6063" fill="none" stroke="black"/>
<path d="M63.9961,182.495h -6.80315" fill="none" stroke="black"/>
<path d="M63.9961,173.726h -6.80315" fill="none" stroke="black"/>
<path d="M63.9961,164.957h -6.80315" fill="none" stroke="black"/>
<path d="M70.7992,156.187h -13.6063" fill="none" stroke="black"/>
<path d="M63.9961,147.418h -6.80315" fill="none" stroke="black"/>
<path d="M63.9961,138.648h -6.80315" fill="none" stroke="black"/>
<path d="M63.9961,129.879h -6.80315" fill="none" stroke="black"/>
<path d="M70.7992,121.11h -13.6063" fill="none" stroke="black"/>
<path d="M63.9961,112.34h -6.80315" fill="none" stroke="black"/>
<path d="M63.9961,103.571h -6.80315" fill="none" stroke="black"/>
<path d="M63.9961,94.8015h -6.80315" fill="none" stroke="black"/>
<path d="M70.7992,86.0321h -13.6063" fill="none" stroke="black"/>
<path d="M63.9961,77.2627h -6.80315" fill="none" stroke="black"/>
<path d="M63.9961,68.4934h -6.80315" fill="none" stroke="black"/>
<path d="M63.9961,59.724h -6.80315" fill="none" stroke="black"/>
<path d="M70.7992,50.9546h -13.6063" fill="none" stroke="black"/>
<path d="M70.7992,50.9546h -13.6063" fill="none" stroke="black"/>
<path d="M63.9961,42.1852h -6.80315" fill="none" stroke="black"/>
<text xml:space="preserve" x="46.7945" y="371.068" fill="black" font-size="13.5814" font-family="Helvetica">0</text>
<text xml:space="preserve" x="46.7945" y="336.881" fill="black" font-size="13.5814" font-family="Helvetica">2</text>
<text xml:space="preserve" x="46.7945" y="301.982" fill="black" font-size="13.5814" font-family="Helvetica">4</text>
<text xml:space="preserve" x="46.7945" y="266.371" fill="black" font-size="13.5814" font-family="Helvetica">6</text>
<text xml:space="preserve" x="46.7945" y="230.76" fill="black" font-size="13.5814" font-family="Helvetica">8</text>
<text xml:space="preserve" x="38.96" y="195.861" fill="black" font-size="13.5814" font-family="Helvetica">10</text>
<text xml:space="preserve" x="38.96" y="161.675" fill="black" font-size="13.5814" font-family="Helvetica">12</text>
<text xml:space="preserve" x="38.96" y="126.776" fill="black" font-size="13.5814" font-family="Helvetica">14</text>
<text xml:space="preserve" x="38.96" y="90.4523" fill="black" font-size="13.5814" font-family="Helvetica">16</text>
<text xml:space="preserve" x="38.96" y="55.5534" fill="black" font-size="13.5814" font-family="Helvetica">18</text>
<g transform="rotate(-90,26.8522,44.1578)">
<text xml:space="preserve" x="26.8522" y="44.1578" fill="black" font-size="13.5814" font-family="Helvetica">)</text>
</g>
<g transform="rotate(-90,20.4422,49.1434)">
<text xml:space="preserve" x="20.4422" y="49.1434" fill="black" font-size="9.22091" font-family="Helvetica">2</text>
</g>
<g transform="rotate(-90,26.8522,163.811)">
<text xml:space="preserve" x="26.8522" y="163.811" fill="black" font-size="13.5814" font-family="Helvetica">Events/(  2.5 MeV/c</text>
</g>
<path d="M68.5315,278.958h -11.3386" fill="none" stroke="black" stroke-width="2"/>
<path d="M57.1929,280.383v -2.84889" fill="none" stroke="black" stroke-width="2"/>
<path d="M68.5315,278.958h 11.3386" fill="none" stroke="black" stroke-width="2"/>
<path d="M79.8701,280.383v -2.84889" fill="none" stroke="black" stroke-width="2"/>
<path d="M68.5315,278.958v -59.3244" fill="none" stroke="black" stroke-width="2"/>
<path d="M67.1071,219.634h 2.84889" fill="none" stroke="black" stroke-width="2"/>
<path d="M68.5315,278.958v 37.8783" fill="none" stroke="black" stroke-width="2"/>
<path d="M67.1071,316.837h 2.84889" fill="none" stroke="black" stroke-width="2"/>
<path d="M91.2087,278.958h -11.3386" fill="none" stroke="black" stroke-width="2"/>
<path d="M79.8701,280.383v -2.84889" fill="none" stroke="black" stroke-width="2"/>
<path d="M91.2087,278.958h 11.3386" fill="none" stroke="black" stroke-width="2"/>
<path d="M102.547,280.383v -2.84889" fill="none" stroke="black" stroke-width="2"/>
<path d="M91.2087,278.958v -59.3244" fill="none" stroke="black" stroke-width="2"/>
<path d="M89.7842,219.634h 2.84889" fill="none" stroke="black" stroke-width="2"/>
<path d="M91.2087,278.958v 37.8783" fill="none" stroke="black" stroke-width="2"/>
<path d="M89.7842,316.837h 2.84889" fill="none" stroke="black" stroke-width="2"/>
<path d="M113.886,278.958h -11.3386" fill="none" stroke="black" stroke-width="2"/>
<path d="M102.547,280.383v -2.84889" fill="none" stroke="black" stroke-width="2"/>
<path d="M113.886,278.958h 11.3386" fill="none" stroke="black" stroke-width="2"/>
<path d="M125.224,280.383v -2.84889" fill="none" stroke="black" stroke-width="2"/>
<path d="M113.886,278.958v -59.3244" fill="none" stroke="black" stroke-width="2"/>
<path d="M112.461,219.634h 2.84889" fill="none" stroke="black" stroke-width="2"/>
<path d="M113.886,278.958v 37.8783" fill="none" stroke="black" stroke-width="2"/>
<path d="M112.461,316.837h 2.84889" fill="none" stroke="black" stroke-width="2"/>
<path d="M136.563,296.497h -11.3386" fill="none" stroke="black" stroke-width="2"/>
<path d="M125.224,297.922v -2.84889" fill="none" stroke="black" stroke-width="2"/>
<path d="M136.563,296.497h 11.3386" fill="none" stroke="black" stroke-width="2"/>
<path d="M147.902,297.922v -2.84889" fill="none" stroke="black" stroke-width="2"/>
<path d="M136.563,296.497v -55.4707" fill="none" stroke="black" stroke-width="2"/>
<path d="M135.139,241.026h 2.84889" fill="none" stroke="black" stroke-width="2"/>
<path d="M136.563,296.497v 33.5751" fill="none" stroke="black" stroke-width="2"/>
<path d="M135.139,330.072h 2.84889" fill="none" stroke="black" stroke-width="2"/>
<path d="M159.24,278.958h -11.3386" fill="none" stroke="black" stroke-width="2"/>
<path d="M147.902,280.383v -2.84889" fill="none" stroke="black" stroke-width="2"/>
<path d="M159.24,278.958h 11.3386" fill="none" stroke="black" stroke-width="2"/>
<path d="M170.579,280.383v -2.84889" fill="none" stroke="black" stroke-width="2"/>
<path d="M159.24,278.958v -59.3244" fill="none" stroke="black" stroke-width="2"/>
<path d="M157.816,219.634h 2.84889" fill="none" stroke="black" stroke-width="2"/>
<path d="M159.24,278.958v 37.8783" fill="none" stroke="black" stroke-width="2"/>
<path d="M157.816,316.837h 2.84889" fill="none" stroke="black" stroke-width="2"/>
<path d="M181.917,296.497h -11.3386" fill="none" stroke="black" stroke-width="2"/>
<path d="M170.579,297.922v -2.84889" fill="none" stroke="black" stroke-width="2"/>
<path d="M181.917,296.497h 11.3386" fill="none" stroke="black" stroke-width="2"/>
<path d="M193.256,297.922v -2.84889" fill="none" stroke="black" stroke-width="2"/>
<path d="M181.917,296.497v -55.4707" fill="none" stroke="black" stroke-width="2"/>
<path d="M180.493,241.026h 2.84889" fill="none" stroke="black" stroke-width="2"/>
<path d="M181.917,296.497v 33.5751" fill="none" stroke="black" stroke-width="2"/>
<path d="M180.493,330.072h 2.84889" fill="none" stroke="black" stroke-width="2"/>
<path d="M204.594,261.42h -11.3386" fill="none" stroke="black" stroke-width="2"/>
<path d="M193.256,262.844v -2.84889" fill="none" stroke="black" stroke-width="2"/>
<path d="M204.594,261.42h 11.3386" fill="none" stroke="black" stroke-width="2"/>
<path d="M215.933,262.844v -2.84889" fill="none" stroke="black" stroke-width="2"/>
<path d="M204.594,261.42v -62.8526" fill="none" stroke="black" stroke-width="2"/>
<path d="M203.17,198.567h 2.84889" fill="none" stroke="black" stroke-width="2"/>
<path d="M204.594,261.42v 41.741" fill="none" stroke="black" stroke-width="2"/>
<path d="M203.17,303.161h 2.84889" fill="none" stroke="black" stroke-width="2"/>
<path d="M227.272,208.803h -11.3386" fill="none" stroke="black" stroke-width="2"/>
<path d="M215.933,210.228v -2.84889" fill="none" stroke="black" stroke-width="2"/>
<path d="M227.272,208.803h 11.3386" fill="none" stroke="black" stroke-width="2"/>
<path d="M238.61,210.228v -2.84889" fill="none" stroke="black" stroke-width="2"/>
<path d="M227.272,208.803v -72.0879" fill="none" stroke="black" stroke-width="2"/>
<path d="M225.847,136.716h 2.84889" fill="none" stroke="black" stroke-width="2"/>
<path d="M227.272,208.803v 51.6246" fill="none" stroke="black" stroke-width="2"/>
<path d="M225.847,260.428h 2.84889" fill="none" stroke="black" stroke-width="2"/>
<path d="M249.949,296.497h -11.3386" fill="none" stroke="black" stroke-width="2"/>
<path d="M238.61,297.922v -2.84889" fill="none" stroke="black" stroke-width="2"/>
<path d="M249.949,296.497h 11.3386" fill="none" stroke="black" stroke-width="2"/>
<path d="M261.287,297.922v -2.84889" fill="none" stroke="black" stroke-width="2"/>
<path d="M249.949,296.497v -55.4707" fill="none" stroke="black" stroke-width="2"/>
<path d="M248.524,241.026h 2.84889" fill="none" stroke="black" stroke-width="2"/>
<path d="M249.949,296.497v 33.5751" fill="none" stroke="black" stroke-width="2"/>
<path d="M248.524,330.072h 2.84889" fill="none" stroke="black" stroke-width="2"/>
<path d="M272.626,261.42h -11.3386" fill="none" stroke="black" stroke-width="2"/>
<path d="M261.287,262.844v -2.84889" fill="none" stroke="black" stroke-width="2"/>
<path d="M272.626,261.42h 11.3386" fill="none" stroke="black" stroke-width="2"/>
<path d="M283.965,262.844v -2.84889" fill="none" stroke="black" stroke-width="2"/>
<path d="M272.626,261.42v -62.8526" fill="none" stroke="black" stroke-width="2"/>
<path d="M271.202,198.567h 2.84889" fill="none" stroke="black" stroke-width="2"/>
<path d="M272.626,261.42v 41.741" fill="none" stroke="black" stroke-width="2"/>
<path d="M271.202,303.161h 2.84889" fill="none" stroke="black" stroke-width="2"/>
<path d="M295.303,278.958h -11.3386" fill="none" stroke="black" stroke-width="2"/>
<path d="M283.965,280.383v -2.84889" fill="none" stroke="black" stroke-width="2"/>
<path d="M295.303,278.958h 11.3386" fill="none" stroke="black" stroke-width="2"/>
<path d="M306.642,280.383v -2.84889" fill="none" stroke="black" stroke-width="2"/>
<path d="M295.303,278.958v -59.3244" fill="none" stroke="black" stroke-width="2"/>
<path d="M293.879,219.634h 2.84889" fill="none" stroke="black" stroke-width="2"/>
<path d="M295.303,278.958v 37.8783" fill="none" stroke="black" stroke-width="2"/>
<path d="M293.879,316.837h 2.84889" fill="none" stroke="black" stroke-width="2"/>
<path d="M317.98,243.881h -11.3386" fill="none" stroke="black" stroke-width="2"/>
<path d="M306.642,245.305v -2.84889" fill="none" stroke="black" stroke-width="2"/>
<path d="M317.98,243.881h 11.3386" fill="none" stroke="black" stroke-width="2"/>
<path d="M329.319,245.305v -2.84889" fill="none" stroke="black" stroke-width="2"/>
<path d="M317.98,243.881v -66.126" fill="none" stroke="black" stroke-width="2"/>
<path d="M316.556,177.755h 2.84889" fill="none" stroke="black" stroke-width="2"/>
<path d="M317.98,243.881v 45.2758" fill="none" stroke="black" stroke-width="2"/>
<path d="M316.556,289.157h 2.84889" fill="none" stroke="black" stroke-width="2"/>
<path d="M340.657,296.497h -11.3386" fill="none" stroke="black" stroke-width="2"/>
<path d="M329.319,297.922v -2.84889" fill="none" stroke="black" stroke-width="2"/>
<path d="M340.657,296.497h 11.3386" fill="none" stroke="black" stroke-width="2"/>
<path d="M351.996,297.922v -2.84889" fill="none" stroke="black" stroke-width="2"/>
<path d="M340.657,296.497v -55.4707" fill="none" stroke="black" stroke-width="2"/>
<path d="M339.233,241.026h 2.84889" fill="none" stroke="black" stroke-width="2"/>
<path d="M340.657,296.497v 33.5751" fill="none" stroke="black" stroke-width="2"/>
<path d="M339.233,330.072h 2.84889" fill="none" stroke="black" stroke-width="2"/>
<path d="M363.335,208.803h -11.3386" fill="none" stroke="black" stroke-width="2"/>
<path d="M351.996,210.228v -2.84889" fill="none" stroke="black" stroke-width="2"/>
<path d="M363.335,208.803h 11.3386" fill="none" stroke="black" stroke-width="2"/>
<path d="M374.673,210.228v -2.84889" fill="none" stroke="black" stroke-width="2"/>
<path d="M363.335,208.803v -72.0879" fill="none" stroke="black" stroke-width="2"/>
<path d="M361.91,136.716h 2.84889" fill="none" stroke="black" stroke-width="2"/>
<path d="M363.335,208.803v 51.6246" fill="none" stroke="black" stroke-width="2"/>
<path d="M361.91,260.428h 2.84889" fill="none" stroke="black" stroke-width="2"/>
<path d="M386.012,226.342h -11.3386" fill="none" stroke="black" stroke-width="2"/>
<path d="M374.673,227.767v -2.84889" fill="none" stroke="black" stroke-width="2"/>
<path d="M386.012,226.342h 11.3386" fill="none" stroke="black" stroke-width="2"/>
<path d="M397.35,227.767v -2.84889" fill="none" stroke="black" stroke-width="2"/>
<path d="M386.012,226.342v -69.1929" fill="none" stroke="black" stroke-width="2"/>
<path d="M384.587,157.149h 2.84889" fill="none" stroke="black" stroke-width="2"/>
<path d="M386.012,226.342v 48.554" fill="none" stroke="black" stroke-width="2"/>
<path d="M384.587,274.896h 2.84889" fill="none" stroke="black" stroke-width="2"/>
<path d="M408.689,138.648h -11.3386" fill="none" stroke="black" stroke-width="2"/>
<path d="M397.35,140.073v -2.84889" fill="none" stroke="black" stroke-width="2"/>
<path d="M408.689,138.648h 11.3386" fill="none" stroke="black" stroke-width="2"/>
<path d="M420.028,140.073v -2.84889" fill="none" stroke="black" stroke-width="2"/>
<path d="M408.689,138.648v -82.3896" fill="none" stroke="black" stroke-width="2"/>
<path d="M407.265,56.2588h 2.84889" fill="none" stroke="black" stroke-width="2"/>
<path d="M408.689,138.648v 62.4145" fill="none" stroke="black" stroke-width="2"/>
<path d="M407.265,201.063h 2.84889" fill="none" stroke="black" stroke-width="2"/>
<path d="M431.366,296.497h -11.3386" fill="none" stroke="black" stroke-width="2"/>
<path d="M420.028,297.922v -2.84889" fill="none" stroke="black" stroke-width="2"/>
<path d="M431.366,296.497h 11.3386" fill="none" stroke="black" stroke-width="2"/>
<path d="M442.705,297.922v -2.84889" fill="none" stroke="black" stroke-width="2"/>
<path d="M431.366,296.497v -55.4707" fill="none" stroke="black" stroke-width="2"/>
<path d="M429.942,241.026h 2.84889" fill="none" stroke="black" stroke-width="2"/>
<path d="M431.366,296.497v 33.5751" fill="none" stroke="black" stroke-width="2"/>
<path d="M429.942,330.072h 2.84889" fill="none" stroke="black" stroke-width="2"/>
<path d="M454.043,296.497h -11.3386" fill="none" stroke="black" stroke-width="2"/>
<path d="M442.705,297.922v -2.84889" fill="none" stroke="black" stroke-width="2"/>
<path d="M454.043,296.497h 11.3386" fill="none" stroke="black" stroke-width="2"/>
<path d="M465.382,297.922v -2.84889" fill="none" stroke="black" stroke-width="2"/>
<path d="M454.043,296.497v -55.4707" fill="none" stroke="black" stroke-width="2"/>
<path d="M452.619,241.026h 2.84889" fill="none" stroke="black" stroke-width="2"/>
<path d="M454.043,296.497v 33.5751" fill="none" stroke="black" stroke-width="2"/>
<path d="M452.619,330.072h 2.84889" fill="none" stroke="black" stroke-width="2"/>
<path d="M476.72,314.036h -11.3386" fill="none" stroke="black" stroke-width="2"/>
<path d="M465.382,315.46v -2.84889" fill="none" stroke="black" stroke-width="2"/>
<path d="M476.72,314.036h 11.3386" fill="none" stroke="black" stroke-width="2"/>
<path d="M488.059,315.46v -2.84889" fill="none" stroke="black" stroke-width="2"/>
<path d="M476.72,314.036v -51.1813" fill="none" stroke="black" stroke-width="2"/>
<path d="M475.296,262.855h 2.84889" fill="none" stroke="black" stroke-width="2"/>
<path d="M476.72,314.036v 28.6356" fill="none" stroke="black" stroke-width="2"/>
<path d="M475.296,342.672h 2.84889" fill="none" stroke="black" stroke-width="2"/>
<path d="M499.398,366.652h -11.3386" fill="none" stroke="black" stroke-width="2"/>
<path d="M488.059,366.652v -1.42445" fill="none" stroke="black" stroke-width="2"/>
<path d="M499.398,366.652h 11.3386" fill="none" stroke="black" stroke-width="2"/>
<path d="M510.736,366.652v -1.42445" fill="none" stroke="black" stroke-width="2"/>
<path d="M499.398,366.652v -20.1323" fill="none" stroke="black" stroke-width="2"/>
<path d="M497.973,346.52h 2.84889" fill="none" stroke="black" stroke-width="2"/>
<g fill="black">
<circle cx="68.5315" cy="278.958" r="2.84889"/>
<circle cx="91.2087" cy="278.958" r="2.84889"/>
<circle cx="113.886" cy="278.958" r="2.84889"/>
<circle cx="136.563" cy="296.497" r="2.84889"/>
<circle cx="159.24" cy="278.958" r="2.84889"/>
<circle cx="181.917" cy="296.497" r="2.84889"/>
<circle cx="204.594" cy="261.42" r="2.84889"/>
<circle cx="227.272" cy="208.803" r="2.84889"/>
<circle cx="249.949" cy="296.497" r="2.84889"/>
<circle cx="272.626" cy="261.42" r="2.84889"/>
<circle cx="295.303" cy="278.958" r="2.84889"/>
<circle cx="317.98" cy="243.881" r="2.84889"/>
<circle cx="340.657" cy="296.497" r="2.84889"/>
<circle cx="363.335" cy="208.803" r="2.84889"/>
<circle cx="386.012" cy="226.342" r="2.84889"/>
<circle cx="408.689" cy="138.648" r="2.84889"/>
<circle cx="431.366" cy="296.497" r="2.84889"/>
<circle cx="454.043" cy="296.497" r="2.84889"/>
<circle cx="476.72" cy="314.036" r="2.84889"/>
<circle cx="499.398" cy="366.652" r="2.84889"/>
</g>
<path d="M57.1929,300.945z" fill="none" stroke="#ff0000" stroke-width="6"/>
<path d="M57.1929,300.945l 22.6772, -5.35899l 22.6772, -5.59388l 22.6772, -5.79051l 22.6772, -5.93343l 22.6772, -6.00354l 22.6772, -5.9774l 22.6772, -5.82631l 22.6772, -5.51535l 22.6772, -5.00212l 22.6772, -4.23532l 11.3386, -1.73428l 11.3386,
 -1.41879l 11.3386, -1.05214l 11.3386, -0.628748l 11.3386, -0.142528l 11.3386, 0.413197l 11.3386, 1.04572l 11.3386, 1.76304l 11.3386, 2.57386l 11.3386, 3.48772l 5.66929, 2.12158l 5.66929, 2.39345l 5.66929, 2.68129l 5.66929, 2.98587l 5.66929, 3.308l
 5.66929, 3.64852l 5.66929, 4.00831l 5.66929, 4.3883l 5.66929, 4.78945l 5.66929, 5.21277l 5.66929, 5.6593l 5.66929, 6.13014l 5.66929, 6.62642l 5.66929, 7.14936l 5.66929, 7.70018l 5.66929, 8.2802l 5.66929, 8.89077l 5.66929, 9.53329l 5.66929, 10.2093l
 5.66929, 10.9202" fill="none" stroke="#ff0000" stroke-width="6"/>
<path d="M57.1929,366.652z" fill="none" stroke="#0000ff" stroke-width="6" stroke-dasharray=" 3, 3"/>
<path d="M57.1929,366.652h 453.543" fill="none" stroke="#0000ff" stroke-width="6" stroke-dasharray=" 3, 3"/>
<path d="M57.1929,300.945z" fill="none" stroke="#00ff00" stroke-width="6" stroke-dasharray=" 3, 3"/>
<path d="M57.1929,300.945l 22.6772, -5.35899l 22.6772, -5.59388l 22.6772, -5.79051l 22.6772, -5.93343l 22.6772, -6.00354l 22.6772, -5.9774l 22.6772, -5.82631l 22.6772, -5.51535l 22.6772, -5.00212l 22.6772, -4.23532l 11.3386, -1.73428l 11.3386,
 -1.41879l 11.3386, -1.05214l 11.3386, -0.628748l 11.3386, -0.142528l 11.3386, 0.413197l 11.3386, 1.04572l 11.3386, 1.76304l 11.3386, 2.57386l 11.3386, 3.48772l 5.66929, 2.12158l 5.66929, 2.39345l 5.66929, 2.68129l 5.66929, 2.98587l 5.66929, 3.308l
 5.66929, 3.64852l 5.66929, 4.00831l 5.66929, 4.3883l 5.66929, 4.78945l 5.66929, 5.21277l 5.66929, 5.6593l 5.66929, 6.13014l 5.66929, 6.62642l 5.66929, 7.14936l 5.66929, 7.70018l 5.66929, 8.2802l 5.66929, 8.89077l 5.66929, 9.53329l 5.66929, 10.2093l
 5.66929, 10.9202" fill="none" stroke="#00ff00" stroke-width="6" stroke-dasharray=" 3, 3"/>
<path d="M57.1929,366.652h 453.543" fill="none" stroke="black"/>
<path d="M57.1929,356.875v 9.77739" fill="none" stroke="black"/>
<path d="M66.3066,361.763v 4.8887" fill="none" stroke="black"/>
<path d="M75.4203,361.763v 4.8887" fill="none" stroke="black"/>
<path d="M84.534,361.763v 4.8887" fill="none" stroke="black"/>
<path d="M93.6477,361.763v 4.8887" fill="none" stroke="black"/>
<path d="M102.761,356.875v 9.77739" fill="none" stroke="black"/>
<path d="M111.875,361.763v 4.8887" fill="none" stroke="black"/>
<path d="M120.989,361.763v 4.8887" fill="none" stroke="black"/>
<path d="M130.103,361.763v 4.8887" fill="none" stroke="black"/>
<path d="M139.216,361.763v 4.8887" fill="none" stroke="black"/>
<path d="M148.33,356.875v 9.77739" fill="none" stroke="black"/>
<path d="M157.444,361.763v 4.8887" fill="none" stroke="black"/>
<path d="M166.557,361.763v 4.8887" fill="none" stroke="black"/>
<path d="M175.671,361.763v 4.8887" fill="none" stroke="black"/>
<path d="M184.785,361.763v 4.8887" fill="none" stroke="black"/>
<path d="M193.898,356.875v 9.77739" fill="none" stroke="black"/>
<path d="M203.012,361.763v 4.8887" fill="none" stroke="black"/>
<path d="M212.126,361.763v 4.8887" fill="none" stroke="black"/>
<path d="M221.24,361.763v 4.8887" fill="none" stroke="black"/>
<path d="M230.353,361.763v 4.8887" fill="none" stroke="black"/>
<path d="M239.467,356.875v 9.77739" fill="none" stroke="black"/>
<path d="M248.581,361.763v 4.8887" fill="none" stroke="black"/>
<path d="M257.694,361.763v 4.8887" fill="none" stroke="black"/>
<path d="M266.808,361.763v 4.8887" fill="none" stroke="black"/>
<path d="M275.922,361.763v 4.8887" fill="none" stroke="black"/>
<path d="M285.035,356.875v 9.77739" fill="none" stroke="black"/>
<path d="M294.149,361.763v 4.8887" fill="none" stroke="black"/>
<path d="M303.263,361.763v 4.8887" fill="none" stroke="black"/>
<path d="M312.377,361.763v 4.8887" fill="none" stroke="black"/>
<path d="M321.49,361.763v 4.8887" fill="none" stroke="black"/>
<path d="M330.604,356.875v 9.77739" fill="none" stroke="black"/>
<path d="M339.718,361.763v 4.8887" fill="none" stroke="black"/>
<path d="M348.831,361.763v 4.8887" fill="none" stroke="black"/>
<path d="M357.945,361.763v 4.8887" fill="none" stroke="black"/>
<path d="M367.059,361.763v 4.8887" fill="none" stroke="black"/>
<path d="M376.172,356.875v 9.77739" fill="none" stroke="black"/>
<path d="M385.286,361.763v 4.8887" fill="none" stroke="black"/>
<path d="M394.4,361.763v 4.8887" fill="none" stroke="black"/>
<path d="M403.514,361.763v 4.8887" fill="none" stroke="black"/>
<path d="M412.627,361.763v 4.8887" fill="none" stroke="black"/>
<path d="M421.741,356.875v 9.77739" fill="none" stroke="black"/>
<path d="M430.855,361.763v 4.8887" fill="none" stroke="black"/>
<path d="M439.968,361.763v 4.8887" fill="none" stroke="black"/>
<path d="M449.082,361.763v 4.8887" fill="none" stroke="black"/>
<path d="M458.196,361.763v 4.8887" fill="none" stroke="black"/>
<path d="M467.309,356.875v 9.77739" fill="none" stroke="black"/>
<path d="M467.309,356.875v 9.77739" fill="none" stroke="black"/>
<path d="M476.423,361.763v 4.8887" fill="none" stroke="black"/>
<path d="M485.537,361.763v 4.8887" fill="none" stroke="black"/>
<path d="M494.651,361.763v 4.8887" fill="none" stroke="black"/>
<path d="M503.764,361.763v 4.8887" fill="none" stroke="black"/>
<path d="M57.1929,366.652v -325.913" fill="none" stroke="black"/>
<path d="M70.7992,366.652h -13.6063" fill="none" stroke="black"/>
<path d="M63.9961,357.883h -6.80315" fill="none" stroke="black"/>
<path d="M63.9961,349.113h -6.80315" fill="none" stroke="black"/>
<path d="M63.9961,340.344h -6.80315" fill="none" stroke="black"/>
<path d="M70.7992,331.575h -13.6063" fill="none" stroke="black"/>
<path d="M63.9961,322.805h -6.80315" fill="none" stroke="black"/>
<path d="M63.9961,314.036h -6.80315" fill="none" stroke="black"/>
<path d="M63.9961,305.267h -6.80315" fill="none" stroke="black"/>
<path d="M70.7992,296.497h -13.6063" fill="none" stroke="black"/>
<path d="M63.9961,287.728h -6.80315" fill="none" stroke="black"/>
<path d="M63.9961,278.958h -6.80315" fill="none" stroke="black"/>
<path d="M63.9961,270.189h -6.80315" fill="none" stroke="black"/>
<path d="M70.7992,261.42h -13.6063" fill="none" stroke="black"/>
<path d="M63.9961,252.65h -6.80315" fill="none" stroke="black"/>
<path d="M63.9961,243.881h -6.80315" fill="none" stroke="black"/>
<path d="M63.9961,235.112h -6.80315" fill="none" stroke="black"/>
<path d="M70.7992,226.342h -13.6063" fill="none" stroke="black"/>
<path d="M63.9961,217.573h -6.80315" fill="none" stroke="black"/>
<path d="M63.9961,208.803h -6.80315" fill="none" stroke="black"/>
<path d="M63.9961,200.034h -6.80315" fill="none" stroke="black"/>
<path d="M70.7992,191.265h -13.6063" fill="none" stroke="black"/>
<path d="M63.9961,182.495h -6.80315" fill="none" stroke="black"/>
<path d="M63.9961,173.726h -6.80315" fill="none" stroke="black"/>
<path d="M63.9961,164.957h -6.80315" fill="none" stroke="black"/>
<path d="M70.7992,156.187h -13.6063" fill="none" stroke="black"/>
<path d="M63.9961,147.418h -6.80315" fill="none" stroke="black"/>
<path d="M63.9961,138.648h -6.80315" fill="none" stroke="black"/>
<path d="M63.9961,129.879h -6.80315" fill="none" stroke="black"/>
<path d="M70.7992,121.11h -13.6063" fill="none" stroke="black"/>
<path d="M63.9961,112.34h -6.80315" fill="none" stroke="black"/>
<path d="M63.9961,103.571h -6.80315" fill="none" stroke="black"/>
<path d="M63.9961,94.8015h -6.80315" fill="none" stroke="black"/>
<path d="M70.7992,86.0321h -13.6063" fill="none" stroke="black"/>
<path d="M63.9961,77.2627h -6.80315" fill="none" stroke="black"/>
<path d="M63.9961,68.4934h -6.80315" fill="none" stroke="black"/>
<path d="M63.9961,59.724h -6.80315" fill="none" stroke="black"/>
<path d="M70.7992,50.9546h -13.6063" fill="none" stroke="black"/>
<path d="M70.7992,50.9546h -13.6063" fill="none" stroke="black"/>
<path d="M63.9961,42.1852h -6.80315" fill="none" stroke="black"/>
<rect x="85.5394" y="48.887" width="130.394" height="52.9609" fill="white"/>
<text xml:space="preserve" x="90.24" y="82.6178" fill="black" font-size="20.1505" font-family="Helvetica" font-weight="bold">E=4.600 GeV</text></svg>
