<?xml version="1.0" standalone="no"?>
<svg width="567.429" height="407.891" viewBox="0 0 567.429 407.891" xmlns="http://www.w3.org/2000/svg" shape-rendering="crispEdges">
<title>
pic_fitInclusive4600.svg
</title>
<desc>
Creator: ROOT Version 6.20/06
CreationDate: Thu Apr 29 14:52:16 2021</desc>
<defs>
</defs>
<rect x="0.5" y="0" width="566.929" height="407.391" fill="white"/>
<rect x="57.1929" y="40.7391" width="453.543" height="325.913" fill="white"/>
<rect x="57.1929" y="40.7391" width="453.543" height="325.913" fill="none" stroke="black"/>
<rect x="57.1929" y="40.7391" width="453.543" height="325.913" fill="white"/>
<rect x="57.1929" y="40.7391" width="453.543" height="325.913" fill="none" stroke="black"/>
<path d="M57.1929,366.652h 453.543" fill="none" stroke="black"/>
<path d="M57.1929,356.875v 9.77739" fill="none" stroke="black"/>
<path d="M66.3066,361.763v 4.8887" fill="none" stroke="black"/>
<path d="M75.4203,361.763v 4.8887" fill="none" stroke="black"/>
<path d="M84.534,361.763v 4.8887" fill="none" stroke="black"/>
<path d="M93.6477,361.763v 4.8887" fill="none" stroke="black"/>
<path d="M102.761,356.875v 9.77739" fill="none" stroke="black"/>
<path d="M111.875,361.763v 4.8887" fill="none" stroke="black"/>
<path d="M120.989,361.763v 4.8887" fill="none" stroke="black"/>
<path d="M130.103,361.763v 4.8887" fill="none" stroke="black"/>
<path d="M139.216,361.763v 4.8887" fill="none" stroke="black"/>
<path d="M148.33,356.875v 9.77739" fill="none" stroke="black"/>
<path d="M157.444,361.763v 4.8887" fill="none" stroke="black"/>
<path d="M166.557,361.763v 4.8887" fill="none" stroke="black"/>
<path d="M175.671,361.763v 4.8887" fill="none" stroke="black"/>
<path d="M184.785,361.763v 4.8887" fill="none" stroke="black"/>
<path d="M193.898,356.875v 9.77739" fill="none" stroke="black"/>
<path d="M203.012,361.763v 4.8887" fill="none" stroke="black"/>
<path d="M212.126,361.763v 4.8887" fill="none" stroke="black"/>
<path d="M221.24,361.763v 4.8887" fill="none" stroke="black"/>
<path d="M230.353,361.763v 4.8887" fill="none" stroke="black"/>
<path d="M239.467,356.875v 9.77739" fill="none" stroke="black"/>
<path d="M248.581,361.763v 4.8887" fill="none" stroke="black"/>
<path d="M257.694,361.763v 4.8887" fill="none" stroke="black"/>
<path d="M266.808,361.763v 4.8887" fill="none" stroke="black"/>
<path d="M275.922,361.763v 4.8887" fill="none" stroke="black"/>
<path d="M285.035,356.875v 9.77739" fill="none" stroke="black"/>
<path d="M294.149,361.763v 4.8887" fill="none" stroke="black"/>
<path d="M303.263,361.763v 4.8887" fill="none" stroke="black"/>
<path d="M312.377,361.763v 4.8887" fill="none" stroke="black"/>
<path d="M321.49,361.763v 4.8887" fill="none" stroke="black"/>
<path d="M330.604,356.875v 9.77739" fill="none" stroke="black"/>
<path d="M339.718,361.763v 4.8887" fill="none" stroke="black"/>
<path d="M348.831,361.763v 4.8887" fill="none" stroke="black"/>
<path d="M357.945,361.763v 4.8887" fill="none" stroke="black"/>
<path d="M367.059,361.763v 4.8887" fill="none" stroke="black"/>
<path d="M376.172,356.875v 9.77739" fill="none" stroke="black"/>
<path d="M385.286,361.763v 4.8887" fill="none" stroke="black"/>
<path d="M394.4,361.763v 4.8887" fill="none" stroke="black"/>
<path d="M403.514,361.763v 4.8887" fill="none" stroke="black"/>
<path d="M412.627,361.763v 4.8887" fill="none" stroke="black"/>
<path d="M421.741,356.875v 9.77739" fill="none" stroke="black"/>
<path d="M430.855,361.763v 4.8887" fill="none" stroke="black"/>
<path d="M439.968,361.763v 4.8887" fill="none" stroke="black"/>
<path d="M449.082,361.763v 4.8887" fill="none" stroke="black"/>
<path d="M458.196,361.763v 4.8887" fill="none" stroke="black"/>
<path d="M467.309,356.875v 9.77739" fill="none" stroke="black"/>
<path d="M467.309,356.875v 9.77739" fill="none" stroke="black"/>
<path d="M476.423,361.763v 4.8887" fill="none" stroke="black"/>
<path d="M485.537,361.763v 4.8887" fill="none" stroke="black"/>
<path d="M494.651,361.763v 4.8887" fill="none" stroke="black"/>
<path d="M503.764,361.763v 4.8887" fill="none" stroke="black"/>
<text xml:space="preserve" x="43.9456" y="379.615" fill="black" font-size="13.5814" font-family="Helvetica">2.25</text>
<text xml:space="preserve" x="85.2545" y="379.615" fill="black" font-size="13.5814" font-family="Helvetica">2.255</text>
<text xml:space="preserve" x="135.11" y="379.615" fill="black" font-size="13.5814" font-family="Helvetica">2.26</text>
<text xml:space="preserve" x="176.419" y="379.615" fill="black" font-size="13.5814" font-family="Helvetica">2.265</text>
<text xml:space="preserve" x="226.275" y="379.615" fill="black" font-size="13.5814" font-family="Helvetica">2.27</text>
<text xml:space="preserve" x="267.583" y="379.615" fill="black" font-size="13.5814" font-family="Helvetica">2.275</text>
<text xml:space="preserve" x="317.439" y="379.615" fill="black" font-size="13.5814" font-family="Helvetica">2.28</text>
<text xml:space="preserve" x="358.748" y="379.615" fill="black" font-size="13.5814" font-family="Helvetica">2.285</text>
<text xml:space="preserve" x="408.604" y="379.615" fill="black" font-size="13.5814" font-family="Helvetica">2.29</text>
<text xml:space="preserve" x="449.912" y="379.615" fill="black" font-size="13.5814" font-family="Helvetica">2.295</text>
<text xml:space="preserve" x="506.89" y="393.147" fill="black" font-size="13.5814" font-family="Helvetica">)</text>
<text xml:space="preserve" x="501.905" y="386.737" fill="black" font-size="9.22091" font-family="Helvetica">2</text>
<text xml:space="preserve" x="457.035" y="393.147" fill="black" font-size="13.5814" font-family="Helvetica"> (GeV/c</text>
<text xml:space="preserve" x="445.639" y="397.42" fill="black" font-size="9.22091" font-family="Helvetica">BC</text>
<text xml:space="preserve" x="434.956" y="393.147" fill="black" font-size="13.5814" font-family="Helvetica">M</text>
<path d="M57.1929,366.652v -325.913" fill="none" stroke="black"/>
<path d="M70.7992,366.652h -13.6063" fill="none" stroke="black"/>
<path d="M63.9961,355.774h -6.80315" fill="none" stroke="black"/>
<path d="M63.9961,344.896h -6.80315" fill="none" stroke="black"/>
<path d="M63.9961,334.018h -6.80315" fill="none" stroke="black"/>
<path d="M70.7992,323.14h -13.6063" fill="none" stroke="black"/>
<path d="M63.9961,312.262h -6.80315" fill="none" stroke="black"/>
<path d="M63.9961,301.384h -6.80315" fill="none" stroke="black"/>
<path d="M63.9961,290.506h -6.80315" fill="none" stroke="black"/>
<path d="M70.7992,279.628h -13.6063" fill="none" stroke="black"/>
<path d="M63.9961,268.75h -6.80315" fill="none" stroke="black"/>
<path d="M63.9961,257.872h -6.80315" fill="none" stroke="black"/>
<path d="M63.9961,246.994h -6.80315" fill="none" stroke="black"/>
<path d="M70.7992,236.115h -13.6063" fill="none" stroke="black"/>
<path d="M63.9961,225.237h -6.80315" fill="none" stroke="black"/>
<path d="M63.9961,214.359h -6.80315" fill="none" stroke="black"/>
<path d="M63.9961,203.481h -6.80315" fill="none" stroke="black"/>
<path d="M70.7992,192.603h -13.6063" fill="none" stroke="black"/>
<path d="M63.9961,181.725h -6.80315" fill="none" stroke="black"/>
<path d="M63.9961,170.847h -6.80315" fill="none" stroke="black"/>
<path d="M63.9961,159.969h -6.80315" fill="none" stroke="black"/>
<path d="M70.7992,149.091h -13.6063" fill="none" stroke="black"/>
<path d="M63.9961,138.213h -6.80315" fill="none" stroke="black"/>
<path d="M63.9961,127.335h -6.80315" fill="none" stroke="black"/>
<path d="M63.9961,116.457h -6.80315" fill="none" stroke="black"/>
<path d="M70.7992,105.579h -13.6063" fill="none" stroke="black"/>
<path d="M63.9961,94.7008h -6.80315" fill="none" stroke="black"/>
<path d="M63.9961,83.8227h -6.80315" fill="none" stroke="black"/>
<path d="M63.9961,72.9446h -6.80315" fill="none" stroke="black"/>
<path d="M70.7992,62.0666h -13.6063" fill="none" stroke="black"/>
<path d="M70.7992,62.0666h -13.6063" fill="none" stroke="black"/>
<path d="M63.9961,51.1885h -6.80315" fill="none" stroke="black"/>
<text xml:space="preserve" x="46.7945" y="371.068" fill="black" font-size="13.5814" font-family="Helvetica">0</text>
<text xml:space="preserve" x="46.7945" y="328.335" fill="black" font-size="13.5814" font-family="Helvetica">2</text>
<text xml:space="preserve" x="46.7945" y="284.889" fill="black" font-size="13.5814" font-family="Helvetica">4</text>
<text xml:space="preserve" x="46.7945" y="240.731" fill="black" font-size="13.5814" font-family="Helvetica">6</text>
<text xml:space="preserve" x="46.7945" y="197.286" fill="black" font-size="13.5814" font-family="Helvetica">8</text>
<text xml:space="preserve" x="38.96" y="153.84" fill="black" font-size="13.5814" font-family="Helvetica">10</text>
<text xml:space="preserve" x="38.96" y="111.107" fill="black" font-size="13.5814" font-family="Helvetica">12</text>
<text xml:space="preserve" x="38.96" y="67.6611" fill="black" font-size="13.5814" font-family="Helvetica">14</text>
<g transform="rotate(-90,26.8522,44.1578)">
<text xml:space="preserve" x="26.8522" y="44.1578" fill="black" font-size="13.5814" font-family="Helvetica">)</text>
</g>
<g transform="rotate(-90,20.4422,49.1434)">
<text xml:space="preserve" x="20.4422" y="49.1434" fill="black" font-size="9.22091" font-family="Helvetica">2</text>
</g>
<g transform="rotate(-90,26.8522,163.811)">
<text xml:space="preserve" x="26.8522" y="163.811" fill="black" font-size="13.5814" font-family="Helvetica">Events/(  2.0 MeV/c</text>
</g>
<path d="M66.2638,344.896h -9.07087" fill="none" stroke="black" stroke-width="2"/>
<path d="M57.1929,346.32v -2.84889" fill="none" stroke="black" stroke-width="2"/>
<path d="M66.2638,344.896h 9.07087" fill="none" stroke="black" stroke-width="2"/>
<path d="M75.3346,346.32v -2.84889" fill="none" stroke="black" stroke-width="2"/>
<path d="M66.2638,344.896v -50.0288" fill="none" stroke="black" stroke-width="2"/>
<path d="M64.8393,294.867h 2.84889" fill="none" stroke="black" stroke-width="2"/>
<path d="M66.2638,344.896v 17.9977" fill="none" stroke="black" stroke-width="2"/>
<path d="M64.8393,362.894h 2.84889" fill="none" stroke="black" stroke-width="2"/>
<path d="M84.4055,279.628h -9.07087" fill="none" stroke="black" stroke-width="2"/>
<path d="M75.3346,281.052v -2.84889" fill="none" stroke="black" stroke-width="2"/>
<path d="M84.4055,279.628h 9.07087" fill="none" stroke="black" stroke-width="2"/>
<path d="M93.4764,281.052v -2.84889" fill="none" stroke="black" stroke-width="2"/>
<path d="M84.4055,279.628v -68.8092" fill="none" stroke="black" stroke-width="2"/>
<path d="M82.9811,210.818h 2.84889" fill="none" stroke="black" stroke-width="2"/>
<path d="M84.4055,279.628v 41.6486" fill="none" stroke="black" stroke-width="2"/>
<path d="M82.9811,321.276h 2.84889" fill="none" stroke="black" stroke-width="2"/>
<path d="M102.547,323.14h -9.07087" fill="none" stroke="black" stroke-width="2"/>
<path d="M93.4764,324.564v -2.84889" fill="none" stroke="black" stroke-width="2"/>
<path d="M102.547,323.14h 9.07087" fill="none" stroke="black" stroke-width="2"/>
<path d="M111.618,324.564v -2.84889" fill="none" stroke="black" stroke-width="2"/>
<path d="M102.547,323.14v -57.3896" fill="none" stroke="black" stroke-width="2"/>
<path d="M101.123,265.75h 2.84889" fill="none" stroke="black" stroke-width="2"/>
<path d="M102.547,323.14v 28.1049" fill="none" stroke="black" stroke-width="2"/>
<path d="M101.123,351.245h 2.84889" fill="none" stroke="black" stroke-width="2"/>
<path d="M120.689,257.872h -9.07087" fill="none" stroke="black" stroke-width="2"/>
<path d="M111.618,259.296v -2.84889" fill="none" stroke="black" stroke-width="2"/>
<path d="M120.689,257.872h 9.07087" fill="none" stroke="black" stroke-width="2"/>
<path d="M129.76,259.296v -2.84889" fill="none" stroke="black" stroke-width="2"/>
<path d="M120.689,257.872v -73.5895" fill="none" stroke="black" stroke-width="2"/>
<path d="M119.265,184.282h 2.84889" fill="none" stroke="black" stroke-width="2"/>
<path d="M120.689,257.872v 46.9865" fill="none" stroke="black" stroke-width="2"/>
<path d="M119.265,304.858h 2.84889" fill="none" stroke="black" stroke-width="2"/>
<path d="M138.831,236.115h -9.07087" fill="none" stroke="black" stroke-width="2"/>
<path d="M129.76,237.54v -2.84889" fill="none" stroke="black" stroke-width="2"/>
<path d="M138.831,236.115h 9.07087" fill="none" stroke="black" stroke-width="2"/>
<path d="M147.902,237.54v -2.84889" fill="none" stroke="black" stroke-width="2"/>
<path d="M138.831,236.115v -77.9661" fill="none" stroke="black" stroke-width="2"/>
<path d="M137.406,158.149h 2.84889" fill="none" stroke="black" stroke-width="2"/>
<path d="M138.831,236.115v 51.7781" fill="none" stroke="black" stroke-width="2"/>
<path d="M137.406,287.894h 2.84889" fill="none" stroke="black" stroke-width="2"/>
<path d="M156.972,344.896h -9.07087" fill="none" stroke="black" stroke-width="2"/>
<path d="M147.902,346.32v -2.84889" fill="none" stroke="black" stroke-width="2"/>
<path d="M156.972,344.896h 9.07087" fill="none" stroke="black" stroke-width="2"/>
<path d="M166.043,346.32v -2.84889" fill="none" stroke="black" stroke-width="2"/>
<path d="M156.972,344.896v -50.0288" fill="none" stroke="black" stroke-width="2"/>
<path d="M155.548,294.867h 2.84889" fill="none" stroke="black" stroke-width="2"/>
<path d="M156.972,344.896v 17.9977" fill="none" stroke="black" stroke-width="2"/>
<path d="M155.548,362.894h 2.84889" fill="none" stroke="black" stroke-width="2"/>
<path d="M175.114,344.896h -9.07087" fill="none" stroke="black" stroke-width="2"/>
<path d="M166.043,346.32v -2.84889" fill="none" stroke="black" stroke-width="2"/>
<path d="M175.114,344.896h 9.07087" fill="none" stroke="black" stroke-width="2"/>
<path d="M184.185,346.32v -2.84889" fill="none" stroke="black" stroke-width="2"/>
<path d="M175.114,344.896v -50.0288" fill="none" stroke="black" stroke-width="2"/>
<path d="M173.69,294.867h 2.84889" fill="none" stroke="black" stroke-width="2"/>
<path d="M175.114,344.896v 17.9977" fill="none" stroke="black" stroke-width="2"/>
<path d="M173.69,362.894h 2.84889" fill="none" stroke="black" stroke-width="2"/>
<path d="M193.256,279.628h -9.07087" fill="none" stroke="black" stroke-width="2"/>
<path d="M184.185,281.052v -2.84889" fill="none" stroke="black" stroke-width="2"/>
<path d="M193.256,279.628h 9.07087" fill="none" stroke="black" stroke-width="2"/>
<path d="M202.327,281.052v -2.84889" fill="none" stroke="black" stroke-width="2"/>
<path d="M193.256,279.628v -68.8092" fill="none" stroke="black" stroke-width="2"/>
<path d="M191.831,210.818h 2.84889" fill="none" stroke="black" stroke-width="2"/>
<path d="M193.256,279.628v 41.6486" fill="none" stroke="black" stroke-width="2"/>
<path d="M191.831,321.276h 2.84889" fill="none" stroke="black" stroke-width="2"/>
<path d="M211.398,279.628h -9.07087" fill="none" stroke="black" stroke-width="2"/>
<path d="M202.327,281.052v -2.84889" fill="none" stroke="black" stroke-width="2"/>
<path d="M211.398,279.628h 9.07087" fill="none" stroke="black" stroke-width="2"/>
<path d="M220.469,281.052v -2.84889" fill="none" stroke="black" stroke-width="2"/>
<path d="M211.398,279.628v -68.8092" fill="none" stroke="black" stroke-width="2"/>
<path d="M209.973,210.818h 2.84889" fill="none" stroke="black" stroke-width="2"/>
<path d="M211.398,279.628v 41.6486" fill="none" stroke="black" stroke-width="2"/>
<path d="M209.973,321.276h 2.84889" fill="none" stroke="black" stroke-width="2"/>
<path d="M229.539,301.384h -9.07087" fill="none" stroke="black" stroke-width="2"/>
<path d="M220.469,302.808v -2.84889" fill="none" stroke="black" stroke-width="2"/>
<path d="M229.539,301.384h 9.07087" fill="none" stroke="black" stroke-width="2"/>
<path d="M238.61,302.808v -2.84889" fill="none" stroke="black" stroke-width="2"/>
<path d="M229.539,301.384v -63.4884" fill="none" stroke="black" stroke-width="2"/>
<path d="M228.115,237.895h 2.84889" fill="none" stroke="black" stroke-width="2"/>
<path d="M229.539,301.384v 35.5213" fill="none" stroke="black" stroke-width="2"/>
<path d="M228.115,336.905h 2.84889" fill="none" stroke="black" stroke-width="2"/>
<path d="M247.681,257.872h -9.07087" fill="none" stroke="black" stroke-width="2"/>
<path d="M238.61,259.296v -2.84889" fill="none" stroke="black" stroke-width="2"/>
<path d="M247.681,257.872h 9.07087" fill="none" stroke="black" stroke-width="2"/>
<path d="M256.752,259.296v -2.84889" fill="none" stroke="black" stroke-width="2"/>
<path d="M247.681,257.872v -73.5895" fill="none" stroke="black" stroke-width="2"/>
<path d="M246.257,184.282h 2.84889" fill="none" stroke="black" stroke-width="2"/>
<path d="M247.681,257.872v 46.9865" fill="none" stroke="black" stroke-width="2"/>
<path d="M246.257,304.858h 2.84889" fill="none" stroke="black" stroke-width="2"/>
<path d="M265.823,301.384h -9.07087" fill="none" stroke="black" stroke-width="2"/>
<path d="M256.752,302.808v -2.84889" fill="none" stroke="black" stroke-width="2"/>
<path d="M265.823,301.384h 9.07087" fill="none" stroke="black" stroke-width="2"/>
<path d="M274.894,302.808v -2.84889" fill="none" stroke="black" stroke-width="2"/>
<path d="M265.823,301.384v -63.4884" fill="none" stroke="black" stroke-width="2"/>
<path d="M264.398,237.895h 2.84889" fill="none" stroke="black" stroke-width="2"/>
<path d="M265.823,301.384v 35.5213" fill="none" stroke="black" stroke-width="2"/>
<path d="M264.398,336.905h 2.84889" fill="none" stroke="black" stroke-width="2"/>
<path d="M283.965,344.896h -9.07087" fill="none" stroke="black" stroke-width="2"/>
<path d="M274.894,346.32v -2.84889" fill="none" stroke="black" stroke-width="2"/>
<path d="M283.965,344.896h 9.07087" fill="none" stroke="black" stroke-width="2"/>
<path d="M293.035,346.32v -2.84889" fill="none" stroke="black" stroke-width="2"/>
<path d="M283.965,344.896v -50.0288" fill="none" stroke="black" stroke-width="2"/>
<path d="M282.54,294.867h 2.84889" fill="none" stroke="black" stroke-width="2"/>
<path d="M283.965,344.896v 17.9977" fill="none" stroke="black" stroke-width="2"/>
<path d="M282.54,362.894h 2.84889" fill="none" stroke="black" stroke-width="2"/>
<path d="M302.106,279.628h -9.07087" fill="none" stroke="black" stroke-width="2"/>
<path d="M293.035,281.052v -2.84889" fill="none" stroke="black" stroke-width="2"/>
<path d="M302.106,279.628h 9.07087" fill="none" stroke="black" stroke-width="2"/>
<path d="M311.177,281.052v -2.84889" fill="none" stroke="black" stroke-width="2"/>
<path d="M302.106,279.628v -68.8092" fill="none" stroke="black" stroke-width="2"/>
<path d="M300.682,210.818h 2.84889" fill="none" stroke="black" stroke-width="2"/>
<path d="M302.106,279.628v 41.6486" fill="none" stroke="black" stroke-width="2"/>
<path d="M300.682,321.276h 2.84889" fill="none" stroke="black" stroke-width="2"/>
<path d="M320.248,279.628h -9.07087" fill="none" stroke="black" stroke-width="2"/>
<path d="M311.177,281.052v -2.84889" fill="none" stroke="black" stroke-width="2"/>
<path d="M320.248,279.628h 9.07087" fill="none" stroke="black" stroke-width="2"/>
<path d="M329.319,281.052v -2.84889" fill="none" stroke="black" stroke-width="2"/>
<path d="M320.248,279.628v -68.8092" fill="none" stroke="black" stroke-width="2"/>
<path d="M318.824,210.818h 2.84889" fill="none" stroke="black" stroke-width="2"/>
<path d="M320.248,279.628v 41.6486" fill="none" stroke="black" stroke-width="2"/>
<path d="M318.824,321.276h 2.84889" fill="none" stroke="black" stroke-width="2"/>
<path d="M338.39,192.603h -9.07087" fill="none" stroke="black" stroke-width="2"/>
<path d="M329.319,194.028v -2.84889" fill="none" stroke="black" stroke-width="2"/>
<path d="M338.39,192.603h 9.07087" fill="none" stroke="black" stroke-width="2"/>
<path d="M347.461,194.028v -2.84889" fill="none" stroke="black" stroke-width="2"/>
<path d="M338.39,192.603v -85.8309" fill="none" stroke="black" stroke-width="2"/>
<path d="M336.965,106.772h 2.84889" fill="none" stroke="black" stroke-width="2"/>
<path d="M338.39,192.603v 60.2293" fill="none" stroke="black" stroke-width="2"/>
<path d="M336.965,252.833h 2.84889" fill="none" stroke="black" stroke-width="2"/>
<path d="M356.531,214.359h -9.07087" fill="none" stroke="black" stroke-width="2"/>
<path d="M347.461,215.784v -2.84889" fill="none" stroke="black" stroke-width="2"/>
<path d="M356.531,214.359h 9.07087" fill="none" stroke="black" stroke-width="2"/>
<path d="M365.602,215.784v -2.84889" fill="none" stroke="black" stroke-width="2"/>
<path d="M356.531,214.359v -82.0266" fill="none" stroke="black" stroke-width="2"/>
<path d="M355.107,132.333h 2.84889" fill="none" stroke="black" stroke-width="2"/>
<path d="M356.531,214.359v 56.1628" fill="none" stroke="black" stroke-width="2"/>
<path d="M355.107,270.522h 2.84889" fill="none" stroke="black" stroke-width="2"/>
<path d="M374.673,170.847h -9.07087" fill="none" stroke="black" stroke-width="2"/>
<path d="M365.602,172.272v -2.84889" fill="none" stroke="black" stroke-width="2"/>
<path d="M374.673,170.847h 9.07087" fill="none" stroke="black" stroke-width="2"/>
<path d="M383.744,172.272v -2.84889" fill="none" stroke="black" stroke-width="2"/>
<path d="M374.673,170.847v -89.4221" fill="none" stroke="black" stroke-width="2"/>
<path d="M373.249,81.4251h 2.84889" fill="none" stroke="black" stroke-width="2"/>
<path d="M374.673,170.847v 64.0383" fill="none" stroke="black" stroke-width="2"/>
<path d="M373.249,234.885h 2.84889" fill="none" stroke="black" stroke-width="2"/>
<path d="M392.815,149.091h -9.07087" fill="none" stroke="black" stroke-width="2"/>
<path d="M383.744,150.515v -2.84889" fill="none" stroke="black" stroke-width="2"/>
<path d="M392.815,149.091h 9.07087" fill="none" stroke="black" stroke-width="2"/>
<path d="M401.886,150.515v -2.84889" fill="none" stroke="black" stroke-width="2"/>
<path d="M392.815,149.091v -92.8322" fill="none" stroke="black" stroke-width="2"/>
<path d="M391.391,56.2588h 2.84889" fill="none" stroke="black" stroke-width="2"/>
<path d="M392.815,149.091v 67.6331" fill="none" stroke="black" stroke-width="2"/>
<path d="M391.391,216.724h 2.84889" fill="none" stroke="black" stroke-width="2"/>
<path d="M410.957,214.359h -9.07087" fill="none" stroke="black" stroke-width="2"/>
<path d="M401.886,215.784v -2.84889" fill="none" stroke="black" stroke-width="2"/>
<path d="M410.957,214.359h 9.07087" fill="none" stroke="black" stroke-width="2"/>
<path d="M420.028,215.784v -2.84889" fill="none" stroke="black" stroke-width="2"/>
<path d="M410.957,214.359v -82.0266" fill="none" stroke="black" stroke-width="2"/>
<path d="M409.532,132.333h 2.84889" fill="none" stroke="black" stroke-width="2"/>
<path d="M410.957,214.359v 56.1628" fill="none" stroke="black" stroke-width="2"/>
<path d="M409.532,270.522h 2.84889" fill="none" stroke="black" stroke-width="2"/>
<path d="M429.098,279.628h -9.07087" fill="none" stroke="black" stroke-width="2"/>
<path d="M420.028,281.052v -2.84889" fill="none" stroke="black" stroke-width="2"/>
<path d="M429.098,279.628h 9.07087" fill="none" stroke="black" stroke-width="2"/>
<path d="M438.169,281.052v -2.84889" fill="none" stroke="black" stroke-width="2"/>
<path d="M429.098,279.628v -68.8092" fill="none" stroke="black" stroke-width="2"/>
<path d="M427.674,210.818h 2.84889" fill="none" stroke="black" stroke-width="2"/>
<path d="M429.098,279.628v 41.6486" fill="none" stroke="black" stroke-width="2"/>
<path d="M427.674,321.276h 2.84889" fill="none" stroke="black" stroke-width="2"/>
<path d="M447.24,301.384h -9.07087" fill="none" stroke="black" stroke-width="2"/>
<path d="M438.169,302.808v -2.84889" fill="none" stroke="black" stroke-width="2"/>
<path d="M447.24,301.384h 9.07087" fill="none" stroke="black" stroke-width="2"/>
<path d="M456.311,302.808v -2.84889" fill="none" stroke="black" stroke-width="2"/>
<path d="M447.24,301.384v -63.4884" fill="none" stroke="black" stroke-width="2"/>
<path d="M445.816,237.895h 2.84889" fill="none" stroke="black" stroke-width="2"/>
<path d="M447.24,301.384v 35.5213" fill="none" stroke="black" stroke-width="2"/>
<path d="M445.816,336.905h 2.84889" fill="none" stroke="black" stroke-width="2"/>
<path d="M465.382,344.896h -9.07087" fill="none" stroke="black" stroke-width="2"/>
<path d="M456.311,346.32v -2.84889" fill="none" stroke="black" stroke-width="2"/>
<path d="M465.382,344.896h 9.07087" fill="none" stroke="black" stroke-width="2"/>
<path d="M474.453,346.32v -2.84889" fill="none" stroke="black" stroke-width="2"/>
<path d="M465.382,344.896v -50.0288" fill="none" stroke="black" stroke-width="2"/>
<path d="M463.957,294.867h 2.84889" fill="none" stroke="black" stroke-width="2"/>
<path d="M465.382,344.896v 17.9977" fill="none" stroke="black" stroke-width="2"/>
<path d="M463.957,362.894h 2.84889" fill="none" stroke="black" stroke-width="2"/>
<path d="M483.524,344.896h -9.07087" fill="none" stroke="black" stroke-width="2"/>
<path d="M474.453,346.32v -2.84889" fill="none" stroke="black" stroke-width="2"/>
<path d="M483.524,344.896h 9.07087" fill="none" stroke="black" stroke-width="2"/>
<path d="M492.594,346.32v -2.84889" fill="none" stroke="black" stroke-width="2"/>
<path d="M483.524,344.896v -50.0288" fill="none" stroke="black" stroke-width="2"/>
<path d="M482.099,294.867h 2.84889" fill="none" stroke="black" stroke-width="2"/>
<path d="M483.524,344.896v 17.9977" fill="none" stroke="black" stroke-width="2"/>
<path d="M482.099,362.894h 2.84889" fill="none" stroke="black" stroke-width="2"/>
<path d="M501.665,366.652h -9.07087" fill="none" stroke="black" stroke-width="2"/>
<path d="M492.594,366.652v -1.42445" fill="none" stroke="black" stroke-width="2"/>
<path d="M501.665,366.652h 9.07087" fill="none" stroke="black" stroke-width="2"/>
<path d="M510.736,366.652v -1.42445" fill="none" stroke="black" stroke-width="2"/>
<path d="M501.665,366.652v -24.9733" fill="none" stroke="black" stroke-width="2"/>
<path d="M500.241,341.679h 2.84889" fill="none" stroke="black" stroke-width="2"/>
<g fill="black">
<circle cx="66.2638" cy="344.896" r="2.84889"/>
<circle cx="84.4055" cy="279.628" r="2.84889"/>
<circle cx="102.547" cy="323.14" r="2.84889"/>
<circle cx="120.689" cy="257.872" r="2.84889"/>
<circle cx="138.831" cy="236.115" r="2.84889"/>
<circle cx="156.972" cy="344.896" r="2.84889"/>
<circle cx="175.114" cy="344.896" r="2.84889"/>
<circle cx="193.256" cy="279.628" r="2.84889"/>
<circle cx="211.398" cy="279.628" r="2.84889"/>
<circle cx="229.539" cy="301.384" r="2.84889"/>
<circle cx="247.681" cy="257.872" r="2.84889"/>
<circle cx="265.823" cy="301.384" r="2.84889"/>
<circle cx="283.965" cy="344.896" r="2.84889"/>
<circle cx="302.106" cy="279.628" r="2.84889"/>
<circle cx="320.248" cy="279.628" r="2.84889"/>
<circle cx="338.39" cy="192.603" r="2.84889"/>
<circle cx="356.531" cy="214.359" r="2.84889"/>
<circle cx="374.673" cy="170.847" r="2.84889"/>
<circle cx="392.815" cy="149.091" r="2.84889"/>
<circle cx="410.957" cy="214.359" r="2.84889"/>
<circle cx="429.098" cy="279.628" r="2.84889"/>
<circle cx="447.24" cy="301.384" r="2.84889"/>
<circle cx="465.382" cy="344.896" r="2.84889"/>
<circle cx="483.524" cy="344.896" r="2.84889"/>
<circle cx="501.665" cy="366.652" r="2.84889"/>
</g>
<path d="M57.1929,319.814z" fill="none" stroke="#ff0000" stroke-width="6"/>
<path d="M57.1929,319.814l 18.1417, -3.88631l 18.1417, -4.11912l 18.1417, -4.34771l 18.1417, -4.56705l 18.1417, -4.77086l 18.1417, -4.95138l 18.1417, -5.09908l 18.1417, -5.20232l 18.1417, -5.24694l 18.1417, -5.21583l 18.1417, -5.08838l 18.1417,
 -4.83983l 18.1417, -4.44054l 18.1417, -3.85517l 18.1417, -3.04159l 9.07087, -1.13095l 9.07087, -0.818823l 9.07087, -0.462576l 9.07087, -0.0578361l 9.07087, 0.400151l 9.07087, 0.916553l 9.07087, 1.49698l 9.07087, 2.14754l 9.07087, 2.87483l 9.07087,
 3.68605l 4.53543, 2.17557l 4.53543, 2.41342l 4.53543, 2.66405l 4.53543, 2.92804l 4.53543, 3.206l 4.53543, 3.49853l 4.53543, 3.80628l 4.53543, 4.12993l 4.53543, 4.47018l 4.53543, 4.82775l 4.53543, 5.2034l 4.53543, 5.59792l 4.53543, 6.01213l 4.53543,
 6.44688l 4.53543, 6.90306l 4.53543, 7.3816l 4.53543, 7.88346l 4.53543, 8.40963l 4.53543, 8.96116l 4.53543, 9.53914" fill="none" stroke="#ff0000" stroke-width="6"/>
<path d="M57.1929,366.652z" fill="none" stroke="#0000ff" stroke-width="6" stroke-dasharray=" 3, 3"/>
<path d="M57.1929,366.652h 453.543" fill="none" stroke="#0000ff" stroke-width="6" stroke-dasharray=" 3, 3"/>
<path d="M57.1929,319.814z" fill="none" stroke="#00ff00" stroke-width="6" stroke-dasharray=" 3, 3"/>
<path d="M57.1929,319.814l 18.1417, -3.88631l 18.1417, -4.11912l 18.1417, -4.34771l 18.1417, -4.56705l 18.1417, -4.77086l 18.1417, -4.95138l 18.1417, -5.09908l 18.1417, -5.20232l 18.1417, -5.24694l 18.1417, -5.21583l 18.1417, -5.08838l 18.1417,
 -4.83983l 18.1417, -4.44054l 18.1417, -3.85517l 18.1417, -3.04159l 9.07087, -1.13095l 9.07087, -0.818823l 9.07087, -0.462576l 9.07087, -0.0578361l 9.07087, 0.400151l 9.07087, 0.916553l 9.07087, 1.49698l 9.07087, 2.14754l 9.07087, 2.87483l 9.07087,
 3.68605l 4.53543, 2.17557l 4.53543, 2.41342l 4.53543, 2.66405l 4.53543, 2.92804l 4.53543, 3.206l 4.53543, 3.49853l 4.53543, 3.80628l 4.53543, 4.12993l 4.53543, 4.47018l 4.53543, 4.82775l 4.53543, 5.2034l 4.53543, 5.59792l 4.53543, 6.01213l 4.53543,
 6.44688l 4.53543, 6.90306l 4.53543, 7.3816l 4.53543, 7.88346l 4.53543, 8.40963l 4.53543, 8.96116l 4.53543, 9.53914" fill="none" stroke="#00ff00" stroke-width="6" stroke-dasharray=" 3, 3"/>
<path d="M57.1929,366.652h 453.543" fill="none" stroke="black"/>
<path d="M57.1929,356.875v 9.77739" fill="none" stroke="black"/>
<path d="M66.3066,361.763v 4.8887" fill="none" stroke="black"/>
<path d="M75.4203,361.763v 4.8887" fill="none" stroke="black"/>
<path d="M84.534,361.763v 4.8887" fill="none" stroke="black"/>
<path d="M93.6477,361.763v 4.8887" fill="none" stroke="black"/>
<path d="M102.761,356.875v 9.77739" fill="none" stroke="black"/>
<path d="M111.875,361.763v 4.8887" fill="none" stroke="black"/>
<path d="M120.989,361.763v 4.8887" fill="none" stroke="black"/>
<path d="M130.103,361.763v 4.8887" fill="none" stroke="black"/>
<path d="M139.216,361.763v 4.8887" fill="none" stroke="black"/>
<path d="M148.33,356.875v 9.77739" fill="none" stroke="black"/>
<path d="M157.444,361.763v 4.8887" fill="none" stroke="black"/>
<path d="M166.557,361.763v 4.8887" fill="none" stroke="black"/>
<path d="M175.671,361.763v 4.8887" fill="none" stroke="black"/>
<path d="M184.785,361.763v 4.8887" fill="none" stroke="black"/>
<path d="M193.898,356.875v 9.77739" fill="none" stroke="black"/>
<path d="M203.012,361.763v 4.8887" fill="none" stroke="black"/>
<path d="M212.126,361.763v 4.8887" fill="none" stroke="black"/>
<path d="M221.24,361.763v 4.8887" fill="none" stroke="black"/>
<path d="M230.353,361.763v 4.8887" fill="none" stroke="black"/>
<path d="M239.467,356.875v 9.77739" fill="none" stroke="black"/>
<path d="M248.581,361.763v 4.8887" fill="none" stroke="black"/>
<path d="M257.694,361.763v 4.8887" fill="none" stroke="black"/>
<path d="M266.808,361.763v 4.8887" fill="none" stroke="black"/>
<path d="M275.922,361.763v 4.8887" fill="none" stroke="black"/>
<path d="M285.035,356.875v 9.77739" fill="none" stroke="black"/>
<path d="M294.149,361.763v 4.8887" fill="none" stroke="black"/>
<path d="M303.263,361.763v 4.8887" fill="none" stroke="black"/>
<path d="M312.377,361.763v 4.8887" fill="none" stroke="black"/>
<path d="M321.49,361.763v 4.8887" fill="none" stroke="black"/>
<path d="M330.604,356.875v 9.77739" fill="none" stroke="black"/>
<path d="M339.718,361.763v 4.8887" fill="none" stroke="black"/>
<path d="M348.831,361.763v 4.8887" fill="none" stroke="black"/>
<path d="M357.945,361.763v 4.8887" fill="none" stroke="black"/>
<path d="M367.059,361.763v 4.8887" fill="none" stroke="black"/>
<path d="M376.172,356.875v 9.77739" fill="none" stroke="black"/>
<path d="M385.286,361.763v 4.8887" fill="none" stroke="black"/>
<path d="M394.4,361.763v 4.8887" fill="none" stroke="black"/>
<path d="M403.514,361.763v 4.8887" fill="none" stroke="black"/>
<path d="M412.627,361.763v 4.8887" fill="none" stroke="black"/>
<path d="M421.741,356.875v 9.77739" fill="none" stroke="black"/>
<path d="M430.855,361.763v 4.8887" fill="none" stroke="black"/>
<path d="M439.968,361.763v 4.8887" fill="none" stroke="black"/>
<path d="M449.082,361.763v 4.8887" fill="none" stroke="black"/>
<path d="M458.196,361.763v 4.8887" fill="none" stroke="black"/>
<path d="M467.309,356.875v 9.77739" fill="none" stroke="black"/>
<path d="M467.309,356.875v 9.77739" fill="none" stroke="black"/>
<path d="M476.423,361.763v 4.8887" fill="none" stroke="black"/>
<path d="M485.537,361.763v 4.8887" fill="none" stroke="black"/>
<path d="M494.651,361.763v 4.8887" fill="none" stroke="black"/>
<path d="M503.764,361.763v 4.8887" fill="none" stroke="black"/>
<path d="M57.1929,366.652v -325.913" fill="none" stroke="black"/>
<path d="M70.7992,366.652h -13.6063" fill="none" stroke="black"/>
<path d="M63.9961,355.774h -6.80315" fill="none" stroke="black"/>
<path d="M63.9961,344.896h -6.80315" fill="none" stroke="black"/>
<path d="M63.9961,334.018h -6.80315" fill="none" stroke="black"/>
<path d="M70.7992,323.14h -13.6063" fill="none" stroke="black"/>
<path d="M63.9961,312.262h -6.80315" fill="none" stroke="black"/>
<path d="M63.9961,301.384h -6.80315" fill="none" stroke="black"/>
<path d="M63.9961,290.506h -6.80315" fill="none" stroke="black"/>
<path d="M70.7992,279.628h -13.6063" fill="none" stroke="black"/>
<path d="M63.9961,268.75h -6.80315" fill="none" stroke="black"/>
<path d="M63.9961,257.872h -6.80315" fill="none" stroke="black"/>
<path d="M63.9961,246.994h -6.80315" fill="none" stroke="black"/>
<path d="M70.7992,236.115h -13.6063" fill="none" stroke="black"/>
<path d="M63.9961,225.237h -6.80315" fill="none" stroke="black"/>
<path d="M63.9961,214.359h -6.80315" fill="none" stroke="black"/>
<path d="M63.9961,203.481h -6.80315" fill="none" stroke="black"/>
<path d="M70.7992,192.603h -13.6063" fill="none" stroke="black"/>
<path d="M63.9961,181.725h -6.80315" fill="none" stroke="black"/>
<path d="M63.9961,170.847h -6.80315" fill="none" stroke="black"/>
<path d="M63.9961,159.969h -6.80315" fill="none" stroke="black"/>
<path d="M70.7992,149.091h -13.6063" fill="none" stroke="black"/>
<path d="M63.9961,138.213h -6.80315" fill="none" stroke="black"/>
<path d="M63.9961,127.335h -6.80315" fill="none" stroke="black"/>
<path d="M63.9961,116.457h -6.80315" fill="none" stroke="black"/>
<path d="M70.7992,105.579h -13.6063" fill="none" stroke="black"/>
<path d="M63.9961,94.7008h -6.80315" fill="none" stroke="black"/>
<path d="M63.9961,83.8227h -6.80315" fill="none" stroke="black"/>
<path d="M63.9961,72.9446h -6.80315" fill="none" stroke="black"/>
<path d="M70.7992,62.0666h -13.6063" fill="none" stroke="black"/>
<path d="M70.7992,62.0666h -13.6063" fill="none" stroke="black"/>
<path d="M63.9961,51.1885h -6.80315" fill="none" stroke="black"/>
<rect x="85.5394" y="48.887" width="130.394" height="52.9609" fill="white"/>
<text xml:space="preserve" x="90.24" y="82.6178" fill="black" font-size="20.1505" font-family="Helvetica" font-weight="bold">E=4.600 GeV</text></svg>
