<?xml version="1.0" standalone="no"?>
<svg width="567.429" height="411.802" viewBox="0 0 567.429 411.802" xmlns="http://www.w3.org/2000/svg" shape-rendering="crispEdges">
<title>
pic_fit2.svg
</title>
<desc>
Creator: ROOT Version 6.20/06
CreationDate: Mon May 17 21:11:55 2021</desc>
<defs>
</defs>
<rect x="0.5" y="0" width="566.929" height="411.302" fill="white"/>
<rect x="57.1929" y="41.1302" width="453.543" height="329.041" fill="white"/>
<rect x="57.1929" y="41.1302" width="453.543" height="329.041" fill="none" stroke="black"/>
<rect x="57.1929" y="41.1302" width="453.543" height="329.041" fill="white"/>
<rect x="57.1929" y="41.1302" width="453.543" height="329.041" fill="none" stroke="black"/>
<path d="M57.1929,370.171h 453.543" fill="none" stroke="black"/>
<path d="M57.1929,360.3v 9.87124" fill="none" stroke="black"/>
<path d="M66.2638,365.236v 4.93562" fill="none" stroke="black"/>
<path d="M75.3346,365.236v 4.93562" fill="none" stroke="black"/>
<path d="M84.4055,365.236v 4.93562" fill="none" stroke="black"/>
<path d="M93.4764,365.236v 4.93562" fill="none" stroke="black"/>
<path d="M102.547,360.3v 9.87124" fill="none" stroke="black"/>
<path d="M111.618,365.236v 4.93562" fill="none" stroke="black"/>
<path d="M120.689,365.236v 4.93562" fill="none" stroke="black"/>
<path d="M129.76,365.236v 4.93562" fill="none" stroke="black"/>
<path d="M138.831,365.236v 4.93562" fill="none" stroke="black"/>
<path d="M147.902,360.3v 9.87124" fill="none" stroke="black"/>
<path d="M156.972,365.236v 4.93562" fill="none" stroke="black"/>
<path d="M166.043,365.236v 4.93562" fill="none" stroke="black"/>
<path d="M175.114,365.236v 4.93562" fill="none" stroke="black"/>
<path d="M184.185,365.236v 4.93562" fill="none" stroke="black"/>
<path d="M193.256,360.3v 9.87124" fill="none" stroke="black"/>
<path d="M202.327,365.236v 4.93562" fill="none" stroke="black"/>
<path d="M211.398,365.236v 4.93562" fill="none" stroke="black"/>
<path d="M220.469,365.236v 4.93562" fill="none" stroke="black"/>
<path d="M229.539,365.236v 4.93562" fill="none" stroke="black"/>
<path d="M238.61,360.3v 9.87124" fill="none" stroke="black"/>
<path d="M247.681,365.236v 4.93562" fill="none" stroke="black"/>
<path d="M256.752,365.236v 4.93562" fill="none" stroke="black"/>
<path d="M265.823,365.236v 4.93562" fill="none" stroke="black"/>
<path d="M274.894,365.236v 4.93562" fill="none" stroke="black"/>
<path d="M283.965,360.3v 9.87124" fill="none" stroke="black"/>
<path d="M293.035,365.236v 4.93562" fill="none" stroke="black"/>
<path d="M302.106,365.236v 4.93562" fill="none" stroke="black"/>
<path d="M311.177,365.236v 4.93562" fill="none" stroke="black"/>
<path d="M320.248,365.236v 4.93562" fill="none" stroke="black"/>
<path d="M329.319,360.3v 9.87124" fill="none" stroke="black"/>
<path d="M338.39,365.236v 4.93562" fill="none" stroke="black"/>
<path d="M347.461,365.236v 4.93562" fill="none" stroke="black"/>
<path d="M356.531,365.236v 4.93562" fill="none" stroke="black"/>
<path d="M365.602,365.236v 4.93562" fill="none" stroke="black"/>
<path d="M374.673,360.3v 9.87124" fill="none" stroke="black"/>
<path d="M383.744,365.236v 4.93562" fill="none" stroke="black"/>
<path d="M392.815,365.236v 4.93562" fill="none" stroke="black"/>
<path d="M401.886,365.236v 4.93562" fill="none" stroke="black"/>
<path d="M410.957,365.236v 4.93562" fill="none" stroke="black"/>
<path d="M420.028,360.3v 9.87124" fill="none" stroke="black"/>
<path d="M429.098,365.236v 4.93562" fill="none" stroke="black"/>
<path d="M438.169,365.236v 4.93562" fill="none" stroke="black"/>
<path d="M447.24,365.236v 4.93562" fill="none" stroke="black"/>
<path d="M456.311,365.236v 4.93562" fill="none" stroke="black"/>
<path d="M465.382,360.3v 9.87124" fill="none" stroke="black"/>
<path d="M474.453,365.236v 4.93562" fill="none" stroke="black"/>
<path d="M483.524,365.236v 4.93562" fill="none" stroke="black"/>
<path d="M492.594,365.236v 4.93562" fill="none" stroke="black"/>
<path d="M501.665,365.236v 4.93562" fill="none" stroke="black"/>
<path d="M510.736,360.3v 9.87124" fill="none" stroke="black"/>
<text xml:space="preserve" x="44.4092" y="383.511" fill="black" font-size="13.7069" font-family="Helvetica">2.25</text>
<text xml:space="preserve" x="89.4301" y="383.511" fill="black" font-size="13.7069" font-family="Helvetica">2.26</text>
<text xml:space="preserve" x="135.007" y="383.511" fill="black" font-size="13.7069" font-family="Helvetica">2.27</text>
<text xml:space="preserve" x="180.028" y="383.511" fill="black" font-size="13.7069" font-family="Helvetica">2.28</text>
<text xml:space="preserve" x="225.604" y="383.511" fill="black" font-size="13.7069" font-family="Helvetica">2.29</text>
<text xml:space="preserve" x="275.072" y="383.511" fill="black" font-size="13.7069" font-family="Helvetica">2.3</text>
<text xml:space="preserve" x="317.313" y="383.511" fill="black" font-size="13.7069" font-family="Helvetica">2.31</text>
<text xml:space="preserve" x="361.778" y="383.511" fill="black" font-size="13.7069" font-family="Helvetica">2.32</text>
<text xml:space="preserve" x="406.799" y="383.511" fill="black" font-size="13.7069" font-family="Helvetica">2.33</text>
<text xml:space="preserve" x="452.376" y="383.511" fill="black" font-size="13.7069" font-family="Helvetica">2.34</text>
<text xml:space="preserve" x="497.953" y="383.511" fill="black" font-size="13.7069" font-family="Helvetica">2.35</text>
<text xml:space="preserve" x="506.846" y="397.406" fill="black" font-size="13.7069" font-family="Helvetica">)</text>
<text xml:space="preserve" x="501.843" y="391.292" fill="black" font-size="9.30462" font-family="Helvetica">2</text>
<text xml:space="preserve" x="457.934" y="397.406" fill="black" font-size="13.7069" font-family="Helvetica"> (GeV/c</text>
<text xml:space="preserve" x="445.706" y="401.297" fill="black" font-size="9.30462" font-family="Helvetica">BC</text>
<text xml:space="preserve" x="435.146" y="397.406" fill="black" font-size="13.7069" font-family="Helvetica">M</text>
<path d="M57.1929,370.171v -329.041" fill="none" stroke="black"/>
<path d="M70.7992,370.171h -13.6063" fill="none" stroke="black"/>
<path d="M63.9961,363.453h -6.80315" fill="none" stroke="black"/>
<path d="M63.9961,356.734h -6.80315" fill="none" stroke="black"/>
<path d="M63.9961,350.015h -6.80315" fill="none" stroke="black"/>
<path d="M70.7992,343.297h -13.6063" fill="none" stroke="black"/>
<path d="M63.9961,336.578h -6.80315" fill="none" stroke="black"/>
<path d="M63.9961,329.859h -6.80315" fill="none" stroke="black"/>
<path d="M63.9961,323.141h -6.80315" fill="none" stroke="black"/>
<path d="M70.7992,316.422h -13.6063" fill="none" stroke="black"/>
<path d="M63.9961,309.703h -6.80315" fill="none" stroke="black"/>
<path d="M63.9961,302.985h -6.80315" fill="none" stroke="black"/>
<path d="M63.9961,296.266h -6.80315" fill="none" stroke="black"/>
<path d="M70.7992,289.547h -13.6063" fill="none" stroke="black"/>
<path d="M63.9961,282.829h -6.80315" fill="none" stroke="black"/>
<path d="M63.9961,276.11h -6.80315" fill="none" stroke="black"/>
<path d="M63.9961,269.391h -6.80315" fill="none" stroke="black"/>
<path d="M70.7992,262.673h -13.6063" fill="none" stroke="black"/>
<path d="M63.9961,255.954h -6.80315" fill="none" stroke="black"/>
<path d="M63.9961,249.235h -6.80315" fill="none" stroke="black"/>
<path d="M63.9961,242.517h -6.80315" fill="none" stroke="black"/>
<path d="M70.7992,235.798h -13.6063" fill="none" stroke="black"/>
<path d="M63.9961,229.079h -6.80315" fill="none" stroke="black"/>
<path d="M63.9961,222.361h -6.80315" fill="none" stroke="black"/>
<path d="M63.9961,215.642h -6.80315" fill="none" stroke="black"/>
<path d="M70.7992,208.923h -13.6063" fill="none" stroke="black"/>
<path d="M63.9961,202.204h -6.80315" fill="none" stroke="black"/>
<path d="M63.9961,195.486h -6.80315" fill="none" stroke="black"/>
<path d="M63.9961,188.767h -6.80315" fill="none" stroke="black"/>
<path d="M70.7992,182.048h -13.6063" fill="none" stroke="black"/>
<path d="M63.9961,175.33h -6.80315" fill="none" stroke="black"/>
<path d="M63.9961,168.611h -6.80315" fill="none" stroke="black"/>
<path d="M63.9961,161.892h -6.80315" fill="none" stroke="black"/>
<path d="M70.7992,155.174h -13.6063" fill="none" stroke="black"/>
<path d="M63.9961,148.455h -6.80315" fill="none" stroke="black"/>
<path d="M63.9961,141.736h -6.80315" fill="none" stroke="black"/>
<path d="M63.9961,135.018h -6.80315" fill="none" stroke="black"/>
<path d="M70.7992,128.299h -13.6063" fill="none" stroke="black"/>
<path d="M63.9961,121.58h -6.80315" fill="none" stroke="black"/>
<path d="M63.9961,114.862h -6.80315" fill="none" stroke="black"/>
<path d="M63.9961,108.143h -6.80315" fill="none" stroke="black"/>
<path d="M70.7992,101.424h -13.6063" fill="none" stroke="black"/>
<path d="M63.9961,94.7057h -6.80315" fill="none" stroke="black"/>
<path d="M63.9961,87.987h -6.80315" fill="none" stroke="black"/>
<path d="M63.9961,81.2683h -6.80315" fill="none" stroke="black"/>
<path d="M70.7992,74.5496h -13.6063" fill="none" stroke="black"/>
<path d="M63.9961,67.8309h -6.80315" fill="none" stroke="black"/>
<path d="M63.9961,61.1123h -6.80315" fill="none" stroke="black"/>
<path d="M63.9961,54.3936h -6.80315" fill="none" stroke="black"/>
<path d="M70.7992,47.6749h -13.6063" fill="none" stroke="black"/>
<path d="M70.7992,47.6749h -13.6063" fill="none" stroke="black"/>
<text xml:space="preserve" x="46.6325" y="375.174" fill="black" font-size="13.7069" font-family="Helvetica">0</text>
<text xml:space="preserve" x="46.6325" y="348.495" fill="black" font-size="13.7069" font-family="Helvetica">2</text>
<text xml:space="preserve" x="46.6325" y="321.816" fill="black" font-size="13.7069" font-family="Helvetica">4</text>
<text xml:space="preserve" x="46.6325" y="294.025" fill="black" font-size="13.7069" font-family="Helvetica">6</text>
<text xml:space="preserve" x="46.6325" y="267.346" fill="black" font-size="13.7069" font-family="Helvetica">8</text>
<text xml:space="preserve" x="39.4069" y="240.667" fill="black" font-size="13.7069" font-family="Helvetica">10</text>
<text xml:space="preserve" x="39.4069" y="213.988" fill="black" font-size="13.7069" font-family="Helvetica">12</text>
<text xml:space="preserve" x="39.4069" y="187.309" fill="black" font-size="13.7069" font-family="Helvetica">14</text>
<text xml:space="preserve" x="39.4069" y="160.074" fill="black" font-size="13.7069" font-family="Helvetica">16</text>
<text xml:space="preserve" x="39.4069" y="132.839" fill="black" font-size="13.7069" font-family="Helvetica">18</text>
<text xml:space="preserve" x="39.4069" y="106.16" fill="black" font-size="13.7069" font-family="Helvetica">20</text>
<text xml:space="preserve" x="39.4069" y="80.0371" fill="black" font-size="13.7069" font-family="Helvetica">22</text>
<text xml:space="preserve" x="39.4069" y="52.8022" fill="black" font-size="13.7069" font-family="Helvetica">24</text>
<g transform="rotate(-90,27.7348,45.0208)">
<text xml:space="preserve" x="27.7348" y="45.0208" fill="black" font-size="13.7069" font-family="Helvetica">)</text>
</g>
<g transform="rotate(-90,21.6209,50.0232)">
<text xml:space="preserve" x="21.6209" y="50.0232" fill="black" font-size="9.30462" font-family="Helvetica">2</text>
</g>
<g transform="rotate(-90,27.7348,163.409)">
<text xml:space="preserve" x="27.7348" y="163.409" fill="black" font-size="13.7069" font-family="Helvetica">Events/(  3.3 MeV/c</text>
</g>
<path d="M64.752,329.859h -7.55905" fill="none" stroke="black" stroke-width="4"/>
<path d="M57.1929,330.971v -2.22325" fill="none" stroke="black" stroke-width="4"/>
<path d="M64.752,329.859h 7.55905" fill="none" stroke="black" stroke-width="4"/>
<path d="M72.311,330.971v -2.22325" fill="none" stroke="black" stroke-width="4"/>
<path d="M64.752,329.859v -39.2127" fill="none" stroke="black" stroke-width="4"/>
<path d="M63.6403,290.647h 2.22325" fill="none" stroke="black" stroke-width="4"/>
<path d="M64.752,329.859v 21.9392" fill="none" stroke="black" stroke-width="4"/>
<path d="M63.6403,351.799h 2.22325" fill="none" stroke="black" stroke-width="4"/>
<path d="M79.8701,302.985h -7.55905" fill="none" stroke="black" stroke-width="4"/>
<path d="M72.311,304.096v -2.22325" fill="none" stroke="black" stroke-width="4"/>
<path d="M79.8701,302.985h 7.55905" fill="none" stroke="black" stroke-width="4"/>
<path d="M87.4291,304.096v -2.22325" fill="none" stroke="black" stroke-width="4"/>
<path d="M79.8701,302.985v -45.4515" fill="none" stroke="black" stroke-width="4"/>
<path d="M78.7585,257.533h 2.22325" fill="none" stroke="black" stroke-width="4"/>
<path d="M79.8701,302.985v 29.0205" fill="none" stroke="black" stroke-width="4"/>
<path d="M78.7585,332.005h 2.22325" fill="none" stroke="black" stroke-width="4"/>
<path d="M94.9882,289.547h -7.55905" fill="none" stroke="black" stroke-width="4"/>
<path d="M87.4291,290.659v -2.22325" fill="none" stroke="black" stroke-width="4"/>
<path d="M94.9882,289.547h 7.55905" fill="none" stroke="black" stroke-width="4"/>
<path d="M102.547,290.659v -2.22325" fill="none" stroke="black" stroke-width="4"/>
<path d="M94.9882,289.547v -48.1547" fill="none" stroke="black" stroke-width="4"/>
<path d="M93.8766,241.393h 2.22325" fill="none" stroke="black" stroke-width="4"/>
<path d="M94.9882,289.547v 31.98" fill="none" stroke="black" stroke-width="4"/>
<path d="M93.8766,321.527h 2.22325" fill="none" stroke="black" stroke-width="4"/>
<path d="M110.106,276.11h -7.55905" fill="none" stroke="black" stroke-width="4"/>
<path d="M102.547,277.222v -2.22325" fill="none" stroke="black" stroke-width="4"/>
<path d="M110.106,276.11h 7.55905" fill="none" stroke="black" stroke-width="4"/>
<path d="M117.665,277.222v -2.22325" fill="none" stroke="black" stroke-width="4"/>
<path d="M110.106,276.11v -50.6626" fill="none" stroke="black" stroke-width="4"/>
<path d="M108.995,225.447h 2.22325" fill="none" stroke="black" stroke-width="4"/>
<path d="M110.106,276.11v 34.6881" fill="none" stroke="black" stroke-width="4"/>
<path d="M108.995,310.798h 2.22325" fill="none" stroke="black" stroke-width="4"/>
<path d="M125.224,316.422h -7.55905" fill="none" stroke="black" stroke-width="4"/>
<path d="M117.665,317.534v -2.22325" fill="none" stroke="black" stroke-width="4"/>
<path d="M125.224,316.422h 7.55905" fill="none" stroke="black" stroke-width="4"/>
<path d="M132.783,317.534v -2.22325" fill="none" stroke="black" stroke-width="4"/>
<path d="M125.224,316.422v -42.499" fill="none" stroke="black" stroke-width="4"/>
<path d="M124.113,273.923h 2.22325" fill="none" stroke="black" stroke-width="4"/>
<path d="M125.224,316.422v 25.7236" fill="none" stroke="black" stroke-width="4"/>
<path d="M124.113,342.146h 2.22325" fill="none" stroke="black" stroke-width="4"/>
<path d="M140.343,276.11h -7.55905" fill="none" stroke="black" stroke-width="4"/>
<path d="M132.783,277.222v -2.22325" fill="none" stroke="black" stroke-width="4"/>
<path d="M140.343,276.11h 7.55905" fill="none" stroke="black" stroke-width="4"/>
<path d="M147.902,277.222v -2.22325" fill="none" stroke="black" stroke-width="4"/>
<path d="M140.343,276.11v -50.6626" fill="none" stroke="black" stroke-width="4"/>
<path d="M139.231,225.447h 2.22325" fill="none" stroke="black" stroke-width="4"/>
<path d="M140.343,276.11v 34.6881" fill="none" stroke="black" stroke-width="4"/>
<path d="M139.231,310.798h 2.22325" fill="none" stroke="black" stroke-width="4"/>
<path d="M155.461,343.297h -7.55905" fill="none" stroke="black" stroke-width="4"/>
<path d="M147.902,344.408v -2.22325" fill="none" stroke="black" stroke-width="4"/>
<path d="M155.461,343.297h 7.55905" fill="none" stroke="black" stroke-width="4"/>
<path d="M163.02,344.408v -2.22325" fill="none" stroke="black" stroke-width="4"/>
<path d="M155.461,343.297v -35.4458" fill="none" stroke="black" stroke-width="4"/>
<path d="M154.349,307.851h 2.22325" fill="none" stroke="black" stroke-width="4"/>
<path d="M155.461,343.297v 17.3586" fill="none" stroke="black" stroke-width="4"/>
<path d="M154.349,360.655h 2.22325" fill="none" stroke="black" stroke-width="4"/>
<path d="M170.579,262.673h -7.55905" fill="none" stroke="black" stroke-width="4"/>
<path d="M163.02,263.784v -2.22325" fill="none" stroke="black" stroke-width="4"/>
<path d="M170.579,262.673h 7.55905" fill="none" stroke="black" stroke-width="4"/>
<path d="M178.138,263.784v -2.22325" fill="none" stroke="black" stroke-width="4"/>
<path d="M170.579,262.673v -53.0123" fill="none" stroke="black" stroke-width="4"/>
<path d="M169.467,209.66h 2.22325" fill="none" stroke="black" stroke-width="4"/>
<path d="M170.579,262.673v 37.1998" fill="none" stroke="black" stroke-width="4"/>
<path d="M169.467,299.872h 2.22325" fill="none" stroke="black" stroke-width="4"/>
<path d="M185.697,262.673h -7.55905" fill="none" stroke="black" stroke-width="4"/>
<path d="M178.138,263.784v -2.22325" fill="none" stroke="black" stroke-width="4"/>
<path d="M185.697,262.673h 7.55905" fill="none" stroke="black" stroke-width="4"/>
<path d="M193.256,263.784v -2.22325" fill="none" stroke="black" stroke-width="4"/>
<path d="M185.697,262.673v -53.0123" fill="none" stroke="black" stroke-width="4"/>
<path d="M184.585,209.66h 2.22325" fill="none" stroke="black" stroke-width="4"/>
<path d="M185.697,262.673v 37.1998" fill="none" stroke="black" stroke-width="4"/>
<path d="M184.585,299.872h 2.22325" fill="none" stroke="black" stroke-width="4"/>
<path d="M200.815,302.985h -7.55905" fill="none" stroke="black" stroke-width="4"/>
<path d="M193.256,304.096v -2.22325" fill="none" stroke="black" stroke-width="4"/>
<path d="M200.815,302.985h 7.55905" fill="none" stroke="black" stroke-width="4"/>
<path d="M208.374,304.096v -2.22325" fill="none" stroke="black" stroke-width="4"/>
<path d="M200.815,302.985v -45.4515" fill="none" stroke="black" stroke-width="4"/>
<path d="M199.703,257.533h 2.22325" fill="none" stroke="black" stroke-width="4"/>
<path d="M200.815,302.985v 29.0205" fill="none" stroke="black" stroke-width="4"/>
<path d="M199.703,332.005h 2.22325" fill="none" stroke="black" stroke-width="4"/>
<path d="M215.933,235.798h -7.55905" fill="none" stroke="black" stroke-width="4"/>
<path d="M208.374,236.909v -2.22325" fill="none" stroke="black" stroke-width="4"/>
<path d="M215.933,235.798h 7.55905" fill="none" stroke="black" stroke-width="4"/>
<path d="M223.492,236.909v -2.22325" fill="none" stroke="black" stroke-width="4"/>
<path d="M215.933,235.798v -57.3365" fill="none" stroke="black" stroke-width="4"/>
<path d="M214.821,178.461h 2.22325" fill="none" stroke="black" stroke-width="4"/>
<path d="M215.933,235.798v 41.7726" fill="none" stroke="black" stroke-width="4"/>
<path d="M214.821,277.57h 2.22325" fill="none" stroke="black" stroke-width="4"/>
<path d="M231.051,128.299h -7.55905" fill="none" stroke="black" stroke-width="4"/>
<path d="M223.492,129.411v -2.22325" fill="none" stroke="black" stroke-width="4"/>
<path d="M231.051,128.299h 7.55905" fill="none" stroke="black" stroke-width="4"/>
<path d="M238.61,129.411v -2.22325" fill="none" stroke="black" stroke-width="4"/>
<path d="M231.051,128.299v -71.5003" fill="none" stroke="black" stroke-width="4"/>
<path d="M229.94,56.7988h 2.22325" fill="none" stroke="black" stroke-width="4"/>
<path d="M231.051,128.299v 56.4757" fill="none" stroke="black" stroke-width="4"/>
<path d="M229.94,184.775h 2.22325" fill="none" stroke="black" stroke-width="4"/>
<path d="M246.169,302.985h -7.55905" fill="none" stroke="black" stroke-width="4"/>
<path d="M238.61,304.096v -2.22325" fill="none" stroke="black" stroke-width="4"/>
<path d="M246.169,302.985h 7.55905" fill="none" stroke="black" stroke-width="4"/>
<path d="M253.728,304.096v -2.22325" fill="none" stroke="black" stroke-width="4"/>
<path d="M246.169,302.985v -45.4515" fill="none" stroke="black" stroke-width="4"/>
<path d="M245.058,257.533h 2.22325" fill="none" stroke="black" stroke-width="4"/>
<path d="M246.169,302.985v 29.0205" fill="none" stroke="black" stroke-width="4"/>
<path d="M245.058,332.005h 2.22325" fill="none" stroke="black" stroke-width="4"/>
<path d="M261.287,343.297h -7.55905" fill="none" stroke="black" stroke-width="4"/>
<path d="M253.728,344.408v -2.22325" fill="none" stroke="black" stroke-width="4"/>
<path d="M261.287,343.297h 7.55905" fill="none" stroke="black" stroke-width="4"/>
<path d="M268.846,344.408v -2.22325" fill="none" stroke="black" stroke-width="4"/>
<path d="M261.287,343.297v -35.4458" fill="none" stroke="black" stroke-width="4"/>
<path d="M260.176,307.851h 2.22325" fill="none" stroke="black" stroke-width="4"/>
<path d="M261.287,343.297v 17.3586" fill="none" stroke="black" stroke-width="4"/>
<path d="M260.176,360.655h 2.22325" fill="none" stroke="black" stroke-width="4"/>
<path d="M276.406,316.422h -7.55905" fill="none" stroke="black" stroke-width="4"/>
<path d="M268.846,317.534v -2.22325" fill="none" stroke="black" stroke-width="4"/>
<path d="M276.406,316.422h 7.55905" fill="none" stroke="black" stroke-width="4"/>
<path d="M283.965,317.534v -2.22325" fill="none" stroke="black" stroke-width="4"/>
<path d="M276.406,316.422v -42.499" fill="none" stroke="black" stroke-width="4"/>
<path d="M275.294,273.923h 2.22325" fill="none" stroke="black" stroke-width="4"/>
<path d="M276.406,316.422v 25.7236" fill="none" stroke="black" stroke-width="4"/>
<path d="M275.294,342.146h 2.22325" fill="none" stroke="black" stroke-width="4"/>
<path d="M291.524,289.547h -7.55905" fill="none" stroke="black" stroke-width="4"/>
<path d="M283.965,290.659v -2.22325" fill="none" stroke="black" stroke-width="4"/>
<path d="M291.524,289.547h 7.55905" fill="none" stroke="black" stroke-width="4"/>
<path d="M299.083,290.659v -2.22325" fill="none" stroke="black" stroke-width="4"/>
<path d="M291.524,289.547v -48.1547" fill="none" stroke="black" stroke-width="4"/>
<path d="M290.412,241.393h 2.22325" fill="none" stroke="black" stroke-width="4"/>
<path d="M291.524,289.547v 31.98" fill="none" stroke="black" stroke-width="4"/>
<path d="M290.412,321.527h 2.22325" fill="none" stroke="black" stroke-width="4"/>
<path d="M306.642,302.985h -7.55905" fill="none" stroke="black" stroke-width="4"/>
<path d="M299.083,304.096v -2.22325" fill="none" stroke="black" stroke-width="4"/>
<path d="M306.642,302.985h 7.55905" fill="none" stroke="black" stroke-width="4"/>
<path d="M314.201,304.096v -2.22325" fill="none" stroke="black" stroke-width="4"/>
<path d="M306.642,302.985v -45.4515" fill="none" stroke="black" stroke-width="4"/>
<path d="M305.53,257.533h 2.22325" fill="none" stroke="black" stroke-width="4"/>
<path d="M306.642,302.985v 29.0205" fill="none" stroke="black" stroke-width="4"/>
<path d="M305.53,332.005h 2.22325" fill="none" stroke="black" stroke-width="4"/>
<path d="M321.76,316.422h -7.55905" fill="none" stroke="black" stroke-width="4"/>
<path d="M314.201,317.534v -2.22325" fill="none" stroke="black" stroke-width="4"/>
<path d="M321.76,316.422h 7.55905" fill="none" stroke="black" stroke-width="4"/>
<path d="M329.319,317.534v -2.22325" fill="none" stroke="black" stroke-width="4"/>
<path d="M321.76,316.422v -42.499" fill="none" stroke="black" stroke-width="4"/>
<path d="M320.648,273.923h 2.22325" fill="none" stroke="black" stroke-width="4"/>
<path d="M321.76,316.422v 25.7236" fill="none" stroke="black" stroke-width="4"/>
<path d="M320.648,342.146h 2.22325" fill="none" stroke="black" stroke-width="4"/>
<path d="M336.878,370.171h -7.55905" fill="none" stroke="black" stroke-width="4"/>
<path d="M329.319,370.171v -1.11163" fill="none" stroke="black" stroke-width="4"/>
<path d="M336.878,370.171h 7.55905" fill="none" stroke="black" stroke-width="4"/>
<path d="M344.437,370.171v -1.11163" fill="none" stroke="black" stroke-width="4"/>
<path d="M336.878,370.171v -15.4244" fill="none" stroke="black" stroke-width="4"/>
<path d="M335.766,354.747h 2.22325" fill="none" stroke="black" stroke-width="4"/>
<path d="M351.996,343.297h -7.55905" fill="none" stroke="black" stroke-width="4"/>
<path d="M344.437,344.408v -2.22325" fill="none" stroke="black" stroke-width="4"/>
<path d="M351.996,343.297h 7.55905" fill="none" stroke="black" stroke-width="4"/>
<path d="M359.555,344.408v -2.22325" fill="none" stroke="black" stroke-width="4"/>
<path d="M351.996,343.297v -35.4458" fill="none" stroke="black" stroke-width="4"/>
<path d="M350.884,307.851h 2.22325" fill="none" stroke="black" stroke-width="4"/>
<path d="M351.996,343.297v 17.3586" fill="none" stroke="black" stroke-width="4"/>
<path d="M350.884,360.655h 2.22325" fill="none" stroke="black" stroke-width="4"/>
<path d="M367.114,316.422h -7.55905" fill="none" stroke="black" stroke-width="4"/>
<path d="M359.555,317.534v -2.22325" fill="none" stroke="black" stroke-width="4"/>
<path d="M367.114,316.422h 7.55905" fill="none" stroke="black" stroke-width="4"/>
<path d="M374.673,317.534v -2.22325" fill="none" stroke="black" stroke-width="4"/>
<path d="M367.114,316.422v -42.499" fill="none" stroke="black" stroke-width="4"/>
<path d="M366.003,273.923h 2.22325" fill="none" stroke="black" stroke-width="4"/>
<path d="M367.114,316.422v 25.7236" fill="none" stroke="black" stroke-width="4"/>
<path d="M366.003,342.146h 2.22325" fill="none" stroke="black" stroke-width="4"/>
<path d="M382.232,370.171h -7.55905" fill="none" stroke="black" stroke-width="4"/>
<path d="M374.673,370.171v -1.11163" fill="none" stroke="black" stroke-width="4"/>
<path d="M382.232,370.171h 7.55905" fill="none" stroke="black" stroke-width="4"/>
<path d="M389.791,370.171v -1.11163" fill="none" stroke="black" stroke-width="4"/>
<path d="M382.232,370.171v -15.4244" fill="none" stroke="black" stroke-width="4"/>
<path d="M381.121,354.747h 2.22325" fill="none" stroke="black" stroke-width="4"/>
<path d="M397.35,370.171h -7.55905" fill="none" stroke="black" stroke-width="4"/>
<path d="M389.791,370.171v -1.11163" fill="none" stroke="black" stroke-width="4"/>
<path d="M397.35,370.171h 7.55905" fill="none" stroke="black" stroke-width="4"/>
<path d="M404.909,370.171v -1.11163" fill="none" stroke="black" stroke-width="4"/>
<path d="M397.35,370.171v -15.4244" fill="none" stroke="black" stroke-width="4"/>
<path d="M396.239,354.747h 2.22325" fill="none" stroke="black" stroke-width="4"/>
<path d="M412.469,343.297h -7.55905" fill="none" stroke="black" stroke-width="4"/>
<path d="M404.909,344.408v -2.22325" fill="none" stroke="black" stroke-width="4"/>
<path d="M412.469,343.297h 7.55905" fill="none" stroke="black" stroke-width="4"/>
<path d="M420.028,344.408v -2.22325" fill="none" stroke="black" stroke-width="4"/>
<path d="M412.469,343.297v -35.4458" fill="none" stroke="black" stroke-width="4"/>
<path d="M411.357,307.851h 2.22325" fill="none" stroke="black" stroke-width="4"/>
<path d="M412.469,343.297v 17.3586" fill="none" stroke="black" stroke-width="4"/>
<path d="M411.357,360.655h 2.22325" fill="none" stroke="black" stroke-width="4"/>
<path d="M427.587,343.297h -7.55905" fill="none" stroke="black" stroke-width="4"/>
<path d="M420.028,344.408v -2.22325" fill="none" stroke="black" stroke-width="4"/>
<path d="M427.587,343.297h 7.55905" fill="none" stroke="black" stroke-width="4"/>
<path d="M435.146,344.408v -2.22325" fill="none" stroke="black" stroke-width="4"/>
<path d="M427.587,343.297v -35.4458" fill="none" stroke="black" stroke-width="4"/>
<path d="M426.475,307.851h 2.22325" fill="none" stroke="black" stroke-width="4"/>
<path d="M427.587,343.297v 17.3586" fill="none" stroke="black" stroke-width="4"/>
<path d="M426.475,360.655h 2.22325" fill="none" stroke="black" stroke-width="4"/>
<path d="M442.705,370.171h -7.55905" fill="none" stroke="black" stroke-width="4"/>
<path d="M435.146,370.171v -1.11163" fill="none" stroke="black" stroke-width="4"/>
<path d="M442.705,370.171h 7.55905" fill="none" stroke="black" stroke-width="4"/>
<path d="M450.264,370.171v -1.11163" fill="none" stroke="black" stroke-width="4"/>
<path d="M442.705,370.171v -15.4244" fill="none" stroke="black" stroke-width="4"/>
<path d="M441.593,354.747h 2.22325" fill="none" stroke="black" stroke-width="4"/>
<path d="M457.823,356.734h -7.55905" fill="none" stroke="black" stroke-width="4"/>
<path d="M450.264,357.846v -2.22325" fill="none" stroke="black" stroke-width="4"/>
<path d="M457.823,356.734h 7.55905" fill="none" stroke="black" stroke-width="4"/>
<path d="M465.382,357.846v -2.22325" fill="none" stroke="black" stroke-width="4"/>
<path d="M457.823,356.734v -30.8995" fill="none" stroke="black" stroke-width="4"/>
<path d="M456.711,325.834h 2.22325" fill="none" stroke="black" stroke-width="4"/>
<path d="M457.823,356.734v 11.116" fill="none" stroke="black" stroke-width="4"/>
<path d="M456.711,367.85h 2.22325" fill="none" stroke="black" stroke-width="4"/>
<path d="M472.941,370.171h -7.55905" fill="none" stroke="black" stroke-width="4"/>
<path d="M465.382,370.171v -1.11163" fill="none" stroke="black" stroke-width="4"/>
<path d="M472.941,370.171h 7.55905" fill="none" stroke="black" stroke-width="4"/>
<path d="M480.5,370.171v -1.11163" fill="none" stroke="black" stroke-width="4"/>
<path d="M472.941,370.171v -15.4244" fill="none" stroke="black" stroke-width="4"/>
<path d="M471.829,354.747h 2.22325" fill="none" stroke="black" stroke-width="4"/>
<path d="M488.059,370.171h -7.55905" fill="none" stroke="black" stroke-width="4"/>
<path d="M480.5,370.171v -1.11163" fill="none" stroke="black" stroke-width="4"/>
<path d="M488.059,370.171h 7.55905" fill="none" stroke="black" stroke-width="4"/>
<path d="M495.618,370.171v -1.11163" fill="none" stroke="black" stroke-width="4"/>
<path d="M488.059,370.171v -15.4244" fill="none" stroke="black" stroke-width="4"/>
<path d="M486.947,354.747h 2.22325" fill="none" stroke="black" stroke-width="4"/>
<path d="M503.177,370.171h -7.55905" fill="none" stroke="black" stroke-width="4"/>
<path d="M495.618,370.171v -1.11163" fill="none" stroke="black" stroke-width="4"/>
<path d="M503.177,370.171h 7.55905" fill="none" stroke="black" stroke-width="4"/>
<path d="M510.736,370.171v -1.11163" fill="none" stroke="black" stroke-width="4"/>
<path d="M503.177,370.171v -15.4244" fill="none" stroke="black" stroke-width="4"/>
<path d="M502.066,354.747h 2.22325" fill="none" stroke="black" stroke-width="4"/>
<g fill="black">
<circle cx="64.752" cy="329.859" r="2.22325"/>
<circle cx="79.8701" cy="302.985" r="2.22325"/>
<circle cx="94.9882" cy="289.547" r="2.22325"/>
<circle cx="110.106" cy="276.11" r="2.22325"/>
<circle cx="125.224" cy="316.422" r="2.22325"/>
<circle cx="140.343" cy="276.11" r="2.22325"/>
<circle cx="155.461" cy="343.297" r="2.22325"/>
<circle cx="170.579" cy="262.673" r="2.22325"/>
<circle cx="185.697" cy="262.673" r="2.22325"/>
<circle cx="200.815" cy="302.985" r="2.22325"/>
<circle cx="215.933" cy="235.798" r="2.22325"/>
<circle cx="231.051" cy="128.299" r="2.22325"/>
<circle cx="246.169" cy="302.985" r="2.22325"/>
<circle cx="261.287" cy="343.297" r="2.22325"/>
<circle cx="276.406" cy="316.422" r="2.22325"/>
<circle cx="291.524" cy="289.547" r="2.22325"/>
<circle cx="306.642" cy="302.985" r="2.22325"/>
<circle cx="321.76" cy="316.422" r="2.22325"/>
<circle cx="336.878" cy="370.171" r="2.22325"/>
<circle cx="351.996" cy="343.297" r="2.22325"/>
<circle cx="367.114" cy="316.422" r="2.22325"/>
<circle cx="382.232" cy="370.171" r="2.22325"/>
<circle cx="397.35" cy="370.171" r="2.22325"/>
<circle cx="412.469" cy="343.297" r="2.22325"/>
<circle cx="427.587" cy="343.297" r="2.22325"/>
<circle cx="442.705" cy="370.171" r="2.22325"/>
<circle cx="457.823" cy="356.734" r="2.22325"/>
<circle cx="472.941" cy="370.171" r="2.22325"/>
<circle cx="488.059" cy="370.171" r="2.22325"/>
<circle cx="503.177" cy="370.171" r="2.22325"/>
</g>
<path d="M57.1929,269.073z" fill="none" stroke="#ff0000" stroke-width="6"/>
<path d="M57.1929,269.073l 4.53543, 0.829933l 4.53543, 0.83324l 4.53543, 0.836557l 4.53543, 0.839884l 4.53543, 0.843221l 4.53543, 0.846569l 4.53543, 0.849926l 4.53543, 0.853293l 4.53543, 0.856671l 4.53543, 0.860059l 4.53543, 0.863457l 4.53543,
 0.866865l 4.53543, 0.870284l 4.53543, 0.873712l 4.53543, 0.877152l 4.53543, 0.880601l 4.53543, 0.884061l 4.53543, 0.887532l 4.53543, 0.891012l 4.53543, 0.894504l 4.53543, 0.898006l 4.53543, 0.901518l 4.53543, 0.905041l 4.53543, 0.908575l 4.53543,
 0.912119l 4.53543, 0.915674l 4.53543, 0.91924l 4.53543, 0.922816l 4.53543, 0.926403l 4.53543, 0.930001l 4.53543, 0.93361l 4.53543, 0.937229l 4.53543, 0.94086l 4.53543, 0.944501l 4.53543, 0.948154l 4.53543, 0.951817l 4.53543, 0.955492l 4.53543,
 0.959177l 4.53543, 0.962874l 4.53543, 0.966581l 4.53543, 0.9703l 4.53543, 0.97403l 4.53543, 0.977771l 4.53543, 0.981524l 4.53543, 0.985287l 4.53543, 0.989062l 4.53543, 0.992849l 4.53543, 0.996646l 4.53543, 1.00046l 4.53543, 1.00428l 4.53543,
 1.00811l 4.53543, 1.01195l 4.53543, 1.01581l 4.53543, 1.01967l 4.53543, 1.02355l 4.53543, 1.02744l 4.53543, 1.03134l 4.53543, 1.03526l 4.53543, 1.03918l 4.53543, 1.04312l 4.53543, 1.04707l 4.53543, 1.05103l 4.53543, 1.055l 4.53543, 1.05898l 4.53543,
 1.06298l 4.53543, 1.06699l 4.53543, 1.07101l 4.53543, 1.07504l 4.53543, 1.07909l 4.53543, 1.08314l 4.53543, 1.08721l 4.53543, 1.09129l 4.53543, 1.09538l 4.53543, 1.09949l 4.53543, 1.10361l 4.53543, 1.10774l 4.53543, 1.11188l 4.53543, 1.11603l
 4.53543, 1.1202l 4.53543, 1.12438l 4.53543, 1.12857l 4.53543, 1.13278l 4.53543, 1.13699l 4.53543, 1.14122l 4.53543, 1.14547l 4.53543, 1.14972l 4.53543, 1.15399l 4.53543, 1.15827l 4.53543, 1.16256l 4.53543, 1.16687l 4.53543, 1.17119l 4.53543,
 1.17552l 4.53543, 1.17987l 4.53543, 1.18422l 4.53543, 1.1886l 4.53543, 1.19298l 4.53543, 1.19738l 4.53543, 1.20179l 4.53543, 1.20621l 4.53543, 1.21065" fill="none" stroke="#ff0000" stroke-width="6"/>
<path d="M57.1929,370.171z" fill="none" stroke="#0000ff" stroke-width="6" stroke-dasharray=" 3, 3"/>
<path d="M57.1929,370.171h 453.543" fill="none" stroke="#0000ff" stroke-width="6" stroke-dasharray=" 3, 3"/>
<path d="M57.1929,269.073z" fill="none" stroke="#00ff00" stroke-width="6" stroke-dasharray=" 3, 3"/>
<path d="M57.1929,269.073l 4.53543, 0.829933l 4.53543, 0.83324l 4.53543, 0.836557l 4.53543, 0.839884l 4.53543, 0.843221l 4.53543, 0.846569l 4.53543, 0.849926l 4.53543, 0.853293l 4.53543, 0.856671l 4.53543, 0.860059l 4.53543, 0.863457l 4.53543,
 0.866865l 4.53543, 0.870284l 4.53543, 0.873712l 4.53543, 0.877152l 4.53543, 0.880601l 4.53543, 0.884061l 4.53543, 0.887532l 4.53543, 0.891012l 4.53543, 0.894504l 4.53543, 0.898006l 4.53543, 0.901518l 4.53543, 0.905041l 4.53543, 0.908575l 4.53543,
 0.912119l 4.53543, 0.915674l 4.53543, 0.91924l 4.53543, 0.922816l 4.53543, 0.926403l 4.53543, 0.930001l 4.53543, 0.93361l 4.53543, 0.937229l 4.53543, 0.94086l 4.53543, 0.944501l 4.53543, 0.948154l 4.53543, 0.951817l 4.53543, 0.955492l 4.53543,
 0.959177l 4.53543, 0.962874l 4.53543, 0.966581l 4.53543, 0.9703l 4.53543, 0.97403l 4.53543, 0.977771l 4.53543, 0.981524l 4.53543, 0.985287l 4.53543, 0.989062l 4.53543, 0.992849l 4.53543, 0.996646l 4.53543, 1.00046l 4.53543, 1.00428l 4.53543,
 1.00811l 4.53543, 1.01195l 4.53543, 1.01581l 4.53543, 1.01967l 4.53543, 1.02355l 4.53543, 1.02744l 4.53543, 1.03134l 4.53543, 1.03526l 4.53543, 1.03918l 4.53543, 1.04312l 4.53543, 1.04707l 4.53543, 1.05103l 4.53543, 1.055l 4.53543, 1.05898l 4.53543,
 1.06298l 4.53543, 1.06699l 4.53543, 1.07101l 4.53543, 1.07504l 4.53543, 1.07909l 4.53543, 1.08314l 4.53543, 1.08721l 4.53543, 1.09129l 4.53543, 1.09538l 4.53543, 1.09949l 4.53543, 1.10361l 4.53543, 1.10774l 4.53543, 1.11188l 4.53543, 1.11603l
 4.53543, 1.1202l 4.53543, 1.12438l 4.53543, 1.12857l 4.53543, 1.13278l 4.53543, 1.13699l 4.53543, 1.14122l 4.53543, 1.14547l 4.53543, 1.14972l 4.53543, 1.15399l 4.53543, 1.15827l 4.53543, 1.16256l 4.53543, 1.16687l 4.53543, 1.17119l 4.53543,
 1.17552l 4.53543, 1.17987l 4.53543, 1.18422l 4.53543, 1.1886l 4.53543, 1.19298l 4.53543, 1.19738l 4.53543, 1.20179l 4.53543, 1.20621l 4.53543, 1.21065" fill="none" stroke="#00ff00" stroke-width="6" stroke-dasharray=" 3, 3"/>
<path d="M57.1929,370.171h 453.543" fill="none" stroke="black"/>
<path d="M57.1929,360.3v 9.87124" fill="none" stroke="black"/>
<path d="M66.2638,365.236v 4.93562" fill="none" stroke="black"/>
<path d="M75.3346,365.236v 4.93562" fill="none" stroke="black"/>
<path d="M84.4055,365.236v 4.93562" fill="none" stroke="black"/>
<path d="M93.4764,365.236v 4.93562" fill="none" stroke="black"/>
<path d="M102.547,360.3v 9.87124" fill="none" stroke="black"/>
<path d="M111.618,365.236v 4.93562" fill="none" stroke="black"/>
<path d="M120.689,365.236v 4.93562" fill="none" stroke="black"/>
<path d="M129.76,365.236v 4.93562" fill="none" stroke="black"/>
<path d="M138.831,365.236v 4.93562" fill="none" stroke="black"/>
<path d="M147.902,360.3v 9.87124" fill="none" stroke="black"/>
<path d="M156.972,365.236v 4.93562" fill="none" stroke="black"/>
<path d="M166.043,365.236v 4.93562" fill="none" stroke="black"/>
<path d="M175.114,365.236v 4.93562" fill="none" stroke="black"/>
<path d="M184.185,365.236v 4.93562" fill="none" stroke="black"/>
<path d="M193.256,360.3v 9.87124" fill="none" stroke="black"/>
<path d="M202.327,365.236v 4.93562" fill="none" stroke="black"/>
<path d="M211.398,365.236v 4.93562" fill="none" stroke="black"/>
<path d="M220.469,365.236v 4.93562" fill="none" stroke="black"/>
<path d="M229.539,365.236v 4.93562" fill="none" stroke="black"/>
<path d="M238.61,360.3v 9.87124" fill="none" stroke="black"/>
<path d="M247.681,365.236v 4.93562" fill="none" stroke="black"/>
<path d="M256.752,365.236v 4.93562" fill="none" stroke="black"/>
<path d="M265.823,365.236v 4.93562" fill="none" stroke="black"/>
<path d="M274.894,365.236v 4.93562" fill="none" stroke="black"/>
<path d="M283.965,360.3v 9.87124" fill="none" stroke="black"/>
<path d="M293.035,365.236v 4.93562" fill="none" stroke="black"/>
<path d="M302.106,365.236v 4.93562" fill="none" stroke="black"/>
<path d="M311.177,365.236v 4.93562" fill="none" stroke="black"/>
<path d="M320.248,365.236v 4.93562" fill="none" stroke="black"/>
<path d="M329.319,360.3v 9.87124" fill="none" stroke="black"/>
<path d="M338.39,365.236v 4.93562" fill="none" stroke="black"/>
<path d="M347.461,365.236v 4.93562" fill="none" stroke="black"/>
<path d="M356.531,365.236v 4.93562" fill="none" stroke="black"/>
<path d="M365.602,365.236v 4.93562" fill="none" stroke="black"/>
<path d="M374.673,360.3v 9.87124" fill="none" stroke="black"/>
<path d="M383.744,365.236v 4.93562" fill="none" stroke="black"/>
<path d="M392.815,365.236v 4.93562" fill="none" stroke="black"/>
<path d="M401.886,365.236v 4.93562" fill="none" stroke="black"/>
<path d="M410.957,365.236v 4.93562" fill="none" stroke="black"/>
<path d="M420.028,360.3v 9.87124" fill="none" stroke="black"/>
<path d="M429.098,365.236v 4.93562" fill="none" stroke="black"/>
<path d="M438.169,365.236v 4.93562" fill="none" stroke="black"/>
<path d="M447.24,365.236v 4.93562" fill="none" stroke="black"/>
<path d="M456.311,365.236v 4.93562" fill="none" stroke="black"/>
<path d="M465.382,360.3v 9.87124" fill="none" stroke="black"/>
<path d="M474.453,365.236v 4.93562" fill="none" stroke="black"/>
<path d="M483.524,365.236v 4.93562" fill="none" stroke="black"/>
<path d="M492.594,365.236v 4.93562" fill="none" stroke="black"/>
<path d="M501.665,365.236v 4.93562" fill="none" stroke="black"/>
<path d="M510.736,360.3v 9.87124" fill="none" stroke="black"/>
<path d="M57.1929,370.171v -329.041" fill="none" stroke="black"/>
<path d="M70.7992,370.171h -13.6063" fill="none" stroke="black"/>
<path d="M63.9961,363.453h -6.80315" fill="none" stroke="black"/>
<path d="M63.9961,356.734h -6.80315" fill="none" stroke="black"/>
<path d="M63.9961,350.015h -6.80315" fill="none" stroke="black"/>
<path d="M70.7992,343.297h -13.6063" fill="none" stroke="black"/>
<path d="M63.9961,336.578h -6.80315" fill="none" stroke="black"/>
<path d="M63.9961,329.859h -6.80315" fill="none" stroke="black"/>
<path d="M63.9961,323.141h -6.80315" fill="none" stroke="black"/>
<path d="M70.7992,316.422h -13.6063" fill="none" stroke="black"/>
<path d="M63.9961,309.703h -6.80315" fill="none" stroke="black"/>
<path d="M63.9961,302.985h -6.80315" fill="none" stroke="black"/>
<path d="M63.9961,296.266h -6.80315" fill="none" stroke="black"/>
<path d="M70.7992,289.547h -13.6063" fill="none" stroke="black"/>
<path d="M63.9961,282.829h -6.80315" fill="none" stroke="black"/>
<path d="M63.9961,276.11h -6.80315" fill="none" stroke="black"/>
<path d="M63.9961,269.391h -6.80315" fill="none" stroke="black"/>
<path d="M70.7992,262.673h -13.6063" fill="none" stroke="black"/>
<path d="M63.9961,255.954h -6.80315" fill="none" stroke="black"/>
<path d="M63.9961,249.235h -6.80315" fill="none" stroke="black"/>
<path d="M63.9961,242.517h -6.80315" fill="none" stroke="black"/>
<path d="M70.7992,235.798h -13.6063" fill="none" stroke="black"/>
<path d="M63.9961,229.079h -6.80315" fill="none" stroke="black"/>
<path d="M63.9961,222.361h -6.80315" fill="none" stroke="black"/>
<path d="M63.9961,215.642h -6.80315" fill="none" stroke="black"/>
<path d="M70.7992,208.923h -13.6063" fill="none" stroke="black"/>
<path d="M63.9961,202.204h -6.80315" fill="none" stroke="black"/>
<path d="M63.9961,195.486h -6.80315" fill="none" stroke="black"/>
<path d="M63.9961,188.767h -6.80315" fill="none" stroke="black"/>
<path d="M70.7992,182.048h -13.6063" fill="none" stroke="black"/>
<path d="M63.9961,175.33h -6.80315" fill="none" stroke="black"/>
<path d="M63.9961,168.611h -6.80315" fill="none" stroke="black"/>
<path d="M63.9961,161.892h -6.80315" fill="none" stroke="black"/>
<path d="M70.7992,155.174h -13.6063" fill="none" stroke="black"/>
<path d="M63.9961,148.455h -6.80315" fill="none" stroke="black"/>
<path d="M63.9961,141.736h -6.80315" fill="none" stroke="black"/>
<path d="M63.9961,135.018h -6.80315" fill="none" stroke="black"/>
<path d="M70.7992,128.299h -13.6063" fill="none" stroke="black"/>
<path d="M63.9961,121.58h -6.80315" fill="none" stroke="black"/>
<path d="M63.9961,114.862h -6.80315" fill="none" stroke="black"/>
<path d="M63.9961,108.143h -6.80315" fill="none" stroke="black"/>
<path d="M70.7992,101.424h -13.6063" fill="none" stroke="black"/>
<path d="M63.9961,94.7057h -6.80315" fill="none" stroke="black"/>
<path d="M63.9961,87.987h -6.80315" fill="none" stroke="black"/>
<path d="M63.9961,81.2683h -6.80315" fill="none" stroke="black"/>
<path d="M70.7992,74.5496h -13.6063" fill="none" stroke="black"/>
<path d="M63.9961,67.8309h -6.80315" fill="none" stroke="black"/>
<path d="M63.9961,61.1123h -6.80315" fill="none" stroke="black"/>
<path d="M63.9961,54.3936h -6.80315" fill="none" stroke="black"/>
<path d="M70.7992,47.6749h -13.6063" fill="none" stroke="black"/>
<path d="M70.7992,47.6749h -13.6063" fill="none" stroke="black"/>
<rect x="369.004" y="49.3562" width="130.394" height="53.4692" fill="white"/>
<text xml:space="preserve" x="373.45" y="88.3742" fill="black" font-size="34.8487" font-family="Helvetica" font-weight="bold">all data</text></svg>
