<?xml version="1.0" standalone="no"?>
<svg width="567.429" height="407.891" viewBox="0 0 567.429 407.891" xmlns="http://www.w3.org/2000/svg" shape-rendering="crispEdges">
<title>
pic_fitInclusive4600.svg
</title>
<desc>
Creator: ROOT Version 6.20/06
CreationDate: Mon Apr 26 14:36:08 2021</desc>
<defs>
</defs>
<rect x="0.5" y="0" width="566.929" height="407.391" fill="white"/>
<rect x="57.1929" y="40.7391" width="453.543" height="325.913" fill="white"/>
<rect x="57.1929" y="40.7391" width="453.543" height="325.913" fill="none" stroke="black"/>
<rect x="57.1929" y="40.7391" width="453.543" height="325.913" fill="white"/>
<rect x="57.1929" y="40.7391" width="453.543" height="325.913" fill="none" stroke="black"/>
<path d="M57.1929,366.652h 453.543" fill="none" stroke="black"/>
<path d="M57.1929,356.875v 9.77739" fill="none" stroke="black"/>
<path d="M66.3066,361.763v 4.8887" fill="none" stroke="black"/>
<path d="M75.4203,361.763v 4.8887" fill="none" stroke="black"/>
<path d="M84.534,361.763v 4.8887" fill="none" stroke="black"/>
<path d="M93.6477,361.763v 4.8887" fill="none" stroke="black"/>
<path d="M102.761,356.875v 9.77739" fill="none" stroke="black"/>
<path d="M111.875,361.763v 4.8887" fill="none" stroke="black"/>
<path d="M120.989,361.763v 4.8887" fill="none" stroke="black"/>
<path d="M130.103,361.763v 4.8887" fill="none" stroke="black"/>
<path d="M139.216,361.763v 4.8887" fill="none" stroke="black"/>
<path d="M148.33,356.875v 9.77739" fill="none" stroke="black"/>
<path d="M157.444,361.763v 4.8887" fill="none" stroke="black"/>
<path d="M166.557,361.763v 4.8887" fill="none" stroke="black"/>
<path d="M175.671,361.763v 4.8887" fill="none" stroke="black"/>
<path d="M184.785,361.763v 4.8887" fill="none" stroke="black"/>
<path d="M193.898,356.875v 9.77739" fill="none" stroke="black"/>
<path d="M203.012,361.763v 4.8887" fill="none" stroke="black"/>
<path d="M212.126,361.763v 4.8887" fill="none" stroke="black"/>
<path d="M221.24,361.763v 4.8887" fill="none" stroke="black"/>
<path d="M230.353,361.763v 4.8887" fill="none" stroke="black"/>
<path d="M239.467,356.875v 9.77739" fill="none" stroke="black"/>
<path d="M248.581,361.763v 4.8887" fill="none" stroke="black"/>
<path d="M257.694,361.763v 4.8887" fill="none" stroke="black"/>
<path d="M266.808,361.763v 4.8887" fill="none" stroke="black"/>
<path d="M275.922,361.763v 4.8887" fill="none" stroke="black"/>
<path d="M285.035,356.875v 9.77739" fill="none" stroke="black"/>
<path d="M294.149,361.763v 4.8887" fill="none" stroke="black"/>
<path d="M303.263,361.763v 4.8887" fill="none" stroke="black"/>
<path d="M312.377,361.763v 4.8887" fill="none" stroke="black"/>
<path d="M321.49,361.763v 4.8887" fill="none" stroke="black"/>
<path d="M330.604,356.875v 9.77739" fill="none" stroke="black"/>
<path d="M339.718,361.763v 4.8887" fill="none" stroke="black"/>
<path d="M348.831,361.763v 4.8887" fill="none" stroke="black"/>
<path d="M357.945,361.763v 4.8887" fill="none" stroke="black"/>
<path d="M367.059,361.763v 4.8887" fill="none" stroke="black"/>
<path d="M376.172,356.875v 9.77739" fill="none" stroke="black"/>
<path d="M385.286,361.763v 4.8887" fill="none" stroke="black"/>
<path d="M394.4,361.763v 4.8887" fill="none" stroke="black"/>
<path d="M403.514,361.763v 4.8887" fill="none" stroke="black"/>
<path d="M412.627,361.763v 4.8887" fill="none" stroke="black"/>
<path d="M421.741,356.875v 9.77739" fill="none" stroke="black"/>
<path d="M430.855,361.763v 4.8887" fill="none" stroke="black"/>
<path d="M439.968,361.763v 4.8887" fill="none" stroke="black"/>
<path d="M449.082,361.763v 4.8887" fill="none" stroke="black"/>
<path d="M458.196,361.763v 4.8887" fill="none" stroke="black"/>
<path d="M467.309,356.875v 9.77739" fill="none" stroke="black"/>
<path d="M467.309,356.875v 9.77739" fill="none" stroke="black"/>
<path d="M476.423,361.763v 4.8887" fill="none" stroke="black"/>
<path d="M485.537,361.763v 4.8887" fill="none" stroke="black"/>
<path d="M494.651,361.763v 4.8887" fill="none" stroke="black"/>
<path d="M503.764,361.763v 4.8887" fill="none" stroke="black"/>
<text xml:space="preserve" x="43.9456" y="379.615" fill="black" font-size="13.5814" font-family="Helvetica">2.25</text>
<text xml:space="preserve" x="85.2545" y="379.615" fill="black" font-size="13.5814" font-family="Helvetica">2.255</text>
<text xml:space="preserve" x="135.11" y="379.615" fill="black" font-size="13.5814" font-family="Helvetica">2.26</text>
<text xml:space="preserve" x="176.419" y="379.615" fill="black" font-size="13.5814" font-family="Helvetica">2.265</text>
<text xml:space="preserve" x="226.275" y="379.615" fill="black" font-size="13.5814" font-family="Helvetica">2.27</text>
<text xml:space="preserve" x="267.583" y="379.615" fill="black" font-size="13.5814" font-family="Helvetica">2.275</text>
<text xml:space="preserve" x="317.439" y="379.615" fill="black" font-size="13.5814" font-family="Helvetica">2.28</text>
<text xml:space="preserve" x="358.748" y="379.615" fill="black" font-size="13.5814" font-family="Helvetica">2.285</text>
<text xml:space="preserve" x="408.604" y="379.615" fill="black" font-size="13.5814" font-family="Helvetica">2.29</text>
<text xml:space="preserve" x="449.912" y="379.615" fill="black" font-size="13.5814" font-family="Helvetica">2.295</text>
<text xml:space="preserve" x="506.89" y="393.147" fill="black" font-size="13.5814" font-family="Helvetica">)</text>
<text xml:space="preserve" x="501.905" y="386.737" fill="black" font-size="9.22091" font-family="Helvetica">2</text>
<text xml:space="preserve" x="457.035" y="393.147" fill="black" font-size="13.5814" font-family="Helvetica"> (GeV/c</text>
<text xml:space="preserve" x="445.639" y="397.42" fill="black" font-size="9.22091" font-family="Helvetica">BC</text>
<text xml:space="preserve" x="434.956" y="393.147" fill="black" font-size="13.5814" font-family="Helvetica">M</text>
<path d="M57.1929,366.652v -325.913" fill="none" stroke="black"/>
<path d="M70.7992,366.652h -13.6063" fill="none" stroke="black"/>
<path d="M63.9961,350.458h -6.80315" fill="none" stroke="black"/>
<path d="M63.9961,334.264h -6.80315" fill="none" stroke="black"/>
<path d="M63.9961,318.07h -6.80315" fill="none" stroke="black"/>
<path d="M70.7992,301.876h -13.6063" fill="none" stroke="black"/>
<path d="M63.9961,285.683h -6.80315" fill="none" stroke="black"/>
<path d="M63.9961,269.489h -6.80315" fill="none" stroke="black"/>
<path d="M63.9961,253.295h -6.80315" fill="none" stroke="black"/>
<path d="M70.7992,237.101h -13.6063" fill="none" stroke="black"/>
<path d="M63.9961,220.907h -6.80315" fill="none" stroke="black"/>
<path d="M63.9961,204.713h -6.80315" fill="none" stroke="black"/>
<path d="M63.9961,188.519h -6.80315" fill="none" stroke="black"/>
<path d="M70.7992,172.325h -13.6063" fill="none" stroke="black"/>
<path d="M63.9961,156.131h -6.80315" fill="none" stroke="black"/>
<path d="M63.9961,139.937h -6.80315" fill="none" stroke="black"/>
<path d="M63.9961,123.743h -6.80315" fill="none" stroke="black"/>
<path d="M70.7992,107.55h -13.6063" fill="none" stroke="black"/>
<path d="M63.9961,91.3556h -6.80315" fill="none" stroke="black"/>
<path d="M63.9961,75.1617h -6.80315" fill="none" stroke="black"/>
<path d="M63.9961,58.9678h -6.80315" fill="none" stroke="black"/>
<path d="M70.7992,42.7739h -13.6063" fill="none" stroke="black"/>
<path d="M70.7992,42.7739h -13.6063" fill="none" stroke="black"/>
<text xml:space="preserve" x="46.7945" y="371.068" fill="black" font-size="13.5814" font-family="Helvetica">0</text>
<text xml:space="preserve" x="46.7945" y="306.968" fill="black" font-size="13.5814" font-family="Helvetica">2</text>
<text xml:space="preserve" x="46.7945" y="242.156" fill="black" font-size="13.5814" font-family="Helvetica">4</text>
<text xml:space="preserve" x="46.7945" y="176.631" fill="black" font-size="13.5814" font-family="Helvetica">6</text>
<text xml:space="preserve" x="46.7945" y="112.531" fill="black" font-size="13.5814" font-family="Helvetica">8</text>
<text xml:space="preserve" x="38.96" y="47.7189" fill="black" font-size="13.5814" font-family="Helvetica">10</text>
<g transform="rotate(-90,26.8522,44.1578)">
<text xml:space="preserve" x="26.8522" y="44.1578" fill="black" font-size="13.5814" font-family="Helvetica">)</text>
</g>
<g transform="rotate(-90,20.4422,49.1434)">
<text xml:space="preserve" x="20.4422" y="49.1434" fill="black" font-size="9.22091" font-family="Helvetica">2</text>
</g>
<g transform="rotate(-90,26.8522,163.811)">
<text xml:space="preserve" x="26.8522" y="163.811" fill="black" font-size="13.5814" font-family="Helvetica">Events/(  2.5 MeV/c</text>
</g>
<path d="M68.5315,301.876h -11.3386" fill="none" stroke="black" stroke-width="2"/>
<path d="M57.1929,303.301v -2.84889" fill="none" stroke="black" stroke-width="2"/>
<path d="M68.5315,301.876h 11.3386" fill="none" stroke="black" stroke-width="2"/>
<path d="M79.8701,303.301v -2.84889" fill="none" stroke="black" stroke-width="2"/>
<path d="M68.5315,301.876v -85.4346" fill="none" stroke="black" stroke-width="2"/>
<path d="M67.1071,216.442h 2.84889" fill="none" stroke="black" stroke-width="2"/>
<path d="M68.5315,301.876v 41.8391" fill="none" stroke="black" stroke-width="2"/>
<path d="M67.1071,343.716h 2.84889" fill="none" stroke="black" stroke-width="2"/>
<path d="M91.2087,366.652h -11.3386" fill="none" stroke="black" stroke-width="2"/>
<path d="M79.8701,366.652v -1.42445" fill="none" stroke="black" stroke-width="2"/>
<path d="M91.2087,366.652h 11.3386" fill="none" stroke="black" stroke-width="2"/>
<path d="M102.547,366.652v -1.42445" fill="none" stroke="black" stroke-width="2"/>
<path d="M91.2087,366.652v -37.1772" fill="none" stroke="black" stroke-width="2"/>
<path d="M89.7842,329.475h 2.84889" fill="none" stroke="black" stroke-width="2"/>
<path d="M113.886,334.264h -11.3386" fill="none" stroke="black" stroke-width="2"/>
<path d="M102.547,335.689v -2.84889" fill="none" stroke="black" stroke-width="2"/>
<path d="M113.886,334.264h 11.3386" fill="none" stroke="black" stroke-width="2"/>
<path d="M125.224,335.689v -2.84889" fill="none" stroke="black" stroke-width="2"/>
<path d="M113.886,334.264v -74.4767" fill="none" stroke="black" stroke-width="2"/>
<path d="M112.461,259.788h 2.84889" fill="none" stroke="black" stroke-width="2"/>
<path d="M113.886,334.264v 26.7927" fill="none" stroke="black" stroke-width="2"/>
<path d="M112.461,361.057h 2.84889" fill="none" stroke="black" stroke-width="2"/>
<path d="M136.563,301.876h -11.3386" fill="none" stroke="black" stroke-width="2"/>
<path d="M125.224,303.301v -2.84889" fill="none" stroke="black" stroke-width="2"/>
<path d="M136.563,301.876h 11.3386" fill="none" stroke="black" stroke-width="2"/>
<path d="M147.902,303.301v -2.84889" fill="none" stroke="black" stroke-width="2"/>
<path d="M136.563,301.876v -85.4346" fill="none" stroke="black" stroke-width="2"/>
<path d="M135.139,216.442h 2.84889" fill="none" stroke="black" stroke-width="2"/>
<path d="M136.563,301.876v 41.8391" fill="none" stroke="black" stroke-width="2"/>
<path d="M135.139,343.716h 2.84889" fill="none" stroke="black" stroke-width="2"/>
<path d="M159.24,301.876h -11.3386" fill="none" stroke="black" stroke-width="2"/>
<path d="M147.902,303.301v -2.84889" fill="none" stroke="black" stroke-width="2"/>
<path d="M159.24,301.876h 11.3386" fill="none" stroke="black" stroke-width="2"/>
<path d="M170.579,303.301v -2.84889" fill="none" stroke="black" stroke-width="2"/>
<path d="M159.24,301.876v -85.4346" fill="none" stroke="black" stroke-width="2"/>
<path d="M157.816,216.442h 2.84889" fill="none" stroke="black" stroke-width="2"/>
<path d="M159.24,301.876v 41.8391" fill="none" stroke="black" stroke-width="2"/>
<path d="M157.816,343.716h 2.84889" fill="none" stroke="black" stroke-width="2"/>
<path d="M181.917,334.264h -11.3386" fill="none" stroke="black" stroke-width="2"/>
<path d="M170.579,335.689v -2.84889" fill="none" stroke="black" stroke-width="2"/>
<path d="M181.917,334.264h 11.3386" fill="none" stroke="black" stroke-width="2"/>
<path d="M193.256,335.689v -2.84889" fill="none" stroke="black" stroke-width="2"/>
<path d="M181.917,334.264v -74.4767" fill="none" stroke="black" stroke-width="2"/>
<path d="M180.493,259.788h 2.84889" fill="none" stroke="black" stroke-width="2"/>
<path d="M181.917,334.264v 26.7927" fill="none" stroke="black" stroke-width="2"/>
<path d="M180.493,361.057h 2.84889" fill="none" stroke="black" stroke-width="2"/>
<path d="M204.594,301.876h -11.3386" fill="none" stroke="black" stroke-width="2"/>
<path d="M193.256,303.301v -2.84889" fill="none" stroke="black" stroke-width="2"/>
<path d="M204.594,301.876h 11.3386" fill="none" stroke="black" stroke-width="2"/>
<path d="M215.933,303.301v -2.84889" fill="none" stroke="black" stroke-width="2"/>
<path d="M204.594,301.876v -85.4346" fill="none" stroke="black" stroke-width="2"/>
<path d="M203.17,216.442h 2.84889" fill="none" stroke="black" stroke-width="2"/>
<path d="M204.594,301.876v 41.8391" fill="none" stroke="black" stroke-width="2"/>
<path d="M203.17,343.716h 2.84889" fill="none" stroke="black" stroke-width="2"/>
<path d="M227.272,366.652h -11.3386" fill="none" stroke="black" stroke-width="2"/>
<path d="M215.933,366.652v -1.42445" fill="none" stroke="black" stroke-width="2"/>
<path d="M227.272,366.652h 11.3386" fill="none" stroke="black" stroke-width="2"/>
<path d="M238.61,366.652v -1.42445" fill="none" stroke="black" stroke-width="2"/>
<path d="M227.272,366.652v -37.1772" fill="none" stroke="black" stroke-width="2"/>
<path d="M225.847,329.475h 2.84889" fill="none" stroke="black" stroke-width="2"/>
<path d="M249.949,366.652h -11.3386" fill="none" stroke="black" stroke-width="2"/>
<path d="M238.61,366.652v -1.42445" fill="none" stroke="black" stroke-width="2"/>
<path d="M249.949,366.652h 11.3386" fill="none" stroke="black" stroke-width="2"/>
<path d="M261.287,366.652v -1.42445" fill="none" stroke="black" stroke-width="2"/>
<path d="M249.949,366.652v -37.1772" fill="none" stroke="black" stroke-width="2"/>
<path d="M248.524,329.475h 2.84889" fill="none" stroke="black" stroke-width="2"/>
<path d="M272.626,301.876h -11.3386" fill="none" stroke="black" stroke-width="2"/>
<path d="M261.287,303.301v -2.84889" fill="none" stroke="black" stroke-width="2"/>
<path d="M272.626,301.876h 11.3386" fill="none" stroke="black" stroke-width="2"/>
<path d="M283.965,303.301v -2.84889" fill="none" stroke="black" stroke-width="2"/>
<path d="M272.626,301.876v -85.4346" fill="none" stroke="black" stroke-width="2"/>
<path d="M271.202,216.442h 2.84889" fill="none" stroke="black" stroke-width="2"/>
<path d="M272.626,301.876v 41.8391" fill="none" stroke="black" stroke-width="2"/>
<path d="M271.202,343.716h 2.84889" fill="none" stroke="black" stroke-width="2"/>
<path d="M295.303,301.876h -11.3386" fill="none" stroke="black" stroke-width="2"/>
<path d="M283.965,303.301v -2.84889" fill="none" stroke="black" stroke-width="2"/>
<path d="M295.303,301.876h 11.3386" fill="none" stroke="black" stroke-width="2"/>
<path d="M306.642,303.301v -2.84889" fill="none" stroke="black" stroke-width="2"/>
<path d="M295.303,301.876v -85.4346" fill="none" stroke="black" stroke-width="2"/>
<path d="M293.879,216.442h 2.84889" fill="none" stroke="black" stroke-width="2"/>
<path d="M295.303,301.876v 41.8391" fill="none" stroke="black" stroke-width="2"/>
<path d="M293.879,343.716h 2.84889" fill="none" stroke="black" stroke-width="2"/>
<path d="M317.98,301.876h -11.3386" fill="none" stroke="black" stroke-width="2"/>
<path d="M306.642,303.301v -2.84889" fill="none" stroke="black" stroke-width="2"/>
<path d="M317.98,301.876h 11.3386" fill="none" stroke="black" stroke-width="2"/>
<path d="M329.319,303.301v -2.84889" fill="none" stroke="black" stroke-width="2"/>
<path d="M317.98,301.876v -85.4346" fill="none" stroke="black" stroke-width="2"/>
<path d="M316.556,216.442h 2.84889" fill="none" stroke="black" stroke-width="2"/>
<path d="M317.98,301.876v 41.8391" fill="none" stroke="black" stroke-width="2"/>
<path d="M316.556,343.716h 2.84889" fill="none" stroke="black" stroke-width="2"/>
<path d="M340.657,334.264h -11.3386" fill="none" stroke="black" stroke-width="2"/>
<path d="M329.319,335.689v -2.84889" fill="none" stroke="black" stroke-width="2"/>
<path d="M340.657,334.264h 11.3386" fill="none" stroke="black" stroke-width="2"/>
<path d="M351.996,335.689v -2.84889" fill="none" stroke="black" stroke-width="2"/>
<path d="M340.657,334.264v -74.4767" fill="none" stroke="black" stroke-width="2"/>
<path d="M339.233,259.788h 2.84889" fill="none" stroke="black" stroke-width="2"/>
<path d="M340.657,334.264v 26.7927" fill="none" stroke="black" stroke-width="2"/>
<path d="M339.233,361.057h 2.84889" fill="none" stroke="black" stroke-width="2"/>
<path d="M363.335,269.489h -11.3386" fill="none" stroke="black" stroke-width="2"/>
<path d="M351.996,270.913v -2.84889" fill="none" stroke="black" stroke-width="2"/>
<path d="M363.335,269.489h 11.3386" fill="none" stroke="black" stroke-width="2"/>
<path d="M374.673,270.913v -2.84889" fill="none" stroke="black" stroke-width="2"/>
<path d="M363.335,269.489v -94.5137" fill="none" stroke="black" stroke-width="2"/>
<path d="M361.91,174.975h 2.84889" fill="none" stroke="black" stroke-width="2"/>
<path d="M363.335,269.489v 52.8798" fill="none" stroke="black" stroke-width="2"/>
<path d="M361.91,322.368h 2.84889" fill="none" stroke="black" stroke-width="2"/>
<path d="M386.012,269.489h -11.3386" fill="none" stroke="black" stroke-width="2"/>
<path d="M374.673,270.913v -2.84889" fill="none" stroke="black" stroke-width="2"/>
<path d="M386.012,269.489h 11.3386" fill="none" stroke="black" stroke-width="2"/>
<path d="M397.35,270.913v -2.84889" fill="none" stroke="black" stroke-width="2"/>
<path d="M386.012,269.489v -94.5137" fill="none" stroke="black" stroke-width="2"/>
<path d="M384.587,174.975h 2.84889" fill="none" stroke="black" stroke-width="2"/>
<path d="M386.012,269.489v 52.8798" fill="none" stroke="black" stroke-width="2"/>
<path d="M384.587,322.368h 2.84889" fill="none" stroke="black" stroke-width="2"/>
<path d="M408.689,172.325h -11.3386" fill="none" stroke="black" stroke-width="2"/>
<path d="M397.35,173.75v -2.84889" fill="none" stroke="black" stroke-width="2"/>
<path d="M408.689,172.325h 11.3386" fill="none" stroke="black" stroke-width="2"/>
<path d="M420.028,173.75v -2.84889" fill="none" stroke="black" stroke-width="2"/>
<path d="M408.689,172.325v -116.066" fill="none" stroke="black" stroke-width="2"/>
<path d="M407.265,56.2588h 2.84889" fill="none" stroke="black" stroke-width="2"/>
<path d="M408.689,172.325v 77.0808" fill="none" stroke="black" stroke-width="2"/>
<path d="M407.265,249.406h 2.84889" fill="none" stroke="black" stroke-width="2"/>
<path d="M431.366,334.264h -11.3386" fill="none" stroke="black" stroke-width="2"/>
<path d="M420.028,335.689v -2.84889" fill="none" stroke="black" stroke-width="2"/>
<path d="M431.366,334.264h 11.3386" fill="none" stroke="black" stroke-width="2"/>
<path d="M442.705,335.689v -2.84889" fill="none" stroke="black" stroke-width="2"/>
<path d="M431.366,334.264v -74.4767" fill="none" stroke="black" stroke-width="2"/>
<path d="M429.942,259.788h 2.84889" fill="none" stroke="black" stroke-width="2"/>
<path d="M431.366,334.264v 26.7927" fill="none" stroke="black" stroke-width="2"/>
<path d="M429.942,361.057h 2.84889" fill="none" stroke="black" stroke-width="2"/>
<path d="M454.043,269.489h -11.3386" fill="none" stroke="black" stroke-width="2"/>
<path d="M442.705,270.913v -2.84889" fill="none" stroke="black" stroke-width="2"/>
<path d="M454.043,269.489h 11.3386" fill="none" stroke="black" stroke-width="2"/>
<path d="M465.382,270.913v -2.84889" fill="none" stroke="black" stroke-width="2"/>
<path d="M454.043,269.489v -94.5137" fill="none" stroke="black" stroke-width="2"/>
<path d="M452.619,174.975h 2.84889" fill="none" stroke="black" stroke-width="2"/>
<path d="M454.043,269.489v 52.8798" fill="none" stroke="black" stroke-width="2"/>
<path d="M452.619,322.368h 2.84889" fill="none" stroke="black" stroke-width="2"/>
<path d="M476.72,334.264h -11.3386" fill="none" stroke="black" stroke-width="2"/>
<path d="M465.382,335.689v -2.84889" fill="none" stroke="black" stroke-width="2"/>
<path d="M476.72,334.264h 11.3386" fill="none" stroke="black" stroke-width="2"/>
<path d="M488.059,335.689v -2.84889" fill="none" stroke="black" stroke-width="2"/>
<path d="M476.72,334.264v -74.4767" fill="none" stroke="black" stroke-width="2"/>
<path d="M475.296,259.788h 2.84889" fill="none" stroke="black" stroke-width="2"/>
<path d="M476.72,334.264v 26.7927" fill="none" stroke="black" stroke-width="2"/>
<path d="M475.296,361.057h 2.84889" fill="none" stroke="black" stroke-width="2"/>
<path d="M499.398,366.652h -11.3386" fill="none" stroke="black" stroke-width="2"/>
<path d="M488.059,366.652v -1.42445" fill="none" stroke="black" stroke-width="2"/>
<path d="M499.398,366.652h 11.3386" fill="none" stroke="black" stroke-width="2"/>
<path d="M510.736,366.652v -1.42445" fill="none" stroke="black" stroke-width="2"/>
<path d="M499.398,366.652v -37.1772" fill="none" stroke="black" stroke-width="2"/>
<path d="M497.973,329.475h 2.84889" fill="none" stroke="black" stroke-width="2"/>
<g fill="black">
<circle cx="68.5315" cy="301.876" r="2.84889"/>
<circle cx="91.2087" cy="366.652" r="2.84889"/>
<circle cx="113.886" cy="334.264" r="2.84889"/>
<circle cx="136.563" cy="301.876" r="2.84889"/>
<circle cx="159.24" cy="301.876" r="2.84889"/>
<circle cx="181.917" cy="334.264" r="2.84889"/>
<circle cx="204.594" cy="301.876" r="2.84889"/>
<circle cx="227.272" cy="366.652" r="2.84889"/>
<circle cx="249.949" cy="366.652" r="2.84889"/>
<circle cx="272.626" cy="301.876" r="2.84889"/>
<circle cx="295.303" cy="301.876" r="2.84889"/>
<circle cx="317.98" cy="301.876" r="2.84889"/>
<circle cx="340.657" cy="334.264" r="2.84889"/>
<circle cx="363.335" cy="269.489" r="2.84889"/>
<circle cx="386.012" cy="269.489" r="2.84889"/>
<circle cx="408.689" cy="172.325" r="2.84889"/>
<circle cx="431.366" cy="334.264" r="2.84889"/>
<circle cx="454.043" cy="269.489" r="2.84889"/>
<circle cx="476.72" cy="334.264" r="2.84889"/>
<circle cx="499.398" cy="366.652" r="2.84889"/>
</g>
<path d="M57.1929,344.513z" fill="none" stroke="#ff0000" stroke-width="6"/>
<path d="M57.1929,344.513l 22.6772, -3.02299l 22.6772, -3.36211l 22.6772, -3.71782l 22.6772, -4.08337l 22.6772, -4.44859l 22.6772, -4.79885l 22.6772, -5.11364l 22.6772, -5.36478l 22.6772, -5.51415l 22.6772, -5.51082l 22.6772, -5.2874l 11.3386,
 -2.46763l 11.3386, -2.28777l 11.3386, -2.05112l 11.3386, -1.74839l 11.3386, -1.36904l 11.3386, -0.901105l 11.3386, -0.331016l 5.66929, 0.0843509l 5.66929, 0.272258l 5.66929, 0.477592l 5.66929, 0.701581l 5.66929, 0.945531l 5.66929, 1.21083l 5.66929,
 1.49895l 5.66929, 1.81146l 5.66929, 2.15003l 5.66929, 2.51642l 5.66929, 2.91251l 5.66929, 3.3403l 5.66929, 3.80189l 5.66929, 4.29954l 5.66929, 4.83563l 5.66929, 5.41269l 5.66929, 6.0334l 2.83465, 3.26388l 2.83465, 3.43673l 2.83465, 3.61586l 2.83465,
 3.80148l 2.83465, 3.99379l 2.83465, 4.19301l 2.83465, 4.39935l 2.83465, 4.61303l 2.83465, 4.83429l 2.83465, 5.06337" fill="none" stroke="#ff0000" stroke-width="6"/>
<path d="M57.1929,366.652z" fill="none" stroke="#0000ff" stroke-width="6" stroke-dasharray=" 3, 3"/>
<path d="M57.1929,366.652h 453.543" fill="none" stroke="#0000ff" stroke-width="6" stroke-dasharray=" 3, 3"/>
<path d="M57.1929,344.513z" fill="none" stroke="#00ff00" stroke-width="6" stroke-dasharray=" 3, 3"/>
<path d="M57.1929,344.513l 22.6772, -3.02299l 22.6772, -3.36211l 22.6772, -3.71782l 22.6772, -4.08337l 22.6772, -4.44859l 22.6772, -4.79885l 22.6772, -5.11364l 22.6772, -5.36478l 22.6772, -5.51415l 22.6772, -5.51082l 22.6772, -5.2874l 11.3386,
 -2.46763l 11.3386, -2.28777l 11.3386, -2.05112l 11.3386, -1.74839l 11.3386, -1.36904l 11.3386, -0.901105l 11.3386, -0.331016l 5.66929, 0.0843509l 5.66929, 0.272258l 5.66929, 0.477592l 5.66929, 0.701581l 5.66929, 0.945531l 5.66929, 1.21083l 5.66929,
 1.49895l 5.66929, 1.81146l 5.66929, 2.15003l 5.66929, 2.51642l 5.66929, 2.91251l 5.66929, 3.3403l 5.66929, 3.80189l 5.66929, 4.29954l 5.66929, 4.83563l 5.66929, 5.41269l 5.66929, 6.0334l 2.83465, 3.26388l 2.83465, 3.43673l 2.83465, 3.61586l 2.83465,
 3.80148l 2.83465, 3.99379l 2.83465, 4.19301l 2.83465, 4.39935l 2.83465, 4.61303l 2.83465, 4.83429l 2.83465, 5.06337" fill="none" stroke="#00ff00" stroke-width="6" stroke-dasharray=" 3, 3"/>
<path d="M57.1929,366.652h 453.543" fill="none" stroke="black"/>
<path d="M57.1929,356.875v 9.77739" fill="none" stroke="black"/>
<path d="M66.3066,361.763v 4.8887" fill="none" stroke="black"/>
<path d="M75.4203,361.763v 4.8887" fill="none" stroke="black"/>
<path d="M84.534,361.763v 4.8887" fill="none" stroke="black"/>
<path d="M93.6477,361.763v 4.8887" fill="none" stroke="black"/>
<path d="M102.761,356.875v 9.77739" fill="none" stroke="black"/>
<path d="M111.875,361.763v 4.8887" fill="none" stroke="black"/>
<path d="M120.989,361.763v 4.8887" fill="none" stroke="black"/>
<path d="M130.103,361.763v 4.8887" fill="none" stroke="black"/>
<path d="M139.216,361.763v 4.8887" fill="none" stroke="black"/>
<path d="M148.33,356.875v 9.77739" fill="none" stroke="black"/>
<path d="M157.444,361.763v 4.8887" fill="none" stroke="black"/>
<path d="M166.557,361.763v 4.8887" fill="none" stroke="black"/>
<path d="M175.671,361.763v 4.8887" fill="none" stroke="black"/>
<path d="M184.785,361.763v 4.8887" fill="none" stroke="black"/>
<path d="M193.898,356.875v 9.77739" fill="none" stroke="black"/>
<path d="M203.012,361.763v 4.8887" fill="none" stroke="black"/>
<path d="M212.126,361.763v 4.8887" fill="none" stroke="black"/>
<path d="M221.24,361.763v 4.8887" fill="none" stroke="black"/>
<path d="M230.353,361.763v 4.8887" fill="none" stroke="black"/>
<path d="M239.467,356.875v 9.77739" fill="none" stroke="black"/>
<path d="M248.581,361.763v 4.8887" fill="none" stroke="black"/>
<path d="M257.694,361.763v 4.8887" fill="none" stroke="black"/>
<path d="M266.808,361.763v 4.8887" fill="none" stroke="black"/>
<path d="M275.922,361.763v 4.8887" fill="none" stroke="black"/>
<path d="M285.035,356.875v 9.77739" fill="none" stroke="black"/>
<path d="M294.149,361.763v 4.8887" fill="none" stroke="black"/>
<path d="M303.263,361.763v 4.8887" fill="none" stroke="black"/>
<path d="M312.377,361.763v 4.8887" fill="none" stroke="black"/>
<path d="M321.49,361.763v 4.8887" fill="none" stroke="black"/>
<path d="M330.604,356.875v 9.77739" fill="none" stroke="black"/>
<path d="M339.718,361.763v 4.8887" fill="none" stroke="black"/>
<path d="M348.831,361.763v 4.8887" fill="none" stroke="black"/>
<path d="M357.945,361.763v 4.8887" fill="none" stroke="black"/>
<path d="M367.059,361.763v 4.8887" fill="none" stroke="black"/>
<path d="M376.172,356.875v 9.77739" fill="none" stroke="black"/>
<path d="M385.286,361.763v 4.8887" fill="none" stroke="black"/>
<path d="M394.4,361.763v 4.8887" fill="none" stroke="black"/>
<path d="M403.514,361.763v 4.8887" fill="none" stroke="black"/>
<path d="M412.627,361.763v 4.8887" fill="none" stroke="black"/>
<path d="M421.741,356.875v 9.77739" fill="none" stroke="black"/>
<path d="M430.855,361.763v 4.8887" fill="none" stroke="black"/>
<path d="M439.968,361.763v 4.8887" fill="none" stroke="black"/>
<path d="M449.082,361.763v 4.8887" fill="none" stroke="black"/>
<path d="M458.196,361.763v 4.8887" fill="none" stroke="black"/>
<path d="M467.309,356.875v 9.77739" fill="none" stroke="black"/>
<path d="M467.309,356.875v 9.77739" fill="none" stroke="black"/>
<path d="M476.423,361.763v 4.8887" fill="none" stroke="black"/>
<path d="M485.537,361.763v 4.8887" fill="none" stroke="black"/>
<path d="M494.651,361.763v 4.8887" fill="none" stroke="black"/>
<path d="M503.764,361.763v 4.8887" fill="none" stroke="black"/>
<path d="M57.1929,366.652v -325.913" fill="none" stroke="black"/>
<path d="M70.7992,366.652h -13.6063" fill="none" stroke="black"/>
<path d="M63.9961,350.458h -6.80315" fill="none" stroke="black"/>
<path d="M63.9961,334.264h -6.80315" fill="none" stroke="black"/>
<path d="M63.9961,318.07h -6.80315" fill="none" stroke="black"/>
<path d="M70.7992,301.876h -13.6063" fill="none" stroke="black"/>
<path d="M63.9961,285.683h -6.80315" fill="none" stroke="black"/>
<path d="M63.9961,269.489h -6.80315" fill="none" stroke="black"/>
<path d="M63.9961,253.295h -6.80315" fill="none" stroke="black"/>
<path d="M70.7992,237.101h -13.6063" fill="none" stroke="black"/>
<path d="M63.9961,220.907h -6.80315" fill="none" stroke="black"/>
<path d="M63.9961,204.713h -6.80315" fill="none" stroke="black"/>
<path d="M63.9961,188.519h -6.80315" fill="none" stroke="black"/>
<path d="M70.7992,172.325h -13.6063" fill="none" stroke="black"/>
<path d="M63.9961,156.131h -6.80315" fill="none" stroke="black"/>
<path d="M63.9961,139.937h -6.80315" fill="none" stroke="black"/>
<path d="M63.9961,123.743h -6.80315" fill="none" stroke="black"/>
<path d="M70.7992,107.55h -13.6063" fill="none" stroke="black"/>
<path d="M63.9961,91.3556h -6.80315" fill="none" stroke="black"/>
<path d="M63.9961,75.1617h -6.80315" fill="none" stroke="black"/>
<path d="M63.9961,58.9678h -6.80315" fill="none" stroke="black"/>
<path d="M70.7992,42.7739h -13.6063" fill="none" stroke="black"/>
<path d="M70.7992,42.7739h -13.6063" fill="none" stroke="black"/>
<rect x="85.5394" y="48.887" width="130.394" height="52.9609" fill="white"/>
<text xml:space="preserve" x="90.24" y="82.6178" fill="black" font-size="20.1505" font-family="Helvetica" font-weight="bold">E=4.600 GeV</text></svg>
