<?xml version="1.0" standalone="no"?>
<svg width="567.429" height="411.802" viewBox="0 0 567.429 411.802" xmlns="http://www.w3.org/2000/svg" shape-rendering="crispEdges">
<title>
pic_fitInclusive4600.svg
</title>
<desc>
Creator: ROOT Version 6.20/06
CreationDate: Tue Apr 13 21:01:05 2021</desc>
<defs>
</defs>
<rect x="0.5" y="0" width="566.929" height="411.302" fill="white"/>
<rect x="57.1929" y="41.1302" width="453.543" height="329.041" fill="white"/>
<rect x="57.1929" y="41.1302" width="453.543" height="329.041" fill="none" stroke="black"/>
<rect x="57.1929" y="41.1302" width="453.543" height="329.041" fill="white"/>
<rect x="57.1929" y="41.1302" width="453.543" height="329.041" fill="none" stroke="black"/>
<path d="M57.1929,370.171h 453.543" fill="none" stroke="black"/>
<path d="M57.1929,360.3v 9.87124" fill="none" stroke="black"/>
<path d="M66.2638,365.236v 4.93562" fill="none" stroke="black"/>
<path d="M75.3346,365.236v 4.93562" fill="none" stroke="black"/>
<path d="M84.4055,365.236v 4.93562" fill="none" stroke="black"/>
<path d="M93.4764,365.236v 4.93562" fill="none" stroke="black"/>
<path d="M102.547,360.3v 9.87124" fill="none" stroke="black"/>
<path d="M111.618,365.236v 4.93562" fill="none" stroke="black"/>
<path d="M120.689,365.236v 4.93562" fill="none" stroke="black"/>
<path d="M129.76,365.236v 4.93562" fill="none" stroke="black"/>
<path d="M138.831,365.236v 4.93562" fill="none" stroke="black"/>
<path d="M147.902,360.3v 9.87124" fill="none" stroke="black"/>
<path d="M156.972,365.236v 4.93562" fill="none" stroke="black"/>
<path d="M166.043,365.236v 4.93562" fill="none" stroke="black"/>
<path d="M175.114,365.236v 4.93562" fill="none" stroke="black"/>
<path d="M184.185,365.236v 4.93562" fill="none" stroke="black"/>
<path d="M193.256,360.3v 9.87124" fill="none" stroke="black"/>
<path d="M202.327,365.236v 4.93562" fill="none" stroke="black"/>
<path d="M211.398,365.236v 4.93562" fill="none" stroke="black"/>
<path d="M220.469,365.236v 4.93562" fill="none" stroke="black"/>
<path d="M229.539,365.236v 4.93562" fill="none" stroke="black"/>
<path d="M238.61,360.3v 9.87124" fill="none" stroke="black"/>
<path d="M247.681,365.236v 4.93562" fill="none" stroke="black"/>
<path d="M256.752,365.236v 4.93562" fill="none" stroke="black"/>
<path d="M265.823,365.236v 4.93562" fill="none" stroke="black"/>
<path d="M274.894,365.236v 4.93562" fill="none" stroke="black"/>
<path d="M283.965,360.3v 9.87124" fill="none" stroke="black"/>
<path d="M293.035,365.236v 4.93562" fill="none" stroke="black"/>
<path d="M302.106,365.236v 4.93562" fill="none" stroke="black"/>
<path d="M311.177,365.236v 4.93562" fill="none" stroke="black"/>
<path d="M320.248,365.236v 4.93562" fill="none" stroke="black"/>
<path d="M329.319,360.3v 9.87124" fill="none" stroke="black"/>
<path d="M338.39,365.236v 4.93562" fill="none" stroke="black"/>
<path d="M347.461,365.236v 4.93562" fill="none" stroke="black"/>
<path d="M356.531,365.236v 4.93562" fill="none" stroke="black"/>
<path d="M365.602,365.236v 4.93562" fill="none" stroke="black"/>
<path d="M374.673,360.3v 9.87124" fill="none" stroke="black"/>
<path d="M383.744,365.236v 4.93562" fill="none" stroke="black"/>
<path d="M392.815,365.236v 4.93562" fill="none" stroke="black"/>
<path d="M401.886,365.236v 4.93562" fill="none" stroke="black"/>
<path d="M410.957,365.236v 4.93562" fill="none" stroke="black"/>
<path d="M420.028,360.3v 9.87124" fill="none" stroke="black"/>
<path d="M429.098,365.236v 4.93562" fill="none" stroke="black"/>
<path d="M438.169,365.236v 4.93562" fill="none" stroke="black"/>
<path d="M447.24,365.236v 4.93562" fill="none" stroke="black"/>
<path d="M456.311,365.236v 4.93562" fill="none" stroke="black"/>
<path d="M465.382,360.3v 9.87124" fill="none" stroke="black"/>
<path d="M474.453,365.236v 4.93562" fill="none" stroke="black"/>
<path d="M483.524,365.236v 4.93562" fill="none" stroke="black"/>
<path d="M492.594,365.236v 4.93562" fill="none" stroke="black"/>
<path d="M501.665,365.236v 4.93562" fill="none" stroke="black"/>
<path d="M510.736,360.3v 9.87124" fill="none" stroke="black"/>
<path d="M510.736,360.3v 9.87124" fill="none" stroke="black"/>
<text xml:space="preserve" x="44.4092" y="383.511" fill="black" font-size="13.7069" font-family="Helvetica">2.25</text>
<text xml:space="preserve" x="85.5394" y="383.511" fill="black" font-size="13.7069" font-family="Helvetica">2.255</text>
<text xml:space="preserve" x="135.007" y="383.511" fill="black" font-size="13.7069" font-family="Helvetica">2.26</text>
<text xml:space="preserve" x="176.137" y="383.511" fill="black" font-size="13.7069" font-family="Helvetica">2.265</text>
<text xml:space="preserve" x="225.604" y="383.511" fill="black" font-size="13.7069" font-family="Helvetica">2.27</text>
<text xml:space="preserve" x="267.29" y="383.511" fill="black" font-size="13.7069" font-family="Helvetica">2.275</text>
<text xml:space="preserve" x="316.202" y="383.511" fill="black" font-size="13.7069" font-family="Helvetica">2.28</text>
<text xml:space="preserve" x="357.888" y="383.511" fill="black" font-size="13.7069" font-family="Helvetica">2.285</text>
<text xml:space="preserve" x="406.799" y="383.511" fill="black" font-size="13.7069" font-family="Helvetica">2.29</text>
<text xml:space="preserve" x="448.485" y="383.511" fill="black" font-size="13.7069" font-family="Helvetica">2.295</text>
<text xml:space="preserve" x="501.843" y="383.511" fill="black" font-size="13.7069" font-family="Helvetica">2.3</text>
<text xml:space="preserve" x="506.846" y="397.406" fill="black" font-size="13.7069" font-family="Helvetica">)</text>
<text xml:space="preserve" x="501.843" y="391.292" fill="black" font-size="9.30462" font-family="Helvetica">2</text>
<text xml:space="preserve" x="457.934" y="397.406" fill="black" font-size="13.7069" font-family="Helvetica"> (GeV/c</text>
<text xml:space="preserve" x="445.706" y="401.297" fill="black" font-size="9.30462" font-family="Helvetica">BC</text>
<text xml:space="preserve" x="435.146" y="397.406" fill="black" font-size="13.7069" font-family="Helvetica">M</text>
<path d="M57.1929,370.171v -329.041" fill="none" stroke="black"/>
<path d="M70.7992,370.171h -13.6063" fill="none" stroke="black"/>
<path d="M63.9961,358.22h -6.80315" fill="none" stroke="black"/>
<path d="M63.9961,346.268h -6.80315" fill="none" stroke="black"/>
<path d="M63.9961,334.317h -6.80315" fill="none" stroke="black"/>
<path d="M70.7992,322.365h -13.6063" fill="none" stroke="black"/>
<path d="M63.9961,310.414h -6.80315" fill="none" stroke="black"/>
<path d="M63.9961,298.463h -6.80315" fill="none" stroke="black"/>
<path d="M63.9961,286.511h -6.80315" fill="none" stroke="black"/>
<path d="M70.7992,274.56h -13.6063" fill="none" stroke="black"/>
<path d="M63.9961,262.608h -6.80315" fill="none" stroke="black"/>
<path d="M63.9961,250.657h -6.80315" fill="none" stroke="black"/>
<path d="M63.9961,238.705h -6.80315" fill="none" stroke="black"/>
<path d="M70.7992,226.754h -13.6063" fill="none" stroke="black"/>
<path d="M63.9961,214.802h -6.80315" fill="none" stroke="black"/>
<path d="M63.9961,202.851h -6.80315" fill="none" stroke="black"/>
<path d="M63.9961,190.899h -6.80315" fill="none" stroke="black"/>
<path d="M70.7992,178.948h -13.6063" fill="none" stroke="black"/>
<path d="M63.9961,166.996h -6.80315" fill="none" stroke="black"/>
<path d="M63.9961,155.045h -6.80315" fill="none" stroke="black"/>
<path d="M63.9961,143.093h -6.80315" fill="none" stroke="black"/>
<path d="M70.7992,131.142h -13.6063" fill="none" stroke="black"/>
<path d="M63.9961,119.19h -6.80315" fill="none" stroke="black"/>
<path d="M63.9961,107.239h -6.80315" fill="none" stroke="black"/>
<path d="M63.9961,95.2874h -6.80315" fill="none" stroke="black"/>
<path d="M70.7992,83.3359h -13.6063" fill="none" stroke="black"/>
<path d="M70.7992,83.3359h -13.6063" fill="none" stroke="black"/>
<path d="M63.9961,71.3845h -6.80315" fill="none" stroke="black"/>
<path d="M63.9961,59.433h -6.80315" fill="none" stroke="black"/>
<path d="M63.9961,47.4815h -6.80315" fill="none" stroke="black"/>
<text xml:space="preserve" x="46.6325" y="375.174" fill="black" font-size="13.7069" font-family="Helvetica">0</text>
<text xml:space="preserve" x="46.6325" y="327.374" fill="black" font-size="13.7069" font-family="Helvetica">2</text>
<text xml:space="preserve" x="46.6325" y="279.574" fill="black" font-size="13.7069" font-family="Helvetica">4</text>
<text xml:space="preserve" x="46.6325" y="231.218" fill="black" font-size="13.7069" font-family="Helvetica">6</text>
<text xml:space="preserve" x="46.6325" y="183.418" fill="black" font-size="13.7069" font-family="Helvetica">8</text>
<text xml:space="preserve" x="39.4069" y="135.618" fill="black" font-size="13.7069" font-family="Helvetica">10</text>
<text xml:space="preserve" x="39.4069" y="88.3742" fill="black" font-size="13.7069" font-family="Helvetica">12</text>
<g transform="rotate(-90,27.7348,45.0208)">
<text xml:space="preserve" x="27.7348" y="45.0208" fill="black" font-size="13.7069" font-family="Helvetica">)</text>
</g>
<g transform="rotate(-90,21.6209,50.0232)">
<text xml:space="preserve" x="21.6209" y="50.0232" fill="black" font-size="9.30462" font-family="Helvetica">2</text>
</g>
<g transform="rotate(-90,27.7348,163.409)">
<text xml:space="preserve" x="27.7348" y="163.409" fill="black" font-size="13.7069" font-family="Helvetica">Events/(  2.5 MeV/c</text>
</g>
<path d="M68.4782,322.365h -11.2853" fill="none" stroke="black" stroke-width="2"/>
<path d="M57.1929,323.477v -2.22325" fill="none" stroke="black" stroke-width="2"/>
<path d="M68.4782,322.365h 11.2853" fill="none" stroke="black" stroke-width="2"/>
<path d="M79.7635,323.477v -2.22325" fill="none" stroke="black" stroke-width="2"/>
<path d="M68.4782,322.365v -63.0526" fill="none" stroke="black" stroke-width="2"/>
<path d="M67.3666,259.313h 2.22325" fill="none" stroke="black" stroke-width="2"/>
<path d="M68.4782,322.365v 30.8782" fill="none" stroke="black" stroke-width="2"/>
<path d="M67.3666,353.244h 2.22325" fill="none" stroke="black" stroke-width="2"/>
<path d="M91.0488,298.463h -11.2853" fill="none" stroke="black" stroke-width="2"/>
<path d="M79.7635,299.574v -2.22325" fill="none" stroke="black" stroke-width="2"/>
<path d="M91.0488,298.463h 11.2853" fill="none" stroke="black" stroke-width="2"/>
<path d="M102.334,299.574v -2.22325" fill="none" stroke="black" stroke-width="2"/>
<path d="M91.0488,298.463v -69.7533" fill="none" stroke="black" stroke-width="2"/>
<path d="M89.9372,228.709h 2.22325" fill="none" stroke="black" stroke-width="2"/>
<path d="M91.0488,298.463v 39.0265" fill="none" stroke="black" stroke-width="2"/>
<path d="M89.9372,337.489h 2.22325" fill="none" stroke="black" stroke-width="2"/>
<path d="M113.619,370.171h -11.2853" fill="none" stroke="black" stroke-width="2"/>
<path d="M102.334,370.171v -1.11163" fill="none" stroke="black" stroke-width="2"/>
<path d="M113.619,370.171h 11.2853" fill="none" stroke="black" stroke-width="2"/>
<path d="M124.905,370.171v -1.11163" fill="none" stroke="black" stroke-width="2"/>
<path d="M113.619,370.171v -27.4376" fill="none" stroke="black" stroke-width="2"/>
<path d="M112.508,342.734h 2.22325" fill="none" stroke="black" stroke-width="2"/>
<path d="M136.19,250.657h -11.2853" fill="none" stroke="black" stroke-width="2"/>
<path d="M124.905,251.768v -2.22325" fill="none" stroke="black" stroke-width="2"/>
<path d="M136.19,250.657h 11.2853" fill="none" stroke="black" stroke-width="2"/>
<path d="M147.475,251.768v -2.22325" fill="none" stroke="black" stroke-width="2"/>
<path d="M136.19,250.657v -80.8511" fill="none" stroke="black" stroke-width="2"/>
<path d="M135.078,169.806h 2.22325" fill="none" stroke="black" stroke-width="2"/>
<path d="M136.19,250.657v 51.623" fill="none" stroke="black" stroke-width="2"/>
<path d="M135.078,302.28h 2.22325" fill="none" stroke="black" stroke-width="2"/>
<path d="M158.761,322.365h -11.2853" fill="none" stroke="black" stroke-width="2"/>
<path d="M147.475,323.477v -2.22325" fill="none" stroke="black" stroke-width="2"/>
<path d="M158.761,322.365h 11.2853" fill="none" stroke="black" stroke-width="2"/>
<path d="M170.046,323.477v -2.22325" fill="none" stroke="black" stroke-width="2"/>
<path d="M158.761,322.365v -63.0526" fill="none" stroke="black" stroke-width="2"/>
<path d="M157.649,259.313h 2.22325" fill="none" stroke="black" stroke-width="2"/>
<path d="M158.761,322.365v 30.8782" fill="none" stroke="black" stroke-width="2"/>
<path d="M157.649,353.244h 2.22325" fill="none" stroke="black" stroke-width="2"/>
<path d="M181.331,298.463h -11.2853" fill="none" stroke="black" stroke-width="2"/>
<path d="M170.046,299.574v -2.22325" fill="none" stroke="black" stroke-width="2"/>
<path d="M181.331,298.463h 11.2853" fill="none" stroke="black" stroke-width="2"/>
<path d="M192.616,299.574v -2.22325" fill="none" stroke="black" stroke-width="2"/>
<path d="M181.331,298.463v -69.7533" fill="none" stroke="black" stroke-width="2"/>
<path d="M180.219,228.709h 2.22325" fill="none" stroke="black" stroke-width="2"/>
<path d="M181.331,298.463v 39.0265" fill="none" stroke="black" stroke-width="2"/>
<path d="M180.219,337.489h 2.22325" fill="none" stroke="black" stroke-width="2"/>
<path d="M203.902,322.365h -11.2853" fill="none" stroke="black" stroke-width="2"/>
<path d="M192.616,323.477v -2.22325" fill="none" stroke="black" stroke-width="2"/>
<path d="M203.902,322.365h 11.2853" fill="none" stroke="black" stroke-width="2"/>
<path d="M215.187,323.477v -2.22325" fill="none" stroke="black" stroke-width="2"/>
<path d="M203.902,322.365v -63.0526" fill="none" stroke="black" stroke-width="2"/>
<path d="M202.79,259.313h 2.22325" fill="none" stroke="black" stroke-width="2"/>
<path d="M203.902,322.365v 30.8782" fill="none" stroke="black" stroke-width="2"/>
<path d="M202.79,353.244h 2.22325" fill="none" stroke="black" stroke-width="2"/>
<path d="M226.472,226.754h -11.2853" fill="none" stroke="black" stroke-width="2"/>
<path d="M215.187,227.865v -2.22325" fill="none" stroke="black" stroke-width="2"/>
<path d="M226.472,226.754h 11.2853" fill="none" stroke="black" stroke-width="2"/>
<path d="M237.758,227.865v -2.22325" fill="none" stroke="black" stroke-width="2"/>
<path d="M226.472,226.754v -85.6596" fill="none" stroke="black" stroke-width="2"/>
<path d="M225.361,141.094h 2.22325" fill="none" stroke="black" stroke-width="2"/>
<path d="M226.472,226.754v 56.8874" fill="none" stroke="black" stroke-width="2"/>
<path d="M225.361,283.641h 2.22325" fill="none" stroke="black" stroke-width="2"/>
<path d="M249.043,346.268h -11.2853" fill="none" stroke="black" stroke-width="2"/>
<path d="M237.758,347.38v -2.22325" fill="none" stroke="black" stroke-width="2"/>
<path d="M249.043,346.268h 11.2853" fill="none" stroke="black" stroke-width="2"/>
<path d="M260.328,347.38v -2.22325" fill="none" stroke="black" stroke-width="2"/>
<path d="M249.043,346.268v -54.9655" fill="none" stroke="black" stroke-width="2"/>
<path d="M247.931,291.303h 2.22325" fill="none" stroke="black" stroke-width="2"/>
<path d="M249.043,346.268v 19.7736" fill="none" stroke="black" stroke-width="2"/>
<path d="M247.931,366.042h 2.22325" fill="none" stroke="black" stroke-width="2"/>
<path d="M271.613,370.171h -11.2853" fill="none" stroke="black" stroke-width="2"/>
<path d="M260.328,370.171v -1.11163" fill="none" stroke="black" stroke-width="2"/>
<path d="M271.613,370.171h 11.2853" fill="none" stroke="black" stroke-width="2"/>
<path d="M282.899,370.171v -1.11163" fill="none" stroke="black" stroke-width="2"/>
<path d="M271.613,370.171v -27.4376" fill="none" stroke="black" stroke-width="2"/>
<path d="M270.502,342.734h 2.22325" fill="none" stroke="black" stroke-width="2"/>
<path d="M294.184,322.365h -11.2853" fill="none" stroke="black" stroke-width="2"/>
<path d="M282.899,323.477v -2.22325" fill="none" stroke="black" stroke-width="2"/>
<path d="M294.184,322.365h 11.2853" fill="none" stroke="black" stroke-width="2"/>
<path d="M305.469,323.477v -2.22325" fill="none" stroke="black" stroke-width="2"/>
<path d="M294.184,322.365v -63.0526" fill="none" stroke="black" stroke-width="2"/>
<path d="M293.072,259.313h 2.22325" fill="none" stroke="black" stroke-width="2"/>
<path d="M294.184,322.365v 30.8782" fill="none" stroke="black" stroke-width="2"/>
<path d="M293.072,353.244h 2.22325" fill="none" stroke="black" stroke-width="2"/>
<path d="M316.755,250.657h -11.2853" fill="none" stroke="black" stroke-width="2"/>
<path d="M305.469,251.768v -2.22325" fill="none" stroke="black" stroke-width="2"/>
<path d="M316.755,250.657h 11.2853" fill="none" stroke="black" stroke-width="2"/>
<path d="M328.04,251.768v -2.22325" fill="none" stroke="black" stroke-width="2"/>
<path d="M316.755,250.657v -80.8511" fill="none" stroke="black" stroke-width="2"/>
<path d="M315.643,169.806h 2.22325" fill="none" stroke="black" stroke-width="2"/>
<path d="M316.755,250.657v 51.623" fill="none" stroke="black" stroke-width="2"/>
<path d="M315.643,302.28h 2.22325" fill="none" stroke="black" stroke-width="2"/>
<path d="M339.325,274.56h -11.2853" fill="none" stroke="black" stroke-width="2"/>
<path d="M328.04,275.671v -2.22325" fill="none" stroke="black" stroke-width="2"/>
<path d="M339.325,274.56h 11.2853" fill="none" stroke="black" stroke-width="2"/>
<path d="M350.61,275.671v -2.22325" fill="none" stroke="black" stroke-width="2"/>
<path d="M339.325,274.56v -75.5991" fill="none" stroke="black" stroke-width="2"/>
<path d="M338.214,198.96h 2.22325" fill="none" stroke="black" stroke-width="2"/>
<path d="M339.325,274.56v 45.7584" fill="none" stroke="black" stroke-width="2"/>
<path d="M338.214,320.318h 2.22325" fill="none" stroke="black" stroke-width="2"/>
<path d="M361.896,250.657h -11.2853" fill="none" stroke="black" stroke-width="2"/>
<path d="M350.61,251.768v -2.22325" fill="none" stroke="black" stroke-width="2"/>
<path d="M361.896,250.657h 11.2853" fill="none" stroke="black" stroke-width="2"/>
<path d="M373.181,251.768v -2.22325" fill="none" stroke="black" stroke-width="2"/>
<path d="M361.896,250.657v -80.8511" fill="none" stroke="black" stroke-width="2"/>
<path d="M360.784,169.806h 2.22325" fill="none" stroke="black" stroke-width="2"/>
<path d="M361.896,250.657v 51.623" fill="none" stroke="black" stroke-width="2"/>
<path d="M360.784,302.28h 2.22325" fill="none" stroke="black" stroke-width="2"/>
<path d="M384.466,202.851h -11.2853" fill="none" stroke="black" stroke-width="2"/>
<path d="M373.181,203.962v -2.22325" fill="none" stroke="black" stroke-width="2"/>
<path d="M384.466,202.851h 11.2853" fill="none" stroke="black" stroke-width="2"/>
<path d="M395.752,203.962v -2.22325" fill="none" stroke="black" stroke-width="2"/>
<path d="M384.466,202.851v -90.1208" fill="none" stroke="black" stroke-width="2"/>
<path d="M383.355,112.73h 2.22325" fill="none" stroke="black" stroke-width="2"/>
<path d="M384.466,202.851v 61.7048" fill="none" stroke="black" stroke-width="2"/>
<path d="M383.355,264.555h 2.22325" fill="none" stroke="black" stroke-width="2"/>
<path d="M407.037,155.045h -11.2853" fill="none" stroke="black" stroke-width="2"/>
<path d="M395.752,156.156v -2.22325" fill="none" stroke="black" stroke-width="2"/>
<path d="M407.037,155.045h 11.2853" fill="none" stroke="black" stroke-width="2"/>
<path d="M418.322,156.156v -2.22325" fill="none" stroke="black" stroke-width="2"/>
<path d="M407.037,155.045v -98.246" fill="none" stroke="black" stroke-width="2"/>
<path d="M405.925,56.7988h 2.22325" fill="none" stroke="black" stroke-width="2"/>
<path d="M407.037,155.045v 70.3574" fill="none" stroke="black" stroke-width="2"/>
<path d="M405.925,225.402h 2.22325" fill="none" stroke="black" stroke-width="2"/>
<path d="M429.608,322.365h -11.2853" fill="none" stroke="black" stroke-width="2"/>
<path d="M418.322,323.477v -2.22325" fill="none" stroke="black" stroke-width="2"/>
<path d="M429.608,322.365h 11.2853" fill="none" stroke="black" stroke-width="2"/>
<path d="M440.893,323.477v -2.22325" fill="none" stroke="black" stroke-width="2"/>
<path d="M429.608,322.365v -63.0526" fill="none" stroke="black" stroke-width="2"/>
<path d="M428.496,259.313h 2.22325" fill="none" stroke="black" stroke-width="2"/>
<path d="M429.608,322.365v 30.8782" fill="none" stroke="black" stroke-width="2"/>
<path d="M428.496,353.244h 2.22325" fill="none" stroke="black" stroke-width="2"/>
<path d="M452.178,298.463h -11.2853" fill="none" stroke="black" stroke-width="2"/>
<path d="M440.893,299.574v -2.22325" fill="none" stroke="black" stroke-width="2"/>
<path d="M452.178,298.463h 11.2853" fill="none" stroke="black" stroke-width="2"/>
<path d="M463.463,299.574v -2.22325" fill="none" stroke="black" stroke-width="2"/>
<path d="M452.178,298.463v -69.7533" fill="none" stroke="black" stroke-width="2"/>
<path d="M451.066,228.709h 2.22325" fill="none" stroke="black" stroke-width="2"/>
<path d="M452.178,298.463v 39.0265" fill="none" stroke="black" stroke-width="2"/>
<path d="M451.066,337.489h 2.22325" fill="none" stroke="black" stroke-width="2"/>
<path d="M474.749,370.171h -11.2853" fill="none" stroke="black" stroke-width="2"/>
<path d="M463.463,370.171v -1.11163" fill="none" stroke="black" stroke-width="2"/>
<path d="M474.749,370.171h 11.2853" fill="none" stroke="black" stroke-width="2"/>
<path d="M486.034,370.171v -1.11163" fill="none" stroke="black" stroke-width="2"/>
<path d="M474.749,370.171v -27.4376" fill="none" stroke="black" stroke-width="2"/>
<path d="M473.637,342.734h 2.22325" fill="none" stroke="black" stroke-width="2"/>
<path d="M497.319,370.171h -11.2853" fill="none" stroke="black" stroke-width="2"/>
<path d="M486.034,370.171v -1.11163" fill="none" stroke="black" stroke-width="2"/>
<path d="M497.319,370.171h 11.2853" fill="none" stroke="black" stroke-width="2"/>
<path d="M508.605,370.171v -1.11163" fill="none" stroke="black" stroke-width="2"/>
<path d="M497.319,370.171v -27.4376" fill="none" stroke="black" stroke-width="2"/>
<path d="M496.208,342.734h 2.22325" fill="none" stroke="black" stroke-width="2"/>
<g fill="black">
<circle cx="68.4782" cy="322.365" r="2.22325"/>
<circle cx="91.0488" cy="298.463" r="2.22325"/>
<circle cx="113.619" cy="370.171" r="2.22325"/>
<circle cx="136.19" cy="250.657" r="2.22325"/>
<circle cx="158.761" cy="322.365" r="2.22325"/>
<circle cx="181.331" cy="298.463" r="2.22325"/>
<circle cx="203.902" cy="322.365" r="2.22325"/>
<circle cx="226.472" cy="226.754" r="2.22325"/>
<circle cx="249.043" cy="346.268" r="2.22325"/>
<circle cx="271.613" cy="370.171" r="2.22325"/>
<circle cx="294.184" cy="322.365" r="2.22325"/>
<circle cx="316.755" cy="250.657" r="2.22325"/>
<circle cx="339.325" cy="274.56" r="2.22325"/>
<circle cx="361.896" cy="250.657" r="2.22325"/>
<circle cx="384.466" cy="202.851" r="2.22325"/>
<circle cx="407.037" cy="155.045" r="2.22325"/>
<circle cx="429.608" cy="322.365" r="2.22325"/>
<circle cx="452.178" cy="298.463" r="2.22325"/>
<circle cx="474.749" cy="370.171" r="2.22325"/>
<circle cx="497.319" cy="370.171" r="2.22325"/>
</g>
<path d="M57.1929,317.497z" fill="none" stroke="#ff0000" stroke-width="6"/>
<path d="M57.1929,317.497l 22.6772, -2.25373l 22.6772, -2.18164l 22.6772, -2.08745l 22.6772, -1.96814l 22.6772, -1.81559l 22.6772, -1.61246l 22.6772, -1.32153l 22.6772, -0.922965l 22.6772, -0.483885l 22.6772, -0.0918457l 22.6772, 0.398539l 22.6772,
 0.548965l 5.66929, -0.204812l 5.66929, -0.765519l 2.83465, -0.79436l 2.83465, -1.25864l 2.83465, -1.90009l 2.83465, -2.69308l 2.83465, -3.55181l 2.83465, -4.61973l 1.41732, -2.8979l 1.41732, -3.4411l 1.41732, -4.11026l 1.41732, -4.90326l 1.41732,
 -5.803l 1.41732, -6.7543l 1.41732, -7.72389l 1.41732, -8.66507l 1.41732, -9.53256l 1.41732, -10.1067l 1.41732, -9.95542l 1.41732, -8.78712l 2.83465, -14.3823l 0.708661, -4.26347l 0.708661, -5.0619l 0.708661, -5.91485l 0.708661, -6.62758l 1.41732,
 -14.0877l 0.708661, -6.68908l 0.708661, -6.03784l 0.708661, -5.23535l 0.708661, -4.38532l 0.708661, -3.53205l 0.708661, -2.73194l 0.708661, -2.07213l 0.708661, -1.60543l 1.41732, -2.43202l 0.708661, -0.738617l 0.708661, -0.160411l 0.708661,
 0.487082l 0.708661, 0.95831l 2.83465, 4.3012l 0.708661, 2.01853l 0.708661, 3.14344l 0.708661, 4.31506l 0.708661, 5.25425l 2.83465, 24.5466l 0.708661, 5.64134l 0.708661, 5.01697l 0.708661, 4.33927l 0.708661, 3.78267l 1.41732, 7.19552l 0.708661,
 4.01617l 0.708661, 4.52903l 1.41732, 10.447l 1.41732, 11.28l 1.41732, 10.9151l 1.41732, 9.97874l 1.41732, 8.98085l 1.41732, 8.16159l 1.41732, 7.4414l 1.41732, 6.59972l 1.41732, 5.61177l 1.41732, 4.65559l 1.41732, 3.92716l 1.41732, 3.45739l 2.83465,
 6.02066l 2.83465, 4.75339l 2.83465, 3.57199l 11.3386, 12.8713l 5.66929, 5.65951l 5.66929, 4.23204l 11.3386, 7.36975l 11.3386, 7.94846l 11.3386, 8.69156l 22.6772, 18.7727" fill="none" stroke="#ff0000" stroke-width="6"/>
<path d="M57.1929,370.078z" fill="none" stroke="#0000ff" stroke-width="6" stroke-dasharray=" 3, 3"/>
<path d="M57.1929,370.078l 22.6772, -0.0137261l 22.6772, -0.000396296l 22.6772, 0.00164249l 22.6772, -0.0107009l 22.6772, -0.0362977l 22.6772, -0.0658767l 22.6772, -0.0713925l 22.6772, -0.0435241l 22.6772, -0.0613956l 22.6772, -0.226243l 22.6772,
 -0.408269l 11.3386, -0.328019l 11.3386, -0.735501l 5.66929, -0.751322l 5.66929, -1.37447l 2.83465, -1.12309l 2.83465, -1.604l 2.83465, -2.26244l 2.83465, -3.07278l 2.83465, -3.94922l 2.83465, -5.03521l 1.41732, -3.11254l 1.41732, -3.66041l 1.41732,
 -4.33427l 1.41732, -5.13203l 1.41732, -6.03658l 1.41732, -6.99274l 1.41732, -7.96723l 1.41732, -8.91338l 1.41732, -9.78587l 1.41732, -10.3651l 1.41732, -10.2189l 0.708661, -4.72773l 0.708661, -4.32804l 2.83465, -14.9353l 0.708661, -4.40503l
 0.708661, -5.2048l 0.708661, -6.05909l 0.708661, -6.77318l 1.41732, -14.383l 0.708661, -6.83877l 0.708661, -6.1889l 0.708661, -5.38781l 0.708661, -4.53917l 0.708661, -3.68729l 0.708661, -2.88859l 0.708661, -2.2302l 0.708661, -1.76491l 1.41732,
 -2.75528l 0.708661, -0.902405l 0.708661, -0.325648l 0.708661, 0.320388l 0.708661, 0.790153l 2.83465, 3.61379l 0.708661, 1.84294l 0.708661, 2.96634l 0.708661, 4.13645l 0.708661, 5.07412l 2.83465, 23.8106l 0.708661, 5.45348l 0.708661, 4.82754l
 0.708661, 4.14826l 0.708661, 3.59008l 1.41732, 6.80556l 0.708661, 3.81878l 0.708661, 4.33003l 0.708661, 4.83232l 0.708661, 5.21176l 1.41732, 10.8706l 1.41732, 10.499l 1.41732, 9.55599l 1.41732, 8.55135l 1.41732, 7.72527l 1.41732, 6.99819l 1.41732,
 6.14956l 1.41732, 5.15459l 1.41732, 4.19132l 1.41732, 3.45574l 1.41732, 2.97874l 2.83465, 5.0414l 2.83465, 3.74437l 2.83465, 2.53264l 11.3386, 8.39874l 2.83465, 1.82792l 2.83465, 1.39759l 5.66929, 1.65943l 11.3386, 1.78728l 22.6772, 3.56565l
 11.3386, 1.74007l 5.66929, 0.718663l 2.83465, 0.308245l 0.708661, 1.68507h 2.12598" fill="none" stroke="#0000ff" stroke-width="6" stroke-dasharray=" 3, 3"/>
<path d="M57.1929,317.59z" fill="none" stroke="#00ff00" stroke-width="6" stroke-dasharray=" 3, 3"/>
<path d="M57.1929,317.59l 22.6772, -2.24001l 22.6772, -2.18124l 22.6772, -2.08909l 22.6772, -1.95744l 22.6772, -1.77929l 22.6772, -1.54659l 22.6772, -1.25014l 22.6772, -0.879441l 22.6772, -0.422489l 11.3386, -0.00924303l 11.3386, 0.14364l 11.3386,
 0.311466l 11.3386, 0.495341l 11.3386, 0.696446l 11.3386, 0.916039l 11.3386, 1.15546l 11.3386, 1.41615l 11.3386, 1.69962l 11.3386, 2.00749l 11.3386, 2.34151l 11.3386, 2.70352l 11.3386, 3.09546l 11.3386, 3.51945l 11.3386, 3.9777l 11.3386, 4.47258l
 5.66929, 2.434l 5.66929, 2.57261l 5.66929, 2.71653l 5.66929, 2.86595l 5.66929, 3.02104l 5.66929, 3.182l 5.66929, 3.34902l 5.66929, 3.52231l 5.66929, 3.70206l 5.66929, 3.88851l 5.66929, 4.08187l 2.83465, 2.11566l 0.708661, 0.532546h 2.12598"
 fill="none" stroke="#00ff00" stroke-width="6" stroke-dasharray=" 3, 3"/>
<path d="M57.1929,370.171h 453.543" fill="none" stroke="black"/>
<path d="M57.1929,360.3v 9.87124" fill="none" stroke="black"/>
<path d="M66.2638,365.236v 4.93562" fill="none" stroke="black"/>
<path d="M75.3346,365.236v 4.93562" fill="none" stroke="black"/>
<path d="M84.4055,365.236v 4.93562" fill="none" stroke="black"/>
<path d="M93.4764,365.236v 4.93562" fill="none" stroke="black"/>
<path d="M102.547,360.3v 9.87124" fill="none" stroke="black"/>
<path d="M111.618,365.236v 4.93562" fill="none" stroke="black"/>
<path d="M120.689,365.236v 4.93562" fill="none" stroke="black"/>
<path d="M129.76,365.236v 4.93562" fill="none" stroke="black"/>
<path d="M138.831,365.236v 4.93562" fill="none" stroke="black"/>
<path d="M147.902,360.3v 9.87124" fill="none" stroke="black"/>
<path d="M156.972,365.236v 4.93562" fill="none" stroke="black"/>
<path d="M166.043,365.236v 4.93562" fill="none" stroke="black"/>
<path d="M175.114,365.236v 4.93562" fill="none" stroke="black"/>
<path d="M184.185,365.236v 4.93562" fill="none" stroke="black"/>
<path d="M193.256,360.3v 9.87124" fill="none" stroke="black"/>
<path d="M202.327,365.236v 4.93562" fill="none" stroke="black"/>
<path d="M211.398,365.236v 4.93562" fill="none" stroke="black"/>
<path d="M220.469,365.236v 4.93562" fill="none" stroke="black"/>
<path d="M229.539,365.236v 4.93562" fill="none" stroke="black"/>
<path d="M238.61,360.3v 9.87124" fill="none" stroke="black"/>
<path d="M247.681,365.236v 4.93562" fill="none" stroke="black"/>
<path d="M256.752,365.236v 4.93562" fill="none" stroke="black"/>
<path d="M265.823,365.236v 4.93562" fill="none" stroke="black"/>
<path d="M274.894,365.236v 4.93562" fill="none" stroke="black"/>
<path d="M283.965,360.3v 9.87124" fill="none" stroke="black"/>
<path d="M293.035,365.236v 4.93562" fill="none" stroke="black"/>
<path d="M302.106,365.236v 4.93562" fill="none" stroke="black"/>
<path d="M311.177,365.236v 4.93562" fill="none" stroke="black"/>
<path d="M320.248,365.236v 4.93562" fill="none" stroke="black"/>
<path d="M329.319,360.3v 9.87124" fill="none" stroke="black"/>
<path d="M338.39,365.236v 4.93562" fill="none" stroke="black"/>
<path d="M347.461,365.236v 4.93562" fill="none" stroke="black"/>
<path d="M356.531,365.236v 4.93562" fill="none" stroke="black"/>
<path d="M365.602,365.236v 4.93562" fill="none" stroke="black"/>
<path d="M374.673,360.3v 9.87124" fill="none" stroke="black"/>
<path d="M383.744,365.236v 4.93562" fill="none" stroke="black"/>
<path d="M392.815,365.236v 4.93562" fill="none" stroke="black"/>
<path d="M401.886,365.236v 4.93562" fill="none" stroke="black"/>
<path d="M410.957,365.236v 4.93562" fill="none" stroke="black"/>
<path d="M420.028,360.3v 9.87124" fill="none" stroke="black"/>
<path d="M429.098,365.236v 4.93562" fill="none" stroke="black"/>
<path d="M438.169,365.236v 4.93562" fill="none" stroke="black"/>
<path d="M447.24,365.236v 4.93562" fill="none" stroke="black"/>
<path d="M456.311,365.236v 4.93562" fill="none" stroke="black"/>
<path d="M465.382,360.3v 9.87124" fill="none" stroke="black"/>
<path d="M474.453,365.236v 4.93562" fill="none" stroke="black"/>
<path d="M483.524,365.236v 4.93562" fill="none" stroke="black"/>
<path d="M492.594,365.236v 4.93562" fill="none" stroke="black"/>
<path d="M501.665,365.236v 4.93562" fill="none" stroke="black"/>
<path d="M510.736,360.3v 9.87124" fill="none" stroke="black"/>
<path d="M510.736,360.3v 9.87124" fill="none" stroke="black"/>
<path d="M57.1929,370.171v -329.041" fill="none" stroke="black"/>
<path d="M70.7992,370.171h -13.6063" fill="none" stroke="black"/>
<path d="M63.9961,358.22h -6.80315" fill="none" stroke="black"/>
<path d="M63.9961,346.268h -6.80315" fill="none" stroke="black"/>
<path d="M63.9961,334.317h -6.80315" fill="none" stroke="black"/>
<path d="M70.7992,322.365h -13.6063" fill="none" stroke="black"/>
<path d="M63.9961,310.414h -6.80315" fill="none" stroke="black"/>
<path d="M63.9961,298.463h -6.80315" fill="none" stroke="black"/>
<path d="M63.9961,286.511h -6.80315" fill="none" stroke="black"/>
<path d="M70.7992,274.56h -13.6063" fill="none" stroke="black"/>
<path d="M63.9961,262.608h -6.80315" fill="none" stroke="black"/>
<path d="M63.9961,250.657h -6.80315" fill="none" stroke="black"/>
<path d="M63.9961,238.705h -6.80315" fill="none" stroke="black"/>
<path d="M70.7992,226.754h -13.6063" fill="none" stroke="black"/>
<path d="M63.9961,214.802h -6.80315" fill="none" stroke="black"/>
<path d="M63.9961,202.851h -6.80315" fill="none" stroke="black"/>
<path d="M63.9961,190.899h -6.80315" fill="none" stroke="black"/>
<path d="M70.7992,178.948h -13.6063" fill="none" stroke="black"/>
<path d="M63.9961,166.996h -6.80315" fill="none" stroke="black"/>
<path d="M63.9961,155.045h -6.80315" fill="none" stroke="black"/>
<path d="M63.9961,143.093h -6.80315" fill="none" stroke="black"/>
<path d="M70.7992,131.142h -13.6063" fill="none" stroke="black"/>
<path d="M63.9961,119.19h -6.80315" fill="none" stroke="black"/>
<path d="M63.9961,107.239h -6.80315" fill="none" stroke="black"/>
<path d="M63.9961,95.2874h -6.80315" fill="none" stroke="black"/>
<path d="M70.7992,83.3359h -13.6063" fill="none" stroke="black"/>
<path d="M70.7992,83.3359h -13.6063" fill="none" stroke="black"/>
<path d="M63.9961,71.3845h -6.80315" fill="none" stroke="black"/>
<path d="M63.9961,59.433h -6.80315" fill="none" stroke="black"/>
<path d="M63.9961,47.4815h -6.80315" fill="none" stroke="black"/>
<rect x="85.5394" y="49.3562" width="130.394" height="53.4692" fill="white"/>
<text xml:space="preserve" x="90.5417" y="83.3719" fill="black" font-size="20.2355" font-family="Helvetica" font-weight="bold">E=4.600 GeV</text></svg>
