<?xml version="1.0" standalone="no"?>
<svg width="567.429" height="409.712" viewBox="0 0 567.429 409.712" xmlns="http://www.w3.org/2000/svg" shape-rendering="crispEdges">
<title>
pic_fitInclusive4600.svg
</title>
<desc>
Creator: ROOT Version 6.20/06
CreationDate: Thu Apr 29 14:45:01 2021</desc>
<defs>
</defs>
<rect x="0.5" y="0" width="566.929" height="409.212" fill="white"/>
<rect x="57.1929" y="40.9212" width="453.543" height="327.37" fill="white"/>
<rect x="57.1929" y="40.9212" width="453.543" height="327.37" fill="none" stroke="black"/>
<rect x="57.1929" y="40.9212" width="453.543" height="327.37" fill="white"/>
<rect x="57.1929" y="40.9212" width="453.543" height="327.37" fill="none" stroke="black"/>
<path d="M57.1929,368.291h 453.543" fill="none" stroke="black"/>
<path d="M57.1929,358.47v 9.82109" fill="none" stroke="black"/>
<path d="M66.3066,363.38v 4.91054" fill="none" stroke="black"/>
<path d="M75.4203,363.38v 4.91054" fill="none" stroke="black"/>
<path d="M84.534,363.38v 4.91054" fill="none" stroke="black"/>
<path d="M93.6477,363.38v 4.91054" fill="none" stroke="black"/>
<path d="M102.761,358.47v 9.82109" fill="none" stroke="black"/>
<path d="M111.875,363.38v 4.91054" fill="none" stroke="black"/>
<path d="M120.989,363.38v 4.91054" fill="none" stroke="black"/>
<path d="M130.103,363.38v 4.91054" fill="none" stroke="black"/>
<path d="M139.216,363.38v 4.91054" fill="none" stroke="black"/>
<path d="M148.33,358.47v 9.82109" fill="none" stroke="black"/>
<path d="M157.444,363.38v 4.91054" fill="none" stroke="black"/>
<path d="M166.557,363.38v 4.91054" fill="none" stroke="black"/>
<path d="M175.671,363.38v 4.91054" fill="none" stroke="black"/>
<path d="M184.785,363.38v 4.91054" fill="none" stroke="black"/>
<path d="M193.898,358.47v 9.82109" fill="none" stroke="black"/>
<path d="M203.012,363.38v 4.91054" fill="none" stroke="black"/>
<path d="M212.126,363.38v 4.91054" fill="none" stroke="black"/>
<path d="M221.24,363.38v 4.91054" fill="none" stroke="black"/>
<path d="M230.353,363.38v 4.91054" fill="none" stroke="black"/>
<path d="M239.467,358.47v 9.82109" fill="none" stroke="black"/>
<path d="M248.581,363.38v 4.91054" fill="none" stroke="black"/>
<path d="M257.694,363.38v 4.91054" fill="none" stroke="black"/>
<path d="M266.808,363.38v 4.91054" fill="none" stroke="black"/>
<path d="M275.922,363.38v 4.91054" fill="none" stroke="black"/>
<path d="M285.035,358.47v 9.82109" fill="none" stroke="black"/>
<path d="M294.149,363.38v 4.91054" fill="none" stroke="black"/>
<path d="M303.263,363.38v 4.91054" fill="none" stroke="black"/>
<path d="M312.377,363.38v 4.91054" fill="none" stroke="black"/>
<path d="M321.49,363.38v 4.91054" fill="none" stroke="black"/>
<path d="M330.604,358.47v 9.82109" fill="none" stroke="black"/>
<path d="M339.718,363.38v 4.91054" fill="none" stroke="black"/>
<path d="M348.831,363.38v 4.91054" fill="none" stroke="black"/>
<path d="M357.945,363.38v 4.91054" fill="none" stroke="black"/>
<path d="M367.059,363.38v 4.91054" fill="none" stroke="black"/>
<path d="M376.172,358.47v 9.82109" fill="none" stroke="black"/>
<path d="M385.286,363.38v 4.91054" fill="none" stroke="black"/>
<path d="M394.4,363.38v 4.91054" fill="none" stroke="black"/>
<path d="M403.514,363.38v 4.91054" fill="none" stroke="black"/>
<path d="M412.627,363.38v 4.91054" fill="none" stroke="black"/>
<path d="M421.741,358.47v 9.82109" fill="none" stroke="black"/>
<path d="M430.855,363.38v 4.91054" fill="none" stroke="black"/>
<path d="M439.968,363.38v 4.91054" fill="none" stroke="black"/>
<path d="M449.082,363.38v 4.91054" fill="none" stroke="black"/>
<path d="M458.196,363.38v 4.91054" fill="none" stroke="black"/>
<path d="M467.309,358.47v 9.82109" fill="none" stroke="black"/>
<path d="M467.309,358.47v 9.82109" fill="none" stroke="black"/>
<path d="M476.423,363.38v 4.91054" fill="none" stroke="black"/>
<path d="M485.537,363.38v 4.91054" fill="none" stroke="black"/>
<path d="M494.651,363.38v 4.91054" fill="none" stroke="black"/>
<path d="M503.764,363.38v 4.91054" fill="none" stroke="black"/>
<text xml:space="preserve" x="43.8367" y="381.505" fill="black" font-size="13.6398" font-family="Helvetica">2.25</text>
<text xml:space="preserve" x="85.0421" y="381.505" fill="black" font-size="13.6398" font-family="Helvetica">2.255</text>
<text xml:space="preserve" x="135.483" y="381.505" fill="black" font-size="13.6398" font-family="Helvetica">2.26</text>
<text xml:space="preserve" x="176.689" y="381.505" fill="black" font-size="13.6398" font-family="Helvetica">2.265</text>
<text xml:space="preserve" x="226.419" y="381.505" fill="black" font-size="13.6398" font-family="Helvetica">2.27</text>
<text xml:space="preserve" x="267.625" y="381.505" fill="black" font-size="13.6398" font-family="Helvetica">2.275</text>
<text xml:space="preserve" x="317.355" y="381.505" fill="black" font-size="13.6398" font-family="Helvetica">2.28</text>
<text xml:space="preserve" x="358.561" y="381.505" fill="black" font-size="13.6398" font-family="Helvetica">2.285</text>
<text xml:space="preserve" x="408.291" y="381.505" fill="black" font-size="13.6398" font-family="Helvetica">2.29</text>
<text xml:space="preserve" x="450.207" y="381.505" fill="black" font-size="13.6398" font-family="Helvetica">2.295</text>
<text xml:space="preserve" x="507.042" y="395.714" fill="black" font-size="13.6398" font-family="Helvetica">)</text>
<text xml:space="preserve" x="502.069" y="389.32" fill="black" font-size="9.25989" font-family="Helvetica">2</text>
<text xml:space="preserve" x="457.311" y="395.714" fill="black" font-size="13.6398" font-family="Helvetica"> (GeV/c</text>
<text xml:space="preserve" x="444.523" y="399.976" fill="black" font-size="9.25989" font-family="Helvetica">BC</text>
<text xml:space="preserve" x="433.867" y="395.714" fill="black" font-size="13.6398" font-family="Helvetica">M</text>
<path d="M57.1929,368.291v -327.37" fill="none" stroke="black"/>
<path d="M70.7992,368.291h -13.6063" fill="none" stroke="black"/>
<path d="M63.9961,360.852h -6.80315" fill="none" stroke="black"/>
<path d="M63.9961,353.413h -6.80315" fill="none" stroke="black"/>
<path d="M63.9961,345.974h -6.80315" fill="none" stroke="black"/>
<path d="M63.9961,338.535h -6.80315" fill="none" stroke="black"/>
<path d="M70.7992,331.096h -13.6063" fill="none" stroke="black"/>
<path d="M63.9961,323.658h -6.80315" fill="none" stroke="black"/>
<path d="M63.9961,316.219h -6.80315" fill="none" stroke="black"/>
<path d="M63.9961,308.78h -6.80315" fill="none" stroke="black"/>
<path d="M63.9961,301.341h -6.80315" fill="none" stroke="black"/>
<path d="M70.7992,293.902h -13.6063" fill="none" stroke="black"/>
<path d="M63.9961,286.463h -6.80315" fill="none" stroke="black"/>
<path d="M63.9961,279.024h -6.80315" fill="none" stroke="black"/>
<path d="M63.9961,271.586h -6.80315" fill="none" stroke="black"/>
<path d="M63.9961,264.147h -6.80315" fill="none" stroke="black"/>
<path d="M70.7992,256.708h -13.6063" fill="none" stroke="black"/>
<path d="M63.9961,249.269h -6.80315" fill="none" stroke="black"/>
<path d="M63.9961,241.83h -6.80315" fill="none" stroke="black"/>
<path d="M63.9961,234.391h -6.80315" fill="none" stroke="black"/>
<path d="M63.9961,226.952h -6.80315" fill="none" stroke="black"/>
<path d="M70.7992,219.513h -13.6063" fill="none" stroke="black"/>
<path d="M63.9961,212.075h -6.80315" fill="none" stroke="black"/>
<path d="M63.9961,204.636h -6.80315" fill="none" stroke="black"/>
<path d="M63.9961,197.197h -6.80315" fill="none" stroke="black"/>
<path d="M63.9961,189.758h -6.80315" fill="none" stroke="black"/>
<path d="M70.7992,182.319h -13.6063" fill="none" stroke="black"/>
<path d="M63.9961,174.88h -6.80315" fill="none" stroke="black"/>
<path d="M63.9961,167.441h -6.80315" fill="none" stroke="black"/>
<path d="M63.9961,160.002h -6.80315" fill="none" stroke="black"/>
<path d="M63.9961,152.564h -6.80315" fill="none" stroke="black"/>
<path d="M70.7992,145.125h -13.6063" fill="none" stroke="black"/>
<path d="M63.9961,137.686h -6.80315" fill="none" stroke="black"/>
<path d="M63.9961,130.247h -6.80315" fill="none" stroke="black"/>
<path d="M63.9961,122.808h -6.80315" fill="none" stroke="black"/>
<path d="M63.9961,115.369h -6.80315" fill="none" stroke="black"/>
<path d="M70.7992,107.93h -13.6063" fill="none" stroke="black"/>
<path d="M63.9961,100.492h -6.80315" fill="none" stroke="black"/>
<path d="M63.9961,93.0527h -6.80315" fill="none" stroke="black"/>
<path d="M63.9961,85.6138h -6.80315" fill="none" stroke="black"/>
<path d="M63.9961,78.1749h -6.80315" fill="none" stroke="black"/>
<path d="M70.7992,70.7361h -13.6063" fill="none" stroke="black"/>
<path d="M70.7992,70.7361h -13.6063" fill="none" stroke="black"/>
<path d="M63.9961,63.2972h -6.80315" fill="none" stroke="black"/>
<path d="M63.9961,55.8583h -6.80315" fill="none" stroke="black"/>
<path d="M63.9961,48.4194h -6.80315" fill="none" stroke="black"/>
<path d="M63.9961,40.9806h -6.80315" fill="none" stroke="black"/>
<text xml:space="preserve" x="46.6784" y="372.98" fill="black" font-size="13.6398" font-family="Helvetica">0</text>
<text xml:space="preserve" x="48.8097" y="336.747" fill="black" font-size="13.6398" font-family="Helvetica">1</text>
<text xml:space="preserve" x="46.6784" y="299.094" fill="black" font-size="13.6398" font-family="Helvetica">2</text>
<text xml:space="preserve" x="46.6784" y="261.441" fill="black" font-size="13.6398" font-family="Helvetica">3</text>
<text xml:space="preserve" x="46.6784" y="224.498" fill="black" font-size="13.6398" font-family="Helvetica">4</text>
<text xml:space="preserve" x="46.6784" y="186.845" fill="black" font-size="13.6398" font-family="Helvetica">5</text>
<text xml:space="preserve" x="46.6784" y="149.902" fill="black" font-size="13.6398" font-family="Helvetica">6</text>
<text xml:space="preserve" x="46.6784" y="112.96" fill="black" font-size="13.6398" font-family="Helvetica">7</text>
<text xml:space="preserve" x="46.6784" y="75.3064" fill="black" font-size="13.6398" font-family="Helvetica">8</text>
<g transform="rotate(-90,34.601,44.0471)">
<text xml:space="preserve" x="34.601" y="44.0471" fill="black" font-size="13.6398" font-family="Helvetica">)</text>
</g>
<g transform="rotate(-90,28.9175,49.0202)">
<text xml:space="preserve" x="28.9175" y="49.0202" fill="black" font-size="9.25989" font-family="Helvetica">2</text>
</g>
<g transform="rotate(-90,34.601,163.401)">
<text xml:space="preserve" x="34.601" y="163.401" fill="black" font-size="13.6398" font-family="Helvetica">Events/(  2.5 MeV/c</text>
</g>
<path d="M68.5315,219.513h -11.3386" fill="none" stroke="black" stroke-width="2"/>
<path d="M57.1929,220.934v -2.84175" fill="none" stroke="black" stroke-width="2"/>
<path d="M68.5315,219.513h 11.3386" fill="none" stroke="black" stroke-width="2"/>
<path d="M79.8701,220.934v -2.84175" fill="none" stroke="black" stroke-width="2"/>
<path d="M68.5315,219.513v -117.637" fill="none" stroke="black" stroke-width="2"/>
<path d="M67.1106,101.877h 2.84175" fill="none" stroke="black" stroke-width="2"/>
<path d="M68.5315,219.513v 71.2026" fill="none" stroke="black" stroke-width="2"/>
<path d="M67.1106,290.716h 2.84175" fill="none" stroke="black" stroke-width="2"/>
<path d="M91.2087,293.902h -11.3386" fill="none" stroke="black" stroke-width="2"/>
<path d="M79.8701,295.323v -2.84175" fill="none" stroke="black" stroke-width="2"/>
<path d="M91.2087,293.902h 11.3386" fill="none" stroke="black" stroke-width="2"/>
<path d="M102.547,295.323v -2.84175" fill="none" stroke="black" stroke-width="2"/>
<path d="M91.2087,293.902v -98.1135" fill="none" stroke="black" stroke-width="2"/>
<path d="M89.7878,195.789h 2.84175" fill="none" stroke="black" stroke-width="2"/>
<path d="M91.2087,293.902v 48.0482" fill="none" stroke="black" stroke-width="2"/>
<path d="M89.7878,341.95h 2.84175" fill="none" stroke="black" stroke-width="2"/>
<path d="M113.886,331.096h -11.3386" fill="none" stroke="black" stroke-width="2"/>
<path d="M102.547,332.517v -2.84175" fill="none" stroke="black" stroke-width="2"/>
<path d="M113.886,331.096h 11.3386" fill="none" stroke="black" stroke-width="2"/>
<path d="M125.224,332.517v -2.84175" fill="none" stroke="black" stroke-width="2"/>
<path d="M113.886,331.096v -85.5294" fill="none" stroke="black" stroke-width="2"/>
<path d="M112.465,245.567h 2.84175" fill="none" stroke="black" stroke-width="2"/>
<path d="M113.886,331.096v 30.7689" fill="none" stroke="black" stroke-width="2"/>
<path d="M112.465,361.865h 2.84175" fill="none" stroke="black" stroke-width="2"/>
<path d="M136.563,368.291h -11.3386" fill="none" stroke="black" stroke-width="2"/>
<path d="M125.224,368.291v -1.42088" fill="none" stroke="black" stroke-width="2"/>
<path d="M136.563,368.291h 11.3386" fill="none" stroke="black" stroke-width="2"/>
<path d="M147.902,368.291v -1.42088" fill="none" stroke="black" stroke-width="2"/>
<path d="M136.563,368.291v -42.6944" fill="none" stroke="black" stroke-width="2"/>
<path d="M135.142,325.596h 2.84175" fill="none" stroke="black" stroke-width="2"/>
<path d="M159.24,293.902h -11.3386" fill="none" stroke="black" stroke-width="2"/>
<path d="M147.902,295.323v -2.84175" fill="none" stroke="black" stroke-width="2"/>
<path d="M159.24,293.902h 11.3386" fill="none" stroke="black" stroke-width="2"/>
<path d="M170.579,295.323v -2.84175" fill="none" stroke="black" stroke-width="2"/>
<path d="M159.24,293.902v -98.1135" fill="none" stroke="black" stroke-width="2"/>
<path d="M157.819,195.789h 2.84175" fill="none" stroke="black" stroke-width="2"/>
<path d="M159.24,293.902v 48.0482" fill="none" stroke="black" stroke-width="2"/>
<path d="M157.819,341.95h 2.84175" fill="none" stroke="black" stroke-width="2"/>
<path d="M181.917,256.708h -11.3386" fill="none" stroke="black" stroke-width="2"/>
<path d="M170.579,258.129v -2.84175" fill="none" stroke="black" stroke-width="2"/>
<path d="M181.917,256.708h 11.3386" fill="none" stroke="black" stroke-width="2"/>
<path d="M193.256,258.129v -2.84175" fill="none" stroke="black" stroke-width="2"/>
<path d="M181.917,256.708v -108.54" fill="none" stroke="black" stroke-width="2"/>
<path d="M180.496,148.168h 2.84175" fill="none" stroke="black" stroke-width="2"/>
<path d="M181.917,256.708v 60.7274" fill="none" stroke="black" stroke-width="2"/>
<path d="M180.496,317.435h 2.84175" fill="none" stroke="black" stroke-width="2"/>
<path d="M204.594,331.096h -11.3386" fill="none" stroke="black" stroke-width="2"/>
<path d="M193.256,332.517v -2.84175" fill="none" stroke="black" stroke-width="2"/>
<path d="M204.594,331.096h 11.3386" fill="none" stroke="black" stroke-width="2"/>
<path d="M215.933,332.517v -2.84175" fill="none" stroke="black" stroke-width="2"/>
<path d="M204.594,331.096v -85.5294" fill="none" stroke="black" stroke-width="2"/>
<path d="M203.174,245.567h 2.84175" fill="none" stroke="black" stroke-width="2"/>
<path d="M204.594,331.096v 30.7689" fill="none" stroke="black" stroke-width="2"/>
<path d="M203.174,361.865h 2.84175" fill="none" stroke="black" stroke-width="2"/>
<path d="M227.272,219.513h -11.3386" fill="none" stroke="black" stroke-width="2"/>
<path d="M215.933,220.934v -2.84175" fill="none" stroke="black" stroke-width="2"/>
<path d="M227.272,219.513h 11.3386" fill="none" stroke="black" stroke-width="2"/>
<path d="M238.61,220.934v -2.84175" fill="none" stroke="black" stroke-width="2"/>
<path d="M227.272,219.513v -117.637" fill="none" stroke="black" stroke-width="2"/>
<path d="M225.851,101.877h 2.84175" fill="none" stroke="black" stroke-width="2"/>
<path d="M227.272,219.513v 71.2026" fill="none" stroke="black" stroke-width="2"/>
<path d="M225.851,290.716h 2.84175" fill="none" stroke="black" stroke-width="2"/>
<path d="M249.949,293.902h -11.3386" fill="none" stroke="black" stroke-width="2"/>
<path d="M238.61,295.323v -2.84175" fill="none" stroke="black" stroke-width="2"/>
<path d="M249.949,293.902h 11.3386" fill="none" stroke="black" stroke-width="2"/>
<path d="M261.287,295.323v -2.84175" fill="none" stroke="black" stroke-width="2"/>
<path d="M249.949,293.902v -98.1135" fill="none" stroke="black" stroke-width="2"/>
<path d="M248.528,195.789h 2.84175" fill="none" stroke="black" stroke-width="2"/>
<path d="M249.949,293.902v 48.0482" fill="none" stroke="black" stroke-width="2"/>
<path d="M248.528,341.95h 2.84175" fill="none" stroke="black" stroke-width="2"/>
<path d="M272.626,256.708h -11.3386" fill="none" stroke="black" stroke-width="2"/>
<path d="M261.287,258.129v -2.84175" fill="none" stroke="black" stroke-width="2"/>
<path d="M272.626,256.708h 11.3386" fill="none" stroke="black" stroke-width="2"/>
<path d="M283.965,258.129v -2.84175" fill="none" stroke="black" stroke-width="2"/>
<path d="M272.626,256.708v -108.54" fill="none" stroke="black" stroke-width="2"/>
<path d="M271.205,148.168h 2.84175" fill="none" stroke="black" stroke-width="2"/>
<path d="M272.626,256.708v 60.7274" fill="none" stroke="black" stroke-width="2"/>
<path d="M271.205,317.435h 2.84175" fill="none" stroke="black" stroke-width="2"/>
<path d="M295.303,182.319h -11.3386" fill="none" stroke="black" stroke-width="2"/>
<path d="M283.965,183.74v -2.84175" fill="none" stroke="black" stroke-width="2"/>
<path d="M295.303,182.319h 11.3386" fill="none" stroke="black" stroke-width="2"/>
<path d="M306.642,183.74v -2.84175" fill="none" stroke="black" stroke-width="2"/>
<path d="M295.303,182.319v -125.809" fill="none" stroke="black" stroke-width="2"/>
<path d="M293.882,56.5102h 2.84175" fill="none" stroke="black" stroke-width="2"/>
<path d="M295.303,182.319v 80.3283" fill="none" stroke="black" stroke-width="2"/>
<path d="M293.882,262.647h 2.84175" fill="none" stroke="black" stroke-width="2"/>
<path d="M317.98,256.708h -11.3386" fill="none" stroke="black" stroke-width="2"/>
<path d="M306.642,258.129v -2.84175" fill="none" stroke="black" stroke-width="2"/>
<path d="M317.98,256.708h 11.3386" fill="none" stroke="black" stroke-width="2"/>
<path d="M329.319,258.129v -2.84175" fill="none" stroke="black" stroke-width="2"/>
<path d="M317.98,256.708v -108.54" fill="none" stroke="black" stroke-width="2"/>
<path d="M316.559,148.168h 2.84175" fill="none" stroke="black" stroke-width="2"/>
<path d="M317.98,256.708v 60.7274" fill="none" stroke="black" stroke-width="2"/>
<path d="M316.559,317.435h 2.84175" fill="none" stroke="black" stroke-width="2"/>
<path d="M340.657,368.291h -11.3386" fill="none" stroke="black" stroke-width="2"/>
<path d="M329.319,368.291v -1.42088" fill="none" stroke="black" stroke-width="2"/>
<path d="M340.657,368.291h 11.3386" fill="none" stroke="black" stroke-width="2"/>
<path d="M351.996,368.291v -1.42088" fill="none" stroke="black" stroke-width="2"/>
<path d="M340.657,368.291v -42.6944" fill="none" stroke="black" stroke-width="2"/>
<path d="M339.237,325.596h 2.84175" fill="none" stroke="black" stroke-width="2"/>
<path d="M363.335,219.513h -11.3386" fill="none" stroke="black" stroke-width="2"/>
<path d="M351.996,220.934v -2.84175" fill="none" stroke="black" stroke-width="2"/>
<path d="M363.335,219.513h 11.3386" fill="none" stroke="black" stroke-width="2"/>
<path d="M374.673,220.934v -2.84175" fill="none" stroke="black" stroke-width="2"/>
<path d="M363.335,219.513v -117.637" fill="none" stroke="black" stroke-width="2"/>
<path d="M361.914,101.877h 2.84175" fill="none" stroke="black" stroke-width="2"/>
<path d="M363.335,219.513v 71.2026" fill="none" stroke="black" stroke-width="2"/>
<path d="M361.914,290.716h 2.84175" fill="none" stroke="black" stroke-width="2"/>
<path d="M386.012,219.513h -11.3386" fill="none" stroke="black" stroke-width="2"/>
<path d="M374.673,220.934v -2.84175" fill="none" stroke="black" stroke-width="2"/>
<path d="M386.012,219.513h 11.3386" fill="none" stroke="black" stroke-width="2"/>
<path d="M397.35,220.934v -2.84175" fill="none" stroke="black" stroke-width="2"/>
<path d="M386.012,219.513v -117.637" fill="none" stroke="black" stroke-width="2"/>
<path d="M384.591,101.877h 2.84175" fill="none" stroke="black" stroke-width="2"/>
<path d="M386.012,219.513v 71.2026" fill="none" stroke="black" stroke-width="2"/>
<path d="M384.591,290.716h 2.84175" fill="none" stroke="black" stroke-width="2"/>
<path d="M408.689,219.513h -11.3386" fill="none" stroke="black" stroke-width="2"/>
<path d="M397.35,220.934v -2.84175" fill="none" stroke="black" stroke-width="2"/>
<path d="M408.689,219.513h 11.3386" fill="none" stroke="black" stroke-width="2"/>
<path d="M420.028,220.934v -2.84175" fill="none" stroke="black" stroke-width="2"/>
<path d="M408.689,219.513v -117.637" fill="none" stroke="black" stroke-width="2"/>
<path d="M407.268,101.877h 2.84175" fill="none" stroke="black" stroke-width="2"/>
<path d="M408.689,219.513v 71.2026" fill="none" stroke="black" stroke-width="2"/>
<path d="M407.268,290.716h 2.84175" fill="none" stroke="black" stroke-width="2"/>
<path d="M431.366,331.096h -11.3386" fill="none" stroke="black" stroke-width="2"/>
<path d="M420.028,332.517v -2.84175" fill="none" stroke="black" stroke-width="2"/>
<path d="M431.366,331.096h 11.3386" fill="none" stroke="black" stroke-width="2"/>
<path d="M442.705,332.517v -2.84175" fill="none" stroke="black" stroke-width="2"/>
<path d="M431.366,331.096v -85.5294" fill="none" stroke="black" stroke-width="2"/>
<path d="M429.945,245.567h 2.84175" fill="none" stroke="black" stroke-width="2"/>
<path d="M431.366,331.096v 30.7689" fill="none" stroke="black" stroke-width="2"/>
<path d="M429.945,361.865h 2.84175" fill="none" stroke="black" stroke-width="2"/>
<path d="M454.043,331.096h -11.3386" fill="none" stroke="black" stroke-width="2"/>
<path d="M442.705,332.517v -2.84175" fill="none" stroke="black" stroke-width="2"/>
<path d="M454.043,331.096h 11.3386" fill="none" stroke="black" stroke-width="2"/>
<path d="M465.382,332.517v -2.84175" fill="none" stroke="black" stroke-width="2"/>
<path d="M454.043,331.096v -85.5294" fill="none" stroke="black" stroke-width="2"/>
<path d="M452.622,245.567h 2.84175" fill="none" stroke="black" stroke-width="2"/>
<path d="M454.043,331.096v 30.7689" fill="none" stroke="black" stroke-width="2"/>
<path d="M452.622,361.865h 2.84175" fill="none" stroke="black" stroke-width="2"/>
<path d="M476.72,331.096h -11.3386" fill="none" stroke="black" stroke-width="2"/>
<path d="M465.382,332.517v -2.84175" fill="none" stroke="black" stroke-width="2"/>
<path d="M476.72,331.096h 11.3386" fill="none" stroke="black" stroke-width="2"/>
<path d="M488.059,332.517v -2.84175" fill="none" stroke="black" stroke-width="2"/>
<path d="M476.72,331.096v -85.5294" fill="none" stroke="black" stroke-width="2"/>
<path d="M475.3,245.567h 2.84175" fill="none" stroke="black" stroke-width="2"/>
<path d="M476.72,331.096v 30.7689" fill="none" stroke="black" stroke-width="2"/>
<path d="M475.3,361.865h 2.84175" fill="none" stroke="black" stroke-width="2"/>
<path d="M499.398,368.291h -11.3386" fill="none" stroke="black" stroke-width="2"/>
<path d="M488.059,368.291v -1.42088" fill="none" stroke="black" stroke-width="2"/>
<path d="M499.398,368.291h 11.3386" fill="none" stroke="black" stroke-width="2"/>
<path d="M510.736,368.291v -1.42088" fill="none" stroke="black" stroke-width="2"/>
<path d="M499.398,368.291v -42.6944" fill="none" stroke="black" stroke-width="2"/>
<path d="M497.977,325.596h 2.84175" fill="none" stroke="black" stroke-width="2"/>
<g fill="black">
<circle cx="68.5315" cy="219.513" r="2.84175"/>
<circle cx="91.2087" cy="293.902" r="2.84175"/>
<circle cx="113.886" cy="331.096" r="2.84175"/>
<circle cx="136.563" cy="368.291" r="2.84175"/>
<circle cx="159.24" cy="293.902" r="2.84175"/>
<circle cx="181.917" cy="256.708" r="2.84175"/>
<circle cx="204.594" cy="331.096" r="2.84175"/>
<circle cx="227.272" cy="219.513" r="2.84175"/>
<circle cx="249.949" cy="293.902" r="2.84175"/>
<circle cx="272.626" cy="256.708" r="2.84175"/>
<circle cx="295.303" cy="182.319" r="2.84175"/>
<circle cx="317.98" cy="256.708" r="2.84175"/>
<circle cx="340.657" cy="368.291" r="2.84175"/>
<circle cx="363.335" cy="219.513" r="2.84175"/>
<circle cx="386.012" cy="219.513" r="2.84175"/>
<circle cx="408.689" cy="219.513" r="2.84175"/>
<circle cx="431.366" cy="331.096" r="2.84175"/>
<circle cx="454.043" cy="331.096" r="2.84175"/>
<circle cx="476.72" cy="331.096" r="2.84175"/>
<circle cx="499.398" cy="368.291" r="2.84175"/>
</g>
<path d="M57.1929,288.612z" fill="none" stroke="#ff0000" stroke-width="6"/>
<path d="M57.1929,288.612l 22.6772, -1.98172l 22.6772, -1.80778l 22.6772, -1.58979l 22.6772, -1.32387l 22.6772, -1.00714l 22.6772, -0.641353l 22.6772, -0.224986l 22.6772, 0.276286l 22.6772, 0.866037l 22.6772, 1.50418l 22.6772, 2.09231l 22.6772,
 2.42074l 11.3386, 0.431484l 5.66929, -0.69532l 2.83465, -0.791727l 2.83465, -1.16576l 2.83465, -1.67096l 2.83465, -2.45262l 2.83465, -3.3637l 2.83465, -3.97678l 2.83465, -4.65504l 1.41732, -2.8357l 1.41732, -3.38287l 1.41732, -4.11792l 1.41732,
 -4.8494l 2.83465, -10.8774l 5.66929, -22.9351l 2.83465, -11.5455l 1.41732, -5.86231l 0.708661, -2.28381l 0.708661, -1.62638l 1.41732, -2.65601l 0.708661, -1.85226l 0.708661, -2.28054l 1.41732, -4.79963l 0.708661, -1.8068l 0.708661, -1.16753l
 0.708661, -0.547568l 0.708661, -0.0789998l 1.41732, 0.271343l 1.41732, 0.863832l 1.41732, 1.4161l 1.41732, 1.67746l 1.41732, 2.25715l 0.708661, 1.815l 0.708661, 2.49339l 1.41732, 6.16554l 1.41732, 6.38119l 1.41732, 5.7113l 2.83465, 10.0817l 1.41732,
 6.03735l 1.41732, 6.45175l 2.83465, 13.0887l 2.83465, 12.0695l 1.41732, 5.6982l 1.41732, 5.17586l 1.41732, 4.58225l 1.41732, 4.18421l 2.83465, 7.66604l 2.83465, 6.54779l 2.83465, 5.14122l 2.83465, 4.13111l 2.83465, 3.66217l 2.83465, 3.193l 2.83465,
 2.82973l 5.66929, 4.93187l 5.66929, 4.18156l 11.3386, 7.91934l 22.6772, 16.8279l 11.3386, 9.19629l 5.66929, 5.0972l 5.66929, 5.46673" fill="none" stroke="#ff0000" stroke-width="6"/>
<path d="M57.1929,368.254z" fill="none" stroke="#0000ff" stroke-width="6" stroke-dasharray=" 3, 3"/>
<path d="M57.1929,368.254l 22.6772, -0.0214381l 22.6772, -0.0241678l 22.6772, -0.0233744l 22.6772, -0.0205796l 22.6772, -0.0189643l 22.6772, -0.0270019l 22.6772, -0.0506597l 22.6772, -0.0639434l 22.6772, -0.0725397l 22.6772, -0.126824l 22.6772,
 -0.336617l 11.3386, -0.303282l 11.3386, -0.62102l 5.66929, -0.610086l 5.66929, -1.01523l 2.83465, -0.775921l 2.83465, -1.05156l 2.83465, -1.38476l 2.83465, -1.77716l 2.83465, -2.30103l 1.41732, -1.43023l 1.41732, -1.67144l 2.83465, -4.03203l
 2.83465, -4.66471l 1.41732, -2.55135l 1.41732, -2.81155l 1.41732, -3.1972l 1.41732, -3.74947l 1.41732, -4.48966l 1.41732, -5.22633l 2.83465, -11.6469l 2.83465, -12.1133l 2.83465, -12.425l 1.41732, -6.03479l 1.41732, -6.34507l 1.41732, -6.28783l
 0.708661, -2.49867l 0.708661, -1.84265l 1.41732, -3.0928l 0.708661, -2.07279l 0.708661, -2.5025l 1.41732, -5.24787l 0.708661, -2.03309l 0.708661, -1.39529l 0.708661, -0.776779l 0.708661, -0.309677l 1.41732, -0.194435l 1.41732, 0.392117l 1.41732,
 0.938398l 1.41732, 1.19373l 0.708661, 0.74034l 0.708661, 1.027l 0.708661, 1.56781l 0.708661, 2.24466l 0.708661, 2.69684l 0.708661, 2.96659l 1.41732, 5.87286l 0.708661, 2.72333l 0.708661, 2.47336l 1.41732, 4.34357l 0.708661, 2.22259l 0.708661,
 2.46733l 1.41732, 5.50363l 1.41732, 5.91156l 2.83465, 11.9888l 2.83465, 10.943l 1.41732, 5.12489l 1.41732, 4.59578l 1.41732, 3.99533l 1.41732, 3.59041l 1.41732, 3.35001l 1.41732, 3.10756l 1.41732, 2.82268l 1.41732, 2.48845l 1.41732, 2.11446l
 1.41732, 1.76146l 2.83465, 2.83675l 2.83465, 2.33829l 2.83465, 1.83915l 2.83465, 1.44544l 2.83465, 1.18434l 2.83465, 0.88576l 5.66929, 1.19234l 11.3386, 1.54276l 11.3386, 1.48959l 11.3386, 0.875803l 11.3386, 1.03948l 11.3386, 1.7396" fill="none"
 stroke="#0000ff" stroke-width="6" stroke-dasharray=" 3, 3"/>
<path d="M57.1929,288.648z" fill="none" stroke="#00ff00" stroke-width="6" stroke-dasharray=" 3, 3"/>
<path d="M57.1929,288.648l 22.6772, -1.96028l 22.6772, -1.78361l 22.6772, -1.56642l 22.6772, -1.30329l 22.6772, -0.988176l 22.6772, -0.614351l 22.6772, -0.174326l 22.6772, 0.34023l 22.6772, 0.938577l 11.3386, 0.722636l 11.3386, 0.908367l 11.3386,
 1.10765l 11.3386, 1.32128l 11.3386, 1.55009l 11.3386, 1.79495l 11.3386, 2.0568l 11.3386, 2.3366l 11.3386, 2.63537l 11.3386, 2.95421l 11.3386, 3.29424l 11.3386, 3.65666l 11.3386, 4.04272l 11.3386, 4.45376l 11.3386, 4.89116l 11.3386, 5.35639l 11.3386,
 5.85099l 11.3386, 6.37658l 11.3386, 6.93486l 11.3386, 7.52765l 11.3386, 8.15681l 11.3386, 8.82433" fill="none" stroke="#00ff00" stroke-width="6" stroke-dasharray=" 3, 3"/>
<path d="M57.1929,368.291h 453.543" fill="none" stroke="black"/>
<path d="M57.1929,358.47v 9.82109" fill="none" stroke="black"/>
<path d="M66.3066,363.38v 4.91054" fill="none" stroke="black"/>
<path d="M75.4203,363.38v 4.91054" fill="none" stroke="black"/>
<path d="M84.534,363.38v 4.91054" fill="none" stroke="black"/>
<path d="M93.6477,363.38v 4.91054" fill="none" stroke="black"/>
<path d="M102.761,358.47v 9.82109" fill="none" stroke="black"/>
<path d="M111.875,363.38v 4.91054" fill="none" stroke="black"/>
<path d="M120.989,363.38v 4.91054" fill="none" stroke="black"/>
<path d="M130.103,363.38v 4.91054" fill="none" stroke="black"/>
<path d="M139.216,363.38v 4.91054" fill="none" stroke="black"/>
<path d="M148.33,358.47v 9.82109" fill="none" stroke="black"/>
<path d="M157.444,363.38v 4.91054" fill="none" stroke="black"/>
<path d="M166.557,363.38v 4.91054" fill="none" stroke="black"/>
<path d="M175.671,363.38v 4.91054" fill="none" stroke="black"/>
<path d="M184.785,363.38v 4.91054" fill="none" stroke="black"/>
<path d="M193.898,358.47v 9.82109" fill="none" stroke="black"/>
<path d="M203.012,363.38v 4.91054" fill="none" stroke="black"/>
<path d="M212.126,363.38v 4.91054" fill="none" stroke="black"/>
<path d="M221.24,363.38v 4.91054" fill="none" stroke="black"/>
<path d="M230.353,363.38v 4.91054" fill="none" stroke="black"/>
<path d="M239.467,358.47v 9.82109" fill="none" stroke="black"/>
<path d="M248.581,363.38v 4.91054" fill="none" stroke="black"/>
<path d="M257.694,363.38v 4.91054" fill="none" stroke="black"/>
<path d="M266.808,363.38v 4.91054" fill="none" stroke="black"/>
<path d="M275.922,363.38v 4.91054" fill="none" stroke="black"/>
<path d="M285.035,358.47v 9.82109" fill="none" stroke="black"/>
<path d="M294.149,363.38v 4.91054" fill="none" stroke="black"/>
<path d="M303.263,363.38v 4.91054" fill="none" stroke="black"/>
<path d="M312.377,363.38v 4.91054" fill="none" stroke="black"/>
<path d="M321.49,363.38v 4.91054" fill="none" stroke="black"/>
<path d="M330.604,358.47v 9.82109" fill="none" stroke="black"/>
<path d="M339.718,363.38v 4.91054" fill="none" stroke="black"/>
<path d="M348.831,363.38v 4.91054" fill="none" stroke="black"/>
<path d="M357.945,363.38v 4.91054" fill="none" stroke="black"/>
<path d="M367.059,363.38v 4.91054" fill="none" stroke="black"/>
<path d="M376.172,358.47v 9.82109" fill="none" stroke="black"/>
<path d="M385.286,363.38v 4.91054" fill="none" stroke="black"/>
<path d="M394.4,363.38v 4.91054" fill="none" stroke="black"/>
<path d="M403.514,363.38v 4.91054" fill="none" stroke="black"/>
<path d="M412.627,363.38v 4.91054" fill="none" stroke="black"/>
<path d="M421.741,358.47v 9.82109" fill="none" stroke="black"/>
<path d="M430.855,363.38v 4.91054" fill="none" stroke="black"/>
<path d="M439.968,363.38v 4.91054" fill="none" stroke="black"/>
<path d="M449.082,363.38v 4.91054" fill="none" stroke="black"/>
<path d="M458.196,363.38v 4.91054" fill="none" stroke="black"/>
<path d="M467.309,358.47v 9.82109" fill="none" stroke="black"/>
<path d="M467.309,358.47v 9.82109" fill="none" stroke="black"/>
<path d="M476.423,363.38v 4.91054" fill="none" stroke="black"/>
<path d="M485.537,363.38v 4.91054" fill="none" stroke="black"/>
<path d="M494.651,363.38v 4.91054" fill="none" stroke="black"/>
<path d="M503.764,363.38v 4.91054" fill="none" stroke="black"/>
<path d="M57.1929,368.291v -327.37" fill="none" stroke="black"/>
<path d="M70.7992,368.291h -13.6063" fill="none" stroke="black"/>
<path d="M63.9961,360.852h -6.80315" fill="none" stroke="black"/>
<path d="M63.9961,353.413h -6.80315" fill="none" stroke="black"/>
<path d="M63.9961,345.974h -6.80315" fill="none" stroke="black"/>
<path d="M63.9961,338.535h -6.80315" fill="none" stroke="black"/>
<path d="M70.7992,331.096h -13.6063" fill="none" stroke="black"/>
<path d="M63.9961,323.658h -6.80315" fill="none" stroke="black"/>
<path d="M63.9961,316.219h -6.80315" fill="none" stroke="black"/>
<path d="M63.9961,308.78h -6.80315" fill="none" stroke="black"/>
<path d="M63.9961,301.341h -6.80315" fill="none" stroke="black"/>
<path d="M70.7992,293.902h -13.6063" fill="none" stroke="black"/>
<path d="M63.9961,286.463h -6.80315" fill="none" stroke="black"/>
<path d="M63.9961,279.024h -6.80315" fill="none" stroke="black"/>
<path d="M63.9961,271.586h -6.80315" fill="none" stroke="black"/>
<path d="M63.9961,264.147h -6.80315" fill="none" stroke="black"/>
<path d="M70.7992,256.708h -13.6063" fill="none" stroke="black"/>
<path d="M63.9961,249.269h -6.80315" fill="none" stroke="black"/>
<path d="M63.9961,241.83h -6.80315" fill="none" stroke="black"/>
<path d="M63.9961,234.391h -6.80315" fill="none" stroke="black"/>
<path d="M63.9961,226.952h -6.80315" fill="none" stroke="black"/>
<path d="M70.7992,219.513h -13.6063" fill="none" stroke="black"/>
<path d="M63.9961,212.075h -6.80315" fill="none" stroke="black"/>
<path d="M63.9961,204.636h -6.80315" fill="none" stroke="black"/>
<path d="M63.9961,197.197h -6.80315" fill="none" stroke="black"/>
<path d="M63.9961,189.758h -6.80315" fill="none" stroke="black"/>
<path d="M70.7992,182.319h -13.6063" fill="none" stroke="black"/>
<path d="M63.9961,174.88h -6.80315" fill="none" stroke="black"/>
<path d="M63.9961,167.441h -6.80315" fill="none" stroke="black"/>
<path d="M63.9961,160.002h -6.80315" fill="none" stroke="black"/>
<path d="M63.9961,152.564h -6.80315" fill="none" stroke="black"/>
<path d="M70.7992,145.125h -13.6063" fill="none" stroke="black"/>
<path d="M63.9961,137.686h -6.80315" fill="none" stroke="black"/>
<path d="M63.9961,130.247h -6.80315" fill="none" stroke="black"/>
<path d="M63.9961,122.808h -6.80315" fill="none" stroke="black"/>
<path d="M63.9961,115.369h -6.80315" fill="none" stroke="black"/>
<path d="M70.7992,107.93h -13.6063" fill="none" stroke="black"/>
<path d="M63.9961,100.492h -6.80315" fill="none" stroke="black"/>
<path d="M63.9961,93.0527h -6.80315" fill="none" stroke="black"/>
<path d="M63.9961,85.6138h -6.80315" fill="none" stroke="black"/>
<path d="M63.9961,78.1749h -6.80315" fill="none" stroke="black"/>
<path d="M70.7992,70.7361h -13.6063" fill="none" stroke="black"/>
<path d="M70.7992,70.7361h -13.6063" fill="none" stroke="black"/>
<path d="M63.9961,63.2972h -6.80315" fill="none" stroke="black"/>
<path d="M63.9961,55.8583h -6.80315" fill="none" stroke="black"/>
<path d="M63.9961,48.4194h -6.80315" fill="none" stroke="black"/>
<path d="M63.9961,40.9806h -6.80315" fill="none" stroke="black"/>
<rect x="85.5394" y="49.1054" width="130.394" height="53.1976" fill="white"/>
<text xml:space="preserve" x="90.7256" y="83.1212" fill="black" font-size="20.2879" font-family="Helvetica" font-weight="bold">E=4.600 GeV</text></svg>
